<svg xmlns="http://www.w3.org/2000/svg" xmlns:xlink="http://www.w3.org/1999/xlink" width="96" zoomAndPan="magnify" viewBox="0 0 72 72" height="96" preserveAspectRatio="xMidYMid meet" version="1.0"><defs><clipPath id="f0aa5a5817"><path d="M 0 6.546875 L 72 6.546875 L 72 40 L 0 40 Z M 0 6.546875 " clip-rule="nonzero"/></clipPath><clipPath id="2d4a556e4f"><path d="M 0 32 L 72 32 L 72 65.796875 L 0 65.796875 Z M 0 32 " clip-rule="nonzero"/></clipPath></defs><g clip-path="url(#f0aa5a5817)"><path fill="#34616d" d="M 68.722656 39.460938 C 68.078125 39.460938 67.4375 39.398438 66.808594 39.269531 C 66.175781 39.144531 65.5625 38.957031 64.964844 38.707031 C 64.371094 38.460938 63.804688 38.15625 63.269531 37.792969 C 62.734375 37.433594 62.238281 37.023438 61.78125 36.566406 C 61.328125 36.109375 60.921875 35.609375 60.5625 35.070312 C 60.203125 34.53125 59.902344 33.964844 59.65625 33.363281 C 59.40625 32.765625 59.222656 32.148438 59.09375 31.511719 C 58.96875 30.878906 58.90625 30.234375 58.90625 29.585938 L 58.90625 16.421875 C 58.90625 15.984375 58.820312 15.5625 58.65625 15.160156 C 58.488281 14.757812 58.253906 14.402344 57.945312 14.09375 C 57.640625 13.785156 57.285156 13.546875 56.886719 13.378906 C 56.484375 13.210938 56.066406 13.128906 55.632812 13.128906 L 16.367188 13.128906 C 15.933594 13.128906 15.515625 13.210938 15.113281 13.378906 C 14.714844 13.546875 14.359375 13.785156 14.054688 14.09375 C 13.746094 14.402344 13.511719 14.757812 13.34375 15.160156 C 13.179688 15.5625 13.09375 15.984375 13.09375 16.421875 L 13.09375 29.585938 C 13.09375 30.234375 13.03125 30.878906 12.90625 31.511719 C 12.777344 32.148438 12.59375 32.765625 12.34375 33.363281 C 12.097656 33.964844 11.796875 34.53125 11.4375 35.070312 C 11.078125 35.609375 10.671875 36.109375 10.21875 36.566406 C 9.761719 37.023438 9.265625 37.433594 8.730469 37.792969 C 8.195312 38.15625 7.628906 38.460938 7.035156 38.707031 C 6.4375 38.957031 5.824219 39.144531 5.191406 39.269531 C 4.5625 39.398438 3.921875 39.460938 3.277344 39.460938 C 2.84375 39.460938 2.425781 39.378906 2.027344 39.210938 C 1.625 39.042969 1.273438 38.808594 0.964844 38.496094 C 0.65625 38.1875 0.421875 37.832031 0.253906 37.429688 C 0.0898438 37.027344 0.0078125 36.605469 0.0078125 36.171875 C 0.0078125 35.734375 0.0898438 35.3125 0.253906 34.910156 C 0.421875 34.507812 0.65625 34.152344 0.964844 33.84375 C 1.273438 33.535156 1.625 33.296875 2.027344 33.128906 C 2.425781 32.960938 2.84375 32.878906 3.277344 32.878906 C 3.710938 32.878906 4.128906 32.796875 4.53125 32.628906 C 4.933594 32.460938 5.285156 32.222656 5.59375 31.914062 C 5.898438 31.605469 6.136719 31.25 6.300781 30.847656 C 6.46875 30.445312 6.550781 30.023438 6.550781 29.585938 L 6.550781 16.421875 C 6.550781 15.773438 6.613281 15.128906 6.742188 14.496094 C 6.867188 13.859375 7.054688 13.242188 7.300781 12.644531 C 7.546875 12.042969 7.851562 11.476562 8.207031 10.9375 C 8.566406 10.398438 8.972656 9.898438 9.429688 9.441406 C 9.882812 8.980469 10.378906 8.574219 10.914062 8.210938 C 11.453125 7.851562 12.015625 7.546875 12.613281 7.300781 C 13.207031 7.050781 13.820312 6.863281 14.453125 6.738281 C 15.085938 6.609375 15.722656 6.546875 16.367188 6.546875 L 55.632812 6.546875 C 56.277344 6.546875 56.914062 6.609375 57.546875 6.738281 C 58.179688 6.863281 58.792969 7.050781 59.386719 7.300781 C 59.984375 7.546875 60.546875 7.851562 61.085938 8.210938 C 61.621094 8.574219 62.117188 8.980469 62.570312 9.441406 C 63.027344 9.898438 63.433594 10.398438 63.792969 10.9375 C 64.148438 11.476562 64.453125 12.042969 64.699219 12.644531 C 64.945312 13.242188 65.132812 13.859375 65.257812 14.496094 C 65.386719 15.128906 65.449219 15.773438 65.449219 16.421875 L 65.449219 29.585938 C 65.449219 30.023438 65.53125 30.445312 65.699219 30.847656 C 65.863281 31.25 66.101562 31.605469 66.40625 31.914062 C 66.714844 32.222656 67.066406 32.460938 67.46875 32.628906 C 67.871094 32.796875 68.289062 32.878906 68.722656 32.878906 C 69.15625 32.878906 69.574219 32.960938 69.972656 33.128906 C 70.375 33.296875 70.726562 33.535156 71.035156 33.84375 C 71.34375 34.152344 71.578125 34.507812 71.746094 34.910156 C 71.910156 35.3125 71.992188 35.734375 71.992188 36.171875 C 71.992188 36.605469 71.910156 37.027344 71.746094 37.429688 C 71.578125 37.832031 71.34375 38.1875 71.035156 38.496094 C 70.726562 38.808594 70.375 39.042969 69.972656 39.210938 C 69.574219 39.378906 69.15625 39.460938 68.722656 39.460938 Z M 68.722656 39.460938 " fill-opacity="1" fill-rule="nonzero"/></g><g clip-path="url(#2d4a556e4f)"><path fill="#34616d" d="M 55.632812 65.796875 L 16.367188 65.796875 C 15.722656 65.792969 15.085938 65.730469 14.453125 65.605469 C 13.820312 65.476562 13.207031 65.289062 12.613281 65.042969 C 12.015625 64.792969 11.453125 64.488281 10.914062 64.128906 C 10.378906 63.769531 9.882812 63.359375 9.429688 62.898438 C 8.972656 62.441406 8.566406 61.941406 8.207031 61.40625 C 7.851562 60.867188 7.546875 60.296875 7.300781 59.699219 C 7.054688 59.097656 6.867188 58.480469 6.742188 57.847656 C 6.613281 57.210938 6.550781 56.570312 6.550781 55.921875 L 6.550781 42.753906 C 6.550781 42.316406 6.46875 41.898438 6.300781 41.492188 C 6.136719 41.089844 5.898438 40.734375 5.59375 40.425781 C 5.285156 40.117188 4.933594 39.878906 4.53125 39.710938 C 4.128906 39.546875 3.710938 39.460938 3.277344 39.460938 C 2.84375 39.460938 2.425781 39.378906 2.027344 39.210938 C 1.625 39.042969 1.273438 38.808594 0.964844 38.496094 C 0.65625 38.1875 0.421875 37.832031 0.253906 37.429688 C 0.0898438 37.027344 0.0078125 36.605469 0.0078125 36.171875 C 0.0078125 35.734375 0.0898438 35.3125 0.253906 34.910156 C 0.421875 34.507812 0.65625 34.152344 0.964844 33.84375 C 1.273438 33.535156 1.625 33.296875 2.027344 33.128906 C 2.425781 32.960938 2.84375 32.878906 3.277344 32.878906 C 3.921875 32.878906 4.5625 32.941406 5.191406 33.070312 C 5.824219 33.195312 6.4375 33.382812 7.035156 33.632812 C 7.628906 33.882812 8.195312 34.1875 8.730469 34.546875 C 9.265625 34.90625 9.761719 35.316406 10.21875 35.773438 C 10.671875 36.230469 11.078125 36.730469 11.4375 37.269531 C 11.796875 37.808594 12.097656 38.378906 12.34375 38.976562 C 12.59375 39.574219 12.777344 40.191406 12.90625 40.828125 C 13.03125 41.464844 13.09375 42.105469 13.09375 42.753906 L 13.09375 55.921875 C 13.09375 56.355469 13.179688 56.777344 13.34375 57.179688 C 13.511719 57.582031 13.746094 57.9375 14.054688 58.246094 C 14.359375 58.558594 14.714844 58.792969 15.113281 58.960938 C 15.515625 59.128906 15.933594 59.210938 16.367188 59.210938 L 55.632812 59.210938 C 56.066406 59.210938 56.484375 59.128906 56.886719 58.960938 C 57.285156 58.792969 57.640625 58.558594 57.945312 58.246094 C 58.253906 57.9375 58.488281 57.582031 58.65625 57.179688 C 58.820312 56.777344 58.90625 56.355469 58.90625 55.921875 L 58.90625 42.753906 C 58.90625 42.105469 58.96875 41.464844 59.09375 40.828125 C 59.222656 40.191406 59.40625 39.574219 59.65625 38.976562 C 59.902344 38.378906 60.203125 37.808594 60.5625 37.269531 C 60.921875 36.730469 61.328125 36.230469 61.78125 35.773438 C 62.238281 35.316406 62.734375 34.90625 63.269531 34.546875 C 63.804688 34.1875 64.371094 33.882812 64.964844 33.632812 C 65.5625 33.382812 66.175781 33.195312 66.808594 33.070312 C 67.4375 32.941406 68.078125 32.878906 68.722656 32.878906 C 69.15625 32.878906 69.574219 32.960938 69.972656 33.128906 C 70.375 33.296875 70.726562 33.535156 71.035156 33.84375 C 71.34375 34.152344 71.578125 34.507812 71.746094 34.910156 C 71.910156 35.3125 71.992188 35.734375 71.992188 36.171875 C 71.992188 36.605469 71.910156 37.027344 71.746094 37.429688 C 71.578125 37.832031 71.34375 38.1875 71.035156 38.496094 C 70.726562 38.808594 70.375 39.042969 69.972656 39.210938 C 69.574219 39.378906 69.15625 39.460938 68.722656 39.460938 C 68.289062 39.460938 67.871094 39.546875 67.46875 39.710938 C 67.066406 39.878906 66.714844 40.117188 66.40625 40.425781 C 66.101562 40.734375 65.863281 41.089844 65.699219 41.492188 C 65.53125 41.898438 65.449219 42.316406 65.449219 42.753906 L 65.449219 55.921875 C 65.449219 56.570312 65.386719 57.210938 65.257812 57.847656 C 65.132812 58.480469 64.945312 59.097656 64.699219 59.699219 C 64.453125 60.296875 64.148438 60.867188 63.792969 61.40625 C 63.433594 61.941406 63.027344 62.441406 62.570312 62.898438 C 62.117188 63.359375 61.621094 63.769531 61.085938 64.128906 C 60.546875 64.488281 59.984375 64.792969 59.386719 65.042969 C 58.792969 65.289062 58.179688 65.476562 57.546875 65.605469 C 56.914062 65.730469 56.277344 65.792969 55.632812 65.796875 Z M 55.632812 65.796875 " fill-opacity="1" fill-rule="nonzero"/></g><path fill="#34616d" d="M 39.273438 52.628906 L 26.183594 52.628906 C 25.75 52.628906 25.332031 52.546875 24.929688 52.378906 C 24.53125 52.210938 24.175781 51.972656 23.871094 51.664062 C 23.5625 51.355469 23.328125 51 23.160156 50.597656 C 22.996094 50.195312 22.910156 49.773438 22.910156 49.335938 L 22.910156 23.003906 C 22.910156 22.566406 22.996094 22.148438 23.160156 21.742188 C 23.328125 21.339844 23.5625 20.984375 23.871094 20.675781 C 24.175781 20.367188 24.53125 20.128906 24.929688 19.960938 C 25.332031 19.796875 25.75 19.710938 26.183594 19.710938 L 37.636719 19.710938 C 38.535156 19.710938 39.417969 19.835938 40.28125 20.078125 C 41.148438 20.320312 41.964844 20.679688 42.730469 21.148438 C 43.5 21.617188 44.191406 22.183594 44.804688 22.84375 C 45.417969 23.503906 45.929688 24.234375 46.34375 25.035156 C 46.757812 25.839844 47.058594 26.683594 47.242188 27.566406 C 47.425781 28.453125 47.488281 29.34375 47.425781 30.246094 C 47.367188 31.148438 47.1875 32.027344 46.886719 32.878906 C 46.589844 33.730469 46.179688 34.527344 45.664062 35.265625 C 46.425781 35.921875 47.070312 36.679688 47.597656 37.535156 C 48.128906 38.390625 48.519531 39.304688 48.769531 40.28125 C 49.019531 41.257812 49.121094 42.25 49.070312 43.253906 C 49.019531 44.261719 48.820312 45.238281 48.46875 46.183594 C 48.121094 47.128906 47.640625 48 47.027344 48.796875 C 46.414062 49.59375 45.699219 50.28125 44.875 50.855469 C 44.054688 51.433594 43.164062 51.871094 42.207031 52.175781 C 41.253906 52.476562 40.273438 52.628906 39.273438 52.628906 Z M 29.457031 46.046875 L 39.273438 46.046875 C 39.707031 46.046875 40.125 45.960938 40.523438 45.792969 C 40.925781 45.628906 41.277344 45.390625 41.585938 45.082031 C 41.894531 44.773438 42.128906 44.417969 42.296875 44.011719 C 42.460938 43.609375 42.542969 43.191406 42.542969 42.753906 C 42.542969 42.316406 42.460938 41.898438 42.296875 41.492188 C 42.128906 41.089844 41.894531 40.734375 41.585938 40.425781 C 41.277344 40.117188 40.925781 39.878906 40.523438 39.710938 C 40.125 39.546875 39.707031 39.460938 39.273438 39.460938 L 29.457031 39.460938 Z M 29.457031 32.878906 L 37.636719 32.878906 C 38.070312 32.878906 38.488281 32.796875 38.886719 32.628906 C 39.289062 32.460938 39.644531 32.222656 39.949219 31.914062 C 40.257812 31.605469 40.492188 31.25 40.660156 30.847656 C 40.824219 30.445312 40.90625 30.023438 40.90625 29.585938 C 40.90625 29.152344 40.824219 28.730469 40.660156 28.328125 C 40.492188 27.925781 40.257812 27.566406 39.949219 27.257812 C 39.644531 26.949219 39.289062 26.714844 38.886719 26.546875 C 38.488281 26.378906 38.070312 26.296875 37.636719 26.296875 L 29.457031 26.296875 Z M 29.457031 32.878906 " fill-opacity="1" fill-rule="nonzero"/></svg>