<svg xmlns="http://www.w3.org/2000/svg" xmlns:xlink="http://www.w3.org/1999/xlink" width="96" zoomAndPan="magnify" viewBox="0 0 72 72" height="96" preserveAspectRatio="xMidYMid meet" version="1.0"><defs><clipPath id="739443dfec"><path d="M 24 6.210938 L 51 6.210938 L 51 65.460938 L 24 65.460938 Z M 24 6.210938 " clip-rule="nonzero"/></clipPath></defs><path fill="#632d47" d="M 18.167969 53.0625 C 17.613281 53.0625 17.054688 52.851562 16.628906 52.429688 L 0.0898438 35.980469 L 16.628906 19.53125 C 17.480469 18.6875 18.855469 18.6875 19.707031 19.53125 C 20.554688 20.375 20.554688 21.746094 19.707031 22.589844 L 6.242188 35.980469 L 19.707031 49.371094 C 20.554688 50.214844 20.554688 51.582031 19.707031 52.429688 C 19.28125 52.851562 18.726562 53.0625 18.167969 53.0625 " fill-opacity="1" fill-rule="nonzero"/><path fill="#632d47" d="M 53.839844 53.0625 C 53.285156 53.0625 52.726562 52.851562 52.304688 52.429688 C 51.453125 51.582031 51.453125 50.214844 52.304688 49.371094 L 65.765625 35.980469 L 52.304688 22.589844 C 51.453125 21.746094 51.453125 20.375 52.304688 19.53125 C 53.152344 18.6875 54.53125 18.6875 55.378906 19.53125 L 71.917969 35.980469 L 55.378906 52.429688 C 54.953125 52.851562 54.398438 53.0625 53.839844 53.0625 " fill-opacity="1" fill-rule="nonzero"/><g clip-path="url(#739443dfec)"><path fill="#632d47" d="M 26.246094 65.464844 C 25.976562 65.464844 25.703125 65.414062 25.4375 65.308594 C 24.320312 64.863281 23.78125 63.601562 24.230469 62.492188 L 46.3125 7.851562 C 46.761719 6.746094 48.027344 6.207031 49.144531 6.652344 C 50.257812 7.097656 50.796875 8.359375 50.351562 9.46875 L 28.265625 64.109375 C 27.925781 64.953125 27.109375 65.464844 26.246094 65.464844 " fill-opacity="1" fill-rule="nonzero"/></g></svg>