<svg xmlns="http://www.w3.org/2000/svg" xmlns:xlink="http://www.w3.org/1999/xlink" width="96" zoomAndPan="magnify" viewBox="0 0 72 72" height="96" preserveAspectRatio="xMidYMid meet" version="1.0"><defs><clipPath id="6c398a5e95"><path d="M 0.00390625 24.460938 L 71.996094 24.460938 L 71.996094 47.710938 L 0.00390625 47.710938 Z M 0.00390625 24.460938 " clip-rule="nonzero"/></clipPath></defs><g clip-path="url(#6c398a5e95)"><path fill="#34616d" d="M 71.496094 40.363281 C 71.375 40.363281 71.261719 40.441406 71.207031 40.609375 C 70.46875 42.730469 69.46875 43.996094 68.648438 43.996094 C 68.179688 43.996094 67.988281 43.464844 67.988281 42.632812 C 67.988281 40.554688 69.222656 36.148438 69.84375 34.140625 C 69.917969 33.894531 69.964844 33.679688 69.964844 33.492188 C 69.964844 32.910156 69.648438 32.625 68.863281 32.625 C 68.015625 32.625 67.105469 32.957031 66.21875 34.519531 C 65.914062 33.140625 64.988281 32.539062 63.695312 32.539062 C 62.203125 32.539062 60.757812 33.507812 59.570312 35.078125 C 58.382812 36.648438 56.988281 37.164062 55.933594 36.910156 C 56.691406 35.046875 56.972656 33.652344 56.972656 32.621094 C 56.972656 31 56.175781 30.019531 54.890625 30.019531 C 52.9375 30.019531 51.808594 31.898438 51.808594 33.875 C 51.808594 35.402344 52.496094 36.972656 54.007812 37.734375 C 52.742188 40.621094 50.890625 43.234375 50.191406 43.234375 C 49.28125 43.234375 49.015625 38.761719 49.066406 35.5625 C 49.097656 33.726562 49.25 33.632812 49.25 33.078125 C 49.25 32.757812 49.046875 32.539062 48.222656 32.539062 C 46.296875 32.539062 45.703125 34.179688 45.613281 36.0625 C 45.585938 36.777344 45.472656 37.488281 45.285156 38.175781 C 44.480469 41.0625 42.824219 43.253906 41.746094 43.253906 C 41.246094 43.253906 41.109375 42.75 41.109375 42.089844 C 41.109375 40.011719 42.261719 37.414062 42.261719 35.199219 C 42.261719 33.570312 41.554688 32.539062 40.21875 32.539062 C 38.644531 32.539062 36.566406 34.425781 34.597656 37.957031 C 35.242188 35.253906 35.511719 32.632812 33.589844 32.632812 C 33.175781 32.640625 32.765625 32.746094 32.398438 32.945312 C 32.148438 33.066406 31.992188 33.328125 32.011719 33.605469 C 32.195312 36.484375 29.707031 43.863281 27.351562 43.863281 C 26.921875 43.863281 26.710938 43.394531 26.710938 42.640625 C 26.710938 40.558594 27.945312 36.164062 28.5625 34.148438 C 28.640625 33.890625 28.683594 33.664062 28.683594 33.46875 C 28.683594 32.917969 28.347656 32.632812 27.582031 32.632812 C 26.738281 32.632812 25.824219 32.957031 24.941406 34.519531 C 24.632812 33.140625 23.707031 32.539062 22.414062 32.539062 C 20.292969 32.539062 17.925781 34.800781 16.886719 37.746094 C 15.492188 41.675781 12.683594 45.472656 8.90625 45.472656 C 5.472656 45.472656 3.664062 42.597656 3.664062 38.054688 C 3.664062 31.492188 8.445312 26.128906 11.988281 26.128906 C 13.683594 26.128906 14.496094 27.21875 14.496094 28.886719 C 14.496094 30.90625 13.375 31.847656 13.375 32.617188 C 13.375 32.851562 13.570312 33.082031 13.957031 33.082031 C 15.496094 33.082031 17.308594 31.257812 17.308594 28.769531 C 17.308594 26.28125 15.304688 24.460938 11.757812 24.460938 C 5.898438 24.460938 0.00390625 30.402344 0.00390625 38.015625 C 0.00390625 44.074219 2.96875 47.726562 8.097656 47.726562 C 11.597656 47.726562 14.652344 44.984375 16.300781 41.785156 C 16.488281 44.4375 17.683594 45.820312 19.507812 45.820312 C 21.125 45.820312 22.4375 44.851562 23.4375 43.140625 C 23.820312 44.929688 24.84375 45.804688 26.171875 45.804688 C 27.695312 45.804688 28.96875 44.832031 30.183594 43.027344 C 30.164062 44.445312 30.484375 45.777344 31.707031 45.777344 C 32.28125 45.777344 32.96875 45.644531 33.089844 45.136719 C 34.375 39.78125 37.550781 35.414062 38.523438 35.414062 C 38.8125 35.414062 38.890625 35.691406 38.890625 36.023438 C 38.890625 37.476562 37.871094 40.457031 37.871094 42.363281 C 37.871094 44.417969 38.738281 45.777344 40.53125 45.777344 C 42.519531 45.777344 44.539062 43.328125 45.886719 39.742188 C 46.304688 43.089844 47.214844 45.792969 48.640625 45.792969 C 50.390625 45.792969 53.5 42.082031 55.382812 38.15625 C 56.117188 38.25 57.226562 38.222656 58.292969 37.464844 C 57.839844 38.621094 57.574219 39.886719 57.574219 41.152344 C 57.574219 44.800781 59.300781 45.820312 60.789062 45.820312 C 62.402344 45.820312 63.714844 44.851562 64.71875 43.140625 C 65.050781 44.683594 65.894531 45.800781 67.449219 45.800781 C 69.882812 45.800781 71.996094 43.292969 71.996094 41.238281 C 71.996094 40.695312 71.765625 40.363281 71.496094 40.363281 Z M 20.988281 43.800781 C 20.007812 43.800781 19.621094 42.804688 19.621094 41.316406 C 19.621094 38.734375 21.375 34.421875 23.226562 34.421875 C 24.039062 34.421875 24.34375 35.382812 24.34375 36.558594 C 24.34375 39.179688 22.675781 43.800781 20.988281 43.800781 Z M 54.648438 36.09375 C 54.0625 35.390625 53.851562 34.433594 53.851562 33.582031 C 53.851562 32.527344 54.234375 31.640625 54.691406 31.640625 C 55.148438 31.640625 55.289062 32.09375 55.289062 32.726562 C 55.289062 33.78125 54.914062 35.320312 54.648438 36.09375 Z M 62.269531 43.800781 C 61.289062 43.800781 60.902344 42.65625 60.902344 41.316406 C 60.902344 38.824219 62.65625 34.421875 64.523438 34.421875 C 65.335938 34.421875 65.621094 35.375 65.621094 36.558594 C 65.621094 39.179688 63.984375 43.800781 62.269531 43.800781 Z M 62.269531 43.800781 " fill-opacity="1" fill-rule="nonzero"/></g></svg>