<svg xmlns="http://www.w3.org/2000/svg" xmlns:xlink="http://www.w3.org/1999/xlink" width="96" zoomAndPan="magnify" viewBox="0 0 72 72" height="96" preserveAspectRatio="xMidYMid meet" version="1.0"><defs><clipPath id="e92bea2580"><path d="M 3 0 L 68.96875 0 L 68.96875 72 L 3 72 Z M 3 0 " clip-rule="nonzero"/></clipPath><clipPath id="c75824a0a1"><path d="M 34 17 L 68.96875 17 L 68.96875 38 L 34 38 Z M 34 17 " clip-rule="nonzero"/></clipPath><clipPath id="14f95c8a56"><path d="M 54 45 L 68.96875 45 L 68.96875 55 L 54 55 Z M 54 45 " clip-rule="nonzero"/></clipPath></defs><g clip-path="url(#e92bea2580)"><path fill="#34616d" d="M 36.121094 71.867188 C 35.871094 71.867188 35.625 71.804688 35.402344 71.683594 L 4.046875 54.496094 C 3.566406 54.238281 3.269531 53.734375 3.269531 53.1875 L 3.269531 18.8125 C 3.269531 18.265625 3.566406 17.761719 4.046875 17.503906 L 35.402344 0.316406 C 35.851562 0.0703125 36.386719 0.0703125 36.835938 0.316406 L 68.195312 17.503906 C 68.671875 17.761719 68.96875 18.265625 68.96875 18.8125 L 68.96875 53.1875 C 68.96875 53.734375 68.671875 54.238281 68.195312 54.496094 L 36.835938 71.683594 C 36.613281 71.804688 36.367188 71.867188 36.121094 71.867188 Z M 6.253906 52.300781 L 36.121094 68.671875 L 65.984375 52.300781 L 65.984375 19.699219 L 36.121094 3.328125 L 6.253906 19.699219 Z M 67.476562 53.1875 L 67.507812 53.1875 Z M 67.476562 53.1875 " fill-opacity="1" fill-rule="nonzero"/></g><path fill="#34616d" d="M 4.761719 54.683594 C 4.234375 54.683594 3.722656 54.402344 3.453125 53.90625 C 3.054688 53.179688 3.324219 52.273438 4.046875 51.875 L 15.992188 45.328125 C 16.707031 44.933594 17.621094 45.195312 18.019531 45.921875 C 18.414062 46.644531 18.148438 47.554688 17.425781 47.949219 L 5.480469 54.496094 C 5.25 54.621094 5.007812 54.683594 4.761719 54.683594 Z M 4.761719 54.683594 " fill-opacity="1" fill-rule="nonzero"/><g clip-path="url(#c75824a0a1)"><path fill="#34616d" d="M 36.121094 37.496094 C 35.589844 37.496094 35.078125 37.214844 34.8125 36.71875 C 34.414062 35.992188 34.679688 35.085938 35.402344 34.6875 L 66.761719 17.5 C 67.476562 17.101562 68.390625 17.367188 68.789062 18.09375 C 69.183594 18.816406 68.917969 19.722656 68.195312 20.121094 L 36.839844 37.308594 C 36.609375 37.433594 36.363281 37.496094 36.121094 37.496094 Z M 36.121094 37.496094 " fill-opacity="1" fill-rule="nonzero"/></g><path fill="#34616d" d="M 36.121094 59.914062 C 35.863281 59.914062 35.601562 59.847656 35.371094 59.710938 L 15.960938 48.503906 C 15.5 48.238281 15.214844 47.742188 15.214844 47.210938 L 15.214844 24.789062 C 15.214844 24.257812 15.5 23.761719 15.960938 23.496094 L 35.371094 12.289062 C 35.832031 12.019531 36.40625 12.019531 36.867188 12.289062 L 56.277344 23.496094 C 56.738281 23.761719 57.023438 24.257812 57.023438 24.789062 L 57.023438 47.210938 C 57.023438 47.742188 56.738281 48.238281 56.277344 48.503906 L 36.867188 59.710938 C 36.636719 59.847656 36.375 59.914062 36.121094 59.914062 Z M 18.199219 46.34375 L 36.121094 56.695312 L 54.039062 46.34375 L 54.039062 25.65625 L 36.121094 15.304688 L 18.199219 25.65625 Z M 55.53125 47.210938 L 55.5625 47.210938 Z M 55.53125 47.210938 " fill-opacity="1" fill-rule="nonzero"/><path fill="#34616d" d="M 36.121094 37.496094 C 35.875 37.496094 35.628906 37.433594 35.402344 37.308594 L 4.046875 20.121094 C 3.324219 19.726562 3.054688 18.820312 3.453125 18.09375 C 3.847656 17.367188 4.757812 17.105469 5.480469 17.503906 L 36.835938 34.691406 C 37.558594 35.089844 37.824219 35.996094 37.425781 36.71875 C 37.160156 37.214844 36.648438 37.496094 36.121094 37.496094 Z M 36.121094 37.496094 " fill-opacity="1" fill-rule="nonzero"/><g clip-path="url(#14f95c8a56)"><path fill="#34616d" d="M 67.476562 54.683594 C 67.230469 54.683594 66.988281 54.621094 66.761719 54.496094 L 54.8125 47.949219 C 54.089844 47.554688 53.824219 46.644531 54.222656 45.921875 C 54.621094 45.195312 55.535156 44.933594 56.25 45.328125 L 68.195312 51.875 C 68.917969 52.273438 69.183594 53.179688 68.789062 53.90625 C 68.515625 54.402344 68.003906 54.683594 67.476562 54.683594 Z M 67.476562 54.683594 " fill-opacity="1" fill-rule="nonzero"/></g><path fill="#34616d" d="M 36.121094 71.867188 C 35.296875 71.867188 34.625 71.199219 34.625 70.375 L 34.625 36 C 34.625 35.175781 35.296875 34.503906 36.121094 34.503906 C 36.945312 34.503906 37.613281 35.175781 37.613281 36 L 37.613281 70.375 C 37.613281 71.199219 36.945312 71.867188 36.121094 71.867188 Z M 36.121094 71.867188 " fill-opacity="1" fill-rule="nonzero"/><path fill="#34616d" d="M 36.121094 15.078125 C 35.296875 15.078125 34.625 14.40625 34.625 13.582031 L 34.625 1.625 C 34.625 0.800781 35.296875 0.132812 36.121094 0.132812 C 36.945312 0.132812 37.613281 0.800781 37.613281 1.625 L 37.613281 13.582031 C 37.613281 14.40625 36.945312 15.078125 36.121094 15.078125 Z M 36.121094 15.078125 " fill-opacity="1" fill-rule="nonzero"/></svg>