<svg xmlns="http://www.w3.org/2000/svg" xmlns:xlink="http://www.w3.org/1999/xlink" width="96" zoomAndPan="magnify" viewBox="0 0 72 72" height="96" preserveAspectRatio="xMidYMid meet" version="1.0"><defs><clipPath id="87a20ee280"><path d="M 0 12.371094 L 72 12.371094 L 72 59.621094 L 0 59.621094 Z M 0 12.371094 " clip-rule="nonzero"/></clipPath></defs><g clip-path="url(#87a20ee280)"><path fill="#e8c8cb" d="M 67.875 12.488281 L 4.0625 12.488281 C 3.796875 12.488281 3.53125 12.515625 3.265625 12.570312 C 3.003906 12.621094 2.746094 12.699219 2.5 12.800781 C 2.25 12.90625 2.015625 13.03125 1.792969 13.179688 C 1.570312 13.328125 1.363281 13.5 1.171875 13.6875 C 0.984375 13.878906 0.8125 14.085938 0.664062 14.308594 C 0.515625 14.53125 0.390625 14.765625 0.285156 15.015625 C 0.183594 15.261719 0.105469 15.519531 0.0546875 15.78125 C 0 16.046875 -0.0273438 16.3125 -0.0273438 16.578125 L -0.0273438 55.472656 C -0.0273438 55.742188 0 56.007812 0.0546875 56.269531 C 0.105469 56.535156 0.183594 56.789062 0.285156 57.039062 C 0.390625 57.285156 0.515625 57.519531 0.664062 57.742188 C 0.8125 57.96875 0.984375 58.171875 1.171875 58.363281 C 1.363281 58.554688 1.570312 58.722656 1.792969 58.871094 C 2.015625 59.019531 2.25 59.148438 2.5 59.25 C 2.746094 59.351562 3.003906 59.429688 3.265625 59.484375 C 3.53125 59.535156 3.796875 59.5625 4.0625 59.5625 L 67.875 59.5625 C 68.144531 59.5625 68.410156 59.535156 68.671875 59.484375 C 68.9375 59.429688 69.191406 59.351562 69.441406 59.25 C 69.6875 59.148438 69.921875 59.023438 70.148438 58.871094 C 70.371094 58.722656 70.578125 58.554688 70.765625 58.363281 C 70.957031 58.175781 71.125 57.96875 71.273438 57.746094 C 71.425781 57.519531 71.550781 57.285156 71.652344 57.039062 C 71.753906 56.789062 71.832031 56.535156 71.886719 56.269531 C 71.9375 56.007812 71.964844 55.742188 71.964844 55.472656 L 71.964844 16.578125 C 71.964844 16.3125 71.9375 16.046875 71.886719 15.78125 C 71.832031 15.519531 71.753906 15.261719 71.652344 15.015625 C 71.550781 14.765625 71.425781 14.53125 71.273438 14.308594 C 71.125 14.085938 70.957031 13.878906 70.765625 13.6875 C 70.578125 13.5 70.371094 13.328125 70.148438 13.179688 C 69.921875 13.03125 69.6875 12.90625 69.441406 12.800781 C 69.191406 12.699219 68.9375 12.621094 68.671875 12.570312 C 68.410156 12.515625 68.144531 12.488281 67.875 12.488281 Z M 47.285156 36.027344 L 69.75 16 C 69.8125 16.1875 69.84375 16.382812 69.847656 16.578125 L 69.847656 55.472656 C 69.84375 55.671875 69.8125 55.863281 69.75 56.050781 Z M 67.871094 14.609375 C 67.949219 14.613281 68.023438 14.621094 68.097656 14.632812 L 37.273438 42.105469 C 37.09375 42.265625 36.890625 42.390625 36.664062 42.476562 C 36.441406 42.5625 36.207031 42.605469 35.964844 42.605469 C 35.722656 42.605469 35.488281 42.5625 35.261719 42.476562 C 35.039062 42.390625 34.835938 42.265625 34.65625 42.105469 L 3.839844 14.632812 C 3.914062 14.621094 3.988281 14.613281 4.0625 14.609375 Z M 2.191406 56.050781 C 2.128906 55.863281 2.097656 55.671875 2.09375 55.472656 L 2.09375 16.578125 C 2.097656 16.382812 2.128906 16.1875 2.191406 16 L 24.65625 36.027344 Z M 4.0625 57.445312 C 3.988281 57.441406 3.914062 57.433594 3.839844 57.421875 L 26.246094 37.449219 L 33.25 43.6875 C 33.625 44.019531 34.046875 44.277344 34.515625 44.457031 C 34.984375 44.636719 35.46875 44.722656 35.96875 44.722656 C 36.472656 44.722656 36.957031 44.636719 37.425781 44.457031 C 37.894531 44.277344 38.316406 44.019531 38.6875 43.6875 L 45.691406 37.445312 L 68.097656 57.421875 C 68.023438 57.433594 67.949219 57.441406 67.875 57.441406 Z M 4.0625 57.445312 " fill-opacity="1" fill-rule="nonzero"/></g></svg>