<svg xmlns="http://www.w3.org/2000/svg" xmlns:xlink="http://www.w3.org/1999/xlink" width="96" zoomAndPan="magnify" viewBox="0 0 72 72" height="96" preserveAspectRatio="xMidYMid meet" version="1.0"><path fill="#34616d" d="M 39.457031 25.203125 L 39.457031 31.054688 L 46.828125 31.054688 L 45.796875 39.0625 L 39.457031 39.0625 L 39.457031 57.410156 L 31.421875 57.410156 L 31.421875 39.0625 L 24.535156 39.0625 L 24.535156 31.054688 L 31.421875 31.054688 L 31.421875 25.203125 C 31.421875 18.863281 36.546875 14.589844 42.882812 14.589844 C 45.675781 14.589844 47.433594 15.011719 47.433594 15.011719 L 47.433594 21.777344 L 42.882812 21.777344 C 41.003906 21.777344 39.457031 23.324219 39.457031 25.203125 Z M 39.457031 25.203125 " fill-opacity="1" fill-rule="nonzero"/><path fill="#34616d" d="M 36 72 C 16.164062 72 0 55.863281 0 36 C 0 16.136719 16.164062 0 36 0 C 55.863281 0 72 16.164062 72 36 C 72 55.835938 55.863281 72 36 72 Z M 36 1.972656 C 17.226562 1.972656 1.972656 17.226562 1.972656 36 C 1.972656 54.773438 17.226562 70.027344 36 70.027344 C 54.773438 70.027344 70.027344 54.773438 70.027344 36 C 70.027344 17.226562 54.773438 1.972656 36 1.972656 Z M 36 1.972656 " fill-opacity="1" fill-rule="nonzero"/></svg>