<svg xmlns="http://www.w3.org/2000/svg" xmlns:xlink="http://www.w3.org/1999/xlink" width="96" zoomAndPan="magnify" viewBox="0 0 72 72" height="96" preserveAspectRatio="xMidYMid meet" version="1.0"><defs><clipPath id="a35be5236d"><path d="M 11.160156 0 L 60.660156 0 L 60.660156 72 L 11.160156 72 Z M 11.160156 0 " clip-rule="nonzero"/></clipPath></defs><g clip-path="url(#a35be5236d)"><path fill="#34616d" d="M 27.25 0 C 19.746094 0 13.644531 6.125 13.644531 13.65625 C 13.644531 17.769531 15.476562 21.457031 18.355469 23.964844 C 14.082031 26.269531 11.171875 30.800781 11.171875 36 C 11.171875 40.621094 13.476562 44.699219 16.984375 47.171875 C 13.476562 49.644531 11.171875 53.726562 11.171875 58.34375 C 11.171875 65.875 17.273438 72 24.777344 72 C 32.28125 72 38.382812 65.875 38.382812 58.34375 L 38.382812 27.308594 L 47.042969 27.308594 C 54.546875 27.308594 60.648438 21.183594 60.648438 13.65625 C 60.648438 6.125 54.546875 0 47.042969 0 Z M 27.25 4.964844 L 47.042969 4.964844 C 51.816406 4.964844 55.703125 8.863281 55.703125 13.65625 C 55.703125 18.445312 51.816406 22.34375 47.042969 22.34375 L 27.25 22.34375 C 22.476562 22.34375 18.59375 18.445312 18.59375 13.65625 C 18.59375 8.863281 22.476562 4.964844 27.25 4.964844 Z M 24.777344 27.308594 L 33.4375 27.308594 L 33.4375 44.691406 L 24.777344 44.691406 C 20.003906 44.691406 16.117188 40.792969 16.117188 36 C 16.117188 31.207031 20.003906 27.308594 24.777344 27.308594 Z M 48.28125 27.308594 C 47.628906 27.308594 46.988281 27.375 46.347656 27.5 C 45.710938 27.628906 45.09375 27.816406 44.492188 28.066406 C 43.890625 28.316406 43.320312 28.621094 42.78125 28.984375 C 42.242188 29.347656 41.742188 29.757812 41.28125 30.21875 C 40.824219 30.679688 40.414062 31.183594 40.050781 31.722656 C 39.691406 32.265625 39.386719 32.839844 39.136719 33.441406 C 38.886719 34.042969 38.699219 34.664062 38.574219 35.304688 C 38.449219 35.945312 38.382812 36.589844 38.382812 37.242188 C 38.382812 37.894531 38.449219 38.539062 38.574219 39.179688 C 38.699219 39.820312 38.886719 40.4375 39.136719 41.042969 C 39.386719 41.644531 39.691406 42.214844 40.050781 42.757812 C 40.414062 43.300781 40.824219 43.800781 41.28125 44.265625 C 41.742188 44.726562 42.242188 45.136719 42.78125 45.5 C 43.320312 45.859375 43.890625 46.167969 44.492188 46.417969 C 45.09375 46.664062 45.710938 46.855469 46.347656 46.980469 C 46.988281 47.109375 47.628906 47.171875 48.28125 47.171875 C 48.929688 47.171875 49.574219 47.109375 50.210938 46.980469 C 50.847656 46.855469 51.464844 46.664062 52.066406 46.417969 C 52.667969 46.167969 53.238281 45.859375 53.777344 45.5 C 54.316406 45.136719 54.816406 44.726562 55.277344 44.265625 C 55.738281 43.800781 56.148438 43.300781 56.507812 42.757812 C 56.867188 42.214844 57.171875 41.644531 57.421875 41.042969 C 57.671875 40.4375 57.859375 39.820312 57.984375 39.179688 C 58.113281 38.539062 58.175781 37.894531 58.175781 37.242188 C 58.175781 36.589844 58.113281 35.945312 57.984375 35.304688 C 57.859375 34.664062 57.671875 34.042969 57.421875 33.441406 C 57.171875 32.839844 56.867188 32.265625 56.507812 31.722656 C 56.148438 31.183594 55.738281 30.679688 55.277344 30.21875 C 54.816406 29.757812 54.316406 29.347656 53.777344 28.984375 C 53.238281 28.621094 52.667969 28.316406 52.066406 28.066406 C 51.464844 27.816406 50.847656 27.628906 50.210938 27.5 C 49.574219 27.375 48.929688 27.308594 48.28125 27.308594 Z M 24.777344 49.65625 L 33.4375 49.65625 L 33.4375 58.34375 C 33.4375 63.136719 29.550781 67.035156 24.777344 67.035156 C 20.003906 67.035156 16.117188 63.136719 16.117188 58.34375 C 16.117188 53.554688 20.003906 49.65625 24.777344 49.65625 Z M 24.777344 49.65625 " fill-opacity="1" fill-rule="nonzero"/></g></svg>