<svg xmlns="http://www.w3.org/2000/svg" xmlns:xlink="http://www.w3.org/1999/xlink" width="96" zoomAndPan="magnify" viewBox="0 0 72 72" height="96" preserveAspectRatio="xMidYMid meet" version="1.0"><path fill="#34616d" d="M 70.203125 32.8125 L 38.960938 1.574219 C 38.746094 1.359375 38.515625 1.167969 38.261719 1 C 38.011719 0.832031 37.746094 0.691406 37.464844 0.574219 C 37.1875 0.460938 36.898438 0.371094 36.601562 0.3125 C 36.304688 0.253906 36.003906 0.222656 35.703125 0.222656 C 35.398438 0.222656 35.101562 0.253906 34.804688 0.3125 C 34.507812 0.371094 34.21875 0.460938 33.9375 0.574219 C 33.660156 0.691406 33.394531 0.832031 33.144531 1 C 32.890625 1.167969 32.660156 1.359375 32.445312 1.574219 L 25.960938 8.058594 L 34.1875 16.289062 C 34.675781 16.121094 35.171875 16.027344 35.683594 16 C 36.195312 15.976562 36.703125 16.019531 37.203125 16.136719 C 37.699219 16.253906 38.175781 16.4375 38.621094 16.6875 C 39.070312 16.9375 39.472656 17.246094 39.835938 17.609375 C 40.195312 17.972656 40.5 18.378906 40.75 18.828125 C 40.996094 19.277344 41.175781 19.75 41.289062 20.25 C 41.402344 20.75 41.445312 21.257812 41.417969 21.769531 C 41.386719 22.28125 41.289062 22.78125 41.121094 23.261719 L 49.050781 31.195312 C 49.636719 30.992188 50.238281 30.886719 50.863281 30.886719 C 51.484375 30.886719 52.089844 30.988281 52.675781 31.195312 C 53.261719 31.398438 53.796875 31.695312 54.285156 32.082031 C 54.769531 32.472656 55.179688 32.929688 55.507812 33.457031 C 55.835938 33.984375 56.070312 34.550781 56.207031 35.15625 C 56.34375 35.765625 56.375 36.375 56.304688 36.992188 C 56.230469 37.613281 56.058594 38.199219 55.789062 38.757812 C 55.515625 39.316406 55.15625 39.816406 54.714844 40.253906 C 54.269531 40.703125 53.757812 41.066406 53.183594 41.339844 C 52.609375 41.609375 52.007812 41.78125 51.375 41.84375 C 50.746094 41.90625 50.121094 41.863281 49.503906 41.707031 C 48.886719 41.554688 48.316406 41.300781 47.785156 40.949219 C 47.257812 40.597656 46.804688 40.167969 46.425781 39.65625 C 46.046875 39.148438 45.765625 38.589844 45.582031 37.980469 C 45.394531 37.375 45.320312 36.753906 45.351562 36.117188 C 45.382812 35.484375 45.519531 34.875 45.761719 34.289062 L 38.371094 26.890625 L 38.371094 46.355469 C 38.742188 46.542969 39.089844 46.765625 39.410156 47.027344 C 39.734375 47.292969 40.019531 47.589844 40.273438 47.917969 C 40.53125 48.246094 40.742188 48.597656 40.917969 48.976562 C 41.089844 49.355469 41.222656 49.746094 41.304688 50.152344 C 41.390625 50.558594 41.429688 50.972656 41.417969 51.386719 C 41.410156 51.804688 41.355469 52.210938 41.253906 52.613281 C 41.152344 53.019531 41.003906 53.40625 40.816406 53.773438 C 40.625 54.144531 40.398438 54.488281 40.128906 54.804688 C 39.859375 55.125 39.5625 55.40625 39.226562 55.65625 C 38.894531 55.90625 38.539062 56.113281 38.160156 56.285156 C 37.78125 56.453125 37.386719 56.574219 36.976562 56.652344 C 36.570312 56.734375 36.15625 56.765625 35.742188 56.75 C 35.328125 56.734375 34.917969 56.675781 34.515625 56.566406 C 34.117188 56.457031 33.730469 56.308594 33.363281 56.113281 C 32.996094 55.917969 32.65625 55.683594 32.34375 55.410156 C 32.027344 55.136719 31.75 54.832031 31.503906 54.496094 C 31.261719 54.160156 31.058594 53.800781 30.894531 53.417969 C 30.730469 53.039062 30.613281 52.640625 30.539062 52.230469 C 30.46875 51.824219 30.441406 51.410156 30.460938 50.996094 C 30.484375 50.582031 30.550781 50.171875 30.664062 49.773438 C 30.777344 49.375 30.933594 48.992188 31.132812 48.628906 C 31.335938 48.261719 31.574219 47.925781 31.851562 47.617188 C 32.128906 47.304688 32.4375 47.03125 32.777344 46.792969 C 33.117188 46.550781 33.476562 46.355469 33.863281 46.195312 L 33.863281 26.550781 C 33.527344 26.414062 33.210938 26.246094 32.90625 26.042969 C 32.605469 25.84375 32.328125 25.617188 32.070312 25.363281 C 31.816406 25.105469 31.585938 24.828125 31.386719 24.527344 C 31.183594 24.226562 31.015625 23.910156 30.875 23.574219 C 30.738281 23.242188 30.632812 22.894531 30.5625 22.542969 C 30.492188 22.1875 30.457031 21.828125 30.457031 21.464844 C 30.460938 21.105469 30.496094 20.746094 30.566406 20.390625 C 30.636719 20.039062 30.746094 19.691406 30.882812 19.359375 L 22.777344 11.246094 L 1.355469 32.667969 C 1.140625 32.882812 0.949219 33.113281 0.78125 33.367188 C 0.613281 33.617188 0.472656 33.882812 0.355469 34.164062 C 0.238281 34.441406 0.152344 34.730469 0.09375 35.027344 C 0.0351562 35.324219 0.00390625 35.625 0.00390625 35.925781 C 0.00390625 36.230469 0.0351562 36.527344 0.09375 36.824219 C 0.152344 37.121094 0.238281 37.410156 0.355469 37.691406 C 0.472656 37.96875 0.613281 38.234375 0.78125 38.484375 C 0.949219 38.738281 1.140625 38.96875 1.355469 39.183594 L 32.597656 70.425781 C 32.8125 70.640625 33.042969 70.832031 33.292969 71 C 33.546875 71.167969 33.8125 71.308594 34.089844 71.425781 C 34.371094 71.539062 34.660156 71.628906 34.957031 71.6875 C 35.253906 71.746094 35.550781 71.777344 35.855469 71.777344 C 36.15625 71.777344 36.457031 71.746094 36.753906 71.6875 C 37.050781 71.628906 37.339844 71.539062 37.617188 71.425781 C 37.898438 71.308594 38.164062 71.167969 38.414062 71 C 38.664062 70.832031 38.898438 70.640625 39.113281 70.425781 L 70.207031 39.332031 C 70.421875 39.117188 70.609375 38.886719 70.777344 38.632812 C 70.945312 38.382812 71.089844 38.117188 71.203125 37.835938 C 71.320312 37.558594 71.40625 37.269531 71.464844 36.972656 C 71.523438 36.675781 71.554688 36.375 71.554688 36.074219 C 71.554688 35.769531 71.523438 35.472656 71.464844 35.175781 C 71.40625 34.878906 71.320312 34.589844 71.203125 34.3125 C 71.089844 34.03125 70.945312 33.765625 70.777344 33.515625 C 70.609375 33.261719 70.421875 33.03125 70.207031 32.816406 " fill-opacity="1" fill-rule="nonzero"/></svg>