<svg xmlns="http://www.w3.org/2000/svg" xmlns:xlink="http://www.w3.org/1999/xlink" width="96" zoomAndPan="magnify" viewBox="0 0 72 72" height="96" preserveAspectRatio="xMidYMid meet" version="1.0"><path fill="#34616d" d="M 36 0.675781 C 16.109375 0.675781 0 16.785156 0 36.675781 C 0 52.605469 10.304688 66.058594 24.613281 70.828125 C 26.414062 71.144531 27.089844 70.066406 27.089844 69.121094 C 27.089844 68.265625 27.046875 65.429688 27.046875 62.414062 C 18 64.078125 15.660156 60.210938 14.941406 58.183594 C 14.535156 57.148438 12.78125 53.953125 11.25 53.101562 C 9.988281 52.425781 8.191406 50.761719 11.203125 50.714844 C 14.039062 50.671875 16.066406 53.324219 16.738281 54.40625 C 19.980469 59.851562 25.15625 58.320312 27.226562 57.375 C 27.539062 55.035156 28.484375 53.460938 29.519531 52.558594 C 21.511719 51.660156 13.140625 48.554688 13.140625 34.785156 C 13.140625 30.871094 14.535156 27.628906 16.828125 25.109375 C 16.46875 24.210938 15.210938 20.519531 17.191406 15.570312 C 17.191406 15.570312 20.203125 14.625 27.089844 19.261719 C 29.96875 18.449219 33.03125 18.046875 36.089844 18.046875 C 39.148438 18.046875 42.210938 18.449219 45.089844 19.261719 C 51.976562 14.578125 54.988281 15.570312 54.988281 15.570312 C 56.96875 20.519531 55.710938 24.210938 55.351562 25.109375 C 57.644531 27.628906 59.039062 30.824219 59.039062 34.785156 C 59.039062 48.601562 50.625 51.660156 42.613281 52.558594 C 43.921875 53.683594 45.046875 55.84375 45.046875 59.21875 C 45.046875 64.035156 45 67.90625 45 69.121094 C 45 70.066406 45.675781 71.191406 47.476562 70.828125 C 49.25 70.230469 50.96875 69.496094 52.632812 68.628906 C 54.292969 67.761719 55.878906 66.769531 57.386719 65.65625 C 58.890625 64.539062 60.304688 63.316406 61.621094 61.980469 C 62.9375 60.644531 64.140625 59.21875 65.234375 57.695312 C 66.328125 56.171875 67.296875 54.574219 68.140625 52.902344 C 68.984375 51.226562 69.691406 49.5 70.265625 47.714844 C 70.839844 45.929688 71.273438 44.113281 71.5625 42.261719 C 71.855469 40.410156 72 38.550781 72 36.675781 C 72 16.785156 55.890625 0.675781 36 0.675781 Z M 36 0.675781 " fill-opacity="1" fill-rule="nonzero"/></svg>