<svg xmlns="http://www.w3.org/2000/svg" xmlns:xlink="http://www.w3.org/1999/xlink" width="500" zoomAndPan="magnify" viewBox="0 0 375 374.999991" height="500" preserveAspectRatio="xMidYMid meet" version="1.0"><defs><clipPath id="a88ff7f5a7"><path d="M 112.5 113 L 262.5 113 L 262.5 262 L 112.5 262 Z M 112.5 113 " clip-rule="nonzero"/></clipPath></defs><g clip-path="url(#a88ff7f5a7)"><path fill="#34616d" d="M 203.125 261.949219 C 202.417969 261.949219 201.730469 261.710938 201.167969 261.261719 C 200.429688 260.667969 200 259.773438 200 258.824219 L 200 235.574219 C 200 229.957031 199.28125 225.96875 197.730469 223.042969 C 197.273438 222.1875 197.25 221.167969 197.648438 220.289062 C 198.050781 219.40625 198.84375 218.761719 199.789062 218.542969 C 218.3125 214.269531 231.25 200.710938 231.25 185.574219 C 231.25 178.074219 228.167969 170.917969 222.34375 164.875 C 221.445312 163.945312 221.210938 162.5625 221.757812 161.386719 C 224.082031 156.375 223.585938 149.550781 220.832031 145.457031 C 217.1875 146.882812 212.457031 149.863281 209.382812 153.511719 C 208.542969 154.519531 207.164062 154.886719 205.917969 154.429688 C 194.199219 150.132812 180.804688 150.132812 169.085938 154.429688 C 167.855469 154.882812 166.46875 154.519531 165.625 153.519531 C 162.550781 149.867188 157.820312 146.886719 154.167969 145.460938 C 151.414062 149.554688 150.917969 156.382812 153.242188 161.394531 C 153.789062 162.5625 153.554688 163.945312 152.65625 164.875 C 146.832031 170.917969 143.75 178.082031 143.75 185.574219 C 143.75 199.992188 155.394531 212.980469 172.726562 217.886719 C 174.074219 218.273438 175 219.5 175 220.898438 L 175 223.082031 C 175 226.992188 173.429688 229.199219 172.113281 230.367188 C 169.289062 232.851562 165.636719 232.476562 165.238281 232.429688 C 165.21875 232.429688 165.195312 232.429688 165.175781 232.429688 C 160.023438 232.429688 156.148438 229.5625 152.40625 226.789062 C 150.523438 225.394531 148.617188 223.976562 146.398438 222.800781 C 146.882812 223.449219 147.355469 224.117188 147.835938 224.789062 C 152.523438 231.304688 157.832031 238.699219 165.632812 238.699219 L 171.882812 238.699219 C 173.605469 238.699219 175.007812 240.101562 175.007812 241.824219 L 175.007812 258.824219 C 175.007812 259.773438 174.574219 260.667969 173.835938 261.261719 C 173.09375 261.851562 172.132812 262.070312 171.207031 261.875 C 137.1875 254.324219 112.5 223.554688 112.5 188.699219 C 112.5 147.34375 146.144531 113.699219 187.5 113.699219 C 228.855469 113.699219 262.5 147.34375 262.5 188.699219 C 262.5 223.550781 237.8125 254.324219 203.800781 261.875 C 203.574219 261.925781 203.351562 261.949219 203.125 261.949219 Z M 204.738281 223.695312 C 205.761719 226.925781 206.25 230.800781 206.25 235.574219 L 206.25 254.8125 C 235.445312 246.523438 256.25 219.332031 256.25 188.699219 C 256.25 150.792969 225.40625 119.949219 187.5 119.949219 C 149.59375 119.949219 118.75 150.792969 118.75 188.699219 C 118.75 219.332031 139.554688 246.523438 168.75 254.8125 L 168.75 244.949219 L 165.625 244.949219 C 154.625 244.949219 148.042969 235.792969 142.757812 228.429688 C 139.761719 224.261719 136.664062 219.949219 134.375 219.949219 C 132.648438 219.949219 131.25 218.550781 131.25 216.824219 C 131.25 215.101562 132.648438 213.699219 134.375 213.699219 C 145.25 213.699219 151.28125 218.167969 156.125 221.761719 C 159.476562 224.242188 162.113281 226.199219 165.625 226.199219 C 165.976562 226.21875 167.269531 226.3125 167.992188 225.664062 C 168.585938 225.125 168.738281 224.054688 168.75 223.210938 C 149.960938 217.042969 137.5 202.164062 137.5 185.582031 C 137.5 177.054688 140.699219 168.957031 146.773438 162.042969 C 144.09375 154.273438 145.75 144.789062 150.914062 139.617188 C 151.695312 138.832031 152.832031 138.511719 153.917969 138.804688 C 158.09375 139.914062 164.292969 143.15625 168.925781 147.875 C 180.832031 143.992188 194.148438 143.992188 206.054688 147.875 C 210.6875 143.15625 216.886719 139.914062 221.0625 138.804688 C 222.144531 138.511719 223.28125 138.824219 224.070312 139.617188 C 229.238281 144.789062 230.886719 154.273438 228.207031 162.039062 C 234.300781 168.957031 237.5 177.054688 237.5 185.574219 C 237.5 202.625 224.207031 217.886719 204.738281 223.695312 Z M 204.738281 223.695312 " fill-opacity="1" fill-rule="nonzero"/></g></svg>