<svg xmlns="http://www.w3.org/2000/svg" xmlns:xlink="http://www.w3.org/1999/xlink" width="96" zoomAndPan="magnify" viewBox="0 0 72 72" height="96" preserveAspectRatio="xMidYMid meet" version="1.0"><path fill="#34616d" d="M 43.5 71.734375 C 43.160156 71.734375 42.832031 71.621094 42.5625 71.40625 C 42.207031 71.121094 42 70.691406 42 70.234375 L 42 59.074219 C 42 56.378906 41.65625 54.464844 40.910156 53.0625 C 40.691406 52.648438 40.679688 52.160156 40.871094 51.738281 C 41.0625 51.316406 41.445312 51.007812 41.898438 50.902344 C 50.789062 48.847656 57 42.34375 57 35.074219 C 57 31.476562 55.519531 28.039062 52.726562 25.140625 C 52.292969 24.691406 52.183594 24.03125 52.441406 23.464844 C 53.558594 21.058594 53.320312 17.785156 52 15.820312 C 50.25 16.503906 47.980469 17.933594 46.503906 19.6875 C 46.101562 20.167969 45.4375 20.347656 44.839844 20.128906 C 39.214844 18.0625 32.785156 18.0625 27.160156 20.128906 C 26.570312 20.34375 25.90625 20.167969 25.5 19.6875 C 24.023438 17.9375 21.753906 16.507812 20 15.820312 C 18.679688 17.785156 18.441406 21.0625 19.558594 23.46875 C 19.816406 24.03125 19.707031 24.691406 19.273438 25.140625 C 16.480469 28.039062 15 31.480469 15 35.074219 C 15 41.996094 20.589844 48.230469 28.90625 50.585938 C 29.554688 50.773438 30 51.359375 30 52.03125 L 30 53.078125 C 30 54.957031 29.246094 56.015625 28.613281 56.578125 C 27.257812 57.769531 25.507812 57.589844 25.3125 57.566406 C 25.304688 57.566406 25.292969 57.566406 25.285156 57.566406 C 22.8125 57.566406 20.953125 56.191406 19.15625 54.859375 C 18.253906 54.1875 17.335938 53.507812 16.273438 52.945312 C 16.503906 53.257812 16.730469 53.578125 16.960938 53.898438 C 19.210938 57.027344 21.757812 60.574219 25.503906 60.574219 L 28.503906 60.574219 C 29.332031 60.574219 30.003906 61.246094 30.003906 62.074219 L 30.003906 70.234375 C 30.003906 70.691406 29.796875 71.121094 29.441406 71.40625 C 29.085938 71.6875 28.621094 71.792969 28.179688 71.699219 C 11.851562 68.074219 0 53.308594 0 36.574219 C 0 16.726562 16.148438 0.574219 36 0.574219 C 55.851562 0.574219 72 16.726562 72 36.574219 C 72 53.304688 60.148438 68.074219 43.824219 71.699219 C 43.714844 71.722656 43.609375 71.734375 43.5 71.734375 Z M 44.273438 53.371094 C 44.765625 54.925781 45 56.785156 45 59.074219 L 45 68.308594 C 59.011719 64.332031 69 51.277344 69 36.574219 C 69 18.382812 54.195312 3.574219 36 3.574219 C 17.804688 3.574219 3 18.382812 3 36.574219 C 3 51.277344 12.988281 64.332031 27 68.308594 L 27 63.574219 L 25.5 63.574219 C 20.21875 63.574219 17.0625 59.179688 14.523438 55.648438 C 13.085938 53.644531 11.597656 51.574219 10.5 51.574219 C 9.671875 51.574219 9 50.902344 9 50.074219 C 9 49.246094 9.671875 48.574219 10.5 48.574219 C 15.71875 48.574219 18.613281 50.722656 20.941406 52.445312 C 22.546875 53.636719 23.8125 54.574219 25.5 54.574219 C 25.667969 54.585938 26.289062 54.628906 26.636719 54.316406 C 26.921875 54.058594 26.992188 53.546875 27 53.140625 C 17.980469 50.179688 12 43.039062 12 35.078125 C 12 30.988281 13.535156 27.097656 16.453125 23.78125 C 15.164062 20.050781 15.960938 15.496094 18.4375 13.015625 C 18.8125 12.640625 19.359375 12.484375 19.882812 12.628906 C 21.886719 13.15625 24.859375 14.714844 27.085938 16.980469 C 32.800781 15.117188 39.191406 15.117188 44.90625 16.980469 C 47.128906 14.714844 50.105469 13.15625 52.109375 12.628906 C 52.628906 12.484375 53.175781 12.636719 53.554688 13.015625 C 56.035156 15.496094 56.824219 20.050781 55.539062 23.777344 C 58.464844 27.097656 60 30.988281 60 35.074219 C 60 43.261719 53.617188 50.585938 44.273438 53.371094 Z M 44.273438 53.371094 " fill-opacity="1" fill-rule="nonzero"/></svg>