<svg xmlns="http://www.w3.org/2000/svg" xmlns:xlink="http://www.w3.org/1999/xlink" width="96" zoomAndPan="magnify" viewBox="0 0 72 72" height="96" preserveAspectRatio="xMidYMid meet" version="1.0"><path fill="#34616d" d="M 6.332031 15.769531 C 0.140625 24.675781 0.90625 36.261719 5.640625 45.75 C 5.75 45.976562 5.871094 46.199219 5.988281 46.421875 L 6.207031 46.851562 C 6.25 46.933594 6.296875 47.015625 6.34375 47.09375 C 6.425781 47.25 6.507812 47.390625 6.589844 47.539062 L 7.042969 48.3125 L 7.304688 48.738281 L 7.828125 49.558594 L 8.050781 49.902344 C 8.296875 50.269531 8.550781 50.636719 8.8125 50.996094 L 8.960938 51.199219 C 9.183594 51.507812 9.414062 51.816406 9.652344 52.117188 L 9.914062 52.449219 L 10.550781 53.238281 L 10.796875 53.53125 C 11.089844 53.875 11.390625 54.214844 11.6875 54.550781 C 11.71875 54.582031 11.730469 54.59375 11.742188 54.605469 C 12.039062 54.929688 12.339844 55.246094 12.648438 55.558594 L 12.9375 55.855469 L 13.660156 56.5625 L 13.957031 56.847656 C 14.28125 57.152344 14.609375 57.453125 14.945312 57.75 L 16.03125 58.667969 L 16.40625 58.964844 L 17.15625 59.550781 L 17.554688 59.859375 L 18.398438 60.460938 L 18.792969 60.742188 C 19.0625 60.925781 19.335938 61.105469 19.609375 61.28125 L 19.964844 61.515625 C 20.386719 61.785156 20.8125 62.046875 21.246094 62.300781 L 21.601562 62.519531 L 22.5625 63.058594 C 22.738281 63.152344 22.917969 63.242188 23.09375 63.332031 L 23.78125 63.6875 L 23.941406 63.765625 L 24.226562 63.902344 L 25.316406 64.402344 L 25.546875 64.507812 C 25.964844 64.691406 26.390625 64.867188 26.816406 65.035156 L 27.125 65.15625 L 28.324219 65.601562 L 28.476562 65.652344 C 28.917969 65.804688 29.363281 65.953125 29.8125 66.089844 L 30.136719 66.1875 C 30.574219 66.324219 31.046875 66.492188 31.515625 66.578125 C 61.480469 72.042969 70.183594 48.566406 70.183594 48.566406 C 62.875 58.089844 49.898438 60.601562 37.574219 57.804688 C 37.109375 57.699219 36.65625 57.554688 36.203125 57.421875 L 35.863281 57.316406 C 35.417969 57.179688 34.976562 57.039062 34.539062 56.886719 L 34.359375 56.820312 C 33.96875 56.683594 33.582031 56.539062 33.195312 56.390625 L 32.867188 56.257812 C 32.441406 56.09375 32.023438 55.917969 31.609375 55.734375 L 31.355469 55.625 L 30.292969 55.128906 L 29.988281 54.984375 C 29.710938 54.851562 29.441406 54.703125 29.167969 54.542969 L 28.621094 54.261719 C 28.289062 54.085938 27.964844 53.898438 27.636719 53.707031 L 27.304688 53.523438 C 26.871094 53.269531 26.445312 53.007812 26.023438 52.738281 C 25.90625 52.664062 25.792969 52.585938 25.675781 52.507812 L 24.765625 51.902344 C 24.667969 51.835938 24.546875 51.761719 24.472656 51.699219 L 23.609375 51.074219 L 23.226562 50.785156 L 22.453125 50.175781 L 22.105469 49.898438 L 21.136719 49.082031 C 21.101562 49.050781 21.066406 49.023438 21.027344 48.996094 L 20.011719 48.070312 L 19.726562 47.792969 L 19 47.070312 L 18.714844 46.785156 C 18.410156 46.472656 18.113281 46.160156 17.839844 45.835938 C 17.824219 45.820312 17.808594 45.804688 17.796875 45.789062 C 17.488281 45.449219 17.183594 45.101562 16.886719 44.75 L 16.667969 44.46875 L 16.011719 43.65625 L 15.792969 43.359375 L 15.035156 42.351562 C 8.167969 33.046875 5.710938 20.183594 11.167969 9.632812 M 25.570312 8.265625 C 21.089844 14.714844 21.332031 23.367188 24.824219 30.167969 C 25.410156 31.316406 26.074219 32.417969 26.808594 33.476562 C 27.480469 34.441406 28.222656 35.585938 29.113281 36.355469 C 29.4375 36.714844 29.777344 37.058594 30.121094 37.402344 L 30.382812 37.664062 C 30.71875 37.988281 31.0625 38.308594 31.410156 38.617188 C 31.425781 38.628906 31.4375 38.644531 31.453125 38.65625 C 31.851562 39.003906 32.253906 39.3125 32.664062 39.65625 L 32.9375 39.871094 C 33.347656 40.1875 33.765625 40.492188 34.191406 40.785156 L 34.230469 40.8125 C 34.417969 40.945312 34.609375 41.0625 34.804688 41.191406 C 34.894531 41.25 34.980469 41.3125 35.074219 41.371094 C 35.378906 41.566406 35.691406 41.757812 36.003906 41.941406 L 36.136719 42.015625 L 36.957031 42.453125 C 37.054688 42.507812 37.175781 42.554688 37.25 42.605469 L 37.828125 42.90625 C 37.855469 42.917969 37.886719 42.929688 37.914062 42.945312 C 38.308594 43.140625 38.710938 43.328125 39.113281 43.503906 L 39.375 43.613281 C 39.703125 43.75 40.03125 43.882812 40.363281 44.007812 L 40.78125 44.164062 C 41.082031 44.273438 41.382812 44.375 41.6875 44.476562 L 42.09375 44.605469 C 42.527344 44.738281 42.96875 44.914062 43.402344 44.984375 C 66.539062 48.820312 71.882812 30.980469 71.882812 30.980469 C 67.066406 37.917969 57.746094 41.222656 47.792969 38.640625 C 47.351562 38.523438 46.914062 38.398438 46.480469 38.261719 C 46.347656 38.222656 46.21875 38.175781 46.085938 38.132812 L 45.167969 37.820312 L 44.730469 37.664062 C 44.398438 37.539062 44.070312 37.40625 43.746094 37.265625 L 43.476562 37.15625 C 43.070312 36.980469 42.667969 36.792969 42.269531 36.597656 L 41.664062 36.292969 L 41.3125 36.113281 C 41.054688 35.972656 40.800781 35.828125 40.546875 35.679688 L 40.363281 35.578125 C 40.050781 35.394531 39.742188 35.203125 39.4375 35.007812 C 39.339844 34.949219 39.25 34.882812 39.15625 34.824219 L 38.554688 34.425781 C 38.128906 34.128906 37.714844 33.824219 37.304688 33.507812 L 37.023438 33.289062 C 32.644531 29.851562 29.214844 25.148438 27.574219 19.824219 C 25.851562 14.296875 26.222656 8.09375 29.203125 3.058594 M 41.746094 2.660156 C 39.109375 6.566406 38.84375 11.375 40.679688 15.667969 C 42.609375 20.226562 46.574219 23.800781 51.195312 25.515625 L 51.769531 25.734375 L 52.023438 25.816406 L 52.847656 26.035156 C 65.625 28.503906 69.085938 19.476562 70.011719 18.148438 C 66.976562 22.519531 61.875 23.566406 55.617188 22.046875 C 55.121094 21.929688 54.578125 21.75 54.101562 21.582031 C 53.488281 21.363281 52.890625 21.113281 52.304688 20.835938 C 51.1875 20.296875 50.136719 19.65625 49.152344 18.910156 C 43.550781 14.664062 40.070312 6.535156 43.726562 -0.0664062 " fill-opacity="1" fill-rule="nonzero"/></svg>