<svg xmlns="http://www.w3.org/2000/svg" xmlns:xlink="http://www.w3.org/1999/xlink" width="500" zoomAndPan="magnify" viewBox="0 0 375 374.999991" height="500" preserveAspectRatio="xMidYMid meet" version="1.0"><defs><clipPath id="aa19f33f76"><path d="M 112.5 112.5 L 262.5 112.5 L 262.5 262.5 L 112.5 262.5 Z M 112.5 112.5 " clip-rule="nonzero"/></clipPath></defs><path fill="#34616d" d="M 220.609375 196.726562 L 220.609375 219.472656 L 206.519531 219.472656 L 206.519531 196.726562 C 206.519531 193.4375 206.519531 185.476562 199.316406 185.476562 C 191.101562 185.476562 190.660156 193.753906 190.660156 193.753906 L 190.660156 219.535156 L 176.507812 219.535156 L 176.507812 173.976562 L 190.660156 173.976562 L 190.660156 180.234375 C 194.007812 173.410156 200.832031 172.90625 205.316406 172.90625 C 210.4375 172.90625 214.984375 174.863281 217.640625 179.285156 C 219.914062 183.015625 220.609375 188.320312 220.609375 196.726562 Z M 220.609375 196.726562 " fill-opacity="1" fill-rule="nonzero"/><path fill="#34616d" d="M 170.820312 159.636719 C 170.820312 160.175781 170.765625 160.710938 170.660156 161.238281 C 170.554688 161.765625 170.402344 162.28125 170.195312 162.777344 C 169.988281 163.277344 169.734375 163.75 169.433594 164.199219 C 169.136719 164.648438 168.792969 165.0625 168.414062 165.445312 C 168.03125 165.824219 167.617188 166.164062 167.167969 166.464844 C 166.71875 166.765625 166.246094 167.019531 165.75 167.222656 C 165.25 167.429688 164.738281 167.585938 164.207031 167.691406 C 163.679688 167.796875 163.144531 167.847656 162.605469 167.847656 C 162.066406 167.847656 161.53125 167.796875 161.003906 167.691406 C 160.472656 167.585938 159.960938 167.429688 159.460938 167.222656 C 158.964844 167.019531 158.492188 166.765625 158.042969 166.464844 C 157.59375 166.164062 157.179688 165.824219 156.796875 165.445312 C 156.414062 165.0625 156.074219 164.648438 155.777344 164.199219 C 155.476562 163.75 155.222656 163.277344 155.015625 162.777344 C 154.808594 162.28125 154.65625 161.765625 154.550781 161.238281 C 154.445312 160.710938 154.390625 160.175781 154.390625 159.636719 C 154.390625 159.097656 154.445312 158.5625 154.550781 158.03125 C 154.65625 157.503906 154.808594 156.992188 155.015625 156.492188 C 155.222656 155.992188 155.476562 155.519531 155.777344 155.070312 C 156.074219 154.625 156.414062 154.207031 156.796875 153.828125 C 157.179688 153.445312 157.59375 153.105469 158.042969 152.804688 C 158.492188 152.507812 158.964844 152.253906 159.460938 152.046875 C 159.960938 151.839844 160.472656 151.683594 161.003906 151.578125 C 161.53125 151.472656 162.066406 151.421875 162.605469 151.421875 C 163.144531 151.421875 163.679688 151.472656 164.207031 151.578125 C 164.738281 151.683594 165.25 151.839844 165.75 152.046875 C 166.246094 152.253906 166.71875 152.507812 167.167969 152.804688 C 167.617188 153.105469 168.03125 153.445312 168.414062 153.828125 C 168.792969 154.207031 169.136719 154.625 169.433594 155.070312 C 169.734375 155.519531 169.988281 155.992188 170.195312 156.492188 C 170.402344 156.992188 170.554688 157.503906 170.660156 158.03125 C 170.765625 158.5625 170.820312 159.097656 170.820312 159.636719 Z M 170.820312 159.636719 " fill-opacity="1" fill-rule="nonzero"/><path fill="#34616d" d="M 155.59375 173.976562 L 169.683594 173.976562 L 169.683594 219.535156 L 155.59375 219.535156 Z M 155.59375 173.976562 " fill-opacity="1" fill-rule="nonzero"/><g clip-path="url(#aa19f33f76)"><path fill="#34616d" d="M 187.5 262.5 C 146.175781 262.5 112.5 228.886719 112.5 187.5 C 112.5 146.113281 146.175781 112.5 187.5 112.5 C 228.824219 112.5 262.5 146.175781 262.5 187.5 C 262.5 228.824219 228.886719 262.5 187.5 262.5 Z M 187.5 116.605469 C 148.390625 116.605469 116.605469 148.390625 116.605469 187.5 C 116.605469 226.609375 148.390625 258.394531 187.5 258.394531 C 226.609375 258.394531 258.394531 226.609375 258.394531 187.5 C 258.394531 148.390625 226.609375 116.605469 187.5 116.605469 Z M 187.5 116.605469 " fill-opacity="1" fill-rule="nonzero"/></g></svg>