<svg xmlns="http://www.w3.org/2000/svg" xmlns:xlink="http://www.w3.org/1999/xlink" width="96" zoomAndPan="magnify" viewBox="0 0 72 72" height="96" preserveAspectRatio="xMidYMid meet" version="1.0"><path fill="#34616d" d="M 51.890625 40.429688 L 51.890625 51.347656 L 45.128906 51.347656 L 45.128906 40.429688 C 45.128906 38.851562 45.128906 35.03125 41.671875 35.03125 C 37.730469 35.03125 37.515625 39.003906 37.515625 39.003906 L 37.515625 51.375 L 30.722656 51.375 L 30.722656 29.507812 L 37.515625 29.507812 L 37.515625 32.511719 C 39.125 29.238281 42.398438 28.992188 44.550781 28.992188 C 47.007812 28.992188 49.191406 29.933594 50.464844 32.058594 C 51.558594 33.847656 51.890625 36.394531 51.890625 40.429688 Z M 51.890625 40.429688 " fill-opacity="1" fill-rule="nonzero"/><path fill="#34616d" d="M 27.992188 22.625 C 27.992188 23.148438 27.894531 23.652344 27.691406 24.132812 C 27.492188 24.617188 27.207031 25.042969 26.839844 25.414062 C 26.46875 25.78125 26.042969 26.066406 25.558594 26.269531 C 25.078125 26.46875 24.574219 26.566406 24.050781 26.566406 C 23.527344 26.566406 23.023438 26.46875 22.542969 26.269531 C 22.058594 26.066406 21.632812 25.78125 21.261719 25.414062 C 20.894531 25.042969 20.609375 24.617188 20.40625 24.132812 C 20.207031 23.652344 20.109375 23.148438 20.109375 22.625 C 20.109375 22.101562 20.207031 21.597656 20.40625 21.117188 C 20.609375 20.632812 20.894531 20.207031 21.261719 19.835938 C 21.632812 19.46875 22.058594 19.183594 22.542969 18.984375 C 23.023438 18.78125 23.527344 18.683594 24.050781 18.683594 C 24.574219 18.683594 25.078125 18.78125 25.558594 18.984375 C 26.042969 19.183594 26.46875 19.46875 26.839844 19.835938 C 27.207031 20.207031 27.492188 20.632812 27.691406 21.117188 C 27.894531 21.597656 27.992188 22.101562 27.992188 22.625 Z M 27.992188 22.625 " fill-opacity="1" fill-rule="nonzero"/><path fill="#34616d" d="M 20.683594 29.507812 L 27.449219 29.507812 L 27.449219 51.375 L 20.683594 51.375 Z M 20.683594 29.507812 " fill-opacity="1" fill-rule="nonzero"/><path fill="#34616d" d="M 36 72 C 16.164062 72 0 55.863281 0 36 C 0 16.136719 16.164062 0 36 0 C 55.835938 0 72 16.164062 72 36 C 72 55.835938 55.863281 72 36 72 Z M 36 1.972656 C 17.226562 1.972656 1.972656 17.226562 1.972656 36 C 1.972656 54.773438 17.226562 70.027344 36 70.027344 C 54.773438 70.027344 70.027344 54.773438 70.027344 36 C 70.027344 17.226562 54.773438 1.972656 36 1.972656 Z M 36 1.972656 " fill-opacity="1" fill-rule="nonzero"/></svg>