<svg xmlns="http://www.w3.org/2000/svg" xmlns:xlink="http://www.w3.org/1999/xlink" width="500" zoomAndPan="magnify" viewBox="0 0 375 374.999991" height="500" preserveAspectRatio="xMidYMid meet" version="1.0"><defs><g/></defs><g fill="#78979f" fill-opacity="1"><g transform="translate(10.327882, 224.589719)"><g><path d="M 7.78125 10 C 8.855469 10.09375 9.792969 10.023438 10.601562 9.632812 C 16.191406 7.808594 23.324219 0.855469 30.5 -8.261719 C 34.15625 -12.738281 37.699219 -17.6875 41.285156 -23.097656 C 48.277344 -33.628906 54.5 -44.226562 59.171875 -53.105469 C 61.417969 -57.398438 63.132812 -60.964844 64.292969 -63.496094 C 66.425781 -68.261719 68.375 -72.738281 70.496094 -77.351562 C 70.859375 -77.9375 71.066406 -78.539062 71.136719 -79.308594 C 71.234375 -80.382812 70.535156 -81.222656 69.457031 -81.316406 C 69.152344 -81.347656 68.828125 -81.21875 68.496094 -80.941406 C 67.65625 -80.242188 67.125 -79.511719 66.570312 -78.480469 L 63.667969 -72.074219 C 59.570312 -62.679688 55.511719 -53.746094 50.222656 -44.921875 C 43.121094 -33.164062 29.964844 -12.648438 20.707031 -2.789062 C 18.140625 -0.0742188 15.445312 2.320312 12.164062 4.347656 C 10.667969 5.453125 9.535156 5.972656 8.769531 5.902344 C 7.84375 5.820312 7.1875 4.519531 6.652344 1.839844 C 5.851562 -3.039062 5.667969 -7.859375 5.648438 -12.820312 C 5.5 -19.808594 6.121094 -26.726562 7.847656 -33.855469 C 10.839844 -46.449219 13.957031 -58.722656 18.292969 -70.730469 C 18.90625 -72.378906 19.3125 -73.429688 19 -75.160156 C 19.070312 -75.929688 18.316406 -76.152344 17.699219 -76.207031 C 17.394531 -76.234375 17.070312 -76.109375 16.90625 -75.96875 C 16.347656 -74.933594 15.621094 -73.761719 15.019531 -72.265625 C 11.523438 -62.660156 8.808594 -53.140625 6.0625 -43.3125 C 4.183594 -36.199219 2.488281 -29.378906 2.085938 -23.214844 C 1.425781 -14.128906 0.988281 -2.390625 3.75 6.535156 C 4.648438 8.632812 5.933594 9.832031 7.78125 10 Z M 7.78125 10 "/></g></g></g><g fill="#78979f" fill-opacity="1"><g transform="translate(63.050325, 229.330173)"><g><path d="M 7.109375 -4.941406 C 11.257812 -4.566406 15.699219 -7.421875 18.855469 -9.773438 C 26.132812 -14.851562 32.121094 -21.132812 38.125 -27.566406 C 38.625 -27.988281 38.976562 -28.421875 39.199219 -29.175781 C 39.421875 -29.929688 39.324219 -30.558594 38.75 -31.078125 C 38.46875 -31.410156 38.175781 -31.59375 37.714844 -31.632812 C 37.40625 -31.660156 37.085938 -31.535156 36.917969 -31.394531 C 36.09375 -30.851562 35.269531 -30.304688 34.585938 -29.589844 C 33.230469 -28.316406 31.863281 -26.890625 30.664062 -25.605469 C 29.460938 -24.316406 28.09375 -22.890625 26.742188 -21.617188 C 22.832031 -17.785156 18.824219 -14.582031 14.355469 -11.417969 C 12.386719 -10.199219 10.597656 -9.277344 8.25 -9.023438 C 6.558594 -9.175781 5.652344 -9.410156 5.339844 -11.144531 C 5.160156 -12.554688 5.128906 -13.953125 5.394531 -15.167969 C 6.964844 -22.3125 9.960938 -29.789062 13.183594 -36.320312 C 13.40625 -37.074219 13.308594 -37.703125 12.566406 -38.078125 C 12.121094 -38.273438 11.828125 -38.457031 11.519531 -38.484375 C 11.210938 -38.511719 10.738281 -38.398438 10.246094 -38.132812 C 5.890625 -34.496094 3.082031 -22.195312 1.394531 -15.527344 C 1.1875 -13.222656 1.050781 -11.683594 1.511719 -9.9375 C 2.328125 -6.917969 4.1875 -5.203125 7.109375 -4.941406 Z M 14.628906 -43.785156 C 16.320312 -43.632812 17.996094 -45.03125 18.148438 -46.722656 C 18.148438 -48.425781 17.140625 -49.292969 15.296875 -49.457031 C 13.449219 -49.625 12.445312 -48.785156 12.28125 -46.941406 C 12.265625 -45.082031 13.234375 -43.753906 14.628906 -43.785156 Z M 14.628906 -43.785156 "/></g></g></g><g fill="#78979f" fill-opacity="1"><g transform="translate(91.640341, 231.900799)"><g><path d="M -2.183594 12.203125 C 4.582031 12.808594 10.328125 0.617188 11.371094 -5.796875 C 11.855469 -7.769531 13.085938 -9.363281 14.886719 -10.441406 L 28.460938 -18.363281 C 32.570312 -20.9375 36.648438 -23.207031 41.0625 -25.753906 C 42.207031 -26.425781 43.199219 -27.113281 43.726562 -27.839844 C 44.566406 -28.539062 44.480469 -29.320312 43.628906 -30.171875 C 43.347656 -30.507812 43.054688 -30.6875 42.59375 -30.730469 C 42.132812 -30.773438 41.65625 -30.660156 41.167969 -30.394531 C 40.664062 -29.972656 40.175781 -29.707031 39.703125 -29.597656 L 16 -15.917969 C 15.34375 -15.511719 14.53125 -15.121094 13.570312 -14.742188 C 13.175781 -15.554688 12.910156 -16.042969 12.925781 -16.195312 C 12.960938 -21.773438 12.523438 -27.234375 11.945312 -32.867188 C 11.859375 -33.648438 11.789062 -34.585938 11.859375 -35.355469 C 11.925781 -36.121094 12.007812 -37.046875 12.234375 -37.800781 C 13.207031 -43.445312 18.554688 -47.769531 24.242188 -47.257812 C 24.703125 -47.21875 25.011719 -47.191406 25.179688 -47.328125 C 26.296875 -47.695312 26.714844 -48.894531 26.015625 -49.734375 C 24.894531 -51.074219 24.125 -51.144531 22.433594 -51.296875 C 20.742188 -51.449219 19.164062 -51.125 17.542969 -50.339844 C 11.816406 -46.980469 8.148438 -42.351562 7.988281 -35.390625 C 7.960938 -33.378906 7.933594 -31.367188 8.214844 -29.328125 C 8.863281 -24.464844 9.089844 -20.105469 8.816406 -15.324219 C 8.554688 -12.402344 7.925781 -10.601562 5.457031 -8.964844 C 1.542969 -6.835938 -5.296875 0.296875 -6.4375 4.378906 C -7.132812 6.953125 -6.878906 9.300781 -4.574219 11.210938 C -3.84375 11.742188 -2.949219 12.132812 -2.183594 12.203125 Z M -1.488281 7.925781 C -1.949219 7.882812 -2.089844 7.714844 -2.214844 7.394531 C -2.496094 7.058594 -2.605469 6.585938 -2.566406 6.125 C -2.691406 5.800781 -2.664062 5.496094 -2.46875 5.046875 C -0.585938 1.34375 2.316406 -1.652344 6.089844 -3.945312 C 5.492188 0.957031 2.757812 5.515625 -0.371094 7.5625 C -0.703125 7.839844 -1.027344 7.964844 -1.488281 7.925781 Z M -1.488281 7.925781 "/></g></g></g><g fill="#78979f" fill-opacity="1"><g transform="translate(125.149066, 234.913683)"><g><path d="M 7.109375 -4.941406 C 11.257812 -4.566406 15.699219 -7.421875 18.855469 -9.773438 C 26.132812 -14.851562 32.121094 -21.132812 38.125 -27.566406 C 38.625 -27.988281 38.976562 -28.421875 39.199219 -29.175781 C 39.421875 -29.929688 39.324219 -30.558594 38.75 -31.078125 C 38.46875 -31.410156 38.175781 -31.59375 37.714844 -31.632812 C 37.40625 -31.660156 37.085938 -31.535156 36.917969 -31.394531 C 36.09375 -30.851562 35.269531 -30.304688 34.585938 -29.589844 C 33.230469 -28.316406 31.863281 -26.890625 30.664062 -25.605469 C 29.460938 -24.316406 28.09375 -22.890625 26.742188 -21.617188 C 22.832031 -17.785156 18.824219 -14.582031 14.355469 -11.417969 C 12.386719 -10.199219 10.597656 -9.277344 8.25 -9.023438 C 6.558594 -9.175781 5.652344 -9.410156 5.339844 -11.144531 C 5.160156 -12.554688 5.128906 -13.953125 5.394531 -15.167969 C 6.964844 -22.3125 9.960938 -29.789062 13.183594 -36.320312 C 13.40625 -37.074219 13.308594 -37.703125 12.566406 -38.078125 C 12.121094 -38.273438 11.828125 -38.457031 11.519531 -38.484375 C 11.210938 -38.511719 10.738281 -38.398438 10.246094 -38.132812 C 5.890625 -34.496094 3.082031 -22.195312 1.394531 -15.527344 C 1.1875 -13.222656 1.050781 -11.683594 1.511719 -9.9375 C 2.328125 -6.917969 4.1875 -5.203125 7.109375 -4.941406 Z M 14.628906 -43.785156 C 16.320312 -43.632812 17.996094 -45.03125 18.148438 -46.722656 C 18.148438 -48.425781 17.140625 -49.292969 15.296875 -49.457031 C 13.449219 -49.625 12.445312 -48.785156 12.28125 -46.941406 C 12.265625 -45.082031 13.234375 -43.753906 14.628906 -43.785156 Z M 14.628906 -43.785156 "/></g></g></g><g fill="#78979f" fill-opacity="1"><g transform="translate(153.739081, 237.484308)"><g><path d="M 7.148438 -7.105469 C 8.53125 -6.980469 10.109375 -7.304688 11.5625 -7.949219 C 13.6875 -9.152344 15.375 -10.707031 16.660156 -12.914062 C 18.304688 -15.710938 18.875 -18.605469 18.523438 -21.582031 C 18.296875 -24.238281 18.144531 -24.25 21.105469 -24.449219 C 24.363281 -24.464844 27.351562 -24.972656 30.371094 -25.785156 C 33.234375 -26.613281 36.238281 -27.273438 39.253906 -28.085938 C 40.679688 -28.421875 41.070312 -29.316406 40.707031 -30.433594 C 40.316406 -31.246094 39.585938 -31.777344 38.820312 -31.84375 L 36.304688 -31.453125 C 34.878906 -31.113281 33.441406 -30.625 32.015625 -30.289062 C 30.589844 -29.949219 28.996094 -29.472656 27.570312 -29.136719 C 24.566406 -28.476562 21.757812 -28.265625 18.835938 -28.527344 L 14.070312 -28.957031 C 12.980469 -28.898438 11.960938 -27.90625 12.328125 -26.789062 C 12.691406 -25.671875 13.070312 -24.707031 13.589844 -23.574219 C 15.578125 -19.832031 14.515625 -16.671875 12.226562 -13.625 C 10.625 -11.289062 9.058594 -11.117188 6.597656 -11.339844 C 4.640625 -11.980469 3.730469 -13.921875 3.996094 -16.84375 C 4.144531 -18.535156 4.4375 -20.058594 5.011719 -21.246094 C 5.859375 -23.804688 7.171875 -26.320312 8.789062 -28.8125 C 10.714844 -31.273438 12.335938 -33.761719 15.925781 -34.058594 C 17.015625 -34.117188 17.085938 -34.882812 17.027344 -35.972656 C 16.941406 -36.757812 16.539062 -37.414062 15.476562 -37.664062 C 14.707031 -37.734375 14.078125 -37.632812 13.433594 -37.382812 C 7.230469 -35.613281 1.121094 -24.539062 0.09375 -18.277344 C -0.171875 -17.0625 -0.140625 -15.664062 0.0429688 -14.253906 C 0.4375 -10.035156 3.457031 -7.4375 7.148438 -7.105469 Z M 7.148438 -7.105469 "/></g></g></g><g fill="#78979f" fill-opacity="1"><g transform="translate(183.866207, 240.193141)"><g><path d="M -0.628906 -1.605469 C -0.015625 -1.550781 0.460938 -1.664062 0.949219 -1.929688 C 1.941406 -2.613281 2.777344 -3.316406 3.335938 -4.347656 C 3.878906 -5.230469 4.425781 -6.113281 4.96875 -6.992188 C 10.605469 -16.25 17.277344 -24.949219 25.921875 -31.453125 C 26.253906 -31.734375 26.578125 -31.859375 27.039062 -31.820312 C 27.5 -31.777344 27.917969 -31.273438 28.003906 -30.492188 C 28.019531 -28.941406 28.1875 -27.375 28.21875 -25.980469 C 28.234375 -24.429688 28.25 -22.875 28.265625 -21.324219 C 28.25 -19.46875 28.546875 -17.582031 29.445312 -15.484375 C 30.480469 -13.222656 32.074219 -11.992188 34.074219 -11.8125 C 34.226562 -11.800781 34.535156 -11.773438 34.855469 -11.898438 C 35.007812 -11.886719 35.316406 -11.859375 35.46875 -11.84375 C 37.816406 -12.097656 39.914062 -12.992188 41.910156 -14.519531 C 43.738281 -15.90625 53.542969 -23.238281 55.386719 -24.777344 C 56.054688 -25.335938 56.585938 -26.0625 56.964844 -26.804688 C 57.339844 -27.546875 57.253906 -28.328125 56.542969 -29.011719 C 56.261719 -29.347656 55.96875 -29.527344 55.507812 -29.570312 C 55.046875 -29.609375 54.722656 -29.484375 54.390625 -29.207031 C 54.066406 -29.078125 53.71875 -28.644531 53.214844 -28.226562 C 52.714844 -27.804688 51.539062 -26.828125 49.726562 -25.59375 C 48.230469 -24.488281 46.738281 -23.382812 45.394531 -22.265625 C 43.886719 -21.003906 42.546875 -19.886719 41.054688 -18.78125 C 39.238281 -17.550781 37.589844 -16.457031 35.691406 -16.007812 C 35.535156 -16.023438 35.382812 -16.035156 35.382812 -16.035156 C 35.214844 -15.894531 35.0625 -15.910156 34.90625 -15.925781 C 33.984375 -16.007812 33.410156 -16.523438 33.171875 -17.320312 C 32.527344 -18.773438 32.207031 -20.351562 32.21875 -22.210938 C 32.175781 -23.453125 32.132812 -24.699219 32.242188 -25.925781 C 32.199219 -27.171875 32.15625 -28.414062 32.125 -29.8125 C 31.902344 -32.46875 31.769531 -36.199219 28.234375 -36.515625 C 22.238281 -37.054688 8.8125 -20.441406 5.726562 -15.449219 C 5.363281 -16.566406 5.292969 -17.5 5.835938 -18.382812 C 6.226562 -19.277344 6.617188 -20.171875 7.007812 -21.066406 C 8.890625 -24.773438 10.789062 -28.632812 12.683594 -32.488281 C 14.414062 -36.210938 16.3125 -40.066406 18.195312 -43.773438 L 19.28125 -45.535156 C 19.839844 -46.570312 19.769531 -47.507812 18.75 -48.21875 C 18.300781 -48.414062 18.007812 -48.59375 17.855469 -48.609375 C 16.164062 -48.761719 14.40625 -44.734375 13.359375 -43.433594 C 11.628906 -39.714844 9.746094 -36.007812 8.019531 -32.289062 C 6.289062 -28.570312 4.40625 -24.867188 2.675781 -21.148438 C 0.527344 -16.226562 -1.464844 -11.289062 -2.5625 -5.964844 C -2.644531 -5.042969 -2.703125 -4.425781 -2.589844 -3.953125 C -2.558594 -2.554688 -1.859375 -1.71875 -0.628906 -1.605469 Z M -0.628906 -1.605469 "/></g></g></g><g fill="#78979f" fill-opacity="1"><g transform="translate(230.440262, 244.380773)"><g><path d="M 1.957031 -13.152344 C 3.957031 -12.972656 6.761719 -14.890625 8.257812 -15.996094 C 12.417969 -19.1875 16.132812 -22.570312 20.042969 -26.402344 C 20.542969 -26.824219 21.214844 -27.382812 21.730469 -27.957031 C 22.246094 -28.53125 23.058594 -28.921875 24.175781 -29.289062 C 22.726562 -25.234375 21.445312 -21.320312 21.070312 -17.167969 C 20.808594 -14.246094 21.898438 -12.597656 24.511719 -12.363281 C 25.128906 -12.308594 25.589844 -12.265625 25.910156 -12.394531 C 32.464844 -12.890625 44.304688 -22.207031 49.164062 -26.265625 C 49.332031 -26.40625 49.667969 -26.683594 49.835938 -26.824219 C 50.003906 -26.964844 50.015625 -27.117188 50.183594 -27.257812 C 50.589844 -28.308594 50.503906 -29.089844 49.777344 -29.621094 C 49.496094 -29.953125 49.203125 -30.136719 48.742188 -30.179688 C 48.589844 -30.191406 48.421875 -30.050781 47.945312 -29.941406 C 47.457031 -29.671875 46.96875 -29.40625 46.632812 -29.128906 C 46.128906 -28.707031 45.640625 -28.441406 45.140625 -28.023438 C 43.660156 -27.070312 42.332031 -26.105469 41.160156 -25.125 C 39.832031 -24.160156 38.492188 -23.039062 37.011719 -22.089844 C 35.015625 -20.5625 32.90625 -19.511719 30.949219 -18.449219 C 29.496094 -17.804688 28.058594 -17.316406 26.621094 -16.824219 C 26.453125 -16.683594 26.296875 -16.699219 25.992188 -16.726562 C 25.375 -16.78125 25.109375 -17.269531 25.191406 -18.191406 C 25.785156 -24.804688 31.5625 -35.597656 35.007812 -41.175781 C 35.386719 -41.917969 35.746094 -42.503906 36.277344 -43.230469 C 36.640625 -43.820312 37.003906 -44.40625 37.378906 -45.148438 C 37.964844 -46.488281 37.910156 -47.578125 36.886719 -48.292969 C 36.441406 -48.488281 36.148438 -48.667969 35.992188 -48.683594 C 35.53125 -48.722656 34.890625 -48.472656 34.050781 -47.773438 C 33.546875 -47.351562 33.1875 -46.765625 32.835938 -46.332031 C 32.320312 -45.757812 31.957031 -45.171875 31.457031 -44.75 C 30.421875 -43.605469 29.390625 -42.457031 28.511719 -41.296875 C 27.476562 -40.148438 26.445312 -39 25.425781 -38.007812 C 24.742188 -37.296875 24.238281 -36.875 23.929688 -36.902344 C 23.777344 -36.917969 23.34375 -37.265625 22.617188 -37.796875 C 21.1875 -39.164062 19.707031 -39.917969 18.167969 -40.054688 C 16.480469 -40.207031 14.730469 -39.746094 12.917969 -38.511719 C 11.769531 -37.839844 10.949219 -37.296875 10.429688 -36.722656 C 5.402344 -32.523438 -0.484375 -23.910156 -1.09375 -17.144531 C -1.160156 -14.671875 -0.0429688 -13.332031 1.957031 -13.152344 Z M 3.839844 -18.5625 C 3.851562 -18.714844 3.851562 -18.714844 3.699219 -18.730469 L 3.558594 -18.898438 C 5.382812 -25.398438 8.957031 -30.65625 14.09375 -34.378906 C 14.933594 -35.078125 16.875 -35.988281 17.949219 -35.890625 C 18.71875 -35.820312 19.304688 -35.460938 20.035156 -34.929688 C 20.761719 -34.398438 20.84375 -33.617188 20.453125 -32.722656 C 20.257812 -32.273438 19.9375 -32.148438 19.769531 -32.007812 C 15.164062 -27.308594 10.554688 -22.609375 5.265625 -18.898438 C 4.929688 -18.621094 4.453125 -18.507812 3.839844 -18.5625 Z M 3.839844 -18.5625 "/></g></g></g><g fill="#78979f" fill-opacity="1"><g transform="translate(270.251064, 247.960298)"><g><path d="M -0.695312 2.570312 C 0.226562 2.65625 1.035156 2.261719 1.566406 1.535156 C 2.792969 -0.0585938 3.839844 -1.359375 4.761719 -2.980469 C 6.382812 -5.46875 7.832031 -7.820312 9.285156 -10.167969 C 10.582031 -12.53125 12.03125 -14.882812 13.484375 -17.230469 C 15.644531 -20.601562 18.101562 -23.789062 21.285156 -26.449219 C 21.96875 -27.160156 22.652344 -27.875 24.039062 -27.75 C 24.441406 -27.09375 24.695312 -26.449219 24.949219 -25.808594 C 25.199219 -25.164062 25.605469 -24.507812 26.011719 -23.851562 C 27.496094 -21.394531 29.398438 -20.140625 32.011719 -19.902344 C 36.316406 -19.515625 43.226562 -24.007812 46.410156 -26.667969 C 46.914062 -27.085938 47.429688 -27.660156 47.976562 -28.542969 C 48.339844 -29.128906 48.238281 -29.757812 47.679688 -30.429688 C 47.246094 -30.777344 46.953125 -30.957031 46.492188 -31 C 46.183594 -31.027344 46.03125 -31.042969 45.863281 -30.902344 C 45.050781 -30.507812 44.394531 -30.105469 43.726562 -29.542969 C 40.917969 -27.625 35.136719 -23.652344 32.371094 -23.902344 C 30.988281 -24.027344 29.839844 -25.058594 28.929688 -27 C 28.664062 -27.488281 28.410156 -28.132812 28.328125 -28.914062 C 28.074219 -29.554688 27.820312 -30.199219 27.554688 -30.6875 C 26.898438 -31.988281 26.03125 -32.683594 24.800781 -32.796875 C 24.1875 -32.851562 23.558594 -32.753906 22.914062 -32.5 C 17.886719 -30.007812 13.726562 -25.113281 10.839844 -20.566406 L 3.75 -8.960938 L 3.609375 -9.128906 L 3.765625 -9.117188 C 3.148438 -10.875 3.746094 -12.371094 4.359375 -14.019531 C 6.003906 -18.523438 8.125 -23.136719 10.550781 -27.722656 C 12.210938 -30.671875 13.871094 -33.625 15.378906 -36.585938 C 15.949219 -37.777344 16.355469 -38.824219 16.449219 -39.902344 C 16.671875 -40.65625 16.40625 -41.144531 15.511719 -41.535156 L 15.050781 -41.574219 C 14.4375 -41.632812 13.960938 -41.519531 13.625 -41.238281 C 13.109375 -40.664062 12.734375 -39.925781 12.203125 -39.199219 C 5.714844 -27.382812 0.5 -17.621094 -2.730469 -4.121094 C -2.953125 -3.363281 -3.007812 -2.75 -3.0625 -2.136719 C -2.976562 -1.351562 -3.035156 -0.738281 -3.089844 -0.121094 C -3.046875 1.121094 -2.5 1.945312 -1.449219 2.347656 C -1.296875 2.363281 -1.144531 2.375 -1.15625 2.53125 C -1.003906 2.542969 -0.851562 2.558594 -0.695312 2.570312 Z M -0.695312 2.570312 "/></g></g></g><g fill="#78979f" fill-opacity="1"><g transform="translate(307.756255, 251.332518)"><g><path d="M 18.015625 32.304688 C 24.320312 32.871094 29.933594 13.539062 31.382812 7.78125 C 32.3125 4.300781 34.15625 1.054688 36.722656 -1.65625 C 43.453125 -9.265625 50.320312 -16.707031 57.609375 -23.644531 C 58.808594 -24.933594 59.996094 -26.066406 61.042969 -27.367188 C 61.574219 -28.09375 61.476562 -28.722656 60.773438 -29.5625 C 60.496094 -29.894531 60.203125 -30.078125 59.742188 -30.117188 C 59.433594 -30.148438 58.957031 -30.035156 58.46875 -29.769531 C 57.8125 -29.363281 57.144531 -28.800781 56.625 -28.230469 C 53.078125 -24.984375 49.828125 -21.554688 46.589844 -18.28125 C 43.335938 -14.855469 40.082031 -11.429688 36.828125 -8.003906 C 36.382812 -8.195312 36.089844 -8.378906 35.78125 -8.40625 L 37.503906 -17.238281 C 38.3125 -21.042969 39.285156 -24.984375 40.105469 -28.941406 C 40.914062 -32.742188 41.734375 -36.695312 42.542969 -40.5 C 43.238281 -43.070312 42.902344 -44.496094 41.542969 -44.929688 C 41.390625 -44.941406 41.390625 -44.941406 41.25 -45.109375 C 41.097656 -45.125 41.097656 -45.125 40.945312 -45.136719 C 40.175781 -45.207031 39.6875 -44.941406 39.183594 -44.519531 C 38.679688 -44.101562 38.164062 -43.527344 37.660156 -43.109375 C 36.125 -41.539062 34.578125 -39.820312 33.039062 -38.253906 C 31.492188 -36.535156 29.789062 -34.828125 28.253906 -33.261719 C 24.652344 -29.398438 20.9375 -26.015625 16.832031 -23.4375 C 16.019531 -23.046875 15.195312 -22.5 14.386719 -22.109375 C 13.574219 -21.714844 12.753906 -21.171875 11.941406 -20.777344 C 11.300781 -20.527344 10.824219 -20.414062 10.363281 -20.457031 C 9.285156 -20.550781 8.894531 -21.363281 9.171875 -22.730469 C 9.324219 -24.421875 9.464844 -25.960938 10.078125 -27.609375 C 11.582031 -32.28125 12.90625 -36.65625 16.171875 -40.234375 C 17.035156 -41.242188 16.824219 -42.347656 16.097656 -42.875 C 15.496094 -43.085938 15.203125 -43.265625 15.050781 -43.28125 C 14.433594 -43.335938 13.792969 -43.085938 13.289062 -42.664062 C 8.347656 -37.683594 5.769531 -29.703125 5.160156 -22.9375 C 4.832031 -19.25 5.671875 -16.539062 9.824219 -16.164062 C 11.066406 -16.207031 12.324219 -16.40625 13.621094 -17.0625 C 20.789062 -20.914062 26.652344 -25.808594 32.292969 -31.65625 L 35.867188 -35.210938 C 36.203125 -35.488281 36.507812 -35.460938 36.804688 -35.28125 C 37.109375 -35.253906 37.25 -35.085938 37.207031 -34.625 C 37.140625 -33.855469 37.097656 -33.394531 36.917969 -33.101562 L 34.550781 -22.308594 C 33.773438 -18.816406 33.007812 -15.476562 32.242188 -12.132812 C 31.476562 -8.792969 30.863281 -5.4375 30.101562 -2.097656 C 29.429688 0.167969 28.679688 1.648438 27.449219 3.242188 C 22.550781 9.464844 18.125 15.578125 15.003906 22.734375 C 13.886719 24.804688 13.832031 27.125 14.996094 29.710938 C 15.625 31.316406 16.632812 32.179688 18.015625 32.304688 Z M 19.15625 26.519531 C 19.003906 26.503906 18.851562 26.492188 18.710938 26.324219 C 17.984375 25.792969 18.234375 24.730469 18.765625 24.003906 L 21.023438 19.558594 C 21.945312 17.9375 22.851562 16.46875 23.605469 14.984375 C 24.121094 16.117188 24.011719 17.347656 23.425781 18.6875 L 20.527344 25.09375 C 20.34375 25.386719 20.164062 25.679688 19.96875 26.128906 C 19.785156 26.421875 19.617188 26.5625 19.15625 26.519531 Z M 19.15625 26.519531 "/></g></g></g><g fill="#e8c8cb" fill-opacity="1"><g transform="translate(3.830877, 174.815862)"><g><path d="M 10.65625 -88 L 42.140625 -10.78125 L 73.5 -88 L 82.546875 -88 L 45.859375 0 L 38.296875 0 L 1.609375 -88 Z M 10.65625 -88 "/></g></g></g><g fill="#e8c8cb" fill-opacity="1"><g transform="translate(87.962766, 174.815862)"><g><path d="M 9.296875 0 L 9.296875 -64.578125 L 17.71875 -64.578125 L 17.71875 0 Z M 9.296875 -78.078125 L 9.296875 -90.46875 L 17.71875 -90.46875 L 17.71875 -78.078125 Z M 9.296875 -78.078125 "/></g></g></g><g fill="#e8c8cb" fill-opacity="1"><g transform="translate(114.974204, 174.815862)"><g><path d="M 30.734375 1.234375 C 25.691406 1.234375 20.773438 0.410156 15.984375 -1.234375 C 11.191406 -2.890625 7.0625 -5.285156 3.59375 -8.421875 L 7.4375 -14.125 C 11.070312 -11.15625 14.769531 -8.925781 18.53125 -7.4375 C 22.289062 -5.945312 26.316406 -5.203125 30.609375 -5.203125 C 35.816406 -5.203125 39.96875 -6.253906 43.0625 -8.359375 C 46.164062 -10.472656 47.71875 -13.46875 47.71875 -17.34375 C 47.71875 -19.164062 47.300781 -20.675781 46.46875 -21.875 C 45.644531 -23.070312 44.425781 -24.125 42.8125 -25.03125 C 41.207031 -25.945312 39.1875 -26.753906 36.75 -27.453125 C 34.3125 -28.148438 31.476562 -28.875 28.25 -29.625 C 24.539062 -30.53125 21.320312 -31.4375 18.59375 -32.34375 C 15.863281 -33.257812 13.609375 -34.296875 11.828125 -35.453125 C 10.054688 -36.609375 8.734375 -38.03125 7.859375 -39.71875 C 6.992188 -41.414062 6.5625 -43.546875 6.5625 -46.109375 C 6.5625 -49.328125 7.203125 -52.175781 8.484375 -54.65625 C 9.765625 -57.132812 11.5 -59.175781 13.6875 -60.78125 C 15.882812 -62.394531 18.445312 -63.613281 21.375 -64.4375 C 24.3125 -65.269531 27.429688 -65.6875 30.734375 -65.6875 C 35.691406 -65.6875 40.191406 -64.878906 44.234375 -63.265625 C 48.285156 -61.660156 51.550781 -59.535156 54.03125 -56.890625 L 49.953125 -51.9375 C 47.554688 -54.40625 44.640625 -56.257812 41.203125 -57.5 C 37.773438 -58.738281 34.203125 -59.359375 30.484375 -59.359375 C 28.253906 -59.359375 26.1875 -59.128906 24.28125 -58.671875 C 22.382812 -58.222656 20.710938 -57.503906 19.265625 -56.515625 C 17.828125 -55.523438 16.691406 -54.265625 15.859375 -52.734375 C 15.035156 -51.203125 14.625 -49.40625 14.625 -47.34375 C 14.625 -45.601562 14.910156 -44.195312 15.484375 -43.125 C 16.066406 -42.050781 17.019531 -41.125 18.34375 -40.34375 C 19.664062 -39.5625 21.335938 -38.859375 23.359375 -38.234375 C 25.390625 -37.617188 27.847656 -36.976562 30.734375 -36.3125 C 34.867188 -35.320312 38.503906 -34.332031 41.640625 -33.34375 C 44.785156 -32.351562 47.410156 -31.195312 49.515625 -29.875 C 51.617188 -28.550781 53.207031 -26.9375 54.28125 -25.03125 C 55.351562 -23.132812 55.890625 -20.820312 55.890625 -18.09375 C 55.890625 -12.144531 53.617188 -7.4375 49.078125 -3.96875 C 44.535156 -0.5 38.421875 1.234375 30.734375 1.234375 Z M 30.734375 1.234375 "/></g></g></g><g fill="#e8c8cb" fill-opacity="1"><g transform="translate(175.316224, 174.815862)"><g><path d="M 29.5 1.234375 C 22.476562 1.234375 17.25 -1.097656 13.8125 -5.765625 C 10.382812 -10.429688 8.671875 -17.390625 8.671875 -26.640625 L 8.671875 -64.578125 L 17.109375 -64.578125 L 17.109375 -28.140625 C 17.109375 -13.515625 22.101562 -6.203125 32.09375 -6.203125 C 34.570312 -6.203125 37.007812 -6.613281 39.40625 -7.4375 C 41.800781 -8.257812 44.007812 -9.457031 46.03125 -11.03125 C 48.0625 -12.601562 49.878906 -14.460938 51.484375 -16.609375 C 53.097656 -18.753906 54.40625 -21.191406 55.40625 -23.921875 L 55.40625 -64.578125 L 63.828125 -64.578125 L 63.828125 -10.90625 C 63.828125 -8.59375 64.816406 -7.4375 66.796875 -7.4375 L 66.796875 0 C 65.804688 0.164062 65 0.25 64.375 0.25 C 63.757812 0.25 63.328125 0.25 63.078125 0.25 C 61.097656 0.164062 59.488281 -0.535156 58.25 -1.859375 C 57.007812 -3.179688 56.390625 -4.957031 56.390625 -7.1875 L 56.390625 -14.625 C 53.578125 -9.582031 49.753906 -5.675781 44.921875 -2.90625 C 40.085938 -0.144531 34.945312 1.234375 29.5 1.234375 Z M 29.5 1.234375 "/></g></g></g><g fill="#e8c8cb" fill-opacity="1"><g transform="translate(248.916149, 174.815862)"><g><path d="M 25.53125 1.234375 C 22.476562 1.234375 19.648438 0.71875 17.046875 -0.3125 C 14.441406 -1.34375 12.164062 -2.765625 10.21875 -4.578125 C 8.28125 -6.398438 6.773438 -8.53125 5.703125 -10.96875 C 4.628906 -13.40625 4.09375 -16.03125 4.09375 -18.84375 C 4.09375 -21.644531 4.753906 -24.242188 6.078125 -26.640625 C 7.398438 -29.035156 9.257812 -31.101562 11.65625 -32.84375 C 14.050781 -34.582031 16.898438 -35.925781 20.203125 -36.875 C 23.503906 -37.820312 27.140625 -38.296875 31.109375 -38.296875 C 34.410156 -38.296875 37.753906 -38.003906 41.140625 -37.421875 C 44.535156 -36.847656 47.550781 -36.023438 50.1875 -34.953125 L 50.1875 -40.78125 C 50.1875 -46.476562 48.578125 -51 45.359375 -54.34375 C 42.140625 -57.6875 37.675781 -59.359375 31.96875 -59.359375 C 28.664062 -59.359375 25.28125 -58.695312 21.8125 -57.375 C 18.34375 -56.0625 14.832031 -54.164062 11.28125 -51.6875 L 8.296875 -57.265625 C 16.648438 -62.878906 24.75 -65.6875 32.59375 -65.6875 C 40.6875 -65.6875 47.046875 -63.410156 51.671875 -58.859375 C 56.304688 -54.316406 58.625 -48.039062 58.625 -40.03125 L 58.625 -10.90625 C 58.625 -8.59375 59.65625 -7.4375 61.71875 -7.4375 L 61.71875 0 C 60.3125 0.25 59.238281 0.375 58.5 0.375 C 56.351562 0.375 54.679688 -0.160156 53.484375 -1.234375 C 52.285156 -2.304688 51.644531 -3.796875 51.5625 -5.703125 L 51.3125 -10.78125 C 48.332031 -6.894531 44.59375 -3.921875 40.09375 -1.859375 C 35.59375 0.203125 30.738281 1.234375 25.53125 1.234375 Z M 27.515625 -5.203125 C 31.890625 -5.203125 35.914062 -6.023438 39.59375 -7.671875 C 43.269531 -9.328125 46.0625 -11.519531 47.96875 -14.25 C 48.707031 -15 49.257812 -15.804688 49.625 -16.671875 C 50 -17.535156 50.1875 -18.34375 50.1875 -19.09375 L 50.1875 -29.625 C 47.382812 -30.695312 44.472656 -31.519531 41.453125 -32.09375 C 38.441406 -32.675781 35.363281 -32.96875 32.21875 -32.96875 C 26.269531 -32.96875 21.4375 -31.726562 17.71875 -29.25 C 14 -26.769531 12.140625 -23.503906 12.140625 -19.453125 C 12.140625 -17.472656 12.53125 -15.613281 13.3125 -13.875 C 14.101562 -12.144531 15.179688 -10.640625 16.546875 -9.359375 C 17.910156 -8.078125 19.539062 -7.0625 21.4375 -6.3125 C 23.34375 -5.570312 25.367188 -5.203125 27.515625 -5.203125 Z M 27.515625 -5.203125 "/></g></g></g><g fill="#e8c8cb" fill-opacity="1"><g transform="translate(316.444687, 174.815862)"><g><path d="M 9.671875 -90.46875 L 18.09375 -90.46875 L 18.09375 -14.625 C 18.09375 -12.226562 18.753906 -10.347656 20.078125 -8.984375 C 21.398438 -7.617188 23.257812 -6.9375 25.65625 -6.9375 C 26.5625 -6.9375 27.632812 -7.0625 28.875 -7.3125 C 30.113281 -7.5625 31.269531 -7.890625 32.34375 -8.296875 L 33.828125 -1.484375 C 32.265625 -0.828125 30.34375 -0.289062 28.0625 0.125 C 25.789062 0.539062 23.832031 0.75 22.1875 0.75 C 18.300781 0.75 15.242188 -0.34375 13.015625 -2.53125 C 10.785156 -4.726562 9.671875 -7.8125 9.671875 -11.78125 Z M 9.671875 -90.46875 "/></g></g></g></svg>