<svg xmlns="http://www.w3.org/2000/svg" xmlns:xlink="http://www.w3.org/1999/xlink" width="96" zoomAndPan="magnify" viewBox="0 0 72 72" height="96" preserveAspectRatio="xMidYMid meet" version="1.0"><defs><clipPath id="1abec4b382"><path d="M 0 4.726562 L 10 4.726562 L 10 43 L 0 43 Z M 0 4.726562 " clip-rule="nonzero"/></clipPath><clipPath id="cea181e3dd"><path d="M 43 4.726562 L 54 4.726562 L 54 43 L 43 43 Z M 43 4.726562 " clip-rule="nonzero"/></clipPath><clipPath id="d964cb3b4b"><path d="M 0 4.726562 L 27 4.726562 L 27 33 L 0 33 Z M 0 4.726562 " clip-rule="nonzero"/></clipPath><clipPath id="cdf867fc38"><path d="M 26 4.726562 L 54 4.726562 L 54 33 L 26 33 Z M 26 4.726562 " clip-rule="nonzero"/></clipPath><clipPath id="a3e6afca09"><path d="M 45 38 L 72 38 L 72 66.976562 L 45 66.976562 Z M 45 38 " clip-rule="nonzero"/></clipPath><clipPath id="f8a7f0a39f"><path d="M 26 43 L 46 43 L 46 66.976562 L 26 66.976562 Z M 26 43 " clip-rule="nonzero"/></clipPath></defs><g clip-path="url(#1abec4b382)"><path fill="#34616d" d="M 0.0390625 4.726562 L 9.417969 10.949219 L 9.417969 42.074219 L 0.0390625 35.851562 Z M 0.0390625 4.726562 " fill-opacity="1" fill-rule="nonzero"/></g><path fill="#34616d" d="M 71.960938 28.070312 L 62.582031 34.292969 L 62.582031 54.523438 L 71.960938 48.300781 Z M 71.960938 28.070312 " fill-opacity="1" fill-rule="nonzero"/><path fill="#34616d" d="M 71.960938 6.28125 L 62.582031 12.507812 L 62.582031 23.398438 L 71.960938 17.175781 Z M 71.960938 6.28125 " fill-opacity="1" fill-rule="nonzero"/><g clip-path="url(#cea181e3dd)"><path fill="#34616d" d="M 53.199219 4.726562 L 43.816406 10.949219 L 43.816406 42.074219 L 53.199219 35.851562 Z M 53.199219 4.726562 " fill-opacity="1" fill-rule="nonzero"/></g><g clip-path="url(#d964cb3b4b)"><path fill="#34616d" d="M 0.0390625 15.617188 L 26.617188 32.738281 L 26.617188 21.84375 L 0.0390625 4.726562 Z M 0.0390625 15.617188 " fill-opacity="1" fill-rule="nonzero"/></g><g clip-path="url(#cdf867fc38)"><path fill="#34616d" d="M 53.199219 15.617188 L 26.617188 32.738281 L 26.617188 21.84375 L 53.199219 4.726562 Z M 53.199219 15.617188 " fill-opacity="1" fill-rule="nonzero"/></g><path fill="#34616d" d="M 53.199219 37.40625 L 26.617188 54.523438 L 26.617188 43.632812 L 53.199219 26.511719 Z M 53.199219 37.40625 " fill-opacity="1" fill-rule="nonzero"/><g clip-path="url(#a3e6afca09)"><path fill="#34616d" d="M 71.960938 49.855469 L 45.382812 66.976562 L 45.382812 56.082031 L 71.960938 38.960938 Z M 71.960938 49.855469 " fill-opacity="1" fill-rule="nonzero"/></g><g clip-path="url(#f8a7f0a39f)"><path fill="#34616d" d="M 45.382812 55.714844 L 26.617188 43.632812 L 26.617188 54.523438 L 45.382812 66.609375 Z M 45.382812 55.714844 " fill-opacity="1" fill-rule="nonzero"/></g></svg>