<svg xmlns="http://www.w3.org/2000/svg" xmlns:xlink="http://www.w3.org/1999/xlink" width="96" zoomAndPan="magnify" viewBox="0 0 72 72" height="96" preserveAspectRatio="xMidYMid meet" version="1.0"><defs><clipPath id="8dfebf1a3c"><path d="M 60 33 L 72 33 L 72 46.65625 L 60 46.65625 Z M 60 33 " clip-rule="nonzero"/></clipPath><clipPath id="8fa4fe0478"><path d="M 0 25.65625 L 57 25.65625 L 57 46.65625 L 0 46.65625 Z M 0 25.65625 " clip-rule="nonzero"/></clipPath><clipPath id="706f15ac62"><path d="M 15 33 L 53 33 L 53 46.65625 L 15 46.65625 Z M 15 33 " clip-rule="nonzero"/></clipPath></defs><g clip-path="url(#8dfebf1a3c)"><path fill="#34616d" d="M 66.238281 33.128906 C 66.0625 33.128906 65.894531 33.164062 65.742188 33.25 L 60.96875 36.050781 C 60.660156 36.230469 60.472656 36.574219 60.472656 36.933594 L 60.472656 42.523438 C 60.472656 42.886719 60.660156 43.226562 60.96875 43.40625 L 62.214844 44.136719 C 62.820312 44.441406 63.042969 44.4375 63.320312 44.4375 C 64.214844 44.4375 64.726562 43.882812 64.726562 42.921875 L 64.726562 37.410156 C 64.726562 37.332031 64.660156 37.277344 64.585938 37.277344 L 63.988281 37.277344 C 63.910156 37.277344 63.847656 37.332031 63.847656 37.410156 L 63.847656 42.925781 C 63.847656 43.351562 63.410156 43.777344 62.703125 43.417969 L 61.40625 42.648438 C 61.359375 42.621094 61.324219 42.574219 61.324219 42.523438 L 61.324219 36.9375 C 61.324219 36.882812 61.359375 36.828125 61.40625 36.800781 L 66.167969 34.015625 C 66.214844 33.988281 66.265625 33.988281 66.3125 34.015625 L 71.074219 36.800781 C 71.121094 36.832031 71.15625 36.882812 71.15625 36.9375 L 71.15625 42.523438 C 71.15625 42.578125 71.128906 42.632812 71.085938 42.65625 L 66.3125 45.445312 C 66.269531 45.472656 66.210938 45.472656 66.167969 45.445312 L 64.941406 44.707031 C 64.90625 44.683594 64.855469 44.6875 64.820312 44.707031 C 64.484375 44.902344 64.417969 44.921875 64.101562 45.035156 C 64.023438 45.0625 63.90625 45.105469 64.140625 45.242188 L 65.742188 46.199219 C 65.894531 46.289062 66.066406 46.332031 66.242188 46.332031 C 66.417969 46.332031 66.585938 46.289062 66.738281 46.199219 L 71.511719 43.410156 C 71.820312 43.226562 72.007812 42.886719 72.007812 42.527344 L 72.007812 36.9375 C 72.007812 36.574219 71.820312 36.234375 71.511719 36.054688 L 66.738281 33.253906 C 66.585938 33.167969 66.414062 33.128906 66.242188 33.128906 Z M 67.515625 37.121094 C 66.15625 37.121094 65.347656 37.707031 65.347656 38.683594 C 65.347656 39.742188 66.148438 40.035156 67.453125 40.167969 C 69.015625 40.320312 69.136719 40.554688 69.136719 40.867188 C 69.136719 41.40625 68.710938 41.636719 67.707031 41.636719 C 66.445312 41.636719 66.167969 41.316406 66.078125 40.679688 C 66.066406 40.613281 66.015625 40.554688 65.945312 40.554688 L 65.324219 40.554688 C 65.234375 40.558594 65.183594 40.605469 65.183594 40.699219 C 65.183594 41.515625 65.621094 42.480469 67.707031 42.480469 C 69.21875 42.480469 70.089844 41.878906 70.089844 40.824219 C 70.089844 39.78125 69.386719 39.496094 67.917969 39.300781 C 66.441406 39.101562 66.296875 39.003906 66.296875 38.652344 C 66.296875 38.363281 66.417969 37.972656 67.515625 37.972656 C 68.492188 37.972656 68.855469 38.1875 69.003906 38.859375 C 69.015625 38.921875 69.070312 38.972656 69.136719 38.972656 L 69.757812 38.972656 C 69.792969 38.972656 69.832031 38.949219 69.855469 38.921875 C 69.882812 38.890625 69.902344 38.859375 69.898438 38.816406 C 69.800781 37.664062 69.042969 37.121094 67.515625 37.121094 Z M 67.515625 37.121094 " fill-opacity="1" fill-rule="nonzero"/></g><g clip-path="url(#8fa4fe0478)"><path fill="#34616d" d="M 38.175781 25.804688 C 38.121094 25.804688 38.070312 25.816406 38.023438 25.84375 C 37.921875 25.902344 37.871094 25.992188 37.871094 26.113281 L 37.871094 33.984375 C 37.871094 34.0625 37.835938 34.128906 37.769531 34.167969 C 37.699219 34.210938 37.625 34.210938 37.554688 34.167969 L 36.289062 33.429688 C 36.085938 33.308594 35.882812 33.308594 35.679688 33.429688 L 30.625 36.390625 C 30.433594 36.503906 30.320312 36.714844 30.320312 36.9375 L 30.320312 42.863281 C 30.320312 43.101562 30.421875 43.28125 30.625 43.398438 L 35.679688 46.363281 C 35.882812 46.480469 36.085938 46.480469 36.289062 46.363281 L 41.347656 43.398438 C 41.550781 43.28125 41.652344 43.101562 41.652344 42.863281 L 41.652344 28.085938 C 41.652344 27.863281 41.53125 27.652344 41.335938 27.542969 L 38.328125 25.832031 C 38.277344 25.804688 38.226562 25.800781 38.175781 25.800781 Z M 5.640625 33.203125 C 5.542969 33.207031 5.453125 33.222656 5.367188 33.273438 L 0.308594 36.238281 C 0.105469 36.355469 0.00390625 36.535156 0.00390625 36.773438 L 0.015625 44.726562 C 0.015625 44.835938 0.0703125 44.941406 0.167969 44.996094 C 0.261719 45.050781 0.378906 45.050781 0.472656 44.996094 L 3.472656 43.246094 C 3.660156 43.128906 3.785156 42.929688 3.785156 42.710938 L 3.785156 38.996094 C 3.785156 38.773438 3.898438 38.570312 4.089844 38.460938 L 5.367188 37.707031 C 5.460938 37.652344 5.5625 37.625 5.671875 37.625 C 5.78125 37.625 5.878906 37.652344 5.976562 37.707031 L 7.25 38.460938 C 7.441406 38.570312 7.554688 38.773438 7.554688 38.996094 L 7.554688 42.710938 C 7.554688 42.929688 7.683594 43.132812 7.871094 43.242188 L 10.871094 44.992188 C 10.964844 45.050781 11.078125 45.050781 11.171875 44.992188 C 11.265625 44.9375 11.324219 44.835938 11.324219 44.726562 L 11.335938 36.773438 C 11.335938 36.535156 11.234375 36.355469 11.03125 36.238281 L 5.972656 33.273438 C 5.890625 33.222656 5.796875 33.207031 5.699219 33.203125 Z M 51.085938 33.273438 C 50.976562 33.273438 50.875 33.300781 50.78125 33.355469 L 45.722656 36.320312 C 45.535156 36.429688 45.417969 36.632812 45.417969 36.855469 L 45.417969 42.78125 C 45.417969 43.003906 45.542969 43.207031 45.734375 43.316406 L 50.75 46.21875 C 50.9375 46.328125 51.164062 46.335938 51.347656 46.230469 L 54.390625 44.511719 C 54.484375 44.457031 54.550781 44.355469 54.550781 44.242188 C 54.550781 44.132812 54.496094 44.03125 54.398438 43.976562 L 49.3125 41.011719 C 49.214844 40.957031 49.148438 40.847656 49.148438 40.734375 L 49.148438 38.882812 C 49.148438 38.769531 49.21875 38.667969 49.3125 38.613281 L 50.890625 37.6875 C 50.988281 37.632812 51.101562 37.632812 51.195312 37.6875 L 52.78125 38.613281 C 52.882812 38.671875 52.933594 38.761719 52.933594 38.882812 L 52.933594 40.34375 C 52.933594 40.460938 52.984375 40.550781 53.085938 40.609375 C 53.179688 40.664062 53.292969 40.664062 53.390625 40.609375 L 56.417969 38.820312 C 56.609375 38.707031 56.722656 38.503906 56.722656 38.285156 L 56.722656 36.855469 C 56.722656 36.617188 56.621094 36.4375 56.417969 36.320312 L 51.394531 33.355469 C 51.296875 33.300781 51.195312 33.273438 51.089844 33.273438 Z M 35.964844 37.699219 C 35.992188 37.699219 36.019531 37.707031 36.046875 37.71875 L 37.777344 38.738281 C 37.824219 38.765625 37.859375 38.816406 37.859375 38.871094 L 37.859375 40.910156 C 37.859375 40.964844 37.824219 41.015625 37.777344 41.042969 L 36.046875 42.0625 C 35.996094 42.089844 35.941406 42.089844 35.894531 42.0625 L 34.160156 41.042969 C 34.113281 41.015625 34.078125 40.964844 34.078125 40.910156 L 34.078125 38.871094 C 34.078125 38.816406 34.113281 38.765625 34.160156 38.738281 L 35.894531 37.71875 C 35.917969 37.707031 35.9375 37.699219 35.964844 37.699219 Z M 35.964844 37.699219 " fill-opacity="1" fill-rule="nonzero"/></g><g clip-path="url(#706f15ac62)"><path fill="#34616d" d="M 20.832031 33.242188 C 20.722656 33.242188 20.621094 33.269531 20.527344 33.324219 L 15.46875 36.277344 C 15.28125 36.390625 15.167969 36.601562 15.167969 36.824219 L 15.167969 42.75 C 15.164062 42.988281 15.265625 43.167969 15.46875 43.285156 L 20.527344 46.25 C 20.730469 46.367188 20.933594 46.367188 21.136719 46.25 L 26.195312 43.285156 C 26.398438 43.167969 26.496094 42.988281 26.496094 42.75 L 26.496094 36.824219 C 26.496094 36.601562 26.382812 36.390625 26.191406 36.277344 L 21.136719 33.324219 C 21.042969 33.269531 20.941406 33.242188 20.832031 33.242188 Z M 51.074219 38.53125 C 51.054688 38.53125 51.035156 38.53125 51.015625 38.542969 L 50.042969 39.117188 C 50.003906 39.140625 49.980469 39.175781 49.980469 39.222656 L 49.980469 40.351562 C 49.980469 40.394531 50.003906 40.433594 50.042969 40.457031 L 51.015625 41.023438 C 51.050781 41.046875 51.089844 41.046875 51.125 41.023438 L 52.097656 40.457031 C 52.136719 40.433594 52.160156 40.394531 52.160156 40.351562 L 52.160156 39.222656 C 52.160156 39.179688 52.136719 39.140625 52.097656 39.117188 L 51.125 38.542969 C 51.109375 38.53125 51.097656 38.53125 51.074219 38.53125 Z M 51.074219 38.53125 " fill-opacity="1" fill-rule="nonzero"/></g></svg>