<svg xmlns="http://www.w3.org/2000/svg" xmlns:xlink="http://www.w3.org/1999/xlink" width="96" zoomAndPan="magnify" viewBox="0 0 72 72" height="96" preserveAspectRatio="xMidYMid meet" version="1.0"><defs><clipPath id="292a9f20ef"><path d="M 0 21.375 L 72 21.375 L 72 50.625 L 0 50.625 Z M 0 21.375 " clip-rule="nonzero"/></clipPath></defs><g clip-path="url(#292a9f20ef)"><path fill="#34616d" d="M 0 21.375 L 0 46.125 L 20.25 46.125 L 20.25 50.625 L 36 50.625 L 36 46.125 L 72 46.125 L 72 21.375 Z M 4 25.375 L 20.003906 25.375 L 20.003906 42.628906 L 16 42.628906 L 16 29.378906 L 12 29.378906 L 12 42.628906 L 4 42.628906 Z M 24.003906 25.375 L 40.003906 25.375 L 40.003906 42.621094 L 32 42.621094 L 32 46.625 L 24.003906 46.625 Z M 44.003906 25.375 L 68.003906 25.375 L 68.003906 42.628906 L 64 42.628906 L 64 29.378906 L 60.003906 29.378906 L 60.003906 42.628906 L 56.003906 42.628906 L 56.003906 29.378906 L 52 29.378906 L 52 42.628906 L 44.003906 42.628906 Z M 32 29.378906 L 32 38.628906 L 36 38.628906 L 36 29.378906 Z M 32 29.378906 " fill-opacity="1" fill-rule="nonzero"/></g></svg>