<svg xmlns="http://www.w3.org/2000/svg" xmlns:xlink="http://www.w3.org/1999/xlink" width="96" zoomAndPan="magnify" viewBox="0 0 72 72" height="96" preserveAspectRatio="xMidYMid meet" version="1.0"><defs><clipPath id="7ed76de186"><path d="M 0 7.199219 L 69 7.199219 L 69 64.949219 L 0 64.949219 Z M 0 7.199219 " clip-rule="nonzero"/></clipPath></defs><g clip-path="url(#7ed76de186)"><path fill="#632d47" d="M 31.238281 56.714844 C 28.953125 56.714844 27.089844 54.847656 27.089844 52.554688 C 27.089844 50.257812 28.953125 48.390625 31.238281 48.390625 C 33.527344 48.390625 35.386719 50.257812 35.386719 52.554688 C 35.386719 54.847656 33.527344 56.714844 31.238281 56.714844 Z M 31.238281 46.199219 C 27.746094 46.199219 24.898438 49.050781 24.898438 52.554688 C 24.898438 56.058594 27.746094 58.90625 31.238281 58.90625 C 34.734375 58.90625 37.578125 56.058594 37.578125 52.554688 C 37.578125 49.050781 34.734375 46.199219 31.238281 46.199219 Z M 29.824219 28.035156 C 26.613281 28.035156 24.007812 26.136719 24.007812 23.804688 C 24.007812 21.46875 26.613281 19.570312 29.824219 19.570312 C 33.027344 19.570312 35.636719 21.46875 35.636719 23.804688 C 35.636719 26.136719 33.027344 28.035156 29.824219 28.035156 Z M 29.824219 17.378906 C 25.40625 17.378906 21.8125 20.261719 21.8125 23.804688 C 21.8125 27.34375 25.40625 30.226562 29.824219 30.226562 C 34.238281 30.226562 37.828125 27.34375 37.828125 23.804688 C 37.828125 20.261719 34.238281 17.378906 29.824219 17.378906 Z M 57.546875 40.378906 C 55.261719 40.378906 53.398438 38.511719 53.398438 36.21875 C 53.398438 33.921875 55.261719 32.054688 57.546875 32.054688 C 59.835938 32.054688 61.695312 33.921875 61.695312 36.21875 C 61.695312 38.511719 59.835938 40.378906 57.546875 40.378906 Z M 57.546875 29.863281 C 54.054688 29.863281 51.210938 32.714844 51.210938 36.21875 C 51.210938 39.722656 54.054688 42.570312 57.546875 42.570312 C 61.042969 42.570312 63.886719 39.722656 63.886719 36.21875 C 63.886719 32.714844 61.042969 29.863281 57.546875 29.863281 Z M 48.261719 52.792969 C 45.972656 52.792969 44.113281 50.925781 44.113281 48.628906 C 44.113281 46.332031 45.972656 44.464844 48.261719 44.464844 C 50.546875 44.464844 52.410156 46.332031 52.410156 48.628906 C 52.410156 50.925781 50.546875 52.792969 48.261719 52.792969 Z M 48.261719 42.277344 C 44.765625 42.277344 41.921875 45.125 41.921875 48.628906 C 41.921875 52.132812 44.765625 54.980469 48.261719 54.980469 C 51.757812 54.980469 54.601562 52.132812 54.601562 48.628906 C 54.601562 45.125 51.757812 42.277344 48.261719 42.277344 Z M 45.9375 60.828125 C 41.785156 62.109375 37.582031 62.761719 33.441406 62.761719 C 19.886719 62.761719 9.511719 55.882812 5.246094 49.070312 C 2.871094 45.277344 2.34375 41.585938 3.761719 38.675781 C 4.449219 37.257812 6.414062 36.96875 9.363281 36.96875 L 11.488281 36.984375 C 14.085938 36.984375 18.433594 36.984375 19.121094 32.929688 C 19.765625 29.105469 16.957031 27.207031 14.703125 25.679688 C 13.441406 24.828125 12.25 24.019531 11.972656 23.113281 C 11.511719 21.59375 11.667969 20.144531 12.453125 18.683594 C 14.328125 15.175781 19.523438 12.515625 22.359375 11.664062 C 27.367188 10.15625 32.195312 9.390625 36.707031 9.390625 C 52.839844 9.390625 62.871094 19.191406 65.367188 28.296875 C 69.5625 43.621094 62.300781 55.785156 45.9375 60.828125 Z M 67.480469 27.71875 C 64.773438 17.835938 53.988281 7.199219 36.707031 7.199219 C 31.980469 7.199219 26.941406 7.996094 21.726562 9.566406 C 18.890625 10.421875 12.898438 13.207031 10.519531 17.648438 C 9.464844 19.621094 9.246094 21.671875 9.875 23.75 C 10.378906 25.398438 11.953125 26.460938 13.472656 27.492188 C 15.898438 29.136719 17.34375 30.292969 16.957031 32.5625 C 16.671875 34.25 15.34375 34.792969 11.488281 34.792969 L 9.363281 34.78125 C 7.0625 34.78125 3.21875 34.78125 1.789062 37.714844 C 0.03125 41.332031 0.597656 45.773438 3.390625 50.230469 C 7.976562 57.558594 19.046875 64.949219 33.441406 64.949219 C 37.800781 64.949219 42.222656 64.269531 46.585938 62.921875 C 63.953125 57.566406 71.957031 44.074219 67.480469 27.71875 Z M 16.214844 50.601562 C 13.929688 50.601562 12.070312 48.734375 12.070312 46.4375 C 12.070312 44.144531 13.929688 42.277344 16.214844 42.277344 C 18.503906 42.277344 20.367188 44.144531 20.367188 46.4375 C 20.367188 48.734375 18.503906 50.601562 16.214844 50.601562 Z M 16.214844 40.085938 C 12.71875 40.085938 9.875 42.933594 9.875 46.4375 C 9.875 49.941406 12.71875 52.792969 16.214844 52.792969 C 19.710938 52.792969 22.558594 49.941406 22.558594 46.4375 C 22.558594 42.933594 19.710938 40.085938 16.214844 40.085938 " fill-opacity="1" fill-rule="nonzero"/></g></svg>