<svg xmlns="http://www.w3.org/2000/svg" xmlns:xlink="http://www.w3.org/1999/xlink" width="96" zoomAndPan="magnify" viewBox="0 0 72 72" height="96" preserveAspectRatio="xMidYMid meet" version="1.0"><path fill="#e8c8cb" d="M 25.117188 0.414062 C 25.117188 0.414062 9.839844 0.613281 10.039062 14.449219 C 10.238281 28.285156 13.015625 40.515625 17.578125 47.332031 C 22.144531 54.152344 33.847656 71.996094 47.140625 70.191406 C 47.140625 70.191406 53.6875 68.789062 58.644531 65.582031 L 42.574219 52.949219 C 42.574219 52.949219 37.816406 55.957031 34.839844 51.945312 C 31.863281 47.933594 22.539062 29.289062 22.539062 29.289062 C 22.539062 29.289062 19.960938 23.273438 25.714844 20.664062 Z M 25.117188 0.414062 " fill-opacity="1" fill-rule="nonzero"/><path fill="#e8c8cb" d="M 26.902344 0.414062 C 26.902344 0.414062 28.09375 0.015625 30.277344 1.214844 C 32.457031 2.417969 32.457031 3.421875 32.457031 3.421875 L 32.65625 17.257812 C 32.65625 17.257812 32.0625 18.058594 31.269531 18.859375 C 30.472656 19.660156 27.894531 20.867188 27.496094 20.0625 C 27.101562 19.261719 26.902344 0.414062 26.902344 0.414062 Z M 26.902344 0.414062 " fill-opacity="1" fill-rule="nonzero"/><path fill="#e8c8cb" d="M 43.910156 51.46875 L 48.328125 49.136719 C 48.328125 49.136719 49.320312 48.9375 50.90625 49.941406 C 52.496094 50.945312 60.828125 57.5625 60.828125 57.5625 C 60.828125 57.5625 62.214844 58.765625 61.820312 60.167969 C 61.421875 61.570312 60.429688 64.578125 60.429688 64.578125 Z M 43.910156 51.46875 " fill-opacity="1" fill-rule="nonzero"/></svg>