<svg xmlns="http://www.w3.org/2000/svg" xmlns:xlink="http://www.w3.org/1999/xlink" width="96" zoomAndPan="magnify" viewBox="0 0 72 72" height="96" preserveAspectRatio="xMidYMid meet" version="1.0"><path fill="#34616d" d="M 8 0 C 3.601562 0 0 3.601562 0 8 L 0 64 C 0 68.398438 3.601562 72 8 72 L 64 72 C 68.398438 72 72 68.398438 72 64 L 72 8 C 72 3.601562 68.398438 0 64 0 Z M 15.5625 20 L 26.359375 20 C 35.664062 20 36.773438 28.5625 36.773438 30.421875 C 36.769531 37.863281 31.566406 40.460938 26.726562 40.460938 L 22.257812 40.460938 L 22.257812 51.625 L 15.5625 51.625 Z M 22.257812 25.210938 L 22.257812 35.257812 L 26.726562 35.257812 C 29.703125 35.257812 30.445312 33.027344 30.445312 30.421875 C 30.449219 27.8125 29.335938 25.210938 26.726562 25.210938 Z M 48.679688 27.8125 C 54.257812 27.8125 57.234375 31.164062 57.234375 35.257812 L 50.914062 35.257812 C 50.914062 33.398438 50.167969 32.28125 48.679688 32.28125 C 47.5625 32.28125 46.445312 33.027344 46.445312 34.515625 C 46.445312 38.234375 57.242188 37.117188 57.242188 45.304688 C 57.238281 50.882812 51.65625 52 48.679688 52 C 42.726562 52 39.75 47.90625 39.75 44.1875 L 45.703125 44.1875 C 45.703125 47.164062 47.9375 47.539062 48.679688 47.539062 C 50.167969 47.539062 51.28125 46.792969 51.28125 45.304688 C 51.28125 41.957031 40.484375 42.328125 40.484375 34.882812 C 40.484375 29.304688 45.699219 27.8125 48.679688 27.8125 Z M 48.679688 27.8125 " fill-opacity="1" fill-rule="nonzero"/></svg>