<svg xmlns="http://www.w3.org/2000/svg" xmlns:xlink="http://www.w3.org/1999/xlink" width="96" zoomAndPan="magnify" viewBox="0 0 72 72" height="96" preserveAspectRatio="xMidYMid meet" version="1.0"><path fill="#34616d" d="M 59.144531 24.789062 C 58.402344 24.535156 57.628906 24.289062 56.832031 24.058594 C 56.964844 23.527344 57.085938 23 57.191406 22.480469 C 58.941406 13.964844 57.800781 7.105469 53.890625 4.847656 C 50.140625 2.683594 44.011719 4.941406 37.820312 10.339844 C 37.226562 10.855469 36.628906 11.40625 36.035156 11.984375 C 35.636719 11.601562 35.238281 11.234375 34.84375 10.882812 C 28.355469 5.109375 21.851562 2.675781 17.949219 4.941406 C 14.203125 7.113281 13.09375 13.5625 14.671875 21.632812 C 14.824219 22.410156 15 23.207031 15.203125 24.015625 C 14.28125 24.277344 13.394531 24.554688 12.542969 24.851562 C 4.9375 27.511719 0.078125 31.675781 0.078125 35.992188 C 0.078125 40.453125 5.292969 44.929688 13.214844 47.644531 C 13.839844 47.855469 14.488281 48.058594 15.160156 48.25 C 14.941406 49.125 14.753906 49.980469 14.59375 50.820312 C 13.09375 58.75 14.265625 65.042969 18 67.199219 C 21.855469 69.429688 28.332031 67.140625 34.632812 61.621094 C 35.132812 61.183594 35.632812 60.71875 36.132812 60.238281 C 36.78125 60.859375 37.429688 61.453125 38.074219 62.011719 C 44.179688 67.273438 50.210938 69.398438 53.941406 67.238281 C 57.792969 65.003906 59.046875 58.238281 57.421875 50.011719 C 57.296875 49.378906 57.152344 48.738281 56.992188 48.085938 C 57.445312 47.953125 57.890625 47.8125 58.328125 47.667969 C 66.5625 44.933594 71.921875 40.515625 71.921875 35.992188 C 71.921875 31.660156 66.90625 27.464844 59.144531 24.789062 Z M 57.363281 44.75 C 56.96875 44.878906 56.5625 45.003906 56.15625 45.125 C 55.246094 42.246094 54.019531 39.175781 52.515625 36.007812 C 53.949219 32.914062 55.128906 29.886719 56.011719 27.023438 C 56.746094 27.234375 57.460938 27.460938 58.148438 27.699219 C 64.796875 29.992188 68.851562 33.382812 68.851562 35.992188 C 68.851562 38.773438 64.472656 42.386719 57.363281 44.75 Z M 54.410156 50.605469 C 55.128906 54.246094 55.230469 57.535156 54.753906 60.105469 C 54.328125 62.417969 53.464844 63.960938 52.402344 64.574219 C 50.136719 65.886719 45.296875 64.179688 40.078125 59.679688 C 39.476562 59.164062 38.875 58.613281 38.269531 58.03125 C 40.292969 55.8125 42.316406 53.234375 44.292969 50.367188 C 47.765625 50.0625 51.042969 49.554688 54.023438 48.867188 C 54.167969 49.460938 54.296875 50.039062 54.410156 50.605469 Z M 24.574219 64.347656 C 22.359375 65.132812 20.597656 65.152344 19.535156 64.539062 C 17.269531 63.226562 16.324219 58.171875 17.609375 51.394531 C 17.757812 50.617188 17.933594 49.820312 18.136719 49.003906 C 21.078125 49.65625 24.335938 50.125 27.816406 50.40625 C 29.804688 53.210938 31.886719 55.785156 33.984375 58.039062 C 33.527344 58.484375 33.070312 58.90625 32.613281 59.304688 C 29.828125 61.746094 27.035156 63.476562 24.574219 64.347656 Z M 14.210938 44.734375 C 10.707031 43.53125 7.8125 41.972656 5.832031 40.269531 C 4.050781 38.742188 3.148438 37.226562 3.148438 35.992188 C 3.148438 33.375 7.050781 30.027344 13.554688 27.757812 C 14.34375 27.480469 15.167969 27.222656 16.027344 26.976562 C 16.925781 29.90625 18.105469 32.972656 19.527344 36.066406 C 18.085938 39.210938 16.890625 42.324219 15.984375 45.289062 C 15.371094 45.113281 14.78125 44.925781 14.210938 44.734375 Z M 17.683594 21.039062 C 16.332031 14.128906 17.230469 8.914062 19.488281 7.605469 C 21.890625 6.210938 27.203125 8.195312 32.804688 13.179688 C 33.164062 13.5 33.523438 13.832031 33.886719 14.175781 C 31.796875 16.421875 29.734375 18.980469 27.765625 21.765625 C 24.386719 22.078125 21.152344 22.582031 18.175781 23.257812 C 17.992188 22.503906 17.824219 21.765625 17.683594 21.039062 Z M 48.671875 28.707031 C 47.960938 27.476562 47.230469 26.277344 46.488281 25.109375 C 48.78125 25.398438 50.972656 25.785156 53.039062 26.253906 C 52.417969 28.242188 51.648438 30.320312 50.738281 32.453125 C 50.085938 31.214844 49.398438 29.964844 48.671875 28.707031 Z M 36.035156 16.375 C 37.449219 17.910156 38.867188 19.628906 40.261719 21.488281 C 38.855469 21.421875 37.433594 21.386719 36 21.386719 C 34.582031 21.386719 33.167969 21.421875 31.769531 21.488281 C 33.164062 19.640625 34.597656 17.929688 36.035156 16.375 Z M 23.316406 28.730469 C 22.605469 29.960938 21.929688 31.207031 21.289062 32.453125 C 20.394531 30.328125 19.628906 28.238281 19.003906 26.222656 C 21.054688 25.761719 23.242188 25.386719 25.519531 25.101562 C 24.765625 26.28125 24.027344 27.492188 23.316406 28.730469 Z M 25.585938 47.101562 C 23.230469 46.839844 21.011719 46.484375 18.964844 46.039062 C 19.597656 43.984375 20.378906 41.855469 21.292969 39.683594 C 21.933594 40.929688 22.613281 42.171875 23.328125 43.410156 C 24.054688 44.667969 24.808594 45.898438 25.585938 47.101562 Z M 36.117188 55.828125 C 34.664062 54.257812 33.214844 52.515625 31.796875 50.644531 C 33.171875 50.699219 34.574219 50.726562 36 50.726562 C 37.464844 50.726562 38.914062 50.695312 40.335938 50.632812 C 38.9375 52.535156 37.523438 54.277344 36.117188 55.828125 Z M 50.765625 39.574219 C 51.726562 41.765625 52.539062 43.886719 53.179688 45.90625 C 51.097656 46.378906 48.847656 46.761719 46.480469 47.050781 C 47.226562 45.867188 47.960938 44.644531 48.683594 43.386719 C 49.417969 42.113281 50.109375 40.839844 50.765625 39.574219 Z M 46.023438 41.851562 C 44.902344 43.800781 43.75 45.664062 42.578125 47.421875 C 40.449219 47.574219 38.246094 47.652344 36 47.652344 C 33.765625 47.652344 31.589844 47.582031 29.496094 47.445312 C 28.277344 45.667969 27.101562 43.800781 25.984375 41.867188 C 24.871094 39.941406 23.847656 38 22.917969 36.066406 C 23.847656 34.132812 24.867188 32.1875 25.976562 30.265625 C 27.085938 28.335938 28.253906 26.480469 29.457031 24.707031 C 31.59375 24.546875 33.785156 24.460938 36 24.460938 C 38.226562 24.460938 40.417969 24.546875 42.554688 24.710938 C 43.742188 26.46875 44.902344 28.320312 46.015625 30.25 C 47.140625 32.199219 48.175781 34.128906 49.109375 36.023438 C 48.179688 37.949219 47.148438 39.902344 46.023438 41.851562 Z M 52.355469 7.511719 C 54.761719 8.902344 55.699219 14.507812 54.183594 21.859375 C 54.089844 22.328125 53.980469 22.804688 53.863281 23.289062 C 50.882812 22.601562 47.644531 22.085938 44.257812 21.769531 C 42.285156 18.953125 40.238281 16.390625 38.183594 14.175781 C 38.738281 13.644531 39.289062 13.136719 39.835938 12.65625 C 45.140625 8.03125 50.097656 6.207031 52.355469 7.511719 Z M 36 29.566406 C 39.542969 29.566406 42.414062 32.441406 42.414062 35.992188 C 42.414062 39.542969 39.542969 42.421875 36 42.421875 C 32.457031 42.421875 29.585938 39.542969 29.585938 35.992188 C 29.585938 32.441406 32.457031 29.566406 36 29.566406 Z M 36 29.566406 " fill-opacity="1" fill-rule="nonzero"/></svg>