<svg xmlns="http://www.w3.org/2000/svg" xmlns:xlink="http://www.w3.org/1999/xlink" width="96" zoomAndPan="magnify" viewBox="0 0 72 72" height="96" preserveAspectRatio="xMidYMid meet" version="1.0"><defs><clipPath id="3999b602a5"><path d="M 13.046875 13 L 64.667969 13 L 64.667969 63.683594 L 13.046875 63.683594 Z M 13.046875 13 " clip-rule="nonzero"/></clipPath></defs><path fill="#e8c8cb" d="M 36 0 C 16.117188 0 0 16.117188 0 36 C 0 55.882812 16.117188 72 36 72 C 55.882812 72 72 55.882812 72 36 C 72 16.117188 55.882812 0 36 0 " fill-opacity="1" fill-rule="nonzero"/><g clip-path="url(#3999b602a5)"><path fill="#632d47" d="M 14.90625 20.984375 C 14.222656 18.847656 13.164062 15.199219 14.160156 14.382812 C 15.34375 13.5 19.453125 13.3125 19.890625 13.25 C 21.011719 13.125 26.742188 12.683594 27.800781 13.5625 C 28.800781 14.382812 30.605469 19.351562 30.917969 20.042969 C 31.726562 20.984375 33.90625 25.828125 36.089844 30.792969 C 36.027344 30.039062 35.964844 29.285156 36.027344 28.71875 C 36.210938 27.023438 38.828125 26.832031 38.890625 26.832031 C 39.265625 26.769531 48.234375 25.890625 50.167969 25.828125 C 51.847656 25.765625 51.972656 26.328125 52.410156 27.714844 C 52.535156 28.214844 52.722656 28.78125 53.03125 29.539062 C 54.152344 32.554688 53.59375 35.636719 53.53125 35.761719 C 53.53125 35.886719 53.40625 36.015625 53.28125 36.015625 L 55.214844 36.390625 C 55.273438 36.390625 55.273438 36.390625 55.335938 36.453125 C 57.019531 37.585938 57.644531 38.089844 57.890625 38.402344 C 58.015625 38.402344 58.265625 38.46875 58.453125 38.53125 C 59.636719 38.71875 61.941406 39.160156 63 40.101562 C 64.683594 41.675781 64.183594 42.933594 64.121094 43.121094 C 64.058594 43.246094 63.933594 43.558594 52.160156 48.90625 C 52.222656 48.96875 52.222656 49.03125 52.222656 49.09375 L 51.289062 56.640625 C 51.289062 56.765625 51.226562 56.828125 51.101562 56.890625 L 49.917969 57.519531 C 49.855469 57.519531 49.855469 57.519531 49.792969 57.519531 C 49.792969 57.519531 49.792969 57.519531 49.730469 57.519531 C 49.667969 57.519531 49.605469 57.519531 49.605469 57.457031 L 43.253906 52.617188 C 43.191406 52.554688 43.191406 52.492188 43.128906 52.425781 L 40.945312 54.753906 C 40.886719 54.816406 40.824219 54.878906 40.699219 54.878906 C 40.636719 54.878906 40.511719 54.816406 40.511719 54.816406 L 40.324219 54.628906 L 39.761719 55.507812 L 41.320312 56.515625 C 41.445312 56.578125 41.445312 56.703125 41.445312 56.828125 C 41.445312 56.957031 41.320312 57.082031 41.257812 57.082031 L 37.832031 58.210938 C 37.832031 60.164062 37.832031 61.609375 37.769531 62.113281 C 37.769531 62.175781 37.707031 62.300781 37.644531 62.363281 L 36.148438 63.621094 C 36.089844 63.621094 36.027344 63.683594 36.027344 63.683594 C 35.964844 63.683594 35.964844 63.683594 35.902344 63.683594 C 35.902344 63.683594 33.660156 62.613281 32.101562 61.921875 C 30.542969 61.230469 20.761719 52.617188 20.328125 52.238281 C 20.265625 52.175781 20.203125 52.113281 20.203125 52.050781 L 19.890625 48.90625 L 20.203125 43.433594 L 19.390625 40.605469 L 18.519531 36.328125 C 17.710938 34.128906 13.972656 23.375 14.035156 22.304688 C 14.160156 21.300781 14.71875 21.046875 14.90625 20.984375 Z M 27.429688 14.066406 C 27.304688 13.941406 26.992188 13.878906 26.554688 13.816406 C 26.929688 14.191406 27.304688 14.820312 27.554688 15.640625 C 27.617188 15.828125 27.492188 15.953125 27.367188 16.015625 C 27.367188 16.015625 27.304688 16.015625 27.304688 16.015625 C 27.179688 16.015625 27.054688 15.953125 26.992188 15.765625 C 26.554688 14.320312 25.621094 13.753906 25.621094 13.753906 C 25.558594 13.753906 25.558594 13.691406 25.558594 13.691406 C 23.941406 13.628906 21.636719 13.753906 20.015625 13.878906 C 19.515625 13.878906 18.644531 13.941406 17.773438 14.066406 C 17.835938 14.066406 17.835938 14.128906 17.898438 14.128906 C 17.960938 14.191406 18.707031 15.074219 19.082031 16.140625 C 19.144531 16.332031 19.082031 16.457031 18.894531 16.519531 C 18.832031 16.519531 18.832031 16.519531 18.769531 16.519531 C 18.644531 16.519531 18.519531 16.457031 18.457031 16.332031 C 18.148438 15.386719 17.398438 14.570312 17.398438 14.570312 C 17.273438 14.445312 17.273438 14.257812 17.460938 14.128906 C 16.652344 14.257812 15.902344 14.382812 15.34375 14.570312 C 15.53125 14.632812 16.527344 15.011719 16.652344 15.828125 C 16.652344 16.015625 16.589844 16.140625 16.402344 16.207031 C 16.402344 16.207031 16.402344 16.207031 16.339844 16.207031 C 16.214844 16.207031 16.027344 16.078125 16.027344 15.953125 C 15.964844 15.515625 15.34375 15.261719 15.09375 15.199219 C 14.90625 15.136719 14.84375 14.949219 14.90625 14.820312 C 14.84375 14.886719 14.71875 14.886719 14.65625 14.949219 C 14.097656 15.386719 14.90625 18.972656 15.964844 21.992188 L 17.023438 24.378906 L 19.828125 30.984375 L 19.953125 30.667969 C 20.015625 30.605469 20.078125 30.542969 20.140625 30.542969 L 22.070312 29.914062 C 22.070312 29.914062 22.132812 29.914062 22.132812 29.914062 C 22.070312 29.914062 22.070312 29.851562 22.007812 29.789062 L 21.636719 29.035156 C 21.574219 28.910156 21.636719 28.71875 21.757812 28.59375 C 21.882812 28.53125 22.070312 28.59375 22.195312 28.71875 L 22.570312 29.472656 C 22.632812 29.601562 22.632812 29.726562 22.507812 29.789062 C 23.253906 29.726562 24.9375 29.539062 27.367188 29.347656 C 30.730469 29.097656 33.71875 29.472656 33.71875 29.472656 C 33.78125 29.472656 33.84375 29.539062 33.84375 29.539062 C 34.03125 29.601562 34.21875 29.664062 34.40625 29.789062 C 34.78125 30.101562 35.152344 30.542969 35.402344 31.046875 C 33.410156 26.519531 31.167969 21.425781 30.542969 20.605469 C 29.734375 20.859375 26.929688 21.800781 26.058594 21.800781 C 25.1875 21.800781 22.632812 21.992188 22.570312 21.992188 C 22.570312 21.992188 22.570312 21.992188 22.507812 21.992188 C 21.449219 21.863281 19.953125 21.675781 19.207031 21.613281 L 19.515625 22.242188 L 21.199219 26.203125 L 21.699219 27.523438 C 21.757812 27.714844 21.699219 27.839844 21.511719 27.902344 C 21.449219 27.902344 21.449219 27.902344 21.386719 27.902344 C 21.261719 27.902344 21.136719 27.839844 21.074219 27.714844 L 20.574219 26.394531 L 18.894531 22.429688 L 18.394531 21.363281 C 18.332031 21.300781 18.332031 21.234375 18.332031 21.171875 L 16.402344 17.023438 C 16.339844 16.835938 16.402344 16.707031 16.527344 16.582031 C 16.652344 16.519531 16.839844 16.582031 16.964844 16.707031 L 18.832031 20.734375 C 19.640625 20.796875 21.945312 21.046875 22.507812 21.109375 C 22.820312 21.109375 25.125 20.921875 25.996094 20.921875 C 26.617188 20.921875 28.984375 20.167969 30.109375 19.789062 C 29.421875 17.839844 28.113281 14.570312 27.429688 14.066406 Z M 36.148438 32.554688 C 36.335938 33.058594 36.460938 33.5 36.585938 33.9375 L 36.648438 34.128906 C 36.648438 34.191406 36.710938 34.316406 36.710938 34.441406 C 36.773438 34.441406 36.835938 34.441406 36.960938 34.441406 C 36.835938 34.128906 36.710938 33.8125 36.523438 33.4375 C 36.460938 33.375 36.460938 33.375 36.460938 33.308594 C 36.460938 33.308594 36.460938 33.246094 36.460938 33.246094 C 36.335938 32.996094 36.210938 32.808594 36.148438 32.554688 Z M 37.832031 53.875 L 38.394531 53.621094 L 38.640625 53.054688 C 38.640625 53.054688 38.640625 52.992188 38.703125 52.992188 L 37.832031 52.175781 C 37.832031 52.742188 37.832031 53.308594 37.832031 53.875 Z M 37.832031 49.722656 L 43.5625 47.648438 C 43.75 47.585938 43.875 47.648438 43.9375 47.835938 L 45.183594 46.328125 C 44.871094 46.203125 44.683594 46.074219 44.621094 46.011719 C 44.375 45.761719 44.25 45.445312 44.1875 45.195312 L 43.253906 44.945312 L 41.257812 44.253906 C 40.511719 43.9375 39.578125 43.625 39.453125 43.625 C 39.203125 43.625 38.457031 43.308594 37.769531 42.933594 C 37.832031 44.566406 37.894531 47.019531 37.832031 49.722656 Z M 38.332031 50.226562 L 40.261719 52.175781 L 43.5625 48.277344 Z M 51.601562 48.214844 C 51.476562 47.710938 51.351562 46.894531 51.226562 46.515625 C 51.101562 46.140625 50.167969 45.257812 49.542969 44.753906 L 47.800781 44 L 45.683594 43.75 C 45.683594 43.75 45.683594 43.75 45.621094 43.75 C 45.558594 43.8125 45.433594 43.875 45.371094 44 C 45.371094 44 45.371094 44 45.371094 44.0625 C 45.371094 44.0625 45.371094 44.0625 45.308594 44.0625 C 44.996094 44.378906 44.871094 44.566406 44.871094 44.628906 C 44.871094 44.816406 44.933594 45.320312 45.183594 45.574219 C 45.496094 45.886719 48.609375 47.082031 51.601562 48.214844 Z M 37.707031 40.917969 C 37.769531 41.046875 37.769531 41.484375 37.832031 42.175781 C 38.578125 42.554688 39.390625 42.933594 39.578125 42.996094 C 39.886719 42.996094 41.132812 43.496094 41.632812 43.6875 L 43.625 44.378906 L 44.3125 44.566406 C 44.3125 44.503906 44.3125 44.503906 44.3125 44.441406 C 44.3125 44.378906 44.4375 44.1875 44.746094 43.8125 C 44.25 43.308594 43.3125 42.429688 42.941406 42.175781 C 42.753906 42.050781 42.253906 41.863281 41.820312 41.675781 C 41.320312 41.484375 41.132812 41.421875 41.070312 41.359375 C 40.945312 41.296875 39.886719 40.855469 38.765625 40.351562 C 38.515625 40.730469 38.394531 41.171875 38.394531 41.171875 C 38.332031 41.296875 38.207031 41.421875 38.082031 41.421875 C 38.082031 41.421875 38.019531 41.421875 38.019531 41.421875 C 37.832031 41.296875 37.707031 41.171875 37.707031 40.917969 C 37.769531 40.917969 37.894531 40.480469 38.144531 40.039062 C 37.894531 39.976562 37.707031 39.851562 37.519531 39.789062 C 37.582031 40.351562 37.644531 40.730469 37.707031 40.917969 Z M 37.332031 38.339844 C 37.394531 38.59375 37.394531 38.90625 37.457031 39.160156 C 37.894531 39.347656 38.269531 39.472656 38.578125 39.597656 C 39.078125 39.222656 40.511719 38.65625 42.503906 37.902344 C 43.128906 37.648438 43.75 37.398438 44.1875 37.273438 C 45.496094 36.707031 49.234375 36.015625 50.726562 35.761719 C 50.664062 35.699219 50.539062 35.574219 50.417969 35.449219 C 49.855469 34.945312 43.128906 34.945312 36.898438 35.132812 C 37.023438 36.015625 37.148438 37.210938 37.332031 38.339844 Z M 52.472656 29.851562 C 52.160156 29.097656 51.972656 28.46875 51.847656 27.964844 C 51.476562 26.644531 51.414062 26.519531 50.230469 26.519531 C 48.296875 26.582031 39.078125 27.523438 38.953125 27.523438 C 38.953125 27.523438 36.773438 27.652344 36.648438 28.84375 C 36.523438 30.101562 36.898438 32.429688 37.023438 33.058594 C 37.210938 33.5 37.394531 33.875 37.519531 34.316406 C 37.519531 34.378906 37.519531 34.441406 37.519531 34.503906 C 40.886719 34.378906 47.925781 34.253906 50.105469 34.757812 C 49.980469 33.75 49.667969 30.417969 49.792969 28.910156 C 49.855469 28.152344 50.042969 27.585938 50.417969 27.273438 C 50.789062 26.957031 51.226562 27.023438 51.226562 27.023438 C 51.414062 27.023438 51.476562 27.210938 51.476562 27.398438 C 51.476562 27.585938 51.289062 27.714844 51.101562 27.652344 C 51.101562 27.652344 50.914062 27.652344 50.726562 27.777344 C 50.476562 27.964844 50.355469 28.40625 50.355469 28.972656 C 50.230469 30.667969 50.726562 34.945312 50.726562 35.007812 C 50.726562 35.007812 50.726562 35.007812 50.726562 35.070312 C 51.414062 35.761719 51.722656 35.886719 51.722656 35.886719 L 53.03125 36.140625 C 52.90625 36.078125 52.847656 35.953125 52.90625 35.824219 C 52.96875 35.699219 53.53125 32.679688 52.472656 29.851562 Z M 55.089844 37.082031 L 51.664062 36.453125 C 51.601562 36.453125 51.476562 36.390625 51.289062 36.265625 C 50.664062 36.390625 45.804688 37.210938 44.375 37.839844 C 43.9375 38.027344 43.3125 38.277344 42.691406 38.53125 C 41.632812 38.90625 40.011719 39.535156 39.265625 39.976562 C 40.574219 40.542969 41.320312 40.855469 41.382812 40.917969 C 41.445312 40.980469 41.757812 41.109375 42.007812 41.171875 C 42.441406 41.359375 42.941406 41.546875 43.253906 41.738281 C 43.75 42.050781 44.746094 42.996094 45.183594 43.433594 C 46.304688 42.492188 48.671875 41.046875 53.84375 39.914062 L 57.394531 38.84375 C 57.082031 38.46875 56.023438 37.710938 55.089844 37.082031 Z M 63.4375 41.738281 C 63.375 41.800781 63.3125 41.863281 63.25 41.925781 L 61.132812 42.679688 C 61.070312 42.679688 61.070312 42.679688 61.007812 42.679688 C 60.882812 42.679688 60.757812 42.617188 60.695312 42.492188 C 60.632812 42.304688 60.695312 42.175781 60.882812 42.113281 L 63 41.359375 C 63.0625 41.359375 63.125 41.359375 63.125 41.359375 C 63 41.109375 62.75 40.855469 62.5 40.605469 C 61.566406 39.722656 59.386719 39.347656 58.328125 39.160156 C 58.140625 39.09375 57.953125 39.09375 57.828125 39.09375 C 57.828125 39.222656 57.703125 39.285156 57.644531 39.347656 L 53.96875 40.417969 C 49.917969 41.359375 47.613281 42.429688 46.367188 43.246094 L 47.925781 43.433594 C 47.925781 43.433594 47.988281 43.433594 47.988281 43.433594 L 49.792969 44.1875 C 49.792969 44.1875 49.855469 44.1875 49.855469 44.253906 C 50.167969 44.503906 51.601562 45.636719 51.785156 46.328125 C 51.910156 46.769531 52.097656 47.710938 52.160156 48.214844 C 56.519531 46.203125 62.8125 43.308594 63.5 42.867188 C 63.625 42.742188 63.683594 42.304688 63.4375 41.738281 Z M 51.601562 49.09375 C 51.601562 49.03125 51.664062 48.96875 51.664062 48.90625 C 51.476562 48.84375 51.289062 48.78125 51.039062 48.652344 L 50.167969 56.703125 L 50.664062 56.453125 Z M 43.625 52.175781 L 49.542969 56.703125 L 50.292969 50.039062 C 50.230469 50.101562 50.105469 50.101562 50.042969 50.039062 L 46.742188 48.71875 L 43.5 52.175781 C 43.5625 52.113281 43.625 52.113281 43.625 52.175781 Z M 40.761719 54.1875 L 46.492188 48.152344 C 46.554688 48.089844 46.742188 48.027344 46.867188 48.089844 L 49.917969 49.347656 L 49.980469 48.339844 C 48.609375 47.835938 46.988281 47.207031 45.929688 46.703125 C 45.929688 46.703125 45.929688 46.769531 45.867188 46.769531 L 40.574219 52.929688 C 40.511719 52.992188 40.449219 53.054688 40.324219 53.054688 C 40.261719 53.054688 40.136719 52.992188 40.074219 52.992188 L 37.894531 50.730469 C 37.894531 50.980469 37.894531 51.234375 37.894531 51.484375 Z M 39.203125 53.496094 L 38.953125 54 C 38.890625 54.0625 38.828125 54.125 38.765625 54.1875 L 37.832031 54.503906 C 37.832031 54.941406 37.832031 55.320312 37.832031 55.761719 L 39.203125 55.195312 L 39.886719 54.1875 Z M 40.449219 56.703125 L 39.390625 56.011719 C 39.328125 55.949219 39.328125 55.949219 39.265625 55.886719 L 37.832031 56.453125 C 37.832031 56.828125 37.832031 57.207031 37.832031 57.582031 Z M 37.148438 61.984375 C 37.148438 59.660156 37.210938 57.082031 37.210938 54.441406 C 37.210938 54.441406 37.148438 54.441406 37.148438 54.375 C 37.085938 54.25 37.148438 54.1875 37.210938 54.0625 C 37.210938 49.28125 37.210938 44.691406 37.210938 42.429688 C 37.085938 42.367188 37.023438 42.175781 37.085938 42.050781 C 37.085938 41.988281 37.148438 41.988281 37.148438 41.925781 C 37.148438 41.421875 37.085938 41.109375 37.085938 40.980469 C 36.960938 40.542969 36.835938 39.472656 36.648438 38.277344 C 36.460938 36.707031 36.210938 34.945312 35.964844 34.191406 L 35.902344 34.003906 C 35.527344 32.679688 34.964844 30.859375 34.03125 30.164062 C 33.347656 29.601562 32.414062 30.417969 32.101562 30.730469 L 32.101562 33.625 L 33.035156 39.222656 C 33.285156 39.789062 35.964844 46.011719 36.148438 47.082031 C 36.335938 48.089844 36.210938 59.660156 36.210938 62.675781 Z M 20.015625 40.480469 L 20.824219 43.308594 C 20.824219 43.371094 20.824219 43.371094 20.824219 43.433594 L 20.515625 48.90625 L 20.824219 51.925781 C 23.691406 54.441406 31.105469 60.917969 32.289062 61.421875 C 33.410156 61.921875 34.90625 62.613281 35.652344 62.992188 C 35.714844 58.714844 35.777344 49.28125 35.652344 47.585938 L 35.339844 48.027344 C 35.277344 48.089844 35.214844 48.152344 35.089844 48.152344 L 32.039062 47.960938 C 32.039062 47.960938 31.976562 47.960938 31.976562 47.960938 L 28.238281 46.578125 L 25.125 46.011719 C 25.125 46.011719 25.0625 46.011719 25.0625 46.011719 L 21.136719 44.0625 C 21.011719 44 20.949219 43.8125 21.011719 43.625 C 21.074219 43.496094 21.261719 43.433594 21.449219 43.496094 L 25.371094 45.445312 L 28.488281 46.011719 L 32.226562 47.398438 L 35.089844 47.585938 L 35.652344 46.832031 C 35.089844 45.195312 33.410156 41.234375 32.722656 39.660156 C 32.722656 39.660156 32.722656 39.597656 32.722656 39.597656 L 31.789062 33.9375 L 31.789062 30.859375 C 31.789062 30.792969 31.789062 30.730469 31.851562 30.667969 C 31.851562 30.667969 32.101562 30.355469 32.476562 30.101562 C 31.292969 30.039062 29.546875 29.976562 27.679688 30.101562 C 24.5625 30.355469 22.695312 30.542969 22.445312 30.605469 L 20.636719 31.234375 L 19.578125 33.246094 C 19.515625 33.5 19.269531 35.070312 19.332031 36.453125 Z M 18.582031 34.503906 C 18.644531 33.5625 18.832031 32.871094 18.832031 32.808594 C 18.832031 32.808594 18.832031 32.746094 18.832031 32.746094 L 19.453125 31.613281 L 16.402344 24.570312 L 15.34375 22.117188 C 15.28125 21.992188 15.21875 21.738281 15.15625 21.550781 C 15.15625 21.550781 14.84375 21.613281 14.78125 22.367188 C 14.65625 23.058594 16.839844 29.601562 18.582031 34.503906 Z M 18.582031 34.503906 " fill-opacity="1" fill-rule="nonzero"/></g><path fill="#632d47" d="M 51.722656 39.722656 C 51.601562 39.722656 51.476562 39.660156 51.414062 39.535156 C 51.351562 39.347656 51.414062 39.222656 51.601562 39.160156 C 53.28125 38.53125 55.710938 38.027344 55.835938 38.027344 C 56.023438 37.964844 56.148438 38.089844 56.210938 38.277344 C 56.273438 38.46875 56.148438 38.59375 55.960938 38.65625 C 55.960938 38.65625 53.40625 39.222656 51.847656 39.789062 C 51.785156 39.722656 51.722656 39.722656 51.722656 39.722656 Z M 51.722656 39.722656 " fill-opacity="1" fill-rule="nonzero"/><path fill="#632d47" d="M 50.976562 39.976562 L 49.605469 40.480469 C 49.542969 40.480469 49.542969 40.480469 49.480469 40.480469 C 49.355469 40.480469 49.234375 40.417969 49.171875 40.289062 C 49.109375 40.101562 49.171875 39.976562 49.355469 39.914062 L 50.726562 39.410156 C 50.914062 39.347656 51.039062 39.410156 51.101562 39.597656 C 51.226562 39.722656 51.101562 39.914062 50.976562 39.976562 Z M 50.976562 39.976562 " fill-opacity="1" fill-rule="nonzero"/><path fill="#632d47" d="M 48.109375 41.046875 C 47.363281 41.296875 45.246094 42.492188 45.246094 42.492188 C 45.183594 42.492188 45.121094 42.554688 45.121094 42.554688 C 44.996094 42.554688 44.933594 42.492188 44.871094 42.367188 C 44.808594 42.238281 44.871094 42.050781 44.996094 41.925781 C 45.058594 41.863281 47.113281 40.730469 47.988281 40.417969 C 48.171875 40.351562 48.296875 40.417969 48.359375 40.605469 C 48.359375 40.792969 48.296875 40.980469 48.109375 41.046875 Z M 48.109375 41.046875 " fill-opacity="1" fill-rule="nonzero"/><path fill="#632d47" d="M 58.015625 43.246094 L 60.132812 42.492188 C 60.320312 42.429688 60.445312 42.492188 60.507812 42.679688 C 60.570312 42.867188 60.507812 42.996094 60.320312 43.058594 L 58.203125 43.8125 C 58.140625 43.8125 58.140625 43.8125 58.078125 43.8125 C 57.953125 43.8125 57.828125 43.75 57.765625 43.625 C 57.765625 43.496094 57.828125 43.308594 58.015625 43.246094 Z M 58.015625 43.246094 " fill-opacity="1" fill-rule="nonzero"/><path fill="#632d47" d="M 52.535156 46.140625 C 53.78125 45.195312 56.769531 44.1875 56.894531 44.125 C 57.082031 44.0625 57.207031 44.125 57.269531 44.316406 C 57.332031 44.503906 57.269531 44.628906 57.082031 44.691406 C 57.082031 44.691406 54.089844 45.761719 52.90625 46.640625 C 52.847656 46.703125 52.785156 46.703125 52.722656 46.703125 C 52.597656 46.703125 52.535156 46.640625 52.472656 46.578125 C 52.347656 46.390625 52.410156 46.203125 52.535156 46.140625 Z M 52.535156 46.140625 " fill-opacity="1" fill-rule="nonzero"/><path fill="#632d47" d="M 17.835938 24.507812 C 17.773438 24.507812 17.773438 24.507812 17.710938 24.507812 C 17.585938 24.507812 17.460938 24.445312 17.398438 24.316406 C 17.335938 24.191406 16.027344 21.234375 15.59375 20.105469 C 15.21875 18.972656 14.65625 16.835938 14.59375 16.707031 C 14.535156 16.519531 14.65625 16.394531 14.84375 16.332031 C 15.03125 16.269531 15.15625 16.394531 15.21875 16.582031 C 15.21875 16.582031 15.777344 18.847656 16.152344 19.914062 C 16.527344 20.984375 17.898438 24.066406 17.898438 24.066406 C 18.085938 24.253906 18.023438 24.445312 17.835938 24.507812 Z M 17.835938 24.507812 " fill-opacity="1" fill-rule="nonzero"/><path fill="#632d47" d="M 18.207031 25.199219 C 18.394531 25.136719 18.519531 25.199219 18.644531 25.386719 L 19.390625 27.273438 C 19.453125 27.460938 19.390625 27.585938 19.207031 27.714844 C 19.144531 27.714844 19.144531 27.714844 19.082031 27.714844 C 18.957031 27.714844 18.832031 27.652344 18.769531 27.523438 L 18.023438 25.636719 C 17.960938 25.449219 18.023438 25.261719 18.207031 25.199219 Z M 18.207031 25.199219 " fill-opacity="1" fill-rule="nonzero"/><path fill="#632d47" d="M 28.175781 18.15625 C 28.113281 18.15625 28.113281 18.15625 28.050781 18.15625 C 27.925781 18.15625 27.800781 18.09375 27.738281 17.964844 L 27.367188 17.023438 C 27.304688 16.835938 27.367188 16.707031 27.554688 16.582031 C 27.738281 16.519531 27.863281 16.582031 27.988281 16.769531 L 28.363281 17.714844 C 28.425781 17.902344 28.363281 18.09375 28.175781 18.15625 Z M 28.175781 18.15625 " fill-opacity="1" fill-rule="nonzero"/><path fill="#632d47" d="M 29.734375 20.984375 C 29.859375 20.921875 30.046875 20.984375 30.167969 21.109375 L 32.289062 25.449219 C 32.351562 25.574219 32.289062 25.765625 32.164062 25.890625 C 32.101562 25.890625 32.101562 25.953125 32.039062 25.953125 C 31.914062 25.953125 31.789062 25.890625 31.789062 25.765625 L 29.671875 21.425781 C 29.484375 21.234375 29.546875 21.046875 29.734375 20.984375 Z M 29.734375 20.984375 " fill-opacity="1" fill-rule="nonzero"/><path fill="#632d47" d="M 32.476562 26.644531 C 32.597656 26.582031 32.785156 26.582031 32.910156 26.769531 L 33.71875 28.152344 C 33.78125 28.28125 33.78125 28.46875 33.597656 28.59375 C 33.535156 28.59375 33.472656 28.65625 33.410156 28.65625 C 33.285156 28.65625 33.222656 28.59375 33.160156 28.53125 L 32.351562 27.148438 C 32.289062 26.957031 32.351562 26.769531 32.476562 26.644531 Z M 32.476562 26.644531 " fill-opacity="1" fill-rule="nonzero"/><path fill="#632d47" d="M 20.078125 19.285156 C 20.015625 19.351562 19.953125 19.351562 19.890625 19.351562 C 19.765625 19.351562 19.703125 19.285156 19.640625 19.222656 L 19.019531 18.21875 C 18.957031 18.09375 18.957031 17.902344 19.144531 17.777344 C 19.269531 17.714844 19.453125 17.714844 19.578125 17.902344 L 20.203125 18.910156 C 20.265625 18.972656 20.203125 19.160156 20.078125 19.285156 Z M 20.078125 19.285156 " fill-opacity="1" fill-rule="nonzero"/><path fill="#632d47" d="M 20.886719 22.117188 C 21.074219 22.054688 21.199219 22.117188 21.324219 22.242188 L 23.441406 26.894531 C 23.503906 27.085938 23.441406 27.210938 23.316406 27.335938 C 23.253906 27.335938 23.253906 27.335938 23.191406 27.335938 C 23.066406 27.335938 22.945312 27.273438 22.882812 27.148438 L 20.761719 22.492188 C 20.636719 22.367188 20.699219 22.179688 20.886719 22.117188 Z M 20.886719 22.117188 " fill-opacity="1" fill-rule="nonzero"/><path fill="#632d47" d="M 23.316406 27.652344 C 23.503906 27.585938 23.628906 27.652344 23.691406 27.839844 L 24.066406 28.84375 C 24.128906 29.035156 24.066406 29.160156 23.878906 29.222656 C 23.816406 29.222656 23.816406 29.222656 23.753906 29.222656 C 23.628906 29.222656 23.503906 29.160156 23.441406 29.035156 L 23.066406 28.027344 C 23.066406 27.902344 23.128906 27.714844 23.316406 27.652344 Z M 23.316406 27.652344 " fill-opacity="1" fill-rule="nonzero"/><path fill="#632d47" d="M 36.148438 39.722656 C 35.964844 39.722656 35.839844 39.597656 35.839844 39.410156 C 35.402344 34.316406 33.222656 31.488281 33.222656 31.421875 C 33.097656 31.296875 33.160156 31.109375 33.285156 30.984375 C 33.410156 30.859375 33.597656 30.921875 33.71875 31.046875 C 33.78125 31.171875 36.027344 34.066406 36.460938 39.347656 C 36.460938 39.535156 36.335938 39.660156 36.148438 39.722656 Z M 36.148438 39.722656 " fill-opacity="1" fill-rule="nonzero"/><path fill="#632d47" d="M 36.089844 40.480469 C 36.089844 40.289062 36.210938 40.164062 36.398438 40.164062 C 36.585938 40.164062 36.710938 40.289062 36.710938 40.480469 L 36.835938 44 C 36.835938 44.1875 36.710938 44.316406 36.523438 44.316406 C 36.335938 44.316406 36.210938 44.1875 36.210938 44 Z M 36.089844 40.480469 " fill-opacity="1" fill-rule="nonzero"/><path fill="#632d47" d="M 51.476562 31.488281 C 51.476562 31.675781 51.351562 31.800781 51.164062 31.800781 C 50.976562 31.800781 50.851562 31.675781 50.851562 31.488281 C 50.851562 29.976562 51.226562 28.28125 51.226562 28.214844 C 51.289062 28.027344 51.414062 27.964844 51.601562 27.964844 C 51.785156 28.027344 51.847656 28.152344 51.847656 28.34375 C 51.847656 28.40625 51.476562 30.101562 51.476562 31.488281 Z M 51.476562 31.488281 " fill-opacity="1" fill-rule="nonzero"/><path fill="#632d47" d="M 51.101562 32.679688 C 51.289062 32.679688 51.414062 32.808594 51.476562 32.933594 L 51.601562 34.191406 C 51.601562 34.378906 51.476562 34.503906 51.351562 34.566406 C 51.351562 34.566406 51.351562 34.566406 51.289062 34.566406 C 51.164062 34.566406 50.976562 34.441406 50.976562 34.316406 L 50.851562 33.058594 C 50.851562 32.871094 50.976562 32.679688 51.101562 32.679688 Z M 51.101562 32.679688 " fill-opacity="1" fill-rule="nonzero"/><path fill="#632d47" d="M 45.496094 28.53125 L 37.769531 29.035156 C 37.582031 29.035156 37.457031 28.910156 37.457031 28.71875 C 37.457031 28.53125 37.582031 28.40625 37.769531 28.40625 L 45.496094 27.964844 C 45.683594 27.964844 45.804688 28.089844 45.804688 28.28125 C 45.804688 28.40625 45.683594 28.53125 45.496094 28.53125 Z M 45.496094 28.53125 " fill-opacity="1" fill-rule="nonzero"/><path fill="#632d47" d="M 48.609375 28.214844 L 47.113281 28.34375 C 47.113281 28.34375 47.113281 28.34375 47.050781 28.34375 C 46.867188 28.34375 46.742188 28.214844 46.742188 28.089844 C 46.742188 27.902344 46.867188 27.777344 46.988281 27.714844 L 48.421875 27.523438 C 48.609375 27.523438 48.734375 27.652344 48.796875 27.777344 C 48.859375 28.027344 48.734375 28.152344 48.609375 28.214844 Z M 48.609375 28.214844 " fill-opacity="1" fill-rule="nonzero"/><path fill="#632d47" d="M 20.515625 32.179688 C 20.328125 32.179688 20.203125 32.050781 20.203125 31.863281 C 20.203125 31.675781 20.328125 31.550781 20.515625 31.550781 C 20.699219 31.550781 25.558594 31.171875 27.863281 31.234375 C 28.050781 31.234375 28.175781 31.359375 28.175781 31.550781 C 28.175781 31.738281 27.988281 31.863281 27.863281 31.863281 C 25.558594 31.738281 20.636719 32.117188 20.515625 32.179688 C 20.574219 32.179688 20.515625 32.179688 20.515625 32.179688 Z M 20.515625 32.179688 " fill-opacity="1" fill-rule="nonzero"/><path fill="#632d47" d="M 29.421875 31.359375 L 30.667969 31.359375 C 30.855469 31.359375 30.980469 31.488281 30.980469 31.675781 C 30.980469 31.863281 30.855469 31.988281 30.667969 31.988281 L 29.421875 31.988281 C 29.234375 31.988281 29.109375 31.863281 29.109375 31.675781 C 29.109375 31.488281 29.234375 31.359375 29.421875 31.359375 Z M 29.421875 31.359375 " fill-opacity="1" fill-rule="nonzero"/><path fill="#632d47" d="M 20.636719 32.996094 C 20.824219 33.058594 20.886719 33.246094 20.824219 33.375 C 20.824219 33.375 20.078125 35.636719 20.824219 38.277344 C 20.886719 38.46875 20.761719 38.59375 20.636719 38.65625 C 20.636719 38.65625 20.574219 38.65625 20.574219 38.65625 C 20.453125 38.65625 20.328125 38.59375 20.265625 38.402344 C 19.453125 35.636719 20.203125 33.246094 20.265625 33.121094 C 20.328125 33.058594 20.453125 32.933594 20.636719 32.996094 Z M 20.636719 32.996094 " fill-opacity="1" fill-rule="nonzero"/><path fill="#632d47" d="M 20.886719 39.722656 C 21.074219 39.660156 21.199219 39.789062 21.261719 39.976562 L 21.574219 41.863281 C 21.574219 42.050781 21.511719 42.175781 21.324219 42.238281 C 21.324219 42.238281 21.261719 42.238281 21.261719 42.238281 C 21.136719 42.238281 20.949219 42.113281 20.949219 41.988281 L 20.636719 40.101562 C 20.574219 39.914062 20.699219 39.789062 20.886719 39.722656 Z M 20.886719 39.722656 " fill-opacity="1" fill-rule="nonzero"/><path fill="#632d47" d="M 30.917969 32.996094 C 31.042969 33.121094 31.042969 33.308594 30.980469 33.4375 C 30.980469 33.4375 30.046875 34.757812 31.167969 38.71875 C 31.230469 38.90625 31.105469 39.03125 30.980469 39.09375 C 30.980469 39.09375 30.917969 39.09375 30.917969 39.09375 C 30.792969 39.09375 30.667969 39.03125 30.605469 38.84375 C 29.359375 34.441406 30.480469 33.058594 30.480469 32.996094 C 30.605469 32.871094 30.792969 32.871094 30.917969 32.996094 Z M 30.917969 32.996094 " fill-opacity="1" fill-rule="nonzero"/><path fill="#632d47" d="M 31.414062 40.351562 C 31.601562 40.289062 31.726562 40.351562 31.789062 40.542969 L 32.785156 43.371094 C 32.847656 43.558594 32.785156 43.6875 32.597656 43.75 C 32.535156 43.75 32.535156 43.75 32.476562 43.75 C 32.351562 43.75 32.226562 43.6875 32.164062 43.558594 L 31.167969 40.667969 C 31.167969 40.542969 31.230469 40.351562 31.414062 40.351562 Z M 31.414062 40.351562 " fill-opacity="1" fill-rule="nonzero"/><path fill="#632d47" d="M 27.988281 48.089844 C 26.308594 47.898438 22.382812 46.011719 22.257812 45.949219 C 22.132812 45.886719 22.070312 45.699219 22.132812 45.511719 C 22.195312 45.320312 22.382812 45.320312 22.570312 45.382812 C 22.632812 45.382812 26.496094 47.332031 28.050781 47.460938 C 28.238281 47.460938 28.363281 47.648438 28.363281 47.773438 C 28.300781 47.960938 28.113281 48.089844 27.988281 48.089844 Z M 27.988281 48.089844 " fill-opacity="1" fill-rule="nonzero"/><path fill="#632d47" d="M 31.351562 49.15625 L 30.230469 48.96875 C 30.046875 48.96875 29.921875 48.78125 29.984375 48.589844 C 29.984375 48.402344 30.167969 48.277344 30.355469 48.339844 L 31.414062 48.464844 C 31.601562 48.464844 31.726562 48.652344 31.664062 48.84375 C 31.664062 49.03125 31.539062 49.15625 31.351562 49.15625 Z M 31.351562 49.15625 " fill-opacity="1" fill-rule="nonzero"/><path fill="#632d47" d="M 21.882812 50.980469 C 21.945312 51.042969 27.179688 55.632812 28.800781 56.515625 C 28.925781 56.578125 28.984375 56.765625 28.925781 56.957031 C 28.863281 57.082031 28.738281 57.144531 28.675781 57.144531 C 28.613281 57.144531 28.550781 57.144531 28.550781 57.082031 C 26.867188 56.199219 21.699219 51.671875 21.511719 51.484375 C 21.386719 51.359375 21.386719 51.167969 21.511719 51.042969 C 21.574219 50.855469 21.757812 50.855469 21.882812 50.980469 Z M 21.882812 50.980469 " fill-opacity="1" fill-rule="nonzero"/><path fill="#632d47" d="M 30.292969 57.457031 L 32.414062 58.839844 C 32.535156 58.90625 32.597656 59.15625 32.476562 59.28125 C 32.414062 59.34375 32.289062 59.40625 32.226562 59.40625 C 32.164062 59.40625 32.101562 59.40625 32.039062 59.34375 L 29.921875 57.960938 C 29.796875 57.898438 29.734375 57.648438 29.859375 57.519531 C 29.984375 57.394531 30.167969 57.332031 30.292969 57.457031 Z M 30.292969 57.457031 " fill-opacity="1" fill-rule="nonzero"/></svg>