<svg xmlns="http://www.w3.org/2000/svg" xmlns:xlink="http://www.w3.org/1999/xlink" width="96" zoomAndPan="magnify" viewBox="0 0 72 72" height="96" preserveAspectRatio="xMidYMid meet" version="1.0"><defs><clipPath id="0fd351b257"><path d="M 9.550781 14.035156 L 64.929688 14.035156 L 64.929688 55.285156 L 9.550781 55.285156 Z M 9.550781 14.035156 " clip-rule="nonzero"/></clipPath></defs><path fill="#e8c8cb" d="M 36 0 C 16.117188 0 0 16.117188 0 36 C 0 55.882812 16.117188 72 36 72 C 55.882812 72 72 55.882812 72 36 C 72 16.117188 55.882812 0 36 0 " fill-opacity="1" fill-rule="nonzero"/><g clip-path="url(#0fd351b257)"><path fill="#632d47" d="M 55.703125 27.179688 C 55.28125 26.902344 54.929688 26.644531 54.472656 26.585938 C 54.417969 27.519531 54.53125 29.265625 54.691406 29.816406 C 55.011719 29.679688 55.328125 29.546875 55.652344 29.410156 C 55.667969 28.648438 55.683594 27.941406 55.703125 27.179688 Z M 60.6875 30.941406 C 60.667969 30.171875 60.667969 29.488281 60.632812 28.804688 C 60.601562 28.226562 60.6875 27.636719 60.578125 27.042969 C 60.546875 26.863281 60.402344 26.71875 60.21875 26.695312 C 59.632812 26.617188 59.066406 26.601562 58.507812 26.765625 C 58.449219 27.203125 58.457031 27.203125 58.601562 27.566406 C 58.964844 27.6875 59.375 27.476562 59.765625 27.726562 C 60.015625 28.871094 59.722656 30.089844 60.117188 31.308594 C 60.375 31.144531 60.5625 31.023438 60.6875 30.941406 Z M 14.640625 37.21875 C 14.96875 38.222656 15.269531 39.054688 15.644531 39.859375 C 15.953125 40.519531 16.46875 40.84375 17.179688 40.910156 C 17.894531 40.980469 18.457031 40.761719 18.835938 40.117188 C 19.15625 39.570312 19.324219 38.96875 19.480469 38.363281 C 19.519531 38.203125 19.515625 38.03125 19.535156 37.816406 C 17.90625 37.757812 16.332031 37.738281 14.640625 37.21875 Z M 10.988281 47.835938 C 10.019531 49.085938 9.707031 50.480469 9.875 51.996094 C 9.953125 52.714844 10.183594 53.398438 10.613281 53.996094 C 11.078125 54.636719 11.664062 55 12.5 54.980469 C 14.078125 54.945312 15.660156 54.972656 17.238281 54.96875 C 22.664062 54.957031 28.089844 54.941406 33.515625 54.929688 C 36.289062 54.921875 39.058594 54.917969 41.832031 54.90625 C 43.890625 54.898438 45.945312 54.867188 48.003906 54.867188 C 51.640625 54.859375 55.277344 54.855469 58.910156 54.878906 C 59.644531 54.886719 60.199219 54.613281 60.589844 54.042969 C 61.671875 52.464844 61.855469 50.773438 61.101562 49.015625 C 60.769531 48.238281 60.15625 47.84375 59.265625 47.855469 C 56.640625 47.878906 54.019531 47.867188 51.394531 47.859375 C 47.878906 47.851562 44.359375 47.824219 40.84375 47.820312 C 37.59375 47.8125 34.34375 47.828125 31.097656 47.824219 C 27.191406 47.820312 23.285156 47.800781 19.378906 47.789062 C 17.445312 47.78125 15.503906 47.773438 13.566406 47.777344 C 12.734375 47.777344 11.902344 47.816406 10.988281 47.835938 Z M 54.925781 47.46875 C 54.8125 47.035156 54.6875 46.609375 54.59375 46.179688 C 54.066406 43.800781 53.929688 41.378906 53.777344 38.957031 C 53.617188 36.40625 53.878906 33.871094 54.140625 31.339844 C 54.289062 29.902344 54.253906 28.46875 54.125 27.035156 C 54.039062 26.085938 53.6875 25.234375 53.058594 24.515625 C 52.5625 23.949219 51.996094 23.457031 51.320312 23.121094 C 49.714844 22.328125 48.019531 21.90625 46.222656 21.992188 C 45.210938 22.042969 44.210938 22.203125 43.222656 22.449219 C 41.226562 22.945312 39.226562 23.425781 37.1875 23.699219 C 35.40625 23.933594 33.613281 24 31.828125 23.835938 C 28.914062 23.566406 26.179688 22.6875 23.601562 21.285156 C 22.582031 20.734375 21.519531 20.246094 20.445312 19.800781 C 19.734375 19.507812 18.984375 19.28125 18.226562 19.136719 C 17.289062 18.957031 16.335938 18.976562 15.394531 19.238281 C 14.542969 19.46875 13.984375 20 13.722656 20.832031 C 13.570312 21.316406 13.417969 21.8125 13.371094 22.3125 C 13.207031 23.949219 13.03125 25.589844 12.964844 27.234375 C 12.863281 29.878906 13.203125 32.496094 13.714844 35.085938 C 13.753906 35.292969 13.800781 35.5 13.871094 35.695312 C 14.136719 36.449219 14.613281 36.953125 15.433594 37.136719 C 16.753906 37.429688 18.085938 37.496094 19.429688 37.507812 C 19.546875 37.511719 19.667969 37.492188 19.785156 37.476562 C 20.785156 37.351562 21.507812 36.851562 21.925781 35.914062 C 22.152344 35.40625 22.386719 34.90625 22.648438 34.414062 C 23.003906 33.746094 23.359375 33.070312 23.761719 32.433594 C 24.539062 31.214844 25.65625 30.542969 27.109375 30.507812 C 28.300781 30.480469 29.492188 30.464844 30.683594 30.492188 C 32.085938 30.527344 33.484375 30.617188 34.882812 30.6875 C 35.359375 30.710938 35.835938 30.734375 36.3125 30.765625 C 37.351562 30.832031 38.394531 30.902344 39.433594 30.976562 C 39.972656 31.015625 40.484375 31.140625 40.976562 31.386719 C 42.414062 32.097656 43.183594 33.285156 43.351562 34.847656 C 43.5 36.246094 43.5625 37.65625 43.34375 39.058594 C 43.210938 39.917969 43.097656 40.777344 42.964844 41.636719 C 42.738281 43.066406 42.320312 44.429688 41.609375 45.699219 C 41.386719 46.089844 41.222656 46.511719 41.0625 46.929688 C 41.003906 47.082031 41.019531 47.265625 41.003906 47.433594 C 41.136719 47.484375 41.21875 47.539062 41.296875 47.539062 C 45.742188 47.550781 50.183594 47.5625 54.625 47.566406 C 54.707031 47.566406 54.789062 47.515625 54.925781 47.46875 Z M 40.472656 47.515625 C 40.902344 46.582031 41.277344 45.734375 41.683594 44.90625 C 42.039062 44.175781 42.320312 43.417969 42.472656 42.621094 C 42.800781 40.917969 43.160156 39.210938 43.175781 37.46875 C 43.183594 36.511719 43.164062 35.542969 43.019531 34.601562 C 42.765625 32.933594 41.746094 31.878906 40.148438 31.378906 C 40.007812 31.335938 39.855469 31.269531 39.714844 31.285156 C 38.84375 31.402344 38 31.128906 37.136719 31.105469 C 35.675781 31.070312 34.21875 30.96875 32.761719 30.902344 C 31.480469 30.84375 30.199219 30.777344 28.917969 30.757812 C 28.171875 30.746094 27.429688 30.796875 26.683594 30.851562 C 25.777344 30.917969 25.03125 31.339844 24.449219 32.03125 C 24.164062 32.371094 23.886719 32.734375 23.675781 33.125 C 23.148438 34.097656 22.660156 35.089844 22.164062 36.082031 C 21.875 36.65625 21.511719 37.160156 20.917969 37.445312 C 20.652344 37.574219 20.363281 37.652344 20.03125 37.773438 C 19.96875 37.925781 19.875 38.109375 19.8125 38.304688 C 19.691406 38.675781 19.605469 39.054688 19.476562 39.421875 C 19.265625 40.023438 18.976562 40.574219 18.445312 40.964844 C 18.378906 41.015625 18.324219 41.089844 18.269531 41.15625 C 18.253906 41.175781 18.265625 41.214844 18.261719 41.28125 C 18.785156 41.265625 19.304688 41.117188 19.820312 41.148438 C 19.988281 41.15625 20.136719 41.261719 20.199219 41.417969 C 20.246094 41.542969 20.257812 41.625 20.25 41.773438 C 20.234375 41.964844 20.09375 42.125 19.90625 42.164062 C 19.46875 42.253906 19.007812 42.164062 18.554688 42.191406 C 18.027344 42.226562 17.496094 42.179688 16.929688 42.257812 C 16.785156 43.441406 17.019531 44.59375 16.894531 45.71875 C 16.886719 45.804688 16.792969 45.859375 16.71875 45.816406 C 16.648438 45.773438 16.65625 45.683594 16.65625 45.617188 C 16.625 44.746094 16.605469 43.878906 16.578125 43.011719 C 16.566406 42.65625 16.535156 42.335938 16.308594 42.003906 C 16.125 41.738281 16.15625 41.324219 16.082031 40.929688 C 15.5625 40.429688 15.238281 39.765625 14.988281 39.050781 C 14.785156 38.460938 14.546875 37.878906 14.324219 37.289062 C 14.289062 37.207031 14.285156 37.105469 14.234375 37.039062 C 13.5 36.09375 13.386719 34.941406 13.191406 33.828125 C 12.910156 32.203125 12.734375 30.5625 12.667969 28.914062 C 12.59375 27.054688 12.796875 25.207031 12.964844 23.359375 C 13.035156 22.582031 13.128906 21.8125 13.339844 21.058594 C 13.652344 19.917969 14.3125 19.160156 15.492188 18.90625 C 15.65625 18.871094 15.8125 18.78125 16.023438 18.695312 C 16.042969 17.699219 16.074219 16.710938 16.0625 15.726562 C 16.058594 15.441406 15.925781 15.152344 15.851562 14.867188 C 15.808594 14.710938 15.765625 14.558594 15.726562 14.40625 C 15.691406 14.289062 15.765625 14.167969 15.882812 14.144531 C 16.492188 14.011719 17.265625 14 17.945312 14.109375 C 18.058594 14.128906 18.140625 14.230469 18.125 14.34375 C 18.121094 14.359375 18.117188 14.371094 18.109375 14.382812 C 17.839844 14.90625 17.789062 15.457031 17.824219 16.035156 C 17.871094 16.898438 17.871094 17.765625 17.894531 18.621094 C 17.996094 18.691406 18.0625 18.765625 18.144531 18.78125 C 20.183594 19.195312 22.027344 20.109375 23.847656 21.082031 C 25.035156 21.714844 26.261719 22.25 27.542969 22.65625 C 30.339844 23.550781 33.191406 23.796875 36.109375 23.519531 C 38.496094 23.292969 40.804688 22.710938 43.128906 22.183594 C 44.03125 21.980469 44.933594 21.777344 45.863281 21.753906 C 45.949219 21.75 46.035156 21.714844 46.164062 21.683594 C 46.195312 21.523438 46.253906 21.355469 46.257812 21.1875 C 46.273438 20.828125 46.253906 20.46875 46.261719 20.109375 C 46.269531 19.734375 46.5 19.480469 46.84375 19.4375 C 47.183594 19.398438 47.578125 19.679688 47.628906 20.023438 C 47.65625 20.230469 47.652344 20.441406 47.660156 20.652344 C 47.679688 20.976562 47.695312 21.304688 47.714844 21.679688 C 47.988281 21.75 48.238281 21.835938 48.492188 21.882812 C 49.285156 22.035156 50.066406 22.230469 50.804688 22.554688 C 52.242188 23.1875 53.417969 24.113281 54.0625 25.601562 C 54.191406 25.894531 54.378906 26.097656 54.652344 26.234375 C 54.917969 26.367188 55.183594 26.5 55.453125 26.625 C 55.5 26.644531 55.566406 26.613281 55.664062 26.597656 C 55.765625 26.234375 55.714844 25.847656 55.730469 25.46875 C 55.765625 24.542969 55.78125 23.613281 55.855469 22.691406 C 55.886719 22.308594 56.027344 21.933594 56.15625 21.570312 C 56.257812 21.285156 56.464844 21.066406 56.746094 20.921875 C 57.4375 20.570312 58.070312 20.796875 58.324219 21.53125 C 58.410156 21.78125 58.441406 22.058594 58.441406 22.324219 C 58.445312 23.160156 58.417969 24 58.414062 24.839844 C 58.414062 25.3125 58.355469 25.792969 58.503906 26.28125 C 59.046875 26.429688 59.582031 26.347656 60.113281 26.371094 C 60.867188 26.398438 60.914062 26.433594 60.921875 27.191406 C 60.933594 28.03125 60.941406 28.871094 60.960938 29.707031 C 60.964844 30.035156 60.976562 30.363281 61.113281 30.710938 C 61.292969 30.730469 61.460938 30.761719 61.632812 30.773438 C 62.199219 30.820312 62.765625 30.835938 63.324219 30.917969 C 63.671875 30.972656 64.015625 31.101562 64.339844 31.242188 C 64.664062 31.378906 64.835938 31.664062 64.90625 32.003906 C 64.996094 32.417969 64.789062 32.789062 64.394531 32.933594 C 64.308594 32.964844 64.21875 32.980469 64.132812 32.992188 C 63.121094 33.09375 62.109375 33.136719 61.109375 32.890625 C 60.90625 32.839844 60.710938 32.769531 60.515625 32.695312 C 60.054688 32.519531 59.835938 32.214844 59.785156 31.6875 C 59.691406 30.675781 59.558594 29.664062 59.566406 28.644531 C 59.570312 28.441406 59.527344 28.234375 59.503906 28.011719 C 59.203125 27.839844 58.917969 27.902344 58.648438 27.972656 C 58.433594 28.179688 58.488281 28.433594 58.488281 28.664062 C 58.5 29.773438 58.519531 30.882812 58.53125 31.988281 C 58.535156 32.320312 58.546875 32.652344 58.511719 32.976562 C 58.414062 33.835938 57.695312 34.253906 56.886719 33.9375 C 56.335938 33.722656 56.023438 33.292969 55.921875 32.734375 C 55.820312 32.179688 55.785156 31.609375 55.730469 31.042969 C 55.695312 30.660156 55.761719 30.265625 55.613281 29.863281 C 55.234375 29.867188 54.929688 30.035156 54.589844 30.242188 C 54.546875 30.449219 54.476562 30.679688 54.457031 30.910156 C 54.328125 32.34375 54.179688 33.773438 54.089844 35.207031 C 53.960938 37.183594 53.996094 39.160156 54.222656 41.128906 C 54.386719 42.585938 54.546875 44.042969 54.742188 45.496094 C 54.804688 45.96875 54.957031 46.429688 55.09375 46.890625 C 55.15625 47.113281 55.28125 47.316406 55.390625 47.554688 C 55.691406 47.566406 55.953125 47.582031 56.21875 47.582031 C 57.265625 47.578125 58.308594 47.589844 59.351562 47.554688 C 60.152344 47.53125 60.71875 47.894531 61.152344 48.523438 C 61.484375 49 61.65625 49.542969 61.75 50.105469 C 61.988281 51.492188 61.726562 52.792969 60.996094 53.984375 C 60.507812 54.78125 59.808594 55.164062 58.835938 55.164062 C 53.707031 55.152344 48.578125 55.179688 43.449219 55.191406 C 40.613281 55.199219 37.78125 55.207031 34.949219 55.214844 C 30.234375 55.226562 25.523438 55.238281 20.8125 55.253906 C 18.066406 55.257812 15.324219 55.246094 12.582031 55.285156 C 11.539062 55.300781 10.816406 54.84375 10.273438 54.015625 C 10.128906 53.789062 9.996094 53.546875 9.910156 53.292969 C 9.320312 51.527344 9.441406 49.820312 10.375 48.1875 C 10.671875 47.664062 11.074219 47.449219 11.6875 47.453125 C 16.1875 47.488281 20.691406 47.492188 25.195312 47.503906 C 30.144531 47.519531 35.097656 47.535156 40.046875 47.546875 C 40.195312 47.546875 40.339844 47.527344 40.472656 47.515625 " fill-opacity="1" fill-rule="nonzero"/></g><path fill="#632d47" d="M 27.480469 27 C 27.257812 26.917969 27.070312 27 26.890625 27.132812 C 26.699219 27.269531 26.511719 27.414062 26.308594 27.53125 C 25.925781 27.753906 25.507812 27.800781 25.078125 27.730469 C 24.726562 27.671875 24.519531 27.480469 24.492188 27.207031 C 24.457031 26.886719 24.605469 26.632812 24.929688 26.472656 C 25.261719 26.308594 25.613281 26.296875 25.960938 26.394531 C 26.1875 26.457031 26.410156 26.539062 26.625 26.640625 C 27 26.8125 27.347656 26.734375 27.765625 26.566406 C 27.613281 26.410156 27.503906 26.300781 27.394531 26.191406 C 27.167969 25.964844 27.046875 25.691406 27.042969 25.367188 C 27.042969 25.121094 27.097656 24.882812 27.339844 24.769531 C 27.5625 24.664062 27.796875 24.6875 28.011719 24.828125 C 28.214844 24.960938 28.375 25.136719 28.4375 25.375 C 28.480469 25.558594 28.511719 25.746094 28.539062 25.933594 C 28.5625 26.117188 28.570312 26.304688 28.585938 26.511719 C 28.976562 26.722656 29.398438 26.699219 29.871094 26.792969 C 29.753906 26.535156 29.644531 26.355469 29.589844 26.160156 C 29.523438 25.941406 29.476562 25.703125 29.46875 25.472656 C 29.460938 25.277344 29.578125 25.117188 29.765625 25.023438 C 29.96875 24.921875 30.136719 25.019531 30.285156 25.136719 C 30.5625 25.355469 30.664062 25.671875 30.695312 26.007812 C 30.722656 26.363281 30.742188 26.714844 30.765625 27.089844 C 31.222656 27.355469 31.71875 27.453125 32.3125 27.636719 C 32.175781 27.320312 32.082031 27.121094 31.996094 26.914062 C 31.871094 26.613281 31.886719 26.3125 32.023438 26.019531 C 32.179688 25.695312 32.539062 25.640625 32.769531 25.917969 C 32.875 26.039062 32.960938 26.195312 32.988281 26.351562 C 33.035156 26.605469 33.035156 26.867188 33.039062 27.125 C 33.039062 27.335938 33 27.546875 33.109375 27.757812 C 33.375 27.886719 33.660156 27.855469 33.925781 27.875 C 34.125 27.695312 34 27.507812 33.957031 27.339844 C 33.863281 27.007812 33.839844 26.683594 33.957031 26.363281 C 34.003906 26.234375 34.070312 26.101562 34.15625 25.996094 C 34.300781 25.808594 34.511719 25.773438 34.730469 25.828125 C 34.933594 25.878906 35.105469 26.058594 35.097656 26.292969 C 35.089844 26.546875 35.039062 26.808594 34.964844 27.050781 C 34.882812 27.316406 34.753906 27.566406 34.644531 27.824219 C 35.132812 27.984375 35.21875 27.988281 35.925781 27.839844 C 35.921875 27.714844 35.925781 27.582031 35.914062 27.453125 C 35.882812 27.097656 35.816406 26.746094 35.8125 26.394531 C 35.8125 26.066406 36.046875 25.835938 36.324219 25.816406 C 36.621094 25.796875 36.898438 26.050781 36.917969 26.394531 C 36.929688 26.578125 36.898438 26.773438 36.847656 26.949219 C 36.777344 27.199219 36.671875 27.433594 36.578125 27.679688 C 37.046875 27.785156 37.359375 27.722656 38.003906 27.390625 C 37.960938 27.203125 37.917969 27.003906 37.871094 26.800781 C 37.796875 26.472656 37.78125 26.144531 37.894531 25.820312 C 37.988281 25.554688 38.179688 25.429688 38.429688 25.464844 C 38.636719 25.492188 38.804688 25.652344 38.839844 25.894531 C 38.859375 26.03125 38.847656 26.175781 38.828125 26.3125 C 38.796875 26.566406 38.75 26.816406 38.699219 27.132812 C 39.21875 26.964844 39.617188 26.742188 40.011719 26.449219 C 39.90625 26.21875 39.824219 25.996094 39.710938 25.796875 C 39.507812 25.441406 39.84375 24.796875 40.328125 24.707031 C 40.679688 24.644531 40.980469 24.910156 40.949219 25.289062 C 40.929688 25.496094 40.859375 25.699219 40.8125 25.90625 C 41.246094 25.882812 41.582031 25.710938 41.890625 25.382812 C 42.117188 25.144531 42.347656 24.90625 42.601562 24.699219 C 42.804688 24.535156 43.058594 24.460938 43.328125 24.476562 C 43.578125 24.488281 43.785156 24.582031 43.953125 24.761719 C 44.210938 25.039062 44.164062 25.496094 43.84375 25.683594 C 43.683594 25.777344 43.492188 25.839844 43.3125 25.859375 C 43.058594 25.882812 42.785156 25.894531 42.539062 25.828125 C 42.117188 25.71875 41.75 25.804688 41.394531 26.019531 C 41.253906 26.105469 41.105469 26.175781 40.921875 26.273438 C 41.074219 26.445312 41.261719 26.453125 41.421875 26.511719 C 41.65625 26.589844 41.839844 26.726562 41.957031 26.949219 C 42.117188 27.253906 41.941406 27.59375 41.601562 27.636719 C 41.324219 27.675781 41.09375 27.570312 40.890625 27.394531 C 40.644531 27.175781 40.40625 26.957031 40.136719 26.714844 C 39.800781 26.890625 39.488281 27.050781 39.179688 27.21875 C 39.105469 27.257812 39.039062 27.316406 38.925781 27.394531 C 39.128906 27.550781 39.296875 27.667969 39.453125 27.800781 C 39.621094 27.945312 39.714844 28.132812 39.714844 28.363281 C 39.710938 28.621094 39.542969 28.804688 39.28125 28.832031 C 38.941406 28.871094 38.683594 28.726562 38.515625 28.4375 C 38.386719 28.21875 38.285156 27.980469 38.160156 27.730469 C 37.769531 27.761719 37.421875 27.847656 37.066406 28.023438 C 37.203125 28.234375 37.320312 28.402344 37.421875 28.582031 C 37.507812 28.738281 37.507812 28.910156 37.398438 29.054688 C 37.273438 29.21875 37.089844 29.25 36.890625 29.207031 C 36.617188 29.148438 36.425781 28.988281 36.285156 28.753906 C 36.171875 28.574219 36.066406 28.394531 35.945312 28.191406 C 35.59375 28.199219 35.25 28.207031 34.917969 28.214844 C 34.796875 28.386719 34.925781 28.5 34.949219 28.628906 C 34.984375 28.859375 35.046875 29.097656 35.011719 29.320312 C 34.9375 29.785156 34.445312 29.929688 34.097656 29.617188 C 33.847656 29.394531 33.742188 29.121094 33.789062 28.792969 C 33.816406 28.605469 33.863281 28.425781 33.902344 28.222656 C 33.636719 28.042969 33.359375 28.097656 33.074219 28.066406 C 32.914062 28.320312 32.761719 28.558594 32.609375 28.792969 C 32.332031 29.214844 31.933594 29.4375 31.4375 29.492188 C 31.367188 29.496094 31.296875 29.503906 31.226562 29.5 C 30.851562 29.476562 30.683594 29.1875 30.855469 28.855469 C 30.992188 28.59375 31.210938 28.417969 31.457031 28.269531 C 31.648438 28.152344 31.855469 28.046875 32.128906 27.894531 C 31.660156 27.671875 31.246094 27.542969 30.78125 27.433594 C 30.675781 27.625 30.566406 27.804688 30.476562 27.988281 C 30.21875 28.503906 29.789062 28.820312 29.277344 29.039062 C 29.167969 29.085938 29.050781 29.109375 28.9375 29.132812 C 28.765625 29.160156 28.605469 29.132812 28.496094 28.980469 C 28.382812 28.832031 28.382812 28.675781 28.460938 28.515625 C 28.65625 28.113281 28.980469 27.84375 29.363281 27.644531 C 29.589844 27.523438 29.824219 27.417969 30.121094 27.277344 C 29.992188 27.1875 29.917969 27.101562 29.828125 27.082031 C 29.464844 26.988281 29.109375 26.847656 28.683594 26.902344 C 28.570312 27.082031 28.449219 27.28125 28.316406 27.472656 C 28.171875 27.6875 28.027344 27.90625 27.863281 28.105469 C 27.671875 28.339844 27.410156 28.429688 27.109375 28.433594 C 26.703125 28.441406 26.492188 28.128906 26.691406 27.773438 C 26.792969 27.597656 26.964844 27.457031 27.113281 27.304688 C 27.226562 27.191406 27.351562 27.089844 27.46875 26.984375 C 27.484375 26.957031 27.503906 26.933594 27.519531 26.90625 C 27.507812 26.9375 27.496094 26.96875 27.480469 27 " fill-opacity="1" fill-rule="nonzero"/><path fill="#632d47" d="M 17.460938 32.6875 C 17.375 32.40625 17.300781 32.164062 17.207031 31.851562 C 16.984375 32.054688 16.820312 32.210938 16.652344 32.363281 C 16.355469 32.621094 16.039062 32.855469 15.648438 32.953125 C 15.179688 33.070312 14.867188 32.796875 14.929688 32.320312 C 14.976562 31.996094 15.121094 31.710938 15.398438 31.535156 C 15.636719 31.382812 15.902344 31.261719 16.167969 31.160156 C 16.429688 31.0625 16.710938 31.007812 17.015625 30.921875 C 16.964844 30.632812 16.925781 30.378906 16.875 30.078125 C 16.644531 30.023438 16.417969 29.984375 16.195312 29.921875 C 15.824219 29.816406 15.441406 29.71875 15.082031 29.570312 C 14.816406 29.457031 14.609375 29.246094 14.511719 28.953125 C 14.410156 28.632812 14.59375 28.339844 14.921875 28.363281 C 15.148438 28.378906 15.394531 28.4375 15.582031 28.554688 C 15.84375 28.722656 16.0625 28.957031 16.296875 29.164062 C 16.429688 29.277344 16.5625 29.390625 16.757812 29.558594 C 16.871094 29.144531 16.777344 28.824219 16.726562 28.457031 C 16.398438 28.273438 16.058594 28.082031 15.71875 27.890625 C 15.222656 27.609375 14.851562 27.21875 14.6875 26.660156 C 14.636719 26.488281 14.613281 26.296875 14.625 26.121094 C 14.640625 25.839844 14.9375 25.636719 15.191406 25.75 C 15.421875 25.855469 15.65625 26 15.824219 26.1875 C 16.0625 26.457031 16.242188 26.785156 16.453125 27.085938 C 16.519531 27.183594 16.597656 27.28125 16.746094 27.480469 C 16.804688 27.054688 16.84375 26.757812 16.894531 26.417969 C 16.722656 26.261719 16.539062 26.117188 16.386719 25.945312 C 16.074219 25.59375 15.75 25.25 15.492188 24.859375 C 15.34375 24.632812 15.277344 24.324219 15.25 24.046875 C 15.230469 23.816406 15.332031 23.578125 15.585938 23.472656 C 15.820312 23.371094 16.109375 23.425781 16.289062 23.664062 C 16.464844 23.886719 16.609375 24.140625 16.71875 24.402344 C 16.839844 24.6875 16.902344 24.996094 17.015625 25.367188 C 17.105469 25.242188 17.191406 25.175781 17.214844 25.09375 C 17.339844 24.589844 17.539062 24.113281 17.605469 23.582031 C 17.714844 22.742188 18.246094 22.164062 19.0625 21.890625 C 19.367188 21.789062 19.679688 21.792969 19.980469 21.929688 C 20.304688 22.074219 20.445312 22.367188 20.3125 22.703125 C 20.25 22.867188 20.152344 23.042969 20.019531 23.152344 C 19.78125 23.351562 19.515625 23.53125 19.242188 23.671875 C 18.964844 23.8125 18.664062 23.933594 18.363281 24 C 17.726562 24.136719 17.574219 24.589844 17.515625 25.128906 C 17.734375 25.25 17.835938 25.085938 17.964844 25.023438 C 18.441406 24.789062 18.929688 24.628906 19.46875 24.652344 C 19.699219 24.664062 19.875 24.746094 19.972656 24.960938 C 20.058594 25.148438 20.007812 25.34375 19.882812 25.476562 C 19.726562 25.640625 19.539062 25.808594 19.332031 25.886719 C 19.042969 25.992188 18.722656 26.03125 18.414062 26.070312 C 18.027344 26.121094 17.632812 26.125 17.25 26.304688 C 17.066406 26.660156 17.0625 27.039062 17.128906 27.492188 C 17.347656 27.371094 17.519531 27.261719 17.699219 27.175781 C 18.007812 27.03125 18.3125 26.875 18.632812 26.777344 C 18.820312 26.722656 19.050781 26.738281 19.246094 26.785156 C 19.523438 26.847656 19.628906 27.140625 19.523438 27.410156 C 19.371094 27.785156 19.078125 28.007812 18.710938 28.085938 C 18.355469 28.160156 17.984375 28.164062 17.625 28.199219 C 17.449219 28.214844 17.273438 28.230469 17.074219 28.25 C 17.003906 28.621094 16.992188 28.941406 17.144531 29.292969 C 17.472656 29.230469 17.679688 29.011719 17.925781 28.882812 C 18.230469 28.722656 18.535156 28.570312 18.886719 28.601562 C 19.015625 28.613281 19.144531 28.644531 19.257812 28.699219 C 19.433594 28.78125 19.480469 28.996094 19.398438 29.171875 C 19.292969 29.398438 19.117188 29.566406 18.898438 29.644531 C 18.605469 29.75 18.292969 29.804688 17.992188 29.871094 C 17.738281 29.921875 17.464844 29.855469 17.21875 30.03125 C 17.222656 30.171875 17.222656 30.320312 17.226562 30.480469 C 17.5625 30.664062 17.910156 30.601562 18.238281 30.652344 C 18.492188 30.691406 18.765625 30.707031 18.996094 30.820312 C 19.21875 30.925781 19.417969 31.117188 19.585938 31.308594 C 19.742188 31.496094 19.773438 31.734375 19.644531 31.972656 C 19.523438 32.1875 19.324219 32.21875 19.109375 32.230469 C 18.753906 32.242188 18.441406 32.113281 18.152344 31.925781 C 17.960938 31.800781 17.777344 31.664062 17.53125 31.496094 C 17.472656 31.90625 17.570312 32.207031 17.753906 32.523438 C 17.960938 32.519531 18.164062 32.507812 18.367188 32.511719 C 18.679688 32.515625 18.996094 32.511719 19.304688 32.550781 C 19.566406 32.582031 19.796875 32.714844 19.960938 32.9375 C 20.09375 33.121094 20.132812 33.320312 20.039062 33.53125 C 19.953125 33.726562 19.769531 33.757812 19.582031 33.78125 C 19.261719 33.816406 18.960938 33.722656 18.667969 33.605469 C 18.484375 33.53125 18.328125 33.386719 17.933594 33.320312 C 18.1875 33.527344 18.296875 33.617188 18.402344 33.707031 C 18.679688 33.945312 18.984375 34.15625 19.226562 34.429688 C 19.390625 34.617188 19.507812 34.871094 19.585938 35.113281 C 19.671875 35.382812 19.496094 35.679688 19.226562 35.832031 C 18.984375 35.972656 18.746094 35.945312 18.511719 35.726562 C 18.152344 35.386719 17.988281 34.953125 17.917969 34.472656 C 17.875 34.164062 17.824219 33.859375 17.777344 33.570312 C 17.539062 33.519531 17.523438 33.679688 17.460938 33.777344 C 17.320312 33.996094 17.199219 34.230469 17.042969 34.4375 C 16.9375 34.582031 16.796875 34.707031 16.652344 34.820312 C 16.453125 34.972656 16.226562 35.011719 15.992188 34.890625 C 15.78125 34.785156 15.671875 34.496094 15.738281 34.203125 C 15.839844 33.769531 16.105469 33.449219 16.472656 33.222656 C 16.761719 33.046875 17.070312 32.898438 17.460938 32.6875 " fill-opacity="1" fill-rule="nonzero"/><path fill="#632d47" d="M 46.902344 44.507812 C 46.816406 44.230469 46.734375 43.964844 46.652344 43.703125 C 46.527344 43.296875 46.550781 42.894531 46.695312 42.5 C 46.765625 42.300781 46.886719 42.140625 47.128906 42.132812 C 47.359375 42.125 47.515625 42.261719 47.605469 42.453125 C 47.679688 42.609375 47.722656 42.789062 47.746094 42.960938 C 47.769531 43.15625 47.757812 43.359375 47.765625 43.570312 C 48.164062 43.398438 48.164062 43.398438 48.628906 42.71875 C 48.5 42.53125 48.351562 42.332031 48.21875 42.125 C 47.957031 41.71875 47.882812 41.273438 47.984375 40.804688 C 48.003906 40.707031 48.039062 40.609375 48.085938 40.523438 C 48.25 40.21875 48.644531 40.171875 48.839844 40.453125 C 48.984375 40.65625 49.078125 40.898438 49.160156 41.136719 C 49.214844 41.300781 49.214844 41.480469 49.242188 41.667969 C 49.640625 41.34375 49.683594 41.277344 50.046875 40.46875 C 49.84375 40.191406 49.628906 39.914062 49.429688 39.621094 C 49.265625 39.390625 49.148438 39.132812 49.160156 38.839844 C 49.164062 38.714844 49.171875 38.582031 49.210938 38.464844 C 49.292969 38.234375 49.449219 38.074219 49.703125 38.042969 C 49.914062 38.019531 50.128906 38.15625 50.230469 38.40625 C 50.296875 38.570312 50.324219 38.746094 50.359375 38.921875 C 50.378906 39.019531 50.367188 39.125 50.378906 39.226562 C 50.390625 39.296875 50.417969 39.371094 50.445312 39.480469 C 50.761719 39.246094 50.832031 38.933594 50.832031 38.601562 C 50.828125 38.160156 50.917969 37.738281 51.101562 37.34375 C 51.175781 37.183594 51.277344 37.035156 51.390625 36.898438 C 51.523438 36.738281 51.714844 36.664062 51.925781 36.65625 C 52.203125 36.644531 52.417969 36.820312 52.460938 37.09375 C 52.519531 37.445312 52.410156 37.757812 52.179688 38.011719 C 51.976562 38.234375 51.757812 38.460938 51.503906 38.621094 C 51.082031 38.886719 50.886719 39.269531 50.761719 39.757812 C 50.972656 39.882812 51.152344 39.746094 51.328125 39.699219 C 51.605469 39.625 51.875 39.597656 52.144531 39.714844 C 52.542969 39.886719 52.609375 40.289062 52.285156 40.566406 C 52.082031 40.738281 51.839844 40.828125 51.582031 40.808594 C 51.183594 40.773438 50.785156 40.703125 50.335938 40.640625 C 50.003906 41.089844 49.722656 41.609375 49.417969 42.1875 C 49.75 42.179688 49.972656 42.164062 50.199219 42.171875 C 50.453125 42.175781 50.699219 42.234375 50.910156 42.398438 C 51.210938 42.636719 51.234375 42.988281 50.957031 43.253906 C 50.742188 43.457031 50.476562 43.558594 50.1875 43.492188 C 49.945312 43.4375 49.707031 43.339844 49.484375 43.226562 C 49.308594 43.136719 49.15625 42.996094 48.960938 42.855469 C 48.515625 43.269531 48.15625 43.742188 47.738281 44.246094 C 47.96875 44.308594 48.140625 44.347656 48.304688 44.402344 C 48.472656 44.457031 48.644531 44.507812 48.796875 44.597656 C 49.003906 44.71875 49.132812 44.910156 49.09375 45.167969 C 49.0625 45.398438 48.828125 45.585938 48.550781 45.632812 C 48.199219 45.6875 47.894531 45.585938 47.644531 45.34375 C 47.464844 45.171875 47.304688 44.972656 47.113281 44.753906 C 46.664062 45 46.21875 45.214844 45.835938 45.554688 C 45.609375 45.757812 45.355469 45.933594 45.089844 46.074219 C 44.714844 46.265625 44.308594 46.300781 43.917969 46.105469 C 43.527344 45.910156 43.480469 45.53125 43.789062 45.234375 C 43.960938 45.070312 44.160156 44.953125 44.394531 44.949219 C 44.722656 44.945312 45.070312 44.910156 45.375 44.992188 C 46.003906 45.167969 46.449219 44.894531 46.902344 44.507812 " fill-opacity="1" fill-rule="nonzero"/><path fill="#632d47" d="M 48.484375 34.859375 C 48.582031 33.996094 48.527344 31.09375 48.402344 30.074219 C 48.394531 30.015625 48.34375 29.96875 48.285156 29.96875 C 48.097656 29.960938 47.902344 29.953125 47.679688 29.945312 C 47.609375 29.945312 47.550781 30.003906 47.554688 30.074219 C 47.628906 31.6875 47.640625 33.269531 47.835938 34.898438 C 47.84375 34.964844 47.902344 35.011719 47.96875 35.003906 C 48.125 34.988281 48.253906 34.976562 48.375 34.964844 C 48.433594 34.960938 48.476562 34.914062 48.484375 34.859375 Z M 48.472656 27.972656 C 48.53125 27.898438 48.488281 27.789062 48.394531 27.773438 C 48.277344 27.757812 48.203125 27.742188 48.125 27.75 C 47.175781 27.820312 46.4375 28.289062 45.863281 29.03125 C 44.539062 30.75 44.773438 33.457031 46.371094 34.925781 C 47.757812 36.203125 49.773438 36.054688 50.964844 34.589844 C 52.359375 32.871094 52.175781 30.132812 50.550781 28.625 C 50.429688 28.511719 50.28125 28.425781 50.144531 28.34375 C 50.101562 28.316406 50.046875 28.320312 50.007812 28.351562 C 49.28125 28.910156 49.136719 29.039062 48.960938 29.386719 C 48.917969 29.464844 48.976562 29.5625 49.0625 29.5625 C 49.3125 29.566406 49.5625 29.574219 49.828125 29.578125 C 49.976562 29.582031 49.992188 29.796875 49.84375 29.820312 C 49.507812 29.875 49.171875 29.828125 48.875 29.984375 C 48.839844 30 48.820312 30.03125 48.8125 30.070312 C 48.71875 30.558594 48.742188 31.0625 48.84375 31.585938 C 48.855469 31.636719 48.894531 31.671875 48.941406 31.679688 C 49.339844 31.746094 49.695312 31.648438 50.050781 31.640625 C 50.128906 31.636719 50.222656 31.632812 50.257812 31.722656 C 50.289062 31.792969 50.238281 31.875 50.160156 31.882812 C 49.777344 31.933594 49.382812 31.980469 48.984375 32.035156 C 48.933594 32.039062 48.890625 32.078125 48.882812 32.128906 C 48.773438 32.648438 48.796875 33.117188 48.898438 33.605469 C 48.910156 33.660156 48.960938 33.703125 49.015625 33.703125 C 49.257812 33.710938 49.488281 33.714844 49.734375 33.71875 C 49.875 33.722656 49.898438 33.929688 49.757812 33.960938 C 49.472656 34.023438 49.175781 33.984375 48.949219 34.132812 C 48.917969 34.15625 48.898438 34.1875 48.894531 34.226562 C 48.871094 34.546875 48.847656 34.847656 48.824219 35.160156 C 48.816406 35.21875 48.773438 35.261719 48.71875 35.269531 C 48.316406 35.328125 47.957031 35.414062 47.636719 35.222656 C 47.617188 35.207031 47.597656 35.1875 47.585938 35.164062 C 47.429688 34.792969 47.613281 34.375 47.335938 34.09375 C 47.324219 34.082031 47.308594 34.070312 47.292969 34.066406 C 47.019531 33.972656 46.730469 34.070312 46.457031 34.023438 C 46.324219 34.003906 46.324219 33.8125 46.453125 33.785156 C 46.757812 33.71875 47.097656 33.820312 47.359375 33.589844 C 47.378906 33.570312 47.394531 33.542969 47.398438 33.515625 C 47.453125 33.085938 47.441406 32.652344 47.289062 32.230469 C 47.273438 32.195312 47.246094 32.167969 47.210938 32.15625 C 46.878906 32.054688 46.53125 32.179688 46.148438 32.121094 C 46.015625 32.097656 46.011719 31.90625 46.144531 31.878906 C 46.523438 31.808594 46.882812 31.871094 47.199219 31.71875 C 47.234375 31.703125 47.261719 31.667969 47.265625 31.628906 C 47.332031 31.105469 47.304688 30.597656 47.183594 30.0625 C 47.171875 30.007812 47.125 29.96875 47.070312 29.964844 C 46.761719 29.957031 46.46875 29.953125 46.175781 29.925781 C 46.175781 29.925781 46.175781 29.925781 46.171875 29.925781 C 46.027344 29.914062 46.035156 29.699219 46.179688 29.6875 C 46.488281 29.660156 46.746094 29.636719 47 29.613281 C 47.042969 29.609375 47.078125 29.585938 47.097656 29.546875 C 47.394531 28.917969 47.992188 28.558594 48.472656 27.972656 Z M 50.339844 28.027344 C 50.339844 28.070312 50.355469 28.109375 50.390625 28.132812 C 50.542969 28.25 50.71875 28.371094 50.867188 28.519531 C 52.371094 30.058594 52.632812 32.59375 51.464844 34.390625 C 50.75 35.492188 49.753906 36.109375 48.414062 36.082031 C 47.433594 36.0625 46.636719 35.632812 45.972656 34.945312 C 44.488281 33.40625 44.296875 30.734375 45.539062 28.984375 C 46.238281 28.003906 47.171875 27.429688 48.402344 27.453125 C 48.777344 27.460938 49.105469 27.421875 49.386719 27.144531 C 49.488281 27.046875 49.644531 26.996094 49.78125 26.949219 C 50.101562 26.84375 50.378906 27.046875 50.390625 27.394531 C 50.394531 27.582031 50.363281 27.773438 50.339844 28.027344 " fill-opacity="1" fill-rule="nonzero"/><path fill="#632d47" d="M 26.113281 52.832031 C 26.039062 52.828125 26.039062 52.71875 26.113281 52.71875 C 30.601562 52.734375 35.089844 52.757812 39.578125 52.785156 C 39.589844 52.785156 39.597656 52.789062 39.605469 52.800781 C 39.664062 52.867188 39.632812 52.96875 39.554688 53 C 39.527344 53.011719 39.5 53.019531 39.472656 53.019531 C 35.027344 53.058594 30.578125 53.019531 26.113281 52.832031 " fill-opacity="1" fill-rule="nonzero"/><path fill="#632d47" d="M 13.117188 49.929688 C 13.003906 49.902344 13.011719 49.738281 13.125 49.714844 C 13.179688 49.703125 13.230469 49.695312 13.28125 49.695312 C 17.242188 49.742188 21.207031 49.792969 25.171875 49.847656 C 25.179688 49.847656 25.1875 49.894531 25.195312 49.921875 C 25.167969 49.964844 25.144531 50.050781 25.117188 50.050781 C 21.125 50.015625 17.132812 49.976562 13.136719 49.933594 C 13.128906 49.933594 13.121094 49.929688 13.117188 49.929688 " fill-opacity="1" fill-rule="nonzero"/><path fill="#632d47" d="M 55.972656 50.839844 C 56.089844 50.84375 56.128906 51.003906 56.027344 51.058594 C 55.992188 51.074219 55.949219 51.085938 55.90625 51.089844 C 55.820312 51.105469 55.730469 51.109375 55.640625 51.109375 C 52.9375 51.101562 50.230469 51.097656 47.527344 51.085938 C 47.355469 51.085938 47.183594 51.066406 47.011719 51.046875 C 46.964844 51.042969 46.921875 51.019531 46.894531 50.984375 C 46.855469 50.933594 46.894531 50.855469 46.957031 50.855469 C 47.753906 50.84375 53.097656 50.78125 55.972656 50.839844 " fill-opacity="1" fill-rule="nonzero"/></svg>