<svg xmlns="http://www.w3.org/2000/svg" xmlns:xlink="http://www.w3.org/1999/xlink" width="96" zoomAndPan="magnify" viewBox="0 0 72 72" height="96" preserveAspectRatio="xMidYMid meet" version="1.0"><defs><clipPath id="dab3a8e829"><path d="M 3.179688 0 L 72 0 L 72 72 L 3.179688 72 Z M 3.179688 0 " clip-rule="nonzero"/></clipPath></defs><g clip-path="url(#dab3a8e829)"><path fill="#34616d" d="M 69.113281 0.632812 C 69.488281 0.632812 69.847656 0.714844 70.183594 0.878906 C 71.6875 1.402344 71.652344 3.003906 70.988281 3.523438 C 70.324219 4.046875 70.359375 4.5 70.359375 4.5 C 70.359375 4.5 69.554688 5.300781 68.683594 5.476562 C 67.808594 5.648438 67.496094 6.382812 67.003906 7.53125 C 66.515625 8.679688 65.816406 10.042969 65.085938 10.769531 C 64.351562 11.5 63.546875 12.929688 62.882812 13.90625 C 62.21875 14.878906 61.277344 16.34375 60.507812 16.867188 C 59.742188 17.386719 58.308594 19.199219 57.261719 20.730469 C 56.214844 22.265625 54.570312 23.554688 54.570312 23.554688 C 54.570312 23.554688 53.699219 24.074219 54.675781 24.945312 C 55.65625 25.816406 58.796875 27.871094 62.675781 28.1875 C 66.550781 28.5 67.144531 30.902344 67.460938 31.5625 C 67.730469 32.136719 67.246094 33.253906 66.34375 33.253906 C 66.183594 33.253906 66.035156 33.222656 65.886719 33.167969 C 64.699219 32.714844 63.441406 31.949219 62.1875 31.878906 C 61.558594 31.84375 60.039062 31.835938 58.675781 31.835938 C 57.3125 31.835938 56.109375 31.84375 56.109375 31.84375 C 55.753906 31.878906 55.394531 31.894531 55.039062 31.894531 C 54.054688 31.894531 52.660156 31.761719 52.058594 31.078125 C 51.566406 30.519531 51.140625 30.292969 50.789062 30.292969 C 50.441406 30.292969 50.171875 30.519531 49.996094 30.867188 C 49.648438 31.5625 48.390625 33.792969 47.378906 35.8125 C 46.363281 37.832031 43.289062 43.371094 41.265625 44.90625 C 39.238281 46.4375 39.273438 46.820312 39.273438 48.214844 C 39.273438 49.605469 38.644531 54.167969 37.421875 57.164062 C 36.199219 60.160156 34.734375 62.527344 34.734375 64.722656 C 34.734375 66.917969 34.488281 66.605469 35.1875 67.160156 C 35.886719 67.71875 36.410156 68.066406 36.375 69.566406 C 36.34375 70.886719 36.03125 71.367188 35.101562 71.367188 C 34.964844 71.367188 34.828125 71.355469 34.691406 71.339844 C 33.441406 71.203125 31.90625 71.027344 31.90625 71.027344 C 31.90625 71.027344 31.066406 70.644531 31.101562 69.632812 C 31.136719 68.625 31.03125 68.484375 30.226562 68.378906 C 29.425781 68.277344 28.027344 67.894531 27.398438 66.117188 C 26.769531 64.339844 25.410156 60.71875 26.140625 56.503906 C 26.875 52.289062 26.980469 54.832031 26.945312 51.488281 C 26.917969 48.820312 26.53125 47.417969 26.183594 47.417969 C 26.09375 47.417969 26.007812 47.507812 25.929688 47.691406 C 25.546875 48.597656 23.3125 55.074219 21.253906 57.863281 C 19.191406 60.648438 16.710938 63.574219 11.996094 63.75 C 10.699219 63.796875 9.488281 63.851562 8.417969 63.851562 C 5.589844 63.851562 3.734375 63.464844 3.859375 61.519531 C 3.964844 59.894531 4.75 59.535156 5.816406 59.535156 C 6.511719 59.535156 7.328125 59.6875 8.15625 59.742188 C 8.355469 59.757812 8.582031 59.761719 8.835938 59.761719 C 11.226562 59.761719 15.738281 59.078125 17.757812 56.085938 C 19.996094 52.777344 20.484375 51.488281 21.148438 48.492188 C 21.8125 45.496094 23.101562 40.445312 23.90625 38.183594 C 24.710938 35.917969 27.328125 32.75 30.261719 30.726562 C 33.195312 28.707031 38.050781 25.609375 39.03125 24.320312 C 40.007812 23.03125 41.507812 21.601562 41.789062 21.464844 C 42.066406 21.324219 42.941406 20.382812 43.117188 20.070312 C 43.289062 19.757812 43.710938 18.921875 43.882812 18.710938 C 44.058594 18.503906 44.40625 17.632812 44.234375 16.449219 C 44.058594 15.261719 43.710938 11.851562 44.023438 10.386719 L 44.339844 8.925781 C 44.339844 8.925781 44.09375 7.878906 44.164062 6.730469 C 44.234375 5.582031 44.152344 4.359375 44.152344 4.359375 C 44.152344 4.359375 45.664062 4.882812 46.050781 5.335938 C 46.242188 5.5625 46.539062 5.675781 46.890625 5.675781 C 47.246094 5.675781 47.65625 5.5625 48.074219 5.335938 C 48.464844 5.125 49.074219 4.988281 49.703125 4.988281 C 50.425781 4.988281 51.171875 5.167969 51.636719 5.613281 C 52.207031 6.160156 52.855469 6.425781 53.417969 6.425781 C 53.71875 6.425781 53.992188 6.351562 54.222656 6.207031 C 54.628906 5.953125 55.125 5.605469 55.609375 5.605469 C 55.917969 5.605469 56.222656 5.746094 56.492188 6.136719 C 56.613281 6.3125 56.714844 6.476562 56.804688 6.632812 C 57.539062 6.441406 58.28125 6.34375 59.039062 6.332031 C 58.304688 6.394531 57.589844 6.546875 56.894531 6.789062 C 57.273438 7.46875 57.429688 7.960938 57.644531 8.121094 C 57.699219 8.164062 57.753906 8.226562 57.808594 8.296875 C 58.132812 8.261719 58.460938 8.242188 58.789062 8.242188 C 59.050781 8.242188 59.316406 8.253906 59.585938 8.277344 C 59.554688 8.277344 59.523438 8.277344 59.492188 8.277344 C 58.957031 8.277344 58.425781 8.324219 57.898438 8.417969 C 58.097656 8.71875 58.261719 9.113281 58.238281 9.238281 C 58.210938 9.378906 58.066406 10.769531 58.410156 10.769531 C 58.488281 10.769531 58.59375 10.699219 58.726562 10.527344 C 59.460938 9.585938 60.125 9.238281 60.371094 9.203125 C 60.613281 9.167969 61.242188 8.75 61.871094 7.566406 C 62.5 6.382812 63.792969 4.570312 64.527344 3.976562 C 65.257812 3.386719 65.714844 2.550781 65.992188 2.269531 C 66.21875 2.042969 67.566406 0.632812 69.113281 0.632812 M 69.113281 0.00390625 C 68.355469 0.00390625 67.566406 0.273438 66.769531 0.804688 C 66.164062 1.203125 65.734375 1.636719 65.574219 1.800781 C 65.5625 1.808594 65.554688 1.820312 65.546875 1.828125 C 65.417969 1.957031 65.292969 2.125 65.136719 2.339844 C 64.878906 2.699219 64.550781 3.148438 64.128906 3.488281 C 63.636719 3.886719 63.054688 4.628906 62.648438 5.179688 C 62.128906 5.894531 61.640625 6.65625 61.3125 7.273438 C 61.035156 7.800781 60.773438 8.121094 60.605469 8.296875 C 60.425781 8.480469 60.296875 8.5625 60.25 8.585938 C 60.203125 8.59375 60.160156 8.601562 60.117188 8.617188 C 60.175781 8.523438 60.210938 8.421875 60.214844 8.3125 C 60.222656 8.203125 60.199219 8.097656 60.152344 8 C 60.101562 7.898438 60.03125 7.820312 59.941406 7.757812 C 59.851562 7.695312 59.75 7.660156 59.640625 7.648438 C 59.355469 7.625 59.066406 7.613281 58.789062 7.613281 C 58.542969 7.613281 58.296875 7.625 58.050781 7.640625 C 58.050781 7.640625 58.046875 7.636719 58.042969 7.632812 C 57.992188 7.570312 57.890625 7.363281 57.8125 7.195312 L 57.800781 7.175781 C 58.226562 7.070312 58.65625 6.996094 59.09375 6.960938 C 59.261719 6.945312 59.402344 6.875 59.515625 6.75 C 59.625 6.621094 59.675781 6.476562 59.671875 6.308594 C 59.664062 6.140625 59.597656 5.996094 59.476562 5.878906 C 59.355469 5.761719 59.210938 5.707031 59.039062 5.707031 C 59.039062 5.707031 59.035156 5.707031 59.03125 5.707031 C 58.382812 5.714844 57.738281 5.785156 57.105469 5.917969 C 57.074219 5.871094 57.042969 5.824219 57.011719 5.78125 C 56.550781 5.117188 55.996094 4.976562 55.609375 4.976562 C 54.984375 4.976562 54.433594 5.324219 53.992188 5.609375 C 53.957031 5.628906 53.921875 5.652344 53.886719 5.675781 C 53.761719 5.753906 53.597656 5.796875 53.417969 5.796875 C 52.988281 5.796875 52.496094 5.566406 52.074219 5.160156 C 51.535156 4.644531 50.695312 4.363281 49.703125 4.363281 C 48.984375 4.363281 48.265625 4.519531 47.773438 4.785156 C 47.460938 4.953125 47.148438 5.046875 46.890625 5.046875 C 46.792969 5.046875 46.617188 5.03125 46.53125 4.929688 C 46.386719 4.761719 46.09375 4.492188 45.210938 4.101562 C 44.765625 3.90625 44.375 3.773438 44.359375 3.765625 C 44.257812 3.730469 44.15625 3.722656 44.050781 3.742188 C 43.945312 3.757812 43.851562 3.796875 43.769531 3.863281 C 43.683594 3.925781 43.621094 4.003906 43.578125 4.101562 C 43.535156 4.199219 43.515625 4.296875 43.523438 4.402344 C 43.523438 4.414062 43.601562 5.597656 43.535156 6.691406 C 43.476562 7.675781 43.625 8.578125 43.695312 8.921875 L 43.40625 10.253906 C 43.257812 10.949219 43.226562 12.058594 43.316406 13.558594 C 43.382812 14.695312 43.511719 15.875 43.609375 16.539062 C 43.6875 17.070312 43.640625 17.5 43.582031 17.765625 C 43.519531 18.085938 43.425781 18.269531 43.394531 18.316406 C 43.238281 18.507812 43.023438 18.898438 42.742188 19.433594 C 42.671875 19.570312 42.609375 19.6875 42.566406 19.765625 C 42.535156 19.816406 42.371094 20.035156 42.0625 20.367188 C 41.757812 20.695312 41.554688 20.867188 41.496094 20.90625 C 41.40625 20.953125 41.269531 21.042969 40.957031 21.316406 C 40.742188 21.507812 40.488281 21.75 40.222656 22.015625 C 39.847656 22.394531 39.128906 23.144531 38.527344 23.941406 C 38.421875 24.078125 38.183594 24.339844 37.640625 24.789062 C 37.226562 25.128906 36.707031 25.527344 36.046875 26.003906 C 34.820312 26.894531 33.371094 27.867188 31.96875 28.8125 C 31.226562 29.3125 30.527344 29.78125 29.90625 30.210938 C 29.136719 30.746094 28.40625 31.328125 27.71875 31.964844 C 27.039062 32.589844 26.398438 33.253906 25.804688 33.957031 C 24.617188 35.363281 23.730469 36.789062 23.3125 37.972656 C 22.839844 39.304688 22.265625 41.390625 21.863281 42.902344 C 21.375 44.753906 20.878906 46.792969 20.53125 48.355469 C 20.214844 49.796875 19.9375 50.839844 19.464844 51.921875 C 19.011719 52.953125 18.367188 54.058594 17.238281 55.734375 C 15.542969 58.242188 11.652344 59.132812 8.835938 59.132812 C 8.605469 59.132812 8.390625 59.128906 8.195312 59.117188 C 7.867188 59.09375 7.535156 59.054688 7.210938 59.015625 C 6.722656 58.960938 6.261719 58.90625 5.816406 58.90625 C 5.472656 58.90625 5.179688 58.941406 4.914062 59.007812 C 4.585938 59.09375 4.300781 59.238281 4.066406 59.441406 C 3.566406 59.871094 3.292969 60.535156 3.230469 61.476562 C 3.179688 62.246094 3.382812 62.875 3.835938 63.355469 C 4.257812 63.808594 4.890625 64.109375 5.765625 64.285156 C 6.445312 64.417969 7.285156 64.480469 8.417969 64.480469 C 9.308594 64.480469 10.289062 64.441406 11.324219 64.402344 C 11.550781 64.394531 11.785156 64.386719 12.019531 64.375 C 12.613281 64.355469 13.203125 64.289062 13.785156 64.175781 C 14.320312 64.070312 14.847656 63.925781 15.359375 63.738281 C 16.296875 63.390625 17.160156 62.917969 18 62.285156 C 18.703125 61.757812 19.382812 61.125 20.070312 60.351562 C 20.714844 59.628906 21.285156 58.875 21.757812 58.234375 C 22.523438 57.203125 23.394531 55.570312 24.347656 53.386719 C 25.09375 51.675781 25.730469 49.988281 26.132812 48.929688 L 26.132812 48.933594 C 26.242188 49.613281 26.304688 50.5 26.316406 51.496094 C 26.332031 53.210938 26.316406 53.253906 26.207031 53.539062 C 26.078125 53.875 25.863281 54.4375 25.519531 56.394531 C 25.347656 57.410156 25.273438 58.429688 25.308594 59.457031 C 25.335938 60.371094 25.4375 61.28125 25.609375 62.179688 C 25.921875 63.847656 26.414062 65.230469 26.742188 66.148438 C 26.761719 66.210938 26.785156 66.269531 26.804688 66.324219 C 27.128906 67.242188 27.671875 67.941406 28.414062 68.40625 C 28.910156 68.71875 29.492188 68.917969 30.148438 69.003906 C 30.316406 69.027344 30.410156 69.046875 30.460938 69.058594 C 30.464844 69.082031 30.46875 69.117188 30.472656 69.160156 C 30.476562 69.265625 30.476562 69.410156 30.472656 69.613281 C 30.453125 70.195312 30.644531 70.722656 31.027344 71.136719 C 31.304688 71.4375 31.585938 71.574219 31.640625 71.597656 C 31.703125 71.628906 31.765625 71.644531 31.832031 71.652344 C 31.847656 71.65625 33.386719 71.828125 34.621094 71.964844 C 34.78125 71.984375 34.941406 71.996094 35.101562 71.996094 C 35.421875 71.996094 35.691406 71.949219 35.929688 71.851562 C 36.203125 71.742188 36.425781 71.5625 36.59375 71.320312 C 36.742188 71.105469 36.84375 70.851562 36.910156 70.53125 C 36.964844 70.269531 36.996094 69.957031 37.003906 69.578125 C 37.023438 68.796875 36.902344 68.210938 36.628906 67.738281 C 36.371094 67.296875 36.015625 67.015625 35.667969 66.738281 C 35.640625 66.714844 35.609375 66.695312 35.582031 66.671875 C 35.542969 66.640625 35.507812 66.613281 35.476562 66.585938 C 35.421875 66.542969 35.363281 66.496094 35.324219 66.464844 C 35.320312 66.375 35.328125 66.195312 35.335938 66.023438 C 35.347656 65.722656 35.363281 65.3125 35.363281 64.722656 C 35.363281 63.273438 36.105469 61.652344 36.960938 59.777344 C 37.308594 59.023438 37.664062 58.242188 38.007812 57.402344 C 38.707031 55.6875 39.164062 53.628906 39.425781 52.203125 C 39.757812 50.402344 39.90625 48.902344 39.90625 48.214844 L 39.90625 48.144531 C 39.902344 47.492188 39.910156 47.191406 40.074219 46.890625 C 40.273438 46.53125 40.726562 46.101562 41.644531 45.40625 C 42.585938 44.691406 43.796875 43.167969 45.234375 40.875 C 46.367188 39.074219 47.398438 37.175781 47.941406 36.09375 C 48.574219 34.832031 49.3125 33.472656 49.847656 32.480469 C 50.171875 31.886719 50.425781 31.414062 50.558594 31.148438 C 50.601562 31.0625 50.6875 30.921875 50.789062 30.921875 C 50.839844 30.921875 51.105469 30.949219 51.582031 31.492188 C 51.941406 31.902344 52.511719 32.191406 53.269531 32.355469 C 53.777344 32.46875 54.375 32.523438 55.039062 32.523438 C 55.589844 32.523438 56.019531 32.484375 56.144531 32.472656 C 56.339844 32.46875 57.449219 32.460938 58.675781 32.460938 C 60.445312 32.460938 61.648438 32.476562 62.152344 32.503906 C 62.929688 32.546875 63.769531 32.925781 64.585938 33.292969 C 64.9375 33.453125 65.304688 33.617188 65.664062 33.753906 C 65.882812 33.839844 66.109375 33.882812 66.34375 33.882812 C 66.945312 33.882812 67.488281 33.570312 67.839844 33.019531 C 68.1875 32.46875 68.265625 31.789062 68.027344 31.296875 C 68.007812 31.246094 67.976562 31.175781 67.941406 31.089844 C 67.847656 30.863281 67.71875 30.546875 67.515625 30.199219 C 67.273438 29.78125 66.980469 29.410156 66.628906 29.078125 C 65.691406 28.203125 64.378906 27.691406 62.726562 27.558594 C 58.964844 27.253906 55.941406 25.230469 55.097656 24.476562 C 54.902344 24.304688 54.847656 24.1875 54.84375 24.152344 C 54.859375 24.125 54.882812 24.105469 54.90625 24.085938 C 54.925781 24.074219 54.945312 24.0625 54.960938 24.046875 C 55.03125 23.992188 56.691406 22.679688 57.78125 21.085938 C 58.328125 20.289062 58.929688 19.484375 59.476562 18.820312 C 60.277344 17.847656 60.691406 17.503906 60.863281 17.386719 C 61.65625 16.84375 62.515625 15.574219 63.203125 14.554688 C 63.273438 14.449219 63.339844 14.351562 63.40625 14.257812 C 63.597656 13.972656 63.800781 13.660156 64.011719 13.328125 C 64.5 12.558594 65.054688 11.691406 65.53125 11.214844 C 66.378906 10.371094 67.117188 8.878906 67.585938 7.777344 C 67.808594 7.25 68.003906 6.796875 68.214844 6.503906 C 68.386719 6.257812 68.554688 6.140625 68.804688 6.09375 C 69.257812 6.003906 69.730469 5.78125 70.214844 5.433594 C 70.425781 5.285156 70.621094 5.121094 70.804688 4.945312 C 70.925781 4.824219 70.988281 4.675781 70.988281 4.503906 C 70.996094 4.464844 71.054688 4.273438 71.378906 4.019531 C 71.636719 3.8125 71.835938 3.519531 71.949219 3.164062 C 72.066406 2.796875 72.085938 2.425781 72.011719 2.050781 C 71.933594 1.671875 71.773438 1.335938 71.527344 1.042969 C 71.246094 0.710938 70.875 0.457031 70.425781 0.296875 C 70.011719 0.101562 69.574219 0.00390625 69.113281 0.00390625 Z M 58.832031 8.929688 C 59.050781 8.914062 59.273438 8.90625 59.492188 8.90625 L 59.523438 8.90625 C 59.464844 8.941406 59.410156 8.980469 59.359375 9.015625 C 59.179688 9.148438 59.007812 9.292969 58.847656 9.449219 C 58.851562 9.402344 58.855469 9.371094 58.859375 9.355469 C 58.882812 9.230469 58.875 9.09375 58.832031 8.929688 Z M 58.832031 8.929688 " fill-opacity="1" fill-rule="nonzero"/></g></svg>