<svg xmlns="http://www.w3.org/2000/svg" xmlns:xlink="http://www.w3.org/1999/xlink" width="500" zoomAndPan="magnify" viewBox="0 0 375 374.999991" height="500" preserveAspectRatio="xMidYMid meet" version="1.0"><defs><clipPath id="2b227b6547"><path d="M 115.8125 112.5 L 259 112.5 L 259 262.5 L 115.8125 262.5 Z M 115.8125 112.5 " clip-rule="nonzero"/></clipPath></defs><g clip-path="url(#2b227b6547)"><path fill="#34616d" d="M 252.699219 113.816406 C 253.476562 113.8125 254.21875 113.984375 254.917969 114.324219 C 258.035156 115.414062 257.964844 118.75 256.585938 119.839844 C 255.207031 120.929688 255.28125 121.871094 255.28125 121.871094 C 255.28125 121.871094 253.613281 123.542969 251.800781 123.902344 C 249.988281 124.265625 249.335938 125.789062 248.320312 128.1875 C 247.304688 130.582031 245.855469 133.417969 244.332031 134.9375 C 242.808594 136.457031 241.140625 139.433594 239.761719 141.464844 C 238.386719 143.496094 236.429688 146.546875 234.832031 147.632812 C 233.238281 148.722656 230.265625 152.496094 228.089844 155.6875 C 225.914062 158.882812 222.507812 161.566406 222.507812 161.566406 C 222.507812 161.566406 220.695312 162.65625 222.722656 164.46875 C 224.753906 166.285156 231.28125 170.566406 239.328125 171.21875 C 247.378906 171.871094 248.609375 176.878906 249.261719 178.257812 C 249.828125 179.449219 248.820312 181.78125 246.941406 181.78125 C 246.617188 181.777344 246.300781 181.714844 246 181.597656 C 243.535156 180.652344 240.921875 179.054688 238.3125 178.910156 C 237.007812 178.839844 233.855469 178.820312 231.027344 178.820312 C 228.199219 178.820312 225.695312 178.839844 225.695312 178.839844 C 224.957031 178.914062 224.21875 178.949219 223.476562 178.945312 C 221.433594 178.945312 218.535156 178.671875 217.285156 177.242188 C 216.269531 176.082031 215.382812 175.609375 214.65625 175.609375 C 213.933594 175.609375 213.371094 176.082031 213.007812 176.808594 C 212.28125 178.257812 209.671875 182.902344 207.570312 187.113281 C 205.464844 191.320312 199.085938 202.859375 194.878906 206.050781 C 190.675781 209.246094 190.746094 210.042969 190.746094 212.945312 C 190.746094 215.847656 189.441406 225.355469 186.902344 231.597656 C 184.367188 237.835938 181.320312 242.773438 181.320312 247.34375 C 181.320312 251.914062 180.8125 251.261719 182.261719 252.421875 C 183.714844 253.585938 184.800781 254.308594 184.730469 257.429688 C 184.664062 260.183594 184.015625 261.183594 182.085938 261.183594 C 181.800781 261.183594 181.515625 261.164062 181.234375 261.132812 C 178.636719 260.839844 175.449219 260.480469 175.449219 260.480469 C 175.449219 260.480469 173.707031 259.679688 173.78125 257.574219 C 173.851562 255.472656 173.636719 255.179688 171.96875 254.964844 C 170.300781 254.746094 167.398438 253.949219 166.09375 250.246094 C 164.789062 246.546875 161.960938 239 163.484375 230.21875 C 165.007812 221.4375 165.222656 226.734375 165.152344 219.769531 C 165.09375 214.210938 164.292969 211.285156 163.570312 211.285156 C 163.382812 211.285156 163.207031 211.476562 163.042969 211.859375 C 162.25 213.746094 157.609375 227.242188 153.332031 233.046875 C 149.054688 238.851562 143.90625 244.949219 134.117188 245.3125 C 131.425781 245.410156 128.910156 245.527344 126.683594 245.527344 C 120.8125 245.527344 116.960938 244.71875 117.222656 240.667969 C 117.441406 237.285156 119.070312 236.535156 121.289062 236.535156 C 122.730469 236.535156 124.425781 236.851562 126.140625 236.964844 C 126.554688 236.996094 127.027344 237.011719 127.550781 237.011719 C 132.519531 237.011719 141.882812 235.585938 146.082031 229.347656 C 150.722656 222.453125 151.738281 219.769531 153.113281 213.527344 C 154.492188 207.285156 157.175781 196.761719 158.84375 192.046875 C 160.511719 187.328125 165.949219 180.726562 172.039062 176.515625 C 178.128906 172.308594 188.210938 165.847656 190.238281 163.164062 C 192.269531 160.480469 195.386719 157.503906 195.96875 157.214844 C 196.546875 156.921875 198.359375 154.964844 198.722656 154.308594 C 199.085938 153.65625 199.957031 151.914062 200.316406 151.480469 C 200.679688 151.042969 201.40625 149.230469 201.042969 146.761719 C 200.679688 144.296875 199.957031 137.183594 200.609375 134.136719 L 201.261719 131.089844 C 201.261719 131.089844 200.753906 128.910156 200.898438 126.515625 C 201.042969 124.121094 200.871094 121.582031 200.871094 121.582031 C 200.871094 121.582031 204.015625 122.671875 204.8125 123.613281 C 205.210938 124.085938 205.828125 124.320312 206.5625 124.320312 C 207.296875 124.320312 208.148438 124.085938 209.019531 123.613281 C 209.828125 123.175781 211.09375 122.894531 212.402344 122.894531 C 213.898438 122.894531 215.445312 123.265625 216.414062 124.195312 C 217.601562 125.332031 218.941406 125.882812 220.113281 125.882812 C 220.730469 125.882812 221.304688 125.730469 221.78125 125.429688 C 222.621094 124.894531 223.65625 124.171875 224.660156 124.171875 C 225.300781 124.171875 225.929688 124.464844 226.492188 125.28125 C 226.742188 125.644531 226.953125 125.988281 227.144531 126.316406 C 228.664062 125.917969 230.210938 125.707031 231.785156 125.691406 C 230.257812 125.820312 228.773438 126.136719 227.332031 126.636719 C 228.117188 128.054688 228.441406 129.082031 228.886719 129.417969 C 228.996094 129.503906 229.113281 129.632812 229.226562 129.777344 C 229.902344 129.707031 230.578125 129.671875 231.257812 129.671875 C 231.804688 129.671875 232.359375 129.695312 232.917969 129.738281 C 232.851562 129.738281 232.789062 129.738281 232.726562 129.738281 C 231.613281 129.738281 230.507812 129.835938 229.414062 130.035156 C 229.824219 130.65625 230.171875 131.484375 230.121094 131.742188 C 230.0625 132.039062 229.761719 134.9375 230.476562 134.9375 C 230.640625 134.9375 230.855469 134.789062 231.136719 134.425781 C 232.65625 132.46875 234.035156 131.742188 234.542969 131.667969 C 235.050781 131.597656 236.355469 130.730469 237.660156 128.261719 C 238.964844 125.792969 241.648438 122.019531 243.171875 120.785156 C 244.695312 119.550781 245.636719 117.808594 246.21875 117.226562 C 246.691406 116.753906 249.480469 113.816406 252.699219 113.816406 M 252.699219 112.503906 C 251.125 112.503906 249.484375 113.066406 247.828125 114.167969 C 246.574219 115.003906 245.683594 115.90625 245.347656 116.246094 C 245.324219 116.265625 245.308594 116.285156 245.292969 116.300781 C 245.023438 116.570312 244.765625 116.921875 244.445312 117.371094 C 243.902344 118.121094 243.226562 119.054688 242.347656 119.765625 C 241.328125 120.59375 240.113281 122.136719 239.277344 123.285156 C 238.191406 124.777344 237.179688 126.367188 236.503906 127.648438 C 235.921875 128.75 235.382812 129.414062 235.03125 129.78125 C 234.664062 130.167969 234.390625 130.335938 234.292969 130.382812 C 234.199219 130.398438 234.109375 130.421875 234.019531 130.445312 C 234.082031 130.351562 234.128906 130.25 234.164062 130.144531 C 234.199219 130.035156 234.21875 129.925781 234.222656 129.8125 C 234.230469 129.699219 234.222656 129.589844 234.199219 129.476562 C 234.175781 129.367188 234.140625 129.261719 234.089844 129.160156 C 234.042969 129.058594 233.980469 128.964844 233.90625 128.878906 C 233.832031 128.792969 233.746094 128.71875 233.652344 128.65625 C 233.5625 128.59375 233.460938 128.542969 233.355469 128.503906 C 233.246094 128.46875 233.136719 128.445312 233.027344 128.433594 C 232.4375 128.386719 231.839844 128.359375 231.257812 128.359375 C 230.75 128.359375 230.238281 128.378906 229.730469 128.417969 C 229.726562 128.414062 229.71875 128.40625 229.710938 128.402344 C 229.605469 128.265625 229.398438 127.835938 229.234375 127.488281 L 229.210938 127.441406 C 230.09375 127.222656 230.988281 127.074219 231.894531 126.996094 C 232.0625 126.984375 232.222656 126.9375 232.375 126.859375 C 232.523438 126.785156 232.65625 126.683594 232.765625 126.558594 C 232.878906 126.429688 232.960938 126.285156 233.019531 126.128906 C 233.074219 125.96875 233.097656 125.804688 233.089844 125.636719 C 233.082031 125.46875 233.046875 125.304688 232.976562 125.152344 C 232.90625 125 232.808594 124.863281 232.6875 124.746094 C 232.566406 124.628906 232.429688 124.539062 232.269531 124.476562 C 232.113281 124.414062 231.953125 124.382812 231.785156 124.382812 C 231.777344 124.382812 231.773438 124.382812 231.765625 124.382812 C 230.417969 124.398438 229.082031 124.546875 227.761719 124.824219 C 227.699219 124.726562 227.636719 124.632812 227.570312 124.539062 C 226.617188 123.15625 225.460938 122.863281 224.660156 122.863281 C 223.363281 122.863281 222.222656 123.59375 221.304688 124.179688 C 221.230469 124.226562 221.15625 124.273438 221.082031 124.320312 C 220.820312 124.484375 220.484375 124.574219 220.113281 124.574219 C 219.214844 124.574219 218.199219 124.089844 217.320312 123.25 C 216.203125 122.175781 214.457031 121.582031 212.402344 121.582031 C 210.910156 121.582031 209.410156 121.910156 208.394531 122.460938 C 207.742188 122.816406 207.089844 123.011719 206.5625 123.011719 C 206.359375 123.011719 205.992188 122.980469 205.8125 122.769531 C 205.515625 122.414062 204.90625 121.855469 203.070312 121.046875 C 202.148438 120.636719 201.335938 120.355469 201.300781 120.34375 C 201.09375 120.273438 200.882812 120.253906 200.664062 120.289062 C 200.449219 120.324219 200.253906 120.40625 200.078125 120.542969 C 199.902344 120.675781 199.769531 120.839844 199.679688 121.042969 C 199.589844 121.242188 199.550781 121.449219 199.566406 121.671875 C 199.566406 121.695312 199.730469 124.160156 199.59375 126.4375 C 199.46875 128.488281 199.78125 130.371094 199.921875 131.085938 L 199.328125 133.863281 C 199.019531 135.308594 198.957031 137.625 199.140625 140.746094 C 199.277344 143.113281 199.546875 145.570312 199.75 146.953125 C 199.910156 148.058594 199.808594 148.953125 199.695312 149.507812 C 199.558594 150.175781 199.363281 150.5625 199.300781 150.65625 C 198.976562 151.050781 198.535156 151.871094 197.949219 152.980469 C 197.800781 153.265625 197.667969 153.511719 197.578125 153.675781 C 197.515625 153.785156 197.179688 154.242188 196.539062 154.933594 C 195.902344 155.613281 195.480469 155.976562 195.359375 156.050781 C 195.171875 156.148438 194.886719 156.335938 194.242188 156.910156 C 193.796875 157.308594 193.269531 157.8125 192.71875 158.367188 C 191.941406 159.152344 190.449219 160.71875 189.195312 162.375 C 188.976562 162.660156 188.480469 163.203125 187.355469 164.140625 C 186.5 164.851562 185.417969 165.679688 184.046875 166.675781 C 181.5 168.527344 178.488281 170.558594 175.578125 172.523438 C 174.039062 173.566406 172.585938 174.546875 171.296875 175.4375 C 169.695312 176.550781 168.183594 177.769531 166.753906 179.09375 C 165.34375 180.394531 164.019531 181.777344 162.78125 183.246094 C 160.316406 186.171875 158.480469 189.144531 157.609375 191.609375 C 156.625 194.386719 155.433594 198.730469 154.605469 201.882812 C 153.589844 205.742188 152.554688 209.988281 151.835938 213.242188 C 151.175781 216.242188 150.601562 218.417969 149.621094 220.667969 C 148.683594 222.824219 147.34375 225.125 144.996094 228.613281 C 141.476562 233.84375 133.398438 235.699219 127.550781 235.699219 C 127.078125 235.699219 126.632812 235.6875 126.226562 235.660156 C 125.546875 235.613281 124.851562 235.53125 124.175781 235.453125 C 123.164062 235.335938 122.207031 235.222656 121.289062 235.222656 C 120.574219 235.222656 119.960938 235.292969 119.414062 235.4375 C 118.734375 235.617188 118.140625 235.917969 117.65625 236.335938 C 116.613281 237.230469 116.042969 238.621094 115.917969 240.582031 C 115.8125 242.179688 116.234375 243.496094 117.171875 244.492188 C 118.050781 245.433594 119.363281 246.066406 121.183594 246.429688 C 122.589844 246.707031 124.335938 246.839844 126.683594 246.839844 C 128.53125 246.839844 130.566406 246.757812 132.722656 246.675781 C 133.191406 246.65625 133.679688 246.640625 134.164062 246.621094 C 135.398438 246.578125 136.617188 246.4375 137.828125 246.203125 C 138.945312 245.988281 140.035156 245.679688 141.101562 245.289062 C 143.046875 244.566406 144.835938 243.578125 146.578125 242.265625 C 148.039062 241.164062 149.449219 239.84375 150.878906 238.230469 C 152.21875 236.726562 153.402344 235.160156 154.386719 233.824219 C 155.972656 231.671875 157.777344 228.273438 159.753906 223.726562 C 161.304688 220.15625 162.632812 216.644531 163.460938 214.433594 L 163.464844 214.449219 C 163.691406 215.863281 163.820312 217.707031 163.84375 219.78125 C 163.878906 223.359375 163.84375 223.453125 163.617188 224.042969 C 163.351562 224.742188 162.902344 225.914062 162.195312 229.992188 C 161.832031 232.105469 161.683594 234.234375 161.75 236.375 C 161.8125 238.28125 162.019531 240.167969 162.375 242.042969 C 163.03125 245.515625 164.050781 248.402344 164.726562 250.3125 C 164.773438 250.4375 164.816406 250.5625 164.859375 250.683594 C 165.53125 252.589844 166.65625 254.050781 168.199219 255.019531 C 169.226562 255.667969 170.4375 256.085938 171.796875 256.261719 C 172.152344 256.308594 172.34375 256.347656 172.449219 256.378906 C 172.457031 256.425781 172.464844 256.496094 172.472656 256.589844 C 172.488281 256.808594 172.484375 257.109375 172.472656 257.53125 C 172.429688 258.742188 172.828125 259.839844 173.625 260.703125 C 174.199219 261.328125 174.789062 261.617188 174.902344 261.667969 C 175.027344 261.726562 175.160156 261.765625 175.300781 261.78125 C 175.332031 261.785156 178.519531 262.148438 181.089844 262.433594 C 181.421875 262.472656 181.75 262.492188 182.085938 262.496094 C 182.75 262.496094 183.3125 262.398438 183.800781 262.195312 C 184.371094 261.964844 184.832031 261.59375 185.183594 261.085938 C 185.488281 260.644531 185.703125 260.105469 185.839844 259.445312 C 185.953125 258.898438 186.019531 258.25 186.039062 257.460938 C 186.074219 255.832031 185.828125 254.613281 185.253906 253.628906 C 184.722656 252.707031 183.976562 252.117188 183.261719 251.542969 C 183.203125 251.496094 183.140625 251.449219 183.082031 251.402344 C 183.003906 251.339844 182.929688 251.28125 182.863281 251.226562 C 182.75 251.136719 182.625 251.039062 182.546875 250.972656 C 182.539062 250.78125 182.554688 250.410156 182.566406 250.050781 C 182.59375 249.425781 182.628906 248.574219 182.628906 247.34375 C 182.628906 244.320312 184.167969 240.949219 185.945312 237.042969 C 186.664062 235.46875 187.402344 233.84375 188.117188 232.089844 C 189.570312 228.519531 190.519531 224.226562 191.066406 221.253906 C 191.75 217.511719 192.054688 214.382812 192.054688 212.945312 L 192.054688 212.800781 C 192.054688 211.441406 192.070312 210.8125 192.410156 210.1875 C 192.820312 209.441406 193.761719 208.542969 195.671875 207.09375 C 197.625 205.613281 200.132812 202.4375 203.121094 197.65625 C 205.472656 193.90625 207.617188 189.945312 208.738281 187.699219 C 210.054688 185.066406 211.585938 182.234375 212.699219 180.167969 C 213.371094 178.929688 213.902344 177.949219 214.179688 177.390625 C 214.265625 177.214844 214.445312 176.917969 214.65625 176.917969 C 214.757812 176.917969 215.3125 176.976562 216.300781 178.105469 C 217.046875 178.957031 218.226562 179.566406 219.804688 179.910156 C 220.859375 180.140625 222.09375 180.257812 223.476562 180.257812 C 224.621094 180.257812 225.511719 180.175781 225.769531 180.148438 C 226.179688 180.144531 228.484375 180.128906 231.027344 180.128906 C 234.703125 180.128906 237.195312 180.160156 238.242188 180.21875 C 239.855469 180.308594 241.605469 181.097656 243.296875 181.863281 C 244.027344 182.191406 244.785156 182.535156 245.53125 182.820312 C 245.984375 182.996094 246.457031 183.089844 246.941406 183.089844 C 248.195312 183.089844 249.324219 182.4375 250.046875 181.292969 C 250.777344 180.140625 250.933594 178.726562 250.445312 177.699219 C 250.398438 177.597656 250.335938 177.445312 250.265625 177.273438 C 250.066406 176.792969 249.800781 176.140625 249.378906 175.410156 C 248.878906 174.542969 248.265625 173.765625 247.535156 173.082031 C 245.589844 171.257812 242.863281 170.191406 239.433594 169.914062 C 231.625 169.28125 225.351562 165.0625 223.59375 163.492188 C 223.191406 163.128906 223.082031 162.886719 223.070312 162.820312 C 223.105469 162.761719 223.148438 162.714844 223.203125 162.675781 C 223.242188 162.652344 223.28125 162.625 223.316406 162.597656 C 223.460938 162.480469 226.90625 159.75 229.171875 156.425781 C 230.300781 154.769531 231.550781 153.089844 232.691406 151.703125 C 234.351562 149.679688 235.207031 148.964844 235.570312 148.714844 C 237.21875 147.59375 238.996094 144.945312 240.429688 142.820312 C 240.574219 142.601562 240.714844 142.398438 240.847656 142.203125 C 241.25 141.609375 241.664062 140.953125 242.101562 140.261719 C 243.117188 138.664062 244.269531 136.851562 245.257812 135.863281 C 247.019531 134.101562 248.550781 130.996094 249.523438 128.695312 C 249.988281 127.601562 250.390625 126.65625 250.828125 126.042969 C 251.191406 125.53125 251.535156 125.292969 252.058594 125.1875 C 252.992188 125 253.976562 124.539062 254.984375 123.816406 C 255.417969 123.507812 255.824219 123.167969 256.207031 122.796875 C 256.460938 122.542969 256.589844 122.238281 256.589844 121.875 C 256.605469 121.800781 256.722656 121.402344 257.398438 120.867188 C 257.9375 120.441406 258.347656 119.824219 258.585938 119.089844 C 258.824219 118.328125 258.867188 117.550781 258.710938 116.765625 C 258.554688 115.984375 258.21875 115.28125 257.707031 114.667969 C 257.125 113.976562 256.355469 113.453125 255.417969 113.113281 C 254.558594 112.707031 253.652344 112.503906 252.699219 112.503906 Z M 231.351562 131.101562 C 231.804688 131.066406 232.265625 131.050781 232.726562 131.050781 L 232.785156 131.050781 C 232.664062 131.128906 232.550781 131.207031 232.449219 131.28125 C 232.074219 131.558594 231.714844 131.859375 231.382812 132.183594 C 231.390625 132.085938 231.402344 132.015625 231.40625 131.988281 C 231.457031 131.726562 231.4375 131.441406 231.351562 131.101562 Z M 231.351562 131.101562 " fill-opacity="1" fill-rule="nonzero"/></g></svg>