<svg xmlns="http://www.w3.org/2000/svg" xmlns:xlink="http://www.w3.org/1999/xlink" width="96" zoomAndPan="magnify" viewBox="0 0 72 72" height="96" preserveAspectRatio="xMidYMid meet" version="1.0"><defs><clipPath id="5d51daad42"><path d="M 2.78125 22.546875 L 69 22.546875 L 69 49.546875 L 2.78125 49.546875 Z M 2.78125 22.546875 " clip-rule="nonzero"/></clipPath></defs><path fill="#e8c8cb" d="M 36 0 C 16.117188 0 0 16.117188 0 36 C 0 55.882812 16.117188 72 36 72 C 55.882812 72 72 55.882812 72 36 C 72 16.117188 55.882812 0 36 0 " fill-opacity="1" fill-rule="nonzero"/><g clip-path="url(#5d51daad42)"><path fill="#632d47" d="M 5.1875 37.433594 C 5.207031 36.554688 5.265625 35.800781 5.191406 35.019531 C 5.164062 35.011719 5.136719 35.007812 5.105469 35 C 4.984375 35.769531 4.921875 36.546875 4.898438 37.324219 C 4.992188 37.378906 5.085938 37.410156 5.1875 37.433594 Z M 7.164062 40.964844 C 7.164062 40.933594 7.167969 40.914062 7.175781 40.886719 C 6.570312 40.777344 5.960938 40.679688 5.351562 40.578125 C 5.351562 40.746094 5.351562 40.914062 5.410156 41.070312 C 6.003906 41.09375 6.566406 41.34375 7.164062 41.382812 C 7.164062 41.273438 7.164062 41.160156 7.164062 40.964844 Z M 7.476562 37.167969 C 7.460938 36.753906 7.457031 36.339844 7.449219 35.925781 C 7.054688 35.898438 6.664062 35.886719 6.277344 35.941406 C 6.269531 36.320312 6.242188 36.699219 6.296875 37.078125 C 6.691406 37.085938 7.082031 37.117188 7.476562 37.167969 Z M 7.941406 42.144531 C 7.980469 42.144531 8.011719 42.152344 8.046875 42.15625 C 8.011719 41.796875 7.96875 41.402344 7.96875 41.019531 C 7.960938 41.019531 7.953125 41.019531 7.945312 41.019531 C 7.792969 40.992188 7.636719 40.964844 7.480469 40.9375 C 7.480469 40.945312 7.484375 40.957031 7.484375 40.964844 C 7.484375 41.261719 7.484375 41.363281 7.484375 41.558594 C 7.523438 41.699219 7.453125 41.871094 7.265625 41.871094 C 6.929688 41.863281 6.59375 41.832031 6.269531 41.742188 C 5.929688 41.644531 5.605469 41.535156 5.253906 41.550781 C 5.128906 41.554688 5.054688 41.472656 5.03125 41.382812 C 5.019531 41.371094 5.011719 41.363281 5.003906 41.347656 C 4.886719 41.070312 4.875 40.796875 4.875 40.5 C 4.707031 40.472656 4.546875 40.449219 4.382812 40.421875 C 4.5 40.722656 4.53125 41.089844 4.535156 41.421875 C 4.777344 41.792969 5.566406 41.847656 5.957031 41.894531 C 6.617188 41.96875 7.273438 42.121094 7.941406 42.144531 Z M 8.386719 39.648438 C 8.394531 39.648438 8.398438 39.648438 8.402344 39.648438 C 6.976562 39.300781 5.546875 38.960938 4.105469 38.75 C 4.089844 38.742188 4.082031 38.738281 4.070312 38.734375 C 4 38.773438 3.929688 38.816406 3.871094 38.859375 C 3.941406 39.191406 3.949219 39.535156 3.949219 39.871094 C 3.957031 39.871094 3.964844 39.871094 3.96875 39.871094 C 5.316406 40.070312 6.652344 40.3125 7.996094 40.539062 C 8.027344 40.277344 8.09375 40.023438 8.222656 39.800781 C 8.226562 39.792969 8.230469 39.792969 8.234375 39.789062 C 8.261719 39.71875 8.3125 39.65625 8.386719 39.648438 Z M 8.492188 38.09375 C 8.492188 38 8.546875 37.910156 8.546875 37.820312 C 8.300781 37.808594 8.058594 37.792969 7.808594 37.789062 C 7.71875 37.789062 7.65625 37.746094 7.617188 37.691406 C 7.597656 37.675781 7.578125 37.664062 7.558594 37.644531 C 7.535156 37.648438 7.511719 37.65625 7.484375 37.652344 C 7.03125 37.59375 6.574219 37.550781 6.117188 37.550781 C 6.050781 37.550781 6 37.523438 5.960938 37.488281 C 5.90625 37.460938 5.863281 37.414062 5.84375 37.332031 C 5.746094 36.835938 5.792969 36.34375 5.796875 35.839844 C 5.796875 35.832031 5.800781 35.824219 5.804688 35.816406 C 5.753906 35.699219 5.789062 35.542969 5.957031 35.511719 C 6.703125 35.347656 7.457031 35.472656 8.210938 35.480469 C 8.230469 35.480469 8.246094 35.488281 8.261719 35.492188 C 8.25 35.328125 8.222656 35.171875 8.214844 35.007812 C 7.359375 34.945312 6.476562 34.882812 5.625 34.828125 C 5.710938 35.710938 5.644531 37.070312 5.617188 37.714844 C 5.621094 37.738281 5.554688 37.769531 5.554688 37.804688 C 5.554688 37.804688 5.554688 37.804688 5.554688 37.808594 C 6.523438 38.039062 7.492188 38.097656 8.492188 38.09375 Z M 7.960938 37.316406 C 8.152344 37.320312 8.34375 37.332031 8.535156 37.339844 C 8.511719 36.832031 8.472656 36.328125 8.425781 35.824219 L 8.421875 35.824219 C 8.394531 35.902344 8.324219 35.964844 8.210938 35.964844 C 8.117188 35.960938 8.023438 35.957031 7.929688 35.953125 C 7.941406 36.40625 7.941406 36.863281 7.960938 37.316406 Z M 9.265625 43.28125 C 9.140625 43.289062 9.015625 43.289062 8.890625 43.289062 C 8.890625 43.289062 8.890625 43.292969 8.894531 43.292969 C 8.925781 43.339844 8.941406 43.394531 8.949219 43.445312 C 8.957031 43.460938 8.964844 43.472656 8.96875 43.488281 C 9 43.585938 9.09375 43.644531 9.222656 43.683594 C 9.246094 43.550781 9.261719 43.417969 9.265625 43.28125 Z M 9.175781 41.769531 C 9.1875 41.238281 9.289062 40.707031 9.28125 40.175781 C 9.054688 40.160156 8.832031 40.105469 8.609375 40.113281 C 8.351562 40.640625 8.496094 41.34375 8.527344 41.902344 C 8.535156 42.144531 8.386719 42.859375 8.734375 42.941406 C 9.222656 43.054688 9.09375 42.167969 9.09375 41.929688 C 9.09375 41.863281 9.125 41.8125 9.175781 41.769531 Z M 9.035156 38.328125 C 9.121094 38.363281 9.207031 38.398438 9.292969 38.4375 C 9.207031 37.472656 9.328125 36.507812 9.214844 35.550781 C 9.097656 35.507812 8.984375 35.46875 8.867188 35.421875 C 8.9375 36.113281 9 36.800781 9.023438 37.492188 C 9.050781 37.554688 9.054688 37.621094 9.03125 37.6875 C 9.035156 37.898438 9.035156 38.109375 9.035156 38.328125 Z M 10.136719 35.816406 C 9.992188 35.785156 9.851562 35.746094 9.710938 35.703125 C 9.785156 36.679688 9.65625 37.65625 9.789062 38.632812 C 9.789062 38.644531 9.789062 38.648438 9.789062 38.65625 C 9.929688 38.714844 10.070312 38.769531 10.210938 38.820312 C 10.171875 37.820312 9.996094 36.808594 10.136719 35.816406 Z M 10.765625 38.957031 C 10.875 38.972656 10.976562 38.988281 11.078125 39 C 11.046875 38.019531 10.953125 37.039062 11.039062 36.0625 C 10.898438 36.019531 10.75 35.980469 10.605469 35.941406 C 10.464844 36.925781 10.671875 37.957031 10.699219 38.945312 C 10.722656 38.949219 10.746094 38.953125 10.765625 38.957031 Z M 12.035156 41.941406 C 12.035156 41.863281 12.035156 41.785156 12.035156 41.707031 C 11.625 41.714844 11.199219 41.742188 10.800781 41.617188 C 10.433594 41.503906 10.070312 41.351562 9.6875 41.335938 C 9.671875 41.453125 9.667969 41.570312 9.660156 41.6875 C 10.457031 41.757812 11.242188 41.910156 12.035156 41.941406 Z M 12.160156 40.496094 C 12.160156 40.496094 12.164062 40.496094 12.164062 40.492188 C 11.359375 40.34375 10.550781 40.164062 9.75 39.972656 C 9.75 39.984375 9.757812 39.992188 9.757812 40.003906 C 9.777344 40.289062 9.757812 40.570312 9.730469 40.855469 C 10.046875 40.871094 10.34375 40.960938 10.648438 41.0625 C 11.121094 41.21875 11.5625 41.234375 12.058594 41.226562 C 12.074219 41.011719 12.09375 40.796875 12.121094 40.601562 C 12.125 40.558594 12.144531 40.523438 12.160156 40.496094 Z M 13.160156 39.351562 C 13.167969 38.871094 13.238281 38.394531 13.21875 37.910156 C 13.195312 37.40625 13.167969 36.90625 13.175781 36.402344 C 12.988281 36.425781 12.800781 36.449219 12.617188 36.476562 C 12.523438 36.492188 12.457031 36.457031 12.398438 36.402344 C 12.101562 36.347656 11.808594 36.277344 11.515625 36.191406 C 11.445312 37.15625 11.535156 38.117188 11.566406 39.078125 C 11.925781 39.136719 12.289062 39.214844 12.640625 39.34375 C 12.648438 39.34375 12.648438 39.339844 12.652344 39.339844 C 12.824219 39.335938 12.992188 39.34375 13.160156 39.351562 Z M 13.707031 44.226562 C 13.742188 44.199219 13.773438 44.164062 13.804688 44.132812 C 13.410156 44.140625 13.015625 44.113281 12.632812 44.011719 C 12.621094 44.011719 12.617188 44.003906 12.609375 44 C 12.53125 44.007812 12.453125 43.976562 12.40625 43.882812 C 12.207031 43.457031 12.101562 42.949219 12.0625 42.425781 C 11.285156 42.398438 10.511719 42.253906 9.738281 42.179688 C 9.738281 42.417969 9.738281 42.679688 9.738281 42.8125 C 9.75 43.125 9.753906 43.441406 9.699219 43.75 C 10.039062 43.765625 10.398438 43.742188 10.566406 43.769531 C 11.542969 43.917969 12.484375 44.300781 13.464844 44.414062 C 13.550781 44.359375 13.628906 44.300781 13.707031 44.226562 Z M 14.203125 43.632812 C 14.140625 43.515625 14.066406 43.40625 13.980469 43.328125 C 13.8125 43.175781 13.519531 43.261719 13.328125 43.148438 C 13.132812 43.039062 13.042969 42.859375 13.046875 42.636719 C 13.050781 42.324219 13.082031 42.007812 13.101562 41.695312 C 13.109375 41.5 13.203125 40.941406 12.886719 40.886719 C 12.777344 40.871094 12.675781 40.859375 12.574219 40.855469 C 12.523438 41.34375 12.5625 41.851562 12.582031 42.335938 C 12.59375 42.753906 12.632812 43.164062 12.792969 43.554688 C 13.257812 43.671875 13.730469 43.671875 14.203125 43.632812 Z M 14.1875 39.46875 C 14.191406 38.414062 14.214844 37.359375 14.222656 36.304688 C 14.035156 36.316406 13.84375 36.335938 13.660156 36.355469 C 13.648438 36.875 13.6875 37.386719 13.703125 37.910156 C 13.714844 38.410156 13.640625 38.898438 13.640625 39.394531 C 13.820312 39.417969 14.003906 39.441406 14.1875 39.46875 Z M 15.84375 35.765625 C 15.203125 35.675781 14.5625 35.585938 13.925781 35.515625 C 12.414062 35.339844 10.886719 35.210938 9.359375 35.089844 C 9.878906 35.265625 10.410156 35.386719 10.949219 35.515625 C 11.535156 35.660156 12.101562 35.878906 12.699219 35.972656 C 12.707031 35.972656 12.714844 35.980469 12.71875 35.980469 C 13.738281 35.839844 14.796875 35.769531 15.84375 35.765625 Z M 15.222656 39.628906 C 15.292969 39.640625 15.359375 39.644531 15.425781 39.652344 C 15.425781 38.511719 15.324219 37.382812 15.3125 36.25 C 15.109375 36.257812 14.90625 36.261719 14.703125 36.273438 C 14.695312 37.363281 14.671875 38.457031 14.667969 39.546875 C 14.855469 39.574219 15.042969 39.601562 15.222656 39.628906 Z M 16.507812 39.730469 C 16.503906 39.710938 16.496094 39.699219 16.496094 39.679688 C 16.496094 38.832031 16.496094 36.738281 16.496094 36.25 C 16.265625 36.242188 16.03125 36.242188 15.796875 36.242188 C 15.808594 37.398438 15.914062 38.539062 15.910156 39.691406 C 16.109375 39.710938 16.308594 39.71875 16.507812 39.730469 Z M 17.898438 36.316406 C 17.648438 36.296875 17.394531 36.28125 17.136719 36.269531 C 17.136719 37.511719 17.136719 38.75 17.136719 39.679688 C 17.136719 39.710938 17.128906 39.738281 17.117188 39.761719 C 17.347656 39.78125 17.574219 39.800781 17.804688 39.835938 C 17.816406 38.664062 17.882812 37.492188 17.898438 36.316406 Z M 19.929688 39.023438 C 20.273438 38.480469 20.027344 37.734375 20.089844 37.109375 C 19.507812 37.0625 18.933594 37.019531 18.367188 36.972656 C 18.351562 37.636719 18.324219 38.292969 18.304688 38.953125 C 18.851562 38.929688 19.390625 38.957031 19.929688 39.023438 Z M 20.679688 43.507812 C 20.679688 43.363281 20.679688 43.214844 20.679688 43.070312 C 20.390625 43.046875 20.097656 43.015625 19.808594 42.96875 C 19.25 42.871094 18.699219 42.742188 18.152344 42.617188 C 18.152344 42.824219 18.152344 43.054688 18.378906 43.09375 C 18.609375 43.136719 18.847656 43.152344 19.085938 43.183594 C 19.613281 43.242188 20.15625 43.378906 20.679688 43.507812 Z M 22.34375 40.304688 C 22.378906 40.085938 22.394531 39.867188 22.414062 39.648438 C 21.894531 39.5625 21.285156 39.71875 20.753906 39.632812 C 19.933594 39.496094 19.125 39.398438 18.292969 39.4375 C 18.292969 39.550781 18.289062 39.667969 18.289062 39.78125 C 19.589844 40.179688 20.964844 40.285156 22.34375 40.304688 Z M 22.390625 36.914062 C 22.390625 36.804688 22.390625 36.695312 22.386719 36.582031 C 21.054688 36.492188 19.71875 36.320312 18.386719 36.128906 C 18.382812 36.25 18.378906 36.371094 18.378906 36.492188 C 19.699219 36.609375 21.085938 36.675781 22.390625 36.914062 Z M 22.433594 39.15625 C 22.453125 38.574219 22.429688 37.988281 22.410156 37.402344 C 21.804688 37.292969 21.1875 37.214844 20.566406 37.152344 C 20.464844 37.804688 20.707031 38.484375 20.4375 39.09375 C 20.480469 39.101562 20.519531 39.105469 20.5625 39.113281 C 21.101562 39.203125 21.570312 39.234375 22.109375 39.15625 C 22.234375 39.140625 22.332031 39.144531 22.433594 39.15625 Z M 23.398438 37.324219 C 23.226562 37.316406 23.054688 37.316406 22.886719 37.316406 C 22.910156 38.082031 22.9375 38.851562 22.890625 39.613281 C 23.058594 39.601562 23.222656 39.59375 23.390625 39.585938 C 23.375 38.828125 23.289062 38.078125 23.398438 37.324219 Z M 24.453125 37.34375 C 24.265625 37.34375 24.074219 37.339844 23.882812 37.332031 C 23.753906 38.074219 23.855469 38.824219 23.875 39.566406 C 24.0625 39.5625 24.25 39.570312 24.433594 39.585938 C 24.429688 38.839844 24.453125 38.09375 24.453125 37.34375 Z M 24.75 40.8125 C 24.75 40.800781 24.75 40.785156 24.75 40.777344 C 22.539062 40.777344 20.25 40.886719 18.136719 40.230469 C 18.128906 40.230469 18.121094 40.222656 18.121094 40.222656 C 18.066406 40.289062 17.984375 40.320312 17.878906 40.300781 C 17.082031 40.152344 16.238281 40.179688 15.429688 40.070312 C 14.523438 39.945312 13.570312 39.679688 12.652344 39.679688 C 12.613281 39.679688 12.574219 39.761719 12.53125 39.742188 C 11.914062 39.515625 11.28125 39.542969 10.640625 39.421875 C 9.953125 39.289062 9.398438 38.976562 8.75 38.730469 C 8.675781 38.699219 8.628906 38.644531 8.605469 38.585938 C 8.605469 38.585938 8.605469 38.578125 8.597656 38.574219 C 8.488281 38.425781 6.886719 38.507812 6.617188 38.46875 C 6.300781 38.429688 5.382812 38.394531 5.167969 38.128906 C 5.058594 38.15625 4.949219 38.1875 4.84375 38.226562 C 4.816406 38.28125 4.777344 38.332031 4.738281 38.371094 C 6.429688 38.675781 8.074219 39.226562 9.777344 39.503906 C 11.71875 39.820312 13.617188 40.203125 15.570312 40.441406 C 17.3125 40.660156 19.070312 41.0625 20.816406 41.160156 C 22.148438 41.238281 23.445312 40.925781 24.75 40.8125 Z M 22.824219 40.308594 C 23.648438 40.308594 24.46875 40.289062 25.277344 40.300781 C 25.273438 39.050781 25.113281 37.808594 25.070312 36.558594 C 24.566406 36.523438 24.054688 36.648438 23.546875 36.640625 C 23.535156 36.640625 23.523438 36.632812 23.515625 36.632812 C 23.496094 36.632812 23.484375 36.640625 23.46875 36.640625 C 23.269531 36.632812 23.066406 36.621094 22.871094 36.609375 C 22.871094 36.679688 22.871094 36.753906 22.875 36.828125 C 23.457031 36.835938 24.039062 36.863281 24.621094 36.867188 C 24.703125 36.867188 24.765625 36.90625 24.804688 36.957031 C 24.882812 36.988281 24.941406 37.058594 24.941406 37.167969 C 24.9375 38.039062 24.90625 38.910156 24.921875 39.78125 C 24.921875 39.847656 24.894531 39.90625 24.859375 39.945312 C 24.832031 40.03125 24.761719 40.09375 24.636719 40.082031 C 24.042969 40.011719 23.449219 40.058594 22.851562 40.101562 C 22.84375 40.171875 22.832031 40.238281 22.824219 40.308594 Z M 25.988281 43.011719 C 25.996094 42.960938 26 42.820312 26.007812 42.628906 C 24.378906 42.921875 22.675781 43.183594 21 43.089844 C 21 43.265625 21 43.460938 21 43.613281 C 21.117188 43.710938 21.085938 43.90625 20.972656 43.996094 C 20.914062 44.125 20.785156 44.132812 20.71875 44.015625 C 20.195312 43.890625 19.652344 43.753906 19.125 43.671875 C 18.835938 43.625 18.53125 43.632812 18.25 43.554688 C 17.683594 43.410156 17.714844 42.992188 17.671875 42.507812 C 17.230469 42.410156 16.792969 42.316406 16.351562 42.25 C 15.425781 42.109375 14.476562 42.097656 13.570312 41.910156 C 13.5625 41.933594 13.5625 41.957031 13.5625 41.980469 C 13.554688 42.195312 13.507812 42.421875 13.53125 42.636719 C 13.539062 42.726562 14.085938 42.824219 14.1875 42.867188 C 14.4375 42.980469 14.632812 43.347656 14.757812 43.660156 C 17.105469 43.75 19.457031 44.414062 21.777344 44.71875 C 21.839844 44.722656 21.894531 44.742188 21.945312 44.769531 C 23.125 44.761719 24.296875 44.722656 25.476562 44.675781 C 25.898438 44.289062 25.964844 43.695312 25.988281 43.011719 Z M 25.902344 42.15625 C 25.941406 42.152344 25.976562 42.15625 26.015625 42.164062 C 26.007812 41.824219 25.988281 41.472656 25.933594 41.265625 C 25.933594 41.265625 25.929688 41.269531 25.925781 41.269531 C 24.011719 41.171875 22.199219 41.835938 20.246094 41.589844 C 18.363281 41.351562 16.5 40.988281 14.605469 40.835938 C 14.226562 40.800781 13.851562 40.757812 13.472656 40.707031 C 13.574219 40.945312 13.59375 41.179688 13.589844 41.425781 C 15.335938 41.816406 17.171875 41.921875 18.933594 42.304688 C 21.226562 42.804688 23.632812 42.570312 25.902344 42.15625 Z M 31.515625 48.183594 C 30.394531 47.210938 29.972656 45.453125 29.894531 43.871094 C 29.75 44.234375 29.617188 44.582031 29.5 44.894531 C 29.476562 44.957031 29.4375 45.003906 29.398438 45.042969 C 29.355469 45.175781 29.246094 45.285156 29.070312 45.292969 C 28.921875 45.300781 28.773438 45.324219 28.628906 45.355469 C 28.730469 46.863281 30.0625 47.796875 31.515625 48.183594 Z M 40.464844 31.914062 C 38.09375 31.6875 35.78125 31.015625 33.402344 30.980469 C 32.984375 30.976562 32.566406 30.976562 32.152344 30.976562 C 32.082031 30.984375 32.015625 30.988281 31.941406 30.992188 C 31.722656 31.023438 31.496094 31.046875 31.261719 31.078125 C 31.046875 31.105469 30.792969 31.175781 30.542969 31.230469 C 30.042969 31.335938 29.507812 31.453125 28.945312 31.578125 C 28.660156 31.636719 28.371094 31.699219 28.074219 31.761719 C 27.777344 31.816406 27.472656 31.871094 27.160156 31.925781 C 26.851562 31.972656 26.542969 32.035156 26.222656 32.105469 C 25.90625 32.171875 25.585938 32.242188 25.261719 32.3125 C 22.648438 32.921875 20.203125 33.105469 18.492188 33.363281 C 18.066406 33.429688 17.671875 33.464844 17.332031 33.53125 C 16.988281 33.59375 16.695312 33.648438 16.453125 33.695312 C 15.972656 33.78125 15.699219 33.8125 15.691406 33.773438 C 15.679688 33.734375 15.933594 33.640625 16.40625 33.492188 C 16.640625 33.421875 16.925781 33.332031 17.261719 33.238281 C 17.597656 33.140625 17.992188 33.078125 18.425781 32.988281 C 20.160156 32.625 22.550781 32.390625 25.144531 31.78125 C 25.472656 31.714844 25.796875 31.640625 26.113281 31.578125 C 26.433594 31.507812 26.753906 31.449219 27.070312 31.402344 C 27.375 31.351562 27.679688 31.300781 27.980469 31.253906 C 28.273438 31.195312 28.566406 31.140625 28.851562 31.085938 C 29.058594 31.046875 29.257812 31.011719 29.457031 30.976562 C 29.132812 30.976562 28.804688 30.976562 28.480469 30.976562 C 27.121094 30.976562 25.695312 30.78125 24.347656 30.984375 C 24.34375 30.984375 24.335938 30.984375 24.335938 30.984375 C 24.285156 30.992188 24.234375 30.996094 24.1875 31.003906 C 24.113281 31.015625 24.054688 31.003906 24 30.980469 C 17.898438 31.113281 11.8125 32.105469 6.0625 34.128906 C 8.878906 34.320312 11.738281 34.496094 14.523438 34.871094 C 17.4375 35.257812 20.535156 35.824219 23.46875 35.914062 C 23.480469 35.914062 23.488281 35.921875 23.503906 35.925781 C 23.519531 35.921875 23.527344 35.914062 23.546875 35.914062 C 23.914062 35.921875 24.277344 35.878906 24.636719 35.855469 C 24.644531 35.84375 24.652344 35.835938 24.660156 35.824219 C 25.371094 35.042969 26.296875 34.847656 27.304688 34.644531 C 28.863281 34.332031 30.421875 34.03125 31.972656 33.65625 C 34.785156 32.972656 37.652344 32.570312 40.464844 31.914062 Z M 37.941406 37.746094 C 37.816406 37.570312 37.664062 37.40625 37.480469 37.261719 C 36.382812 36.402344 34.847656 36.394531 33.589844 36.925781 C 31.359375 37.863281 30.644531 39.800781 30.066406 41.867188 C 30.628906 40.777344 31.265625 39.722656 31.960938 38.738281 C 32.792969 37.566406 34.242188 36.808594 35.699219 36.910156 C 36.535156 36.964844 37.375 37.207031 37.941406 37.746094 Z M 37.792969 44.121094 C 37.894531 42.894531 37.847656 41.660156 37.621094 40.445312 C 37.296875 38.699219 35.832031 37.167969 33.863281 38.117188 C 33.800781 38.148438 33.746094 38.15625 33.6875 38.15625 C 32.414062 38.945312 31.414062 40.523438 30.65625 42.109375 C 30.664062 42.128906 30.667969 42.144531 30.664062 42.171875 C 30.46875 43.945312 30.589844 47.066406 32.527344 47.976562 C 33.039062 48.210938 33.515625 48.320312 33.964844 48.324219 C 34.429688 48.261719 34.886719 48.164062 35.304688 47.996094 C 36.585938 47.324219 37.445312 45.734375 37.757812 44.21875 C 37.765625 44.179688 37.78125 44.148438 37.792969 44.121094 Z M 41.421875 31.300781 C 42.136719 29.824219 42.804688 28.324219 43.328125 26.769531 C 39.410156 26.386719 35.425781 26.359375 31.496094 26.355469 C 30.285156 26.957031 29.402344 27.816406 28.410156 28.703125 C 27.796875 29.246094 27.097656 29.699219 26.503906 30.261719 C 26.957031 30.28125 27.417969 30.300781 27.878906 30.300781 C 29.511719 30.300781 31.144531 30.28125 32.78125 30.300781 C 35.703125 30.335938 38.507812 31.203125 41.421875 31.300781 Z M 41.769531 35.746094 C 41.796875 35.4375 41.824219 35.132812 41.851562 34.820312 C 39.964844 34.933594 38.074219 35.042969 36.195312 35.265625 C 32.757812 35.671875 29.171875 35.894531 25.796875 36.675781 C 25.847656 37.910156 26.003906 39.132812 26 40.371094 C 26.886719 40.511719 26.746094 42.246094 26.722656 42.851562 C 26.695312 43.527344 26.625 44.140625 26.382812 44.640625 C 26.949219 44.621094 27.511719 44.601562 28.078125 44.582031 C 28.148438 44.582031 28.210938 44.59375 28.265625 44.613281 C 28.3125 44.625 28.363281 44.640625 28.40625 44.667969 C 28.527344 44.644531 28.644531 44.621094 28.757812 44.601562 C 29.996094 41.265625 30.195312 36.707031 34.632812 36.152344 C 35.84375 36 37.308594 36.164062 38.101562 37.21875 C 39.058594 38.488281 39 40.015625 38.746094 41.5 C 38.746094 41.585938 38.742188 41.675781 38.738281 41.765625 C 39.511719 41.753906 40.285156 41.710938 41.066406 41.640625 C 41.476562 39.953125 41.613281 38.242188 41.714844 36.511719 C 41.71875 36.398438 41.726562 36.289062 41.738281 36.179688 C 39.9375 36.410156 38.582031 36.390625 38.574219 36.304688 C 38.5625 36.1875 39.957031 36.027344 41.769531 35.746094 Z M 41.898438 34.367188 C 41.96875 33.652344 42.027344 32.941406 42.039062 32.230469 C 41.933594 32.238281 41.824219 32.25 41.726562 32.269531 C 41.6875 32.296875 41.648438 32.316406 41.601562 32.332031 C 38.683594 33.082031 35.6875 33.445312 32.757812 34.15625 C 31.335938 34.503906 29.910156 34.820312 28.472656 35.101562 C 27.515625 35.289062 26.394531 35.371094 25.566406 35.933594 C 25.671875 35.972656 25.75 36.0625 25.773438 36.1875 C 28.964844 35.457031 32.328125 35.242188 35.574219 34.855469 C 37.675781 34.605469 39.789062 34.492188 41.898438 34.367188 Z M 45.097656 32.546875 C 45.261719 32.546875 45.246094 32.335938 45.242188 32.179688 C 45.101562 32.199219 44.949219 32.222656 44.800781 32.210938 C 44.726562 32.304688 44.648438 32.390625 44.582031 32.488281 C 44.574219 32.5 44.570312 32.503906 44.566406 32.511719 C 44.605469 32.527344 44.652344 32.53125 44.695312 32.539062 C 44.824219 32.542969 44.960938 32.546875 45.097656 32.546875 Z M 46.46875 31.554688 C 46.472656 31.550781 46.476562 31.550781 46.480469 31.550781 C 46.476562 31.535156 46.476562 31.503906 46.464844 31.429688 C 46.449219 31.355469 46.4375 31.28125 46.4375 31.210938 C 46.433594 30.914062 46.503906 30.523438 46.066406 30.550781 C 45.609375 30.574219 45.097656 30.464844 44.671875 30.644531 C 44.574219 30.945312 44.523438 31.445312 44.707031 31.6875 C 44.824219 31.847656 45.34375 31.664062 45.519531 31.65625 C 45.828125 31.640625 46.183594 31.699219 46.46875 31.554688 Z M 49.382812 31.492188 C 49.414062 30.515625 49.292969 29.578125 49.128906 28.617188 C 49.007812 27.875 48.960938 27.011719 48.394531 26.453125 C 48.382812 26.445312 48.382812 26.4375 48.375 26.425781 C 47.351562 26.445312 46.324219 26.464844 45.300781 26.46875 C 44.660156 28.097656 43.765625 29.9375 43.527344 31.6875 C 43.75 31.695312 43.964844 31.699219 44.191406 31.707031 C 44.050781 31.304688 44.101562 30.78125 44.230469 30.441406 C 44.230469 30.4375 44.234375 30.433594 44.234375 30.429688 C 44.238281 30.363281 44.273438 30.296875 44.355469 30.257812 C 44.789062 30.03125 45.246094 30.066406 45.722656 30.074219 C 46.054688 30.078125 46.574219 29.976562 46.777344 30.335938 C 46.976562 30.679688 46.886719 31.082031 46.960938 31.460938 C 46.972656 31.523438 46.976562 31.582031 46.972656 31.640625 C 47.558594 31.628906 48.222656 31.578125 48.910156 31.535156 C 49.070312 31.515625 49.222656 31.503906 49.382812 31.492188 Z M 50.828125 24.34375 C 50.828125 24.21875 50.835938 24.09375 50.828125 23.96875 C 50.820312 23.898438 50.8125 23.863281 50.777344 23.832031 C 47.464844 23.785156 44.148438 23.871094 40.875 24.082031 C 40.734375 24.164062 40.601562 24.261719 40.46875 24.363281 C 42.578125 24.519531 44.804688 24.339844 46.878906 24.339844 C 48.195312 24.339844 49.511719 24.34375 50.828125 24.34375 Z M 50.941406 31.382812 C 51.175781 29.800781 50.726562 27.660156 49.757812 26.402344 C 49.496094 26.40625 49.242188 26.414062 48.984375 26.414062 C 49.398438 27.011719 49.476562 27.765625 49.59375 28.488281 C 49.757812 29.480469 49.894531 30.445312 49.867188 31.449219 C 50.226562 31.421875 50.582031 31.398438 50.941406 31.382812 Z M 51.300781 33.515625 C 51.277344 32.984375 51.226562 32.453125 51.136719 31.921875 C 50.683594 31.917969 50.128906 31.933594 49.566406 31.953125 C 48.285156 32.066406 47.007812 32.214844 45.71875 32.226562 C 45.703125 32.539062 45.664062 32.925781 45.316406 33.007812 C 45.082031 33.058594 44.777344 33.039062 44.535156 33 C 44.269531 32.953125 43.992188 32.753906 44.066406 32.449219 C 44.089844 32.355469 44.140625 32.269531 44.199219 32.1875 C 43.917969 32.183594 43.640625 32.167969 43.355469 32.167969 C 43.351562 32.167969 43.347656 32.167969 43.347656 32.167969 L 43.34375 32.167969 C 43.300781 32.1875 43.253906 32.195312 43.210938 32.191406 C 42.949219 32.226562 42.683594 32.226562 42.425781 32.226562 C 42.417969 32.925781 42.363281 33.632812 42.304688 34.339844 C 43.535156 34.265625 44.757812 34.1875 45.984375 34.078125 C 47.761719 33.917969 49.53125 33.714844 51.300781 33.515625 Z M 51.253906 35.894531 C 51.304688 35.261719 51.332031 34.628906 51.320312 33.992188 C 49.742188 34.179688 48.164062 34.363281 46.585938 34.503906 C 45.144531 34.636719 43.703125 34.71875 42.261719 34.800781 C 42.234375 35.09375 42.207031 35.386719 42.179688 35.679688 C 42.304688 35.660156 42.433594 35.640625 42.566406 35.617188 C 44.777344 35.242188 46.617188 35.191406 46.617188 35.300781 C 46.617188 35.433594 44.839844 35.675781 42.636719 36.046875 C 42.46875 36.074219 42.304688 36.101562 42.144531 36.121094 C 42.113281 36.453125 42.085938 36.78125 42.066406 37.109375 C 41.96875 38.628906 41.820312 40.117188 41.472656 41.597656 C 43.652344 41.375 45.847656 40.960938 47.941406 40.511719 C 48.859375 40.308594 49.789062 40.132812 50.714844 39.960938 C 50.902344 38.753906 51.101562 37.542969 51.214844 36.328125 C 50.902344 36.382812 50.570312 36.441406 50.226562 36.5 C 48.035156 36.894531 46.238281 37.105469 46.21875 36.988281 C 46.195312 36.867188 47.960938 36.464844 50.15625 36.074219 C 50.535156 36.003906 50.902344 35.945312 51.253906 35.894531 Z M 55.222656 31.277344 C 54.9375 29.519531 54.277344 27.535156 52.871094 26.375 C 52.863281 26.367188 52.859375 26.359375 52.851562 26.351562 C 52.011719 26.359375 51.171875 26.375 50.332031 26.390625 C 51.246094 27.789062 51.640625 29.773438 51.421875 31.410156 C 52.691406 31.375 53.957031 31.339844 55.222656 31.277344 Z M 54.578125 40.835938 C 54.917969 40.410156 55.238281 39.96875 55.535156 39.515625 C 52.683594 40.136719 49.769531 40.707031 46.898438 41.207031 C 44.210938 41.675781 41.457031 42.210938 38.71875 42.246094 C 38.695312 42.707031 38.664062 43.167969 38.621094 43.617188 C 43.839844 42.210938 49.335938 42.003906 54.578125 40.835938 Z M 55.707031 31.246094 C 56.011719 31.230469 56.324219 31.214844 56.632812 31.195312 C 56.34375 29.582031 55.773438 27.34375 54.367188 26.359375 C 54.367188 26.359375 54.363281 26.355469 54.359375 26.351562 C 54.222656 26.351562 54.140625 26.351562 54.140625 26.351562 C 54.121094 26.351562 54.105469 26.347656 54.089844 26.339844 C 53.910156 26.339844 53.730469 26.347656 53.550781 26.347656 C 54.808594 27.601562 55.441406 29.550781 55.707031 31.246094 Z M 57.089844 32.296875 C 57.105469 32.265625 57.078125 32.226562 57.070312 32.1875 C 57.0625 32.175781 57.0625 32.164062 57.0625 32.15625 C 56.929688 32.144531 56.65625 32.117188 56.542969 32.195312 C 56.492188 32.230469 56.460938 32.371094 56.554688 32.402344 C 56.648438 32.441406 56.828125 32.394531 56.921875 32.371094 C 56.988281 32.355469 57.074219 32.355469 57.089844 32.296875 Z M 57.25 43.277344 C 57.265625 43.277344 57.28125 43.277344 57.296875 43.28125 C 56.492188 42.625 55.949219 41.558594 55.746094 40.449219 C 55.589844 40.683594 55.425781 40.914062 55.253906 41.140625 C 55.59375 42.089844 56.085938 43.214844 57.25 43.277344 Z M 58.214844 31.058594 C 57.929688 30.121094 57.699219 29.1875 57.179688 28.335938 C 56.765625 27.660156 56.152344 27.050781 55.78125 26.359375 C 55.53125 26.359375 55.300781 26.359375 55.097656 26.355469 C 56.300781 27.546875 56.832031 29.558594 57.109375 31.121094 C 57.109375 31.132812 57.109375 31.144531 57.109375 31.152344 C 57.476562 31.128906 57.84375 31.097656 58.214844 31.058594 Z M 58.855469 39.667969 C 58.820312 39.5625 58.792969 39.359375 58.785156 39.359375 C 58.539062 39.359375 58.296875 39.152344 58.042969 39.125 C 58.007812 39.386719 57.988281 39.632812 58.003906 39.890625 C 58.296875 39.875 58.589844 39.789062 58.855469 39.667969 Z M 58.851562 38.84375 C 58.890625 38.75 58.949219 38.664062 59.023438 38.589844 C 58.886719 38.1875 58.726562 37.796875 58.523438 37.421875 C 58.34375 37.765625 58.214844 38.136719 58.167969 38.378906 C 58.152344 38.460938 58.132812 38.546875 58.117188 38.636719 C 58.371094 38.671875 58.609375 38.765625 58.851562 38.84375 Z M 59.203125 40.054688 C 59.195312 40.046875 59.1875 40.042969 59.183594 40.042969 C 58.832031 40.210938 58.453125 40.335938 58.0625 40.367188 C 58.125 40.707031 58.234375 41.136719 58.410156 41.488281 C 58.617188 40.980469 58.953125 40.539062 59.203125 40.054688 Z M 59.460938 38.382812 C 59.492188 38.382812 59.519531 38.382812 59.546875 38.382812 C 59.53125 37.773438 59.480469 37.167969 59.472656 36.554688 C 59.238281 36.542969 59.007812 36.714844 58.8125 36.964844 C 58.820312 36.972656 58.828125 36.976562 58.835938 36.984375 C 59.097656 37.421875 59.292969 37.902344 59.460938 38.382812 Z M 59.734375 39.660156 C 60.101562 39.515625 59.792969 38.800781 59.441406 38.882812 C 59.085938 39.09375 59.28125 39.839844 59.734375 39.660156 Z M 59.804688 41.890625 C 59.902344 41.816406 59.988281 41.730469 60.0625 41.644531 C 59.882812 41.25 59.644531 40.875 59.53125 40.457031 C 59.269531 40.90625 58.953125 41.332031 58.796875 41.832031 C 58.785156 41.878906 58.761719 41.910156 58.730469 41.9375 C 58.996094 42.179688 59.347656 42.234375 59.804688 41.890625 Z M 60.3125 38.605469 C 60.359375 38.574219 60.410156 38.570312 60.464844 38.582031 C 60.417969 38.070312 60.339844 37.523438 60.101562 37.089844 C 60.054688 37.011719 60.007812 36.941406 59.960938 36.878906 C 59.984375 37.441406 60.027344 37.996094 60.03125 38.554688 C 60.03125 38.570312 60.027344 38.582031 60.027344 38.59375 C 60.066406 38.636719 60.105469 38.679688 60.144531 38.730469 C 60.199219 38.691406 60.257812 38.652344 60.3125 38.605469 Z M 60.546875 39.644531 C 60.539062 39.445312 60.523438 39.25 60.503906 39.058594 C 60.449219 39.097656 60.398438 39.136719 60.339844 39.171875 C 60.367188 39.300781 60.371094 39.429688 60.347656 39.554688 C 60.417969 39.578125 60.484375 39.609375 60.546875 39.644531 Z M 60.554688 40.164062 C 60.507812 40.171875 60.464844 40.160156 60.417969 40.132812 C 60.355469 40.089844 60.214844 39.984375 60.15625 39.992188 C 60.136719 39.996094 60.117188 39.992188 60.101562 39.992188 C 60.058594 40.027344 60.007812 40.054688 59.957031 40.082031 C 59.976562 40.464844 60.167969 40.824219 60.355469 41.171875 C 60.484375 40.859375 60.542969 40.515625 60.554688 40.164062 Z M 60.988281 40.367188 C 61.519531 38.320312 61.414062 35.964844 59.792969 35.222656 C 59.265625 35.246094 58.71875 35.535156 58.367188 36.074219 C 57.648438 37.179688 57.046875 38.332031 56.375 39.453125 C 56.375 39.457031 56.382812 39.460938 56.382812 39.464844 C 56.375 41.34375 57.515625 43.441406 59.453125 43.1875 C 59.578125 43.136719 59.695312 43.074219 59.804688 43.003906 C 60.023438 42.71875 60.234375 42.363281 60.417969 41.960938 C 60.128906 42.304688 59.707031 42.535156 59.101562 42.558594 C 57.546875 42.625 57.441406 39.796875 57.59375 38.847656 C 57.769531 37.773438 58.316406 35.613281 59.878906 36.179688 C 60.832031 36.523438 60.910156 38.15625 60.976562 38.976562 C 61.019531 39.410156 61.035156 39.894531 60.988281 40.367188 Z M 61.03125 24.8125 C 61.238281 24.8125 61.4375 24.820312 61.640625 24.832031 C 61.550781 24.730469 61.46875 24.628906 61.394531 24.519531 C 58.375 24.164062 55.308594 23.960938 52.230469 23.871094 C 52.191406 23.921875 52.136719 23.960938 52.058594 23.984375 C 52.011719 24 51.949219 24.070312 51.917969 24.164062 C 51.894531 24.222656 51.878906 24.285156 51.871094 24.34375 C 52.566406 24.347656 53.269531 24.347656 53.96875 24.347656 C 55.152344 24.351562 56.363281 24.273438 57.546875 24.40625 C 58.707031 24.539062 59.863281 24.78125 61.03125 24.8125 Z M 62.113281 36.941406 C 62.226562 36.144531 62.164062 35.316406 61.757812 34.625 C 60.996094 33.300781 59.40625 33.285156 58.367188 34.355469 C 57.464844 35.289062 56.949219 36.484375 56.597656 37.726562 C 56.597656 37.722656 56.597656 37.71875 56.601562 37.714844 C 57.035156 36.921875 57.417969 35.960938 58.054688 35.296875 C 58.761719 34.566406 60.117188 33.816406 61.054688 34.660156 C 61.730469 35.265625 62.03125 36.082031 62.113281 36.941406 Z M 65.171875 30.542969 C 64.878906 29.828125 64.378906 29.171875 63.945312 28.539062 C 63.464844 27.832031 63.007812 27.113281 62.433594 26.480469 C 60.742188 26.410156 58.171875 26.378906 56.34375 26.363281 C 56.765625 27.050781 57.378906 27.65625 57.761719 28.382812 C 58.203125 29.230469 58.425781 30.101562 58.703125 31.015625 C 59.726562 30.898438 60.769531 30.707031 61.804688 30.695312 C 62.921875 30.679688 64.0625 30.730469 65.171875 30.542969 Z M 65.804688 37.914062 C 65.832031 37.78125 65.863281 37.644531 65.894531 37.511719 C 64.71875 37.777344 63.4375 37.585938 62.332031 38.105469 C 62.296875 38.226562 62.257812 38.347656 62.21875 38.460938 C 62.195312 38.507812 62.167969 38.542969 62.128906 38.566406 C 62.128906 38.609375 62.121094 38.652344 62.117188 38.695312 C 63.339844 38.390625 64.574219 38.179688 65.804688 37.914062 Z M 66.738281 35.035156 C 66.859375 34.226562 66.511719 33.390625 66.652344 32.59375 C 63.398438 32.285156 59.855469 33.117188 56.621094 33.414062 C 54.976562 33.566406 53.339844 33.757812 51.699219 33.949219 C 51.710938 34.582031 51.691406 35.214844 51.640625 35.84375 C 53.113281 35.652344 54.175781 35.617188 54.179688 35.703125 C 54.179688 35.808594 53.109375 35.996094 51.605469 36.257812 C 51.492188 37.472656 51.300781 38.679688 51.117188 39.882812 C 52.679688 39.59375 54.242188 39.308594 55.796875 38.96875 C 56.246094 36.824219 57.261719 33.226562 59.9375 33.082031 C 62.339844 32.957031 62.835938 35.570312 62.46875 37.53125 C 63.613281 37.144531 64.867188 37.324219 66.03125 36.976562 C 66.058594 36.863281 66.082031 36.75 66.101562 36.636719 C 66.164062 36.222656 66.21875 35.832031 66.417969 35.457031 C 66.5 35.308594 66.613281 35.203125 66.746094 35.128906 C 66.738281 35.097656 66.734375 35.066406 66.738281 35.035156 Z M 66.945312 32.0625 C 67.0625 31.96875 67.210938 31.90625 67.375 31.863281 C 66.683594 30.558594 65.929688 29.304688 64.953125 28.179688 C 64.519531 27.679688 64.191406 27.101562 63.71875 26.628906 C 63.535156 26.445312 63.1875 25.992188 62.851562 25.65625 C 62.15625 25.445312 61.40625 25.523438 60.632812 25.4375 C 59.605469 25.328125 58.578125 25.101562 57.546875 25.019531 C 55.402344 24.851562 53.210938 24.890625 51.058594 24.890625 C 48.867188 24.890625 46.679688 24.890625 44.488281 24.890625 C 42.882812 24.890625 41.210938 25.074219 39.609375 24.914062 C 39.539062 24.964844 39.449219 25 39.339844 25 C 36.597656 25.039062 33.871094 25.425781 31.140625 25.503906 C 29.9375 26.347656 28.710938 27.121094 27.609375 28.105469 C 26.824219 28.808594 26.058594 29.53125 25.28125 30.242188 C 25.390625 30.242188 25.496094 30.238281 25.597656 30.242188 C 25.605469 30.222656 25.617188 30.210938 25.625 30.199219 C 26.425781 29.257812 27.519531 28.582031 28.410156 27.738281 C 29.242188 26.949219 30.140625 26.273438 31.164062 25.765625 C 31.183594 25.757812 31.195312 25.761719 31.214844 25.753906 C 31.265625 25.710938 31.332031 25.679688 31.417969 25.679688 C 35.480469 25.683594 39.597656 25.703125 43.644531 26.125 C 43.734375 26.128906 43.800781 26.171875 43.855469 26.226562 C 44.023438 26.269531 44.15625 26.417969 44.089844 26.628906 C 43.523438 28.398438 42.757812 30.09375 41.945312 31.765625 C 42.3125 31.746094 42.679688 31.777344 43.039062 31.734375 C 43.269531 29.875 44.199219 27.972656 44.871094 26.25 C 44.871094 26.246094 44.875 26.246094 44.875 26.246094 C 44.867188 26.121094 44.945312 25.992188 45.105469 25.992188 C 48.226562 25.976562 51.339844 25.855469 54.460938 25.855469 C 54.488281 25.855469 54.507812 25.863281 54.53125 25.867188 C 57 25.871094 59.859375 25.886719 62.539062 26 C 62.546875 26 62.554688 26 62.566406 26 C 62.574219 26.003906 62.585938 26.003906 62.597656 26.003906 C 62.71875 26.011719 62.785156 26.085938 62.804688 26.179688 C 63.394531 26.835938 63.867188 27.566406 64.363281 28.292969 C 64.847656 29.003906 65.390625 29.734375 65.6875 30.546875 C 65.71875 30.632812 65.703125 30.695312 65.664062 30.746094 C 65.671875 30.847656 65.625 30.953125 65.492188 30.976562 C 63.390625 31.382812 61.144531 31.238281 59.011719 31.464844 C 58.460938 31.523438 57.917969 31.566406 57.363281 31.609375 C 57.394531 31.699219 57.417969 31.785156 57.449219 31.871094 C 57.46875 31.894531 57.488281 31.925781 57.496094 31.96875 C 57.527344 32.097656 57.554688 32.230469 57.574219 32.367188 C 57.585938 32.480469 57.488281 32.570312 57.382812 32.597656 C 57.363281 32.609375 57.351562 32.621094 57.328125 32.628906 C 57.003906 32.722656 56.660156 32.699219 56.324219 32.730469 C 56.269531 32.734375 56.226562 32.714844 56.195312 32.695312 C 56.132812 32.671875 56.085938 32.625 56.070312 32.539062 C 56.035156 32.390625 56.019531 32.238281 56.015625 32.085938 C 56.015625 32.03125 56.035156 31.988281 56.058594 31.953125 C 56.078125 31.882812 56.121094 31.816406 56.207031 31.785156 C 56.425781 31.699219 56.65625 31.683594 56.886719 31.683594 C 56.882812 31.671875 56.878906 31.660156 56.875 31.648438 C 55.09375 31.777344 53.3125 31.84375 51.519531 31.890625 C 51.605469 32.417969 51.65625 32.941406 51.683594 33.46875 C 53.332031 33.285156 54.976562 33.09375 56.621094 32.933594 C 59.800781 32.625 63.296875 31.824219 66.507812 32.097656 C 66.527344 32.09375 66.542969 32.085938 66.566406 32.085938 C 66.691406 32.082031 66.816406 32.074219 66.945312 32.0625 Z M 67.433594 34.964844 C 67.414062 34.734375 67.414062 34.507812 67.433594 34.28125 C 67.371094 34.28125 67.300781 34.269531 67.230469 34.261719 C 67.246094 34.5 67.246094 34.738281 67.222656 34.980469 C 67.296875 34.96875 67.363281 34.964844 67.433594 34.964844 Z M 67.535156 33.589844 C 67.609375 33.226562 67.597656 32.855469 67.667969 32.484375 C 67.496094 32.488281 67.328125 32.5 67.160156 32.519531 C 67.15625 32.53125 67.152344 32.539062 67.148438 32.550781 C 67.101562 32.765625 67.113281 32.996094 67.132812 33.210938 C 67.152344 33.398438 67.167969 33.585938 67.1875 33.773438 C 67.296875 33.792969 67.410156 33.800781 67.5 33.804688 C 67.511719 33.734375 67.523438 33.664062 67.535156 33.589844 Z M 67.519531 37.5 C 67.761719 36.996094 68.214844 36.195312 67.972656 35.699219 C 67.773438 35.683594 67.570312 35.660156 67.371094 35.679688 C 66.972656 35.726562 66.90625 36.09375 66.855469 36.433594 C 66.789062 36.878906 66.671875 37.308594 66.574219 37.742188 C 66.882812 37.667969 67.191406 37.589844 67.5 37.5 C 67.507812 37.5 67.511719 37.5 67.519531 37.5 Z M 68.609375 32.265625 C 68.648438 32.355469 68.664062 32.457031 68.628906 32.574219 C 68.519531 32.992188 68.542969 33.421875 68.46875 33.847656 C 68.417969 34.140625 68.378906 34.429688 68.386719 34.71875 C 69.53125 35.582031 68.753906 37.042969 68.285156 38.125 C 68.199219 38.332031 68.039062 38.398438 67.875 38.375 C 67.84375 38.398438 67.804688 38.417969 67.757812 38.429688 C 65.996094 38.941406 64.171875 39.175781 62.394531 39.613281 C 61.949219 41.597656 61.292969 44.300781 58.804688 44.304688 C 57.988281 44.304688 56.65625 44.425781 55.949219 43.894531 C 55.25 43.367188 54.820312 42.636719 54.496094 41.839844 C 49.308594 42.953125 43.894531 43.171875 38.753906 44.582031 C 38.371094 45.898438 37.816406 47.246094 36.867188 48.242188 C 35.894531 49.261719 33.734375 49.457031 32.441406 49.308594 C 30.324219 49.070312 27.898438 47.851562 27.667969 45.558594 C 27.664062 45.515625 22.351562 45.734375 21.910156 45.734375 C 21.804688 45.734375 21.726562 45.707031 21.652344 45.664062 C 19.351562 45.351562 16.980469 44.695312 14.65625 44.621094 C 14.421875 44.894531 14.148438 45.121094 13.84375 45.324219 C 13.78125 45.359375 13.707031 45.378906 13.636719 45.386719 C 13.601562 45.390625 13.5625 45.390625 13.519531 45.386719 C 12.234375 45.25 11.039062 44.777344 9.746094 44.691406 C 9.023438 44.636719 8.285156 44.511719 8.039062 43.746094 C 8.039062 43.742188 8.039062 43.742188 8.035156 43.738281 C 7.921875 43.539062 7.832031 43.320312 7.777344 43.097656 C 6.925781 43.054688 6.023438 42.917969 5.195312 42.742188 C 4.628906 42.617188 3.925781 42.425781 3.664062 41.847656 C 3.664062 41.84375 3.660156 41.835938 3.660156 41.832031 C 3.605469 41.761719 3.570312 41.65625 3.570312 41.539062 C 3.574219 41.363281 3.578125 41.046875 3.558594 40.949219 C 3.546875 40.894531 3.535156 40.796875 3.515625 40.738281 C 3.511719 40.734375 3.503906 40.644531 3.5 40.644531 C 3.496094 40.644531 3.496094 40.644531 3.488281 40.644531 C 3.257812 40.644531 3.109375 40.574219 3.054688 40.402344 C 3.011719 40.335938 2.980469 40.320312 2.980469 40.21875 C 2.980469 39.757812 3.015625 39.285156 2.867188 38.84375 C 2.800781 38.65625 2.851562 38.5 2.957031 38.398438 C 2.980469 38.363281 3.007812 38.328125 3.042969 38.292969 C 3.296875 38.054688 3.601562 37.875 3.925781 37.738281 C 3.945312 36.472656 4.042969 35.222656 4.3125 33.980469 C 4.355469 33.789062 4.476562 33.683594 4.617188 33.644531 C 4.65625 33.625 4.691406 33.605469 4.726562 33.585938 C 10.917969 31.253906 17.5 30.148438 24.109375 30.015625 C 25.167969 29.058594 26.175781 28.046875 27.265625 27.125 C 28.355469 26.207031 29.539062 25.457031 30.703125 24.636719 C 30.78125 24.578125 30.859375 24.558594 30.933594 24.550781 C 30.953125 24.546875 30.976562 24.546875 31 24.546875 C 33.71875 24.476562 36.433594 24.09375 39.164062 24.039062 C 39.210938 24 39.273438 23.964844 39.347656 23.941406 C 39.757812 23.824219 40.066406 23.425781 40.4375 23.21875 C 40.476562 23.195312 40.515625 23.179688 40.558594 23.167969 C 40.613281 23.140625 40.671875 23.128906 40.734375 23.125 C 47.640625 22.667969 54.75 22.757812 61.621094 23.582031 C 61.667969 23.582031 61.710938 23.597656 61.75 23.613281 C 61.902344 23.625 62.050781 23.703125 62.121094 23.84375 C 62.152344 23.917969 62.195312 23.992188 62.242188 24.058594 L 62.246094 24.058594 C 62.253906 24.070312 62.257812 24.078125 62.273438 24.089844 C 62.292969 24.121094 62.316406 24.144531 62.339844 24.171875 C 62.402344 24.234375 62.464844 24.300781 62.527344 24.363281 C 63.554688 24.671875 64.609375 25.949219 65.148438 26.765625 C 66.328125 28.542969 67.570312 30.121094 68.558594 32.042969 C 68.59375 32.121094 68.609375 32.191406 68.609375 32.265625 " fill-opacity="1" fill-rule="nonzero"/></g><path fill="#632d47" d="M 50.628906 32.828125 C 50.621094 32.785156 50.617188 32.746094 50.617188 32.703125 C 50.273438 32.660156 49.921875 32.738281 49.574219 32.773438 C 49.570312 32.800781 49.570312 32.824219 49.570312 32.855469 C 49.925781 32.867188 50.277344 32.886719 50.628906 32.828125 Z M 51.117188 32.878906 C 51.132812 32.949219 51.117188 33.007812 51.089844 33.054688 C 51.089844 33.148438 51.039062 33.238281 50.921875 33.269531 C 50.410156 33.398438 49.890625 33.335938 49.367188 33.332031 C 49.273438 33.332031 49.210938 33.285156 49.175781 33.222656 C 49.144531 33.195312 49.117188 33.15625 49.109375 33.113281 C 49.085938 32.960938 49.09375 32.816406 49.097656 32.660156 C 49.101562 32.621094 49.109375 32.589844 49.125 32.558594 C 49.117188 32.433594 49.191406 32.296875 49.351562 32.296875 C 49.863281 32.296875 50.347656 32.144531 50.851562 32.253906 C 50.902344 32.265625 50.941406 32.289062 50.96875 32.320312 C 51.042969 32.355469 51.097656 32.421875 51.097656 32.527344 C 51.097656 32.648438 51.085938 32.761719 51.117188 32.878906 " fill-opacity="1" fill-rule="nonzero"/><path fill="#632d47" d="M 33.753906 43.121094 C 33.746094 43.0625 33.746094 43.003906 33.746094 42.949219 C 33.492188 42.902344 33.242188 42.832031 32.992188 42.773438 C 32.960938 42.960938 32.933594 43.152344 32.917969 43.339844 C 33.171875 43.28125 33.414062 43.167969 33.671875 43.117188 C 33.703125 43.113281 33.726562 43.117188 33.753906 43.121094 Z M 34.035156 43.886719 C 33.964844 43.785156 33.90625 43.671875 33.859375 43.554688 C 33.839844 43.566406 33.824219 43.578125 33.800781 43.585938 C 33.488281 43.644531 33.199219 43.773438 32.894531 43.828125 C 32.886719 44.066406 32.90625 44.296875 32.941406 44.523438 C 33.28125 44.273438 33.675781 44.105469 34.035156 43.886719 Z M 33.871094 42.480469 C 33.914062 42.398438 33.972656 42.324219 34.046875 42.253906 C 33.855469 41.921875 33.597656 41.628906 33.359375 41.324219 C 33.335938 41.382812 33.3125 41.445312 33.292969 41.511719 C 33.21875 41.757812 33.148438 42.023438 33.085938 42.296875 C 33.34375 42.363281 33.609375 42.429688 33.871094 42.480469 Z M 34.371094 44.230469 C 34.351562 44.25 34.335938 44.269531 34.3125 44.28125 C 33.917969 44.527344 33.453125 44.6875 33.101562 44.996094 C 33.085938 45.007812 33.070312 45.011719 33.054688 45.023438 C 33.070312 45.089844 33.089844 45.15625 33.113281 45.21875 C 33.308594 45.480469 33.507812 45.664062 33.707031 45.78125 C 33.945312 45.269531 34.117188 44.734375 34.371094 44.230469 Z M 34.371094 41.867188 C 34.414062 41.371094 34.503906 40.882812 34.511719 40.386719 C 34.171875 40.445312 33.863281 40.613281 33.632812 40.878906 C 33.863281 41.21875 34.144531 41.523438 34.371094 41.867188 Z M 35.105469 43.769531 C 35.4375 43.378906 35.316406 42.394531 34.660156 42.484375 C 33.589844 42.714844 34.664062 44.289062 35.105469 43.769531 Z M 35.328125 45.484375 C 35.328125 45.480469 35.328125 45.480469 35.328125 45.476562 C 35.277344 45.277344 35.238281 45.078125 35.179688 44.878906 C 35.132812 44.722656 35.082031 44.464844 34.933594 44.363281 C 34.894531 44.371094 34.859375 44.371094 34.820312 44.371094 C 34.816406 44.394531 34.8125 44.414062 34.800781 44.4375 C 34.554688 44.925781 34.378906 45.445312 34.160156 45.945312 C 34.585938 46.007812 34.996094 45.8125 35.328125 45.484375 Z M 35.757812 40.847656 C 35.777344 40.796875 35.816406 40.757812 35.855469 40.734375 C 35.789062 40.664062 35.710938 40.601562 35.613281 40.554688 C 35.40625 40.457031 35.199219 40.398438 34.996094 40.378906 C 34.988281 40.925781 34.875 41.472656 34.847656 42.019531 C 34.957031 42.03125 35.058594 42.058594 35.152344 42.101562 C 35.359375 41.6875 35.574219 41.277344 35.757812 40.847656 Z M 35.996094 44.320312 C 36.011719 44.273438 36.015625 44.226562 36.03125 44.179688 C 36.019531 44.179688 36.011719 44.179688 36 44.171875 C 35.851562 44.105469 35.699219 44.050781 35.542969 44.003906 C 35.503906 44.066406 35.449219 44.117188 35.394531 44.164062 C 35.5625 44.394531 35.652344 44.695312 35.710938 44.984375 C 35.835938 44.777344 35.933594 44.550781 35.996094 44.320312 Z M 36.230469 43.027344 C 36.230469 43.027344 36.230469 43.03125 36.230469 43.03125 C 36.070312 43.035156 35.910156 43.066406 35.75 43.09375 C 35.757812 43.242188 35.75 43.402344 35.71875 43.554688 C 35.863281 43.597656 36 43.652344 36.136719 43.710938 C 36.179688 43.488281 36.214844 43.257812 36.230469 43.027344 Z M 36.261719 42.550781 C 36.265625 42.386719 36.265625 42.21875 36.25 42.058594 C 36.234375 41.789062 36.214844 41.472656 36.121094 41.1875 C 35.945312 41.589844 35.75 41.980469 35.550781 42.375 C 35.546875 42.386719 35.535156 42.394531 35.527344 42.40625 C 35.578125 42.46875 35.621094 42.539062 35.652344 42.621094 C 35.847656 42.589844 36.035156 42.550781 36.230469 42.546875 C 36.242188 42.546875 36.25 42.550781 36.261719 42.550781 Z M 36.6875 41.550781 C 36.882812 42.824219 36.726562 44.632812 35.867188 45.667969 C 34.953125 46.773438 33.507812 46.578125 32.6875 45.453125 C 32.660156 45.414062 32.652344 45.378906 32.648438 45.34375 C 32.050781 43.808594 32.378906 40.96875 33.882812 40.054688 C 35.105469 39.3125 36.5 40.324219 36.6875 41.550781 " fill-opacity="1" fill-rule="nonzero"/><path fill="#632d47" d="M 34.457031 46.890625 C 36.128906 46.773438 37.128906 44.378906 37.082031 42.894531 C 37.042969 41.738281 36.839844 40.585938 35.949219 39.769531 C 31.773438 37.410156 30.308594 47.1875 34.457031 46.890625 Z M 36.265625 39.402344 C 38.875 41.746094 37.050781 49.320312 33.003906 46.921875 C 29.679688 44.949219 32.230469 37.078125 36.21875 39.367188 C 36.230469 39.371094 36.238281 39.386719 36.246094 39.390625 C 36.253906 39.398438 36.261719 39.398438 36.265625 39.402344 " fill-opacity="1" fill-rule="nonzero"/><path fill="#632d47" d="M 28.332031 43.539062 C 28.449219 43.222656 28.511719 42.894531 28.566406 42.566406 C 28.261719 42.53125 27.941406 42.546875 27.644531 42.585938 C 27.628906 42.910156 27.53125 43.222656 27.453125 43.539062 C 27.839844 43.539062 28.097656 43.539062 28.332031 43.539062 Z M 28.890625 42.128906 C 29.046875 42.15625 29.089844 42.285156 29.058594 42.40625 C 29.066406 42.433594 29.066406 42.46875 29.066406 42.503906 C 29.003906 42.902344 28.933594 43.304688 28.792969 43.683594 C 28.746094 43.8125 28.625 43.859375 28.515625 43.839844 C 28.484375 43.851562 28.445312 43.859375 28.402344 43.859375 C 28.078125 43.859375 27.113281 43.859375 27.113281 43.859375 C 26.859375 43.859375 26.796875 43.660156 26.945312 43.578125 C 26.941406 43.550781 26.925781 43.527344 26.933594 43.5 C 27.019531 43.148438 27.113281 42.804688 27.113281 42.441406 C 27.113281 42.421875 27.113281 42.402344 27.113281 42.386719 C 27.113281 42.253906 27.230469 42.179688 27.328125 42.164062 C 27.355469 42.144531 27.414062 42.132812 27.453125 42.128906 C 27.929688 42.0625 28.417969 42.039062 28.890625 42.128906 " fill-opacity="1" fill-rule="nonzero"/></svg>