<svg xmlns="http://www.w3.org/2000/svg" xmlns:xlink="http://www.w3.org/1999/xlink" width="96" zoomAndPan="magnify" viewBox="0 0 72 72" height="96" preserveAspectRatio="xMidYMid meet" version="1.0"><defs><clipPath id="6752903061"><path d="M 7.804688 16 L 64 16 L 64 53.390625 L 7.804688 53.390625 Z M 7.804688 16 " clip-rule="nonzero"/></clipPath></defs><path fill="#e8c8cb" d="M 36 0 C 16.117188 0 0 16.117188 0 36 C 0 55.882812 16.117188 72 36 72 C 55.882812 72 72 55.882812 72 36 C 72 16.117188 55.882812 0 36 0 " fill-opacity="1" fill-rule="nonzero"/><g clip-path="url(#6752903061)"><path fill="#632d47" d="M 63.835938 40.445312 C 63.863281 40.363281 63.855469 40.265625 63.792969 40.167969 C 63.625 39.890625 63.386719 39.636719 63.277344 39.324219 C 63.277344 39.320312 63.273438 39.316406 63.273438 39.3125 C 63.285156 39.277344 63.292969 39.238281 63.292969 39.191406 C 63.277344 37.464844 63.359375 35.734375 63.328125 34.011719 C 63.296875 32.359375 63.382812 30.730469 63.382812 29.082031 C 63.382812 27.390625 63.664062 25.742188 63.5 24.046875 C 63.414062 23.191406 63.484375 22.363281 63.492188 21.503906 C 63.496094 20.75 63.359375 20.050781 63.398438 19.304688 C 63.398438 19.304688 63.402344 19.300781 63.402344 19.300781 C 63.9375 15.886719 59.144531 16.726562 57.171875 16.65625 C 57.164062 16.65625 57.160156 16.65625 57.152344 16.65625 C 57.050781 16.597656 56.96875 16.5625 56.863281 16.5625 C 49.589844 16.582031 42.421875 16.695312 35.160156 16.949219 C 28.242188 17.195312 21.308594 16.632812 14.394531 16.6875 C 14.246094 16.6875 11.257812 16.585938 9.855469 17.089844 C 8.582031 17.546875 8.433594 18.730469 8.527344 19.910156 C 8.464844 19.96875 8.425781 20.054688 8.425781 20.164062 C 8.441406 21.734375 8.550781 23.300781 8.546875 24.871094 C 8.542969 26.445312 8.414062 28.019531 8.472656 29.597656 C 8.5 30.378906 8.667969 31.144531 8.714844 31.921875 C 8.757812 32.652344 8.734375 33.382812 8.765625 34.113281 C 8.835938 35.78125 8.746094 37.453125 8.734375 39.125 C 8.464844 39.347656 8.238281 39.613281 8.203125 39.992188 C 8.117188 40.910156 8.085938 41.847656 8.035156 42.773438 C 7.933594 44.546875 8.007812 46.289062 8.058594 48.0625 C 8.0625 48.167969 8.101562 48.246094 8.15625 48.304688 C 8.070312 48.386719 8.027344 48.507812 8.070312 48.65625 C 8.160156 48.972656 8.390625 49.207031 8.539062 49.492188 C 8.558594 49.527344 8.585938 49.558594 8.617188 49.585938 C 8.613281 49.597656 8.613281 49.605469 8.609375 49.613281 C 8.433594 51.011719 8.351562 52.046875 9.773438 52.683594 C 10.3125 52.925781 10.855469 52.933594 11.417969 52.890625 C 11.445312 52.898438 11.472656 52.90625 11.5 52.90625 C 13.230469 53.023438 14.980469 52.902344 16.714844 52.960938 C 18.109375 53.003906 19.511719 53.089844 20.90625 53.09375 C 20.910156 53.09375 20.910156 53.09375 20.914062 53.09375 L 21.464844 53.09375 C 22.992188 53.09375 24.515625 53.144531 26.039062 53.179688 C 27.730469 53.21875 29.414062 53.101562 31.097656 53.125 C 32.734375 53.148438 34.335938 53.332031 35.976562 53.207031 C 37.59375 53.082031 39.207031 53.09375 40.828125 53.09375 C 44.164062 53.09375 47.492188 53.15625 50.828125 53.046875 C 52.582031 52.988281 54.355469 52.925781 56.109375 53.007812 C 57.878906 53.089844 59.609375 53.382812 61.382812 53.21875 C 61.464844 53.210938 61.53125 53.179688 61.582031 53.140625 C 62.054688 53.0625 62.5 52.90625 62.8125 52.632812 C 63.667969 51.890625 63.308594 50.355469 63.292969 49.367188 C 63.289062 49.292969 63.273438 49.234375 63.242188 49.1875 C 63.285156 49.148438 63.328125 49.109375 63.367188 49.070312 C 63.398438 49.039062 63.417969 49.007812 63.433594 48.972656 C 63.585938 48.941406 63.722656 48.824219 63.722656 48.617188 C 63.730469 45.96875 63.878906 43.316406 63.90625 40.667969 C 63.90625 40.574219 63.882812 40.5 63.835938 40.445312 Z M 17.636719 17.457031 C 17.910156 17.460938 18.183594 17.464844 18.457031 17.46875 C 18.417969 17.46875 18.378906 17.472656 18.339844 17.472656 C 18.105469 17.472656 17.871094 17.46875 17.636719 17.464844 C 17.636719 17.460938 17.636719 17.460938 17.636719 17.457031 Z M 49.28125 52.058594 C 47.121094 52.035156 44.960938 52 42.800781 52 C 41.851562 52 40.90625 51.832031 39.957031 51.816406 C 38.808594 51.796875 37.664062 51.765625 36.511719 51.792969 C 34.457031 51.839844 32.414062 52 30.355469 51.972656 C 28.160156 51.945312 25.972656 51.984375 23.78125 52.066406 C 21.753906 52.136719 19.730469 52.050781 17.707031 52.074219 C 18.027344 50.898438 18.351562 49.722656 18.636719 48.539062 C 18.808594 47.824219 18.886719 47.089844 19.078125 46.378906 C 19.269531 45.671875 19.265625 44.925781 19.554688 44.242188 C 24.886719 44.085938 30.222656 44.273438 35.554688 43.980469 C 38.363281 43.824219 41.113281 44.070312 43.917969 44.234375 C 46.613281 44.394531 49.367188 44.378906 51.949219 44.378906 C 51.976562 44.378906 52 44.375 52.023438 44.371094 C 52.078125 44.789062 52.261719 45.183594 52.390625 45.582031 C 52.628906 46.316406 52.765625 47.066406 52.96875 47.808594 C 53.355469 49.207031 53.824219 50.582031 54.136719 51.996094 C 52.519531 52.0625 50.902344 52.074219 49.28125 52.058594 Z M 62.8125 48.332031 C 62.8125 48.335938 62.8125 48.339844 62.8125 48.34375 C 62.667969 48.464844 62.527344 48.589844 62.417969 48.746094 C 62.371094 48.808594 62.382812 48.871094 62.421875 48.917969 C 62.304688 49.035156 62.265625 49.210938 62.355469 49.367188 C 62.371094 49.390625 62.390625 49.414062 62.410156 49.433594 C 62.402344 49.800781 62.414062 50.164062 62.441406 50.535156 C 62.464844 50.855469 62.472656 51.167969 62.417969 51.492188 C 62.328125 52.027344 61.8125 51.949219 61.457031 52.058594 C 59.546875 52.039062 57.660156 51.796875 55.742188 51.917969 C 55.3125 51.945312 54.886719 51.964844 54.460938 51.980469 C 54.457031 51.972656 54.453125 51.960938 54.449219 51.953125 C 54.167969 50.632812 53.722656 49.355469 53.359375 48.050781 C 53.1875 47.429688 53.070312 46.800781 52.894531 46.183594 C 52.699219 45.484375 52.339844 44.789062 52.199219 44.082031 C 52.175781 43.976562 52.03125 44 52.011719 44.09375 C 51.992188 44.089844 51.972656 44.085938 51.949219 44.085938 C 49.367188 44.085938 46.613281 44.089844 43.917969 43.941406 C 41.109375 43.785156 38.34375 43.539062 35.53125 43.6875 C 32.824219 43.828125 30.132812 43.816406 27.425781 43.925781 C 24.804688 44.027344 22.113281 43.679688 19.503906 44.023438 C 19.441406 43.980469 19.359375 43.980469 19.320312 44.066406 C 19.078125 44.625 19.039062 45.199219 18.921875 45.789062 C 18.761719 46.570312 18.589844 47.351562 18.449219 48.136719 C 18.207031 49.464844 17.703125 50.75 17.46875 52.074219 C 17.40625 52.078125 17.34375 52.078125 17.277344 52.078125 C 15.503906 52.109375 13.722656 51.996094 11.953125 52.03125 C 11.953125 52.027344 11.953125 52.027344 11.949219 52.027344 C 11.3125 51.910156 10.394531 52.121094 9.886719 51.65625 C 9.285156 51.109375 9.597656 50.089844 9.511719 49.382812 C 9.503906 49.34375 9.480469 49.3125 9.449219 49.292969 C 9.375 49.164062 9.269531 49.042969 9.195312 48.921875 C 9.136719 48.828125 9.085938 48.730469 9.03125 48.636719 C 9.019531 48.613281 9.011719 48.589844 9.003906 48.566406 C 9.027344 48.539062 9.042969 48.503906 9.039062 48.457031 C 8.945312 45.78125 9.234375 43.078125 8.96875 40.40625 C 8.972656 40.402344 8.972656 40.402344 8.976562 40.402344 C 9.066406 40.324219 9.136719 40.21875 9.21875 40.128906 C 9.277344 40.0625 9.347656 40.003906 9.414062 39.941406 C 9.492188 39.957031 9.578125 39.933594 9.613281 39.863281 C 9.71875 39.8125 9.71875 39.679688 9.648438 39.59375 C 9.75 38.03125 9.613281 36.5 9.5625 34.941406 C 9.511719 33.246094 9.644531 31.546875 9.628906 29.851562 C 9.628906 29.566406 9.617188 29.277344 9.609375 28.988281 C 9.648438 28.539062 9.667969 28.089844 9.570312 27.652344 C 9.53125 26.617188 9.488281 25.582031 9.476562 24.546875 C 9.460938 22.828125 9.503906 21.097656 9.375 19.382812 C 9.375 19.351562 9.363281 19.328125 9.347656 19.3125 C 9.492188 18.460938 9.945312 17.792969 10.9375 17.675781 C 11.355469 17.625 11.789062 17.640625 12.222656 17.664062 C 12.226562 17.71875 12.265625 17.769531 12.339844 17.769531 C 13.992188 17.726562 15.628906 17.777344 17.277344 17.804688 C 17.28125 17.804688 17.28125 17.804688 17.285156 17.804688 C 17.285156 17.804688 17.285156 17.804688 17.289062 17.804688 C 17.523438 17.808594 17.761719 17.808594 18 17.8125 C 20.023438 17.828125 22.046875 17.71875 24.074219 17.777344 C 28.152344 17.894531 32.207031 18.097656 36.289062 17.949219 C 40.449219 17.796875 44.601562 17.507812 48.765625 17.492188 C 52.765625 17.480469 56.75 17.726562 60.742188 17.730469 C 60.746094 17.730469 60.746094 17.765625 60.746094 17.765625 L 60.808594 17.765625 C 60.867188 17.765625 60.910156 17.734375 60.9375 17.691406 C 61.316406 17.742188 61.734375 17.859375 62 18.097656 C 62.34375 18.410156 62.417969 18.984375 62.460938 19.421875 C 62.535156 20.203125 62.4375 20.992188 62.503906 21.773438 C 62.507812 21.835938 62.535156 21.875 62.574219 21.898438 C 62.378906 24.8125 62.378906 27.753906 62.328125 30.675781 C 62.300781 32.253906 62.285156 33.832031 62.285156 35.410156 C 62.28125 36.238281 62.285156 37.066406 62.285156 37.894531 C 62.28125 38.519531 62.132812 39.011719 62.351562 39.625 C 62.382812 39.714844 62.460938 39.75 62.539062 39.75 C 62.578125 39.808594 62.617188 39.867188 62.65625 39.925781 C 62.699219 39.980469 62.726562 40.050781 62.773438 40.101562 C 62.820312 40.148438 62.871094 40.195312 62.902344 40.25 C 62.914062 40.269531 62.925781 40.28125 62.9375 40.292969 C 62.691406 42.953125 62.941406 45.667969 62.8125 48.332031 " fill-opacity="1" fill-rule="nonzero"/></g><path fill="#632d47" d="M 60.023438 42.058594 C 60.046875 41.972656 60.039062 41.878906 60.023438 41.785156 C 60.042969 41.757812 60.058594 41.726562 60.058594 41.6875 C 60.085938 41.097656 59.964844 40.53125 59.9375 39.945312 C 59.898438 39.109375 59.917969 38.246094 59.953125 37.40625 C 60.019531 35.839844 60.09375 34.269531 60.144531 32.699219 C 60.191406 31.144531 60.214844 29.585938 60.199219 28.027344 C 60.183594 26.46875 60.269531 24.832031 60.097656 23.28125 C 60.113281 23.25 60.117188 23.210938 60.109375 23.167969 C 60.007812 22.769531 58.320312 20.644531 57.6875 20.566406 C 57.664062 20.53125 57.628906 20.507812 57.578125 20.5 C 57.582031 20.5 57.589844 20.5 57.59375 20.5 C 57.527344 20.441406 57.449219 20.457031 57.394531 20.496094 C 55.6875 20.46875 53.980469 20.273438 52.277344 20.152344 C 50.488281 20.027344 48.621094 20.179688 46.839844 20.34375 C 45.039062 20.507812 43.167969 20.386719 41.359375 20.433594 C 39.515625 20.484375 37.679688 20.390625 35.839844 20.46875 C 34.019531 20.550781 32.199219 20.523438 30.378906 20.613281 C 28.566406 20.703125 26.730469 20.683594 24.917969 20.691406 C 23.09375 20.695312 21.269531 20.261719 19.460938 20.324219 C 17.703125 20.382812 15.921875 20.40625 14.167969 20.527344 C 14.140625 20.53125 14.121094 20.542969 14.101562 20.554688 C 14.039062 20.582031 13.988281 20.640625 13.914062 20.695312 C 13.621094 20.914062 13.320312 21.144531 13.058594 21.402344 C 12.578125 21.871094 11.960938 22.351562 11.625 22.945312 C 11.585938 23.019531 11.609375 23.105469 11.664062 23.15625 C 11.464844 26.414062 11.757812 29.683594 11.621094 32.941406 C 11.550781 34.59375 11.449219 36.257812 11.566406 37.90625 C 11.617188 38.636719 11.628906 39.382812 11.597656 40.113281 C 11.574219 40.65625 11.472656 41.152344 11.675781 41.671875 C 11.683594 41.691406 11.695312 41.707031 11.707031 41.722656 C 11.730469 41.8125 11.738281 41.902344 11.757812 41.992188 C 11.8125 42.21875 11.878906 42.480469 12.089844 42.613281 C 12.3125 42.753906 12.839844 42.898438 13.148438 42.773438 C 13.855469 42.800781 14.558594 42.882812 15.265625 42.921875 C 16.148438 42.964844 17.019531 42.898438 17.902344 42.972656 C 19.773438 43.128906 21.648438 43.105469 23.527344 43.152344 C 27.523438 43.246094 31.515625 43.1875 35.507812 43.28125 C 39.382812 43.371094 43.230469 43.246094 47.105469 43.164062 C 51.070312 43.082031 55.050781 43.070312 59.007812 42.820312 C 59.054688 42.816406 59.089844 42.796875 59.117188 42.769531 C 59.320312 42.726562 59.503906 42.640625 59.695312 42.492188 C 59.847656 42.371094 59.972656 42.246094 60.023438 42.058594 Z M 59.585938 39.578125 C 59.585938 40.285156 59.738281 40.980469 59.710938 41.6875 C 59.707031 41.726562 59.71875 41.753906 59.734375 41.78125 C 59.738281 41.8125 59.738281 41.84375 59.738281 41.875 C 59.75 42.074219 59.589844 42.179688 59.445312 42.28125 C 59.292969 42.394531 59.167969 42.457031 58.976562 42.464844 C 58.855469 42.472656 58.75 42.472656 58.640625 42.5 C 54.921875 42.722656 51.183594 42.769531 47.460938 42.816406 C 43.585938 42.867188 39.734375 43.039062 35.859375 42.949219 C 31.867188 42.855469 27.878906 42.914062 23.890625 42.824219 C 21.996094 42.78125 20.09375 42.824219 18.207031 42.667969 C 17.339844 42.59375 16.496094 42.582031 15.625 42.597656 C 14.863281 42.617188 14.105469 42.523438 13.34375 42.515625 C 13.320312 42.445312 13.242188 42.386719 13.160156 42.410156 C 12.960938 42.46875 12.777344 42.457031 12.570312 42.421875 C 12.328125 42.382812 12.191406 42.300781 12.109375 42.058594 C 12.078125 41.96875 12.054688 41.832031 12.019531 41.695312 C 12.035156 41.660156 12.039062 41.621094 12.019531 41.574219 C 11.808594 41.035156 11.941406 40.449219 11.964844 39.882812 C 11.996094 39.121094 11.957031 38.34375 11.90625 37.585938 C 11.789062 35.925781 11.929688 34.242188 11.996094 32.582031 C 12.0625 31.027344 12.03125 29.488281 11.984375 27.929688 C 11.9375 26.335938 12.074219 24.722656 11.914062 23.132812 C 11.929688 23.117188 11.949219 23.105469 11.964844 23.085938 C 11.988281 23.054688 12 23.019531 12 22.988281 C 12.285156 22.574219 12.707031 22.203125 13.058594 21.859375 C 13.261719 21.660156 13.464844 21.46875 13.679688 21.28125 C 13.816406 21.160156 14.027344 20.886719 14.195312 20.78125 C 15.949219 20.714844 17.703125 20.75 19.460938 20.628906 C 20.363281 20.5625 21.292969 20.769531 22.191406 20.855469 C 23.097656 20.945312 24.007812 20.988281 24.917969 20.992188 C 28.558594 21.019531 32.203125 20.839844 35.839844 20.777344 C 39.496094 20.710938 43.1875 20.855469 46.839844 20.652344 C 48.636719 20.550781 50.472656 20.332031 52.277344 20.460938 C 54.039062 20.585938 55.808594 20.789062 57.578125 20.808594 C 57.613281 20.808594 57.640625 20.800781 57.660156 20.785156 C 57.847656 20.839844 58.515625 21.609375 58.578125 21.675781 C 58.972656 22.105469 59.605469 22.679688 59.753906 23.269531 C 59.761719 23.292969 59.773438 23.3125 59.785156 23.328125 C 59.597656 24.632812 59.742188 26.023438 59.78125 27.332031 C 59.828125 29 59.8125 30.667969 59.773438 32.339844 C 59.734375 33.90625 59.679688 35.476562 59.617188 37.042969 C 59.582031 37.886719 59.585938 38.730469 59.585938 39.578125 " fill-opacity="1" fill-rule="nonzero"/><path fill="#632d47" d="M 46.644531 28.925781 C 46.640625 28.925781 46.636719 28.929688 46.632812 28.929688 C 45.101562 28.769531 43.542969 28.925781 42.003906 28.925781 C 39.960938 28.925781 37.917969 29.003906 35.875 28.988281 C 34.027344 28.972656 32.1875 29.007812 30.339844 28.960938 C 28.507812 28.914062 26.695312 29.171875 24.867188 29.207031 C 24.847656 29.179688 24.820312 29.15625 24.78125 29.160156 C 23.46875 29.25 22.464844 29.285156 21.472656 30.261719 C 20.597656 31.125 20.457031 32.480469 20.570312 33.640625 C 20.675781 34.734375 21.03125 35.792969 21.875 36.519531 C 22.660156 37.195312 23.933594 37.304688 24.972656 37.21875 C 26.917969 37.285156 28.867188 37.371094 30.816406 37.386719 C 32.710938 37.40625 34.5625 37.164062 36.453125 37.285156 C 38.332031 37.402344 40.1875 37.332031 42.066406 37.300781 C 43.035156 37.285156 44.011719 37.296875 44.984375 37.347656 C 45.519531 37.371094 46.03125 37.4375 46.542969 37.386719 C 47.636719 37.429688 48.726562 37.199219 49.652344 36.578125 C 50.597656 35.941406 50.90625 34.875 51.039062 33.796875 C 51.199219 32.46875 50.921875 31.132812 49.953125 30.1875 C 49.175781 29.425781 47.730469 28.78125 46.644531 28.925781 Z M 50.753906 33.484375 C 50.714844 34.695312 50.304688 35.761719 49.289062 36.449219 C 48.679688 36.859375 47.988281 37 47.28125 37.046875 C 47.261719 36.980469 47.199219 36.933594 47.113281 36.960938 C 46.960938 37.011719 46.808594 37.042969 46.660156 37.066406 C 46.40625 37.070312 46.15625 37.0625 45.90625 37.0625 C 45.867188 37.0625 45.835938 37.082031 45.8125 37.109375 C 45.433594 37.09375 45.050781 37.050781 44.667969 37.03125 C 43.800781 36.988281 42.933594 36.996094 42.066406 37.003906 C 40.1875 37.015625 38.332031 37.082031 36.453125 36.988281 C 34.5625 36.894531 32.710938 37.09375 30.816406 37.09375 C 29.015625 37.09375 27.21875 36.976562 25.421875 36.988281 C 25.402344 36.960938 25.371094 36.9375 25.332031 36.9375 C 24.121094 36.867188 22.894531 36.988281 21.898438 36.136719 C 21.132812 35.476562 20.9375 34.300781 20.84375 33.347656 C 20.734375 32.207031 21.0625 31.09375 21.878906 30.289062 C 22.644531 29.535156 23.601562 29.570312 24.5625 29.425781 C 24.5625 29.425781 24.566406 29.429688 24.566406 29.429688 C 26.214844 29.703125 27.972656 29.292969 29.636719 29.28125 C 31.46875 29.265625 33.316406 29.28125 35.148438 29.308594 C 37.074219 29.332031 39 29.261719 40.925781 29.253906 C 42.914062 29.246094 45 29.007812 46.972656 29.292969 C 47.058594 29.304688 47.121094 29.253906 47.152344 29.191406 C 47.933594 29.300781 48.707031 29.6875 49.351562 30.105469 C 50.519531 30.855469 50.792969 32.175781 50.753906 33.484375 " fill-opacity="1" fill-rule="nonzero"/><path fill="#632d47" d="M 25.101562 29.894531 C 25.085938 29.851562 25.046875 29.816406 24.988281 29.820312 C 24.796875 29.832031 24.609375 29.851562 24.425781 29.882812 C 24.183594 29.894531 23.945312 29.921875 23.714844 29.972656 C 23.664062 29.980469 23.644531 30.027344 23.644531 30.070312 C 22.253906 30.542969 21.273438 31.660156 21.289062 33.386719 C 21.304688 35.375 23.296875 36.648438 25.085938 36.613281 C 27.09375 36.574219 28.519531 34.683594 28.359375 32.75 C 28.214844 30.957031 26.6875 30.035156 25.101562 29.894531 Z M 25.085938 36.34375 C 23.5 36.492188 22.019531 35.363281 21.617188 33.851562 C 21.363281 32.890625 21.761719 31.871094 22.347656 31.128906 C 22.847656 30.496094 23.5625 30.246094 24.308594 30.144531 C 25.984375 30.121094 27.582031 30.664062 28.058594 32.53125 C 28.550781 34.460938 26.890625 36.175781 25.085938 36.34375 " fill-opacity="1" fill-rule="nonzero"/><path fill="#632d47" d="M 27.492188 32.113281 C 27.296875 32.175781 27.109375 32.273438 26.917969 32.351562 C 26.832031 32.175781 26.78125 32 26.660156 31.839844 C 26.613281 31.800781 26.617188 31.777344 26.679688 31.773438 C 26.722656 31.753906 26.746094 31.730469 26.785156 31.699219 C 26.894531 31.601562 26.992188 31.488281 27.109375 31.394531 C 27.1875 31.332031 27.105469 31.21875 27.019531 31.230469 C 26.855469 31 26.648438 30.800781 26.417969 30.636719 C 26.074219 30.386719 25.75 30.367188 25.347656 30.402344 C 25.308594 30.390625 25.257812 30.398438 25.226562 30.433594 C 25.199219 30.457031 25.1875 30.496094 25.191406 30.53125 C 25.1875 30.601562 25.191406 30.671875 25.1875 30.742188 C 25.1875 30.769531 25.21875 30.941406 25.199219 30.957031 C 25.136719 31.003906 24.957031 30.972656 24.882812 30.976562 C 24.785156 30.980469 24.683594 31.007812 24.585938 31.015625 C 24.582031 30.824219 24.566406 30.632812 24.554688 30.441406 C 24.550781 30.386719 24.515625 30.359375 24.476562 30.347656 C 24.46875 30.285156 24.414062 30.226562 24.332031 30.25 C 24 30.355469 23.648438 30.457031 23.332031 30.613281 C 23 30.777344 22.835938 30.933594 22.621094 31.230469 C 22.589844 31.269531 22.601562 31.316406 22.632812 31.34375 C 22.636719 31.347656 22.636719 31.351562 22.636719 31.355469 C 22.695312 31.464844 22.789062 31.535156 22.894531 31.597656 C 23.003906 31.660156 23.105469 31.738281 23.203125 31.816406 C 23.148438 31.941406 23.082031 32.0625 23 32.164062 C 22.957031 32.21875 22.902344 32.277344 22.863281 32.335938 C 22.78125 32.285156 22.683594 32.25 22.613281 32.21875 C 22.539062 32.1875 22.5 32.167969 22.453125 32.140625 C 22.414062 32.117188 22.378906 32.097656 22.339844 32.078125 C 22.332031 32.066406 22.320312 32.054688 22.308594 32.050781 C 22.308594 32.050781 22.308594 32.050781 22.308594 32.046875 C 22.253906 32.023438 22.175781 32.046875 22.148438 32.097656 C 22.132812 32.105469 22.117188 32.117188 22.109375 32.136719 C 21.832031 32.679688 21.832031 33.648438 22.132812 34.207031 C 22.117188 34.265625 22.183594 34.34375 22.257812 34.335938 C 22.386719 34.316406 22.523438 34.207031 22.640625 34.148438 C 22.71875 34.101562 22.816406 34.074219 22.894531 34.023438 C 22.933594 34.097656 22.972656 34.179688 23.015625 34.253906 C 23.058594 34.324219 23.097656 34.398438 23.140625 34.46875 C 23.15625 34.496094 23.179688 34.527344 23.199219 34.558594 C 23.117188 34.613281 23.042969 34.679688 22.960938 34.730469 C 22.859375 34.789062 22.738281 34.910156 22.621094 34.9375 C 22.53125 34.957031 22.535156 35.09375 22.609375 35.121094 C 22.929688 35.765625 23.792969 35.867188 24.378906 36.109375 C 24.394531 36.113281 24.410156 36.117188 24.425781 36.113281 C 24.480469 36.15625 24.582031 36.113281 24.589844 36.03125 C 24.605469 35.914062 24.585938 35.796875 24.574219 35.679688 C 24.5625 35.582031 24.550781 35.484375 24.539062 35.386719 C 24.664062 35.382812 24.789062 35.367188 24.917969 35.367188 C 25.007812 35.367188 25.105469 35.359375 25.195312 35.339844 C 25.234375 35.546875 25.214844 35.765625 25.285156 35.96875 C 25.300781 36.023438 25.347656 36.046875 25.390625 36.046875 C 25.394531 36.046875 25.398438 36.046875 25.402344 36.046875 C 25.714844 36.046875 26.039062 35.882812 26.300781 35.71875 C 26.582031 35.539062 26.882812 35.363281 27.113281 35.113281 C 27.179688 35.105469 27.234375 35.035156 27.195312 34.949219 C 27.148438 34.855469 27.007812 34.785156 26.921875 34.730469 C 26.820312 34.671875 26.703125 34.605469 26.585938 34.570312 C 26.632812 34.507812 26.671875 34.4375 26.714844 34.375 C 26.789062 34.257812 26.855469 34.136719 26.929688 34.019531 C 26.953125 34.035156 26.972656 34.054688 26.992188 34.066406 C 27.066406 34.109375 27.140625 34.152344 27.214844 34.195312 C 27.316406 34.25 27.445312 34.285156 27.558594 34.289062 C 27.578125 34.289062 27.59375 34.285156 27.609375 34.277344 C 27.648438 34.28125 27.6875 34.269531 27.714844 34.226562 C 28.058594 33.714844 27.957031 32.796875 27.632812 32.277344 C 27.660156 32.191406 27.601562 32.082031 27.492188 32.113281 Z M 27.546875 34.046875 C 27.453125 34.003906 27.347656 33.980469 27.25 33.933594 C 27.136719 33.875 27.015625 33.769531 26.878906 33.777344 C 26.820312 33.777344 26.785156 33.820312 26.78125 33.867188 C 26.628906 34.074219 26.542969 34.332031 26.375 34.519531 C 26.335938 34.558594 26.347656 34.621094 26.378906 34.65625 C 26.378906 34.691406 26.402344 34.726562 26.449219 34.742188 C 26.496094 34.761719 26.519531 34.792969 26.558594 34.816406 C 26.613281 34.851562 26.667969 34.875 26.726562 34.902344 C 26.789062 34.933594 26.847656 34.972656 26.910156 35.003906 C 26.917969 35.007812 26.925781 35.015625 26.9375 35.019531 C 26.558594 35.386719 25.992188 35.703125 25.480469 35.832031 C 25.4375 35.636719 25.453125 35.4375 25.386719 35.246094 C 25.378906 35.234375 25.375 35.222656 25.367188 35.214844 C 25.367188 35.167969 25.335938 35.125 25.292969 35.105469 C 25.171875 35.054688 25.042969 35.105469 24.917969 35.113281 C 24.75 35.125 24.589844 35.167969 24.421875 35.183594 C 24.335938 35.195312 24.304688 35.28125 24.339844 35.339844 C 24.320312 35.503906 24.339844 35.683594 24.363281 35.855469 C 23.847656 35.664062 23.117188 35.566406 22.804688 35.070312 C 22.871094 35.039062 22.933594 34.996094 22.996094 34.957031 C 23.132812 34.871094 23.261719 34.789062 23.386719 34.683594 C 23.414062 34.660156 23.417969 34.628906 23.414062 34.601562 C 23.421875 34.582031 23.425781 34.558594 23.417969 34.535156 C 23.382812 34.414062 23.28125 34.300781 23.222656 34.1875 C 23.152344 34.058594 23.082031 33.925781 22.992188 33.808594 C 22.972656 33.785156 22.949219 33.777344 22.925781 33.777344 C 22.917969 33.773438 22.910156 33.769531 22.898438 33.769531 C 22.777344 33.769531 22.660156 33.855469 22.554688 33.910156 C 22.484375 33.949219 22.417969 33.992188 22.351562 34.03125 C 22.339844 34.035156 22.328125 34.046875 22.316406 34.054688 C 22.097656 33.554688 22.101562 32.820312 22.265625 32.304688 C 22.324219 32.339844 22.390625 32.367188 22.4375 32.390625 C 22.507812 32.425781 22.582031 32.457031 22.65625 32.496094 C 22.722656 32.527344 22.75 32.554688 22.789062 32.589844 C 22.820312 32.621094 22.863281 32.628906 22.90625 32.613281 C 22.933594 32.613281 22.957031 32.597656 22.972656 32.566406 C 23.039062 32.445312 23.132812 32.351562 23.210938 32.242188 C 23.300781 32.121094 23.375 31.984375 23.433594 31.84375 C 23.453125 31.800781 23.4375 31.761719 23.410156 31.738281 C 23.410156 31.703125 23.398438 31.667969 23.363281 31.640625 C 23.269531 31.570312 23.171875 31.496094 23.074219 31.433594 C 22.992188 31.382812 22.902344 31.347656 22.839844 31.277344 C 23.050781 31.066406 23.246094 30.914062 23.535156 30.792969 C 23.804688 30.679688 24.082031 30.589844 24.359375 30.503906 C 24.351562 30.707031 24.367188 30.914062 24.371094 31.117188 C 24.371094 31.207031 24.460938 31.242188 24.527344 31.214844 C 24.660156 31.230469 24.800781 31.207031 24.9375 31.210938 C 25.070312 31.21875 25.230469 31.234375 25.34375 31.152344 C 25.429688 31.089844 25.445312 30.988281 25.441406 30.890625 C 25.4375 30.800781 25.433594 30.710938 25.433594 30.621094 C 25.703125 30.632812 25.941406 30.648438 26.195312 30.800781 C 26.421875 30.9375 26.621094 31.144531 26.789062 31.355469 C 26.773438 31.363281 26.761719 31.371094 26.746094 31.378906 C 26.6875 31.429688 26.636719 31.523438 26.5625 31.550781 C 26.480469 31.585938 26.375 31.625 26.382812 31.738281 C 26.390625 31.921875 26.515625 32.003906 26.570312 32.171875 C 26.605469 32.285156 26.648438 32.433594 26.738281 32.515625 C 26.746094 32.546875 26.765625 32.578125 26.808594 32.585938 C 27.023438 32.625 27.242188 32.488281 27.445312 32.398438 C 27.542969 32.964844 27.8125 33.480469 27.546875 34.046875 " fill-opacity="1" fill-rule="nonzero"/><path fill="#632d47" d="M 47 29.769531 C 46.984375 29.726562 46.945312 29.695312 46.882812 29.695312 C 46.691406 29.707031 46.507812 29.730469 46.324219 29.757812 C 46.082031 29.769531 45.84375 29.800781 45.613281 29.847656 C 45.5625 29.855469 45.539062 29.902344 45.542969 29.949219 C 44.152344 30.417969 43.167969 31.535156 43.183594 33.265625 C 43.203125 35.25 45.195312 36.523438 46.984375 36.488281 C 48.992188 36.449219 50.414062 34.558594 50.257812 32.625 C 50.109375 30.832031 48.585938 29.910156 47 29.769531 Z M 46.984375 36.21875 C 45.398438 36.371094 43.914062 35.238281 43.511719 33.726562 C 43.257812 32.765625 43.65625 31.746094 44.242188 31.003906 C 44.746094 30.371094 45.457031 30.121094 46.203125 30.019531 C 47.878906 30 49.480469 30.539062 49.957031 32.40625 C 50.449219 34.335938 48.789062 36.050781 46.984375 36.21875 " fill-opacity="1" fill-rule="nonzero"/><path fill="#632d47" d="M 48.558594 31.714844 C 48.507812 31.675781 48.515625 31.65625 48.578125 31.648438 C 48.621094 31.628906 48.644531 31.605469 48.679688 31.574219 C 48.792969 31.476562 48.886719 31.367188 49.003906 31.269531 C 49.085938 31.207031 49 31.09375 48.917969 31.105469 C 48.753906 30.875 48.542969 30.675781 48.316406 30.511719 C 47.972656 30.261719 47.644531 30.246094 47.246094 30.277344 C 47.203125 30.265625 47.15625 30.277344 47.125 30.308594 C 47.09375 30.335938 47.082031 30.371094 47.089844 30.40625 C 47.082031 30.476562 47.085938 30.546875 47.085938 30.617188 C 47.085938 30.644531 47.113281 30.816406 47.09375 30.832031 C 47.03125 30.878906 46.855469 30.847656 46.78125 30.851562 C 46.679688 30.855469 46.582031 30.882812 46.484375 30.890625 C 46.476562 30.699219 46.464844 30.507812 46.449219 30.316406 C 46.445312 30.261719 46.414062 30.234375 46.375 30.226562 C 46.363281 30.160156 46.308594 30.101562 46.230469 30.128906 C 45.894531 30.230469 45.546875 30.332031 45.230469 30.488281 C 44.898438 30.652344 44.734375 30.808594 44.515625 31.105469 C 44.484375 31.148438 44.5 31.191406 44.53125 31.21875 C 44.53125 31.222656 44.53125 31.226562 44.535156 31.230469 C 44.589844 31.339844 44.6875 31.410156 44.792969 31.472656 C 44.902344 31.535156 45 31.617188 45.101562 31.691406 C 45.046875 31.816406 44.980469 31.9375 44.894531 32.042969 C 44.851562 32.09375 44.800781 32.152344 44.757812 32.214844 C 44.679688 32.160156 44.578125 32.128906 44.507812 32.097656 C 44.4375 32.066406 44.398438 32.042969 44.347656 32.015625 C 44.3125 31.992188 44.273438 31.976562 44.238281 31.953125 C 44.230469 31.941406 44.21875 31.929688 44.207031 31.925781 C 44.203125 31.925781 44.203125 31.925781 44.203125 31.925781 C 44.148438 31.902344 44.070312 31.921875 44.042969 31.972656 C 44.027344 31.980469 44.015625 31.992188 44.003906 32.011719 C 43.726562 32.554688 43.730469 33.527344 44.027344 34.082031 C 44.011719 34.144531 44.082031 34.21875 44.152344 34.210938 C 44.285156 34.191406 44.421875 34.085938 44.535156 34.023438 C 44.617188 33.980469 44.710938 33.949219 44.789062 33.898438 C 44.832031 33.976562 44.871094 34.054688 44.914062 34.128906 C 44.953125 34.203125 44.992188 34.273438 45.035156 34.34375 C 45.050781 34.371094 45.078125 34.402344 45.09375 34.433594 C 45.011719 34.488281 44.941406 34.554688 44.859375 34.605469 C 44.757812 34.664062 44.632812 34.789062 44.519531 34.8125 C 44.429688 34.832031 44.433594 34.972656 44.507812 34.996094 C 44.824219 35.640625 45.691406 35.742188 46.277344 35.984375 C 46.292969 35.992188 46.308594 35.992188 46.320312 35.992188 C 46.375 36.035156 46.476562 35.988281 46.488281 35.90625 C 46.503906 35.792969 46.484375 35.671875 46.46875 35.554688 C 46.457031 35.460938 46.449219 35.359375 46.433594 35.265625 C 46.5625 35.257812 46.6875 35.242188 46.816406 35.242188 C 46.902344 35.242188 47 35.234375 47.089844 35.214844 C 47.128906 35.421875 47.113281 35.640625 47.179688 35.84375 C 47.199219 35.898438 47.242188 35.921875 47.289062 35.921875 C 47.292969 35.921875 47.292969 35.921875 47.300781 35.921875 C 47.609375 35.921875 47.9375 35.757812 48.195312 35.59375 C 48.476562 35.414062 48.78125 35.238281 49.007812 34.988281 C 49.078125 34.980469 49.132812 34.910156 49.089844 34.824219 C 49.042969 34.730469 48.90625 34.660156 48.820312 34.609375 C 48.71875 34.546875 48.597656 34.480469 48.480469 34.445312 C 48.527344 34.382812 48.570312 34.3125 48.609375 34.25 C 48.683594 34.132812 48.75 34.011719 48.824219 33.894531 C 48.847656 33.910156 48.871094 33.929688 48.890625 33.941406 C 48.960938 33.988281 49.035156 34.027344 49.109375 34.070312 C 49.214844 34.125 49.339844 34.160156 49.457031 34.164062 C 49.476562 34.167969 49.492188 34.160156 49.507812 34.152344 C 49.542969 34.15625 49.585938 34.144531 49.613281 34.101562 C 49.957031 33.589844 49.851562 32.671875 49.53125 32.152344 C 49.558594 32.066406 49.496094 31.957031 49.390625 31.992188 C 49.191406 32.054688 49.003906 32.148438 48.8125 32.226562 C 48.730469 32.050781 48.679688 31.875 48.558594 31.714844 Z M 49.445312 33.925781 C 49.347656 33.878906 49.242188 33.855469 49.148438 33.808594 C 49.03125 33.75 48.914062 33.644531 48.773438 33.652344 C 48.71875 33.65625 48.683594 33.699219 48.679688 33.746094 C 48.527344 33.949219 48.4375 34.207031 48.269531 34.394531 C 48.234375 34.4375 48.242188 34.496094 48.273438 34.53125 C 48.277344 34.566406 48.300781 34.601562 48.34375 34.621094 C 48.390625 34.636719 48.414062 34.667969 48.457031 34.691406 C 48.507812 34.726562 48.566406 34.75 48.621094 34.78125 C 48.683594 34.8125 48.746094 34.847656 48.808594 34.878906 C 48.816406 34.882812 48.824219 34.890625 48.835938 34.894531 C 48.453125 35.261719 47.890625 35.578125 47.378906 35.707031 C 47.335938 35.511719 47.347656 35.316406 47.28125 35.125 C 47.277344 35.109375 47.269531 35.097656 47.261719 35.089844 C 47.261719 35.046875 47.230469 35 47.1875 34.980469 C 47.070312 34.929688 46.9375 34.980469 46.816406 34.988281 C 46.648438 35 46.484375 35.042969 46.320312 35.058594 C 46.230469 35.070312 46.203125 35.15625 46.234375 35.214844 C 46.21875 35.378906 46.234375 35.558594 46.261719 35.730469 C 45.746094 35.542969 45.011719 35.445312 44.699219 34.945312 C 44.765625 34.914062 44.832031 34.871094 44.890625 34.832031 C 45.027344 34.746094 45.15625 34.664062 45.28125 34.558594 C 45.308594 34.539062 45.316406 34.503906 45.308594 34.476562 C 45.320312 34.457031 45.320312 34.4375 45.316406 34.410156 C 45.28125 34.289062 45.179688 34.175781 45.121094 34.066406 C 45.050781 33.933594 44.976562 33.800781 44.886719 33.683594 C 44.871094 33.660156 44.847656 33.652344 44.824219 33.652344 C 44.816406 33.652344 44.808594 33.644531 44.796875 33.644531 C 44.675781 33.644531 44.554688 33.730469 44.449219 33.785156 C 44.382812 33.824219 44.3125 33.867188 44.246094 33.90625 C 44.234375 33.914062 44.226562 33.921875 44.214844 33.929688 C 43.992188 33.429688 44 32.695312 44.164062 32.179688 C 44.222656 32.21875 44.289062 32.246094 44.332031 32.265625 C 44.40625 32.300781 44.480469 32.332031 44.554688 32.371094 C 44.621094 32.402344 44.644531 32.429688 44.683594 32.46875 C 44.71875 32.496094 44.761719 32.503906 44.800781 32.488281 C 44.828125 32.488281 44.855469 32.472656 44.871094 32.441406 C 44.9375 32.320312 45.027344 32.226562 45.109375 32.117188 C 45.199219 31.996094 45.273438 31.863281 45.328125 31.71875 C 45.347656 31.675781 45.335938 31.640625 45.308594 31.617188 C 45.308594 31.578125 45.292969 31.542969 45.261719 31.519531 C 45.164062 31.445312 45.070312 31.375 44.96875 31.308594 C 44.890625 31.257812 44.800781 31.226562 44.738281 31.152344 C 44.945312 30.941406 45.144531 30.789062 45.433594 30.667969 C 45.699219 30.558594 45.976562 30.464844 46.253906 30.378906 C 46.246094 30.582031 46.265625 30.789062 46.265625 30.992188 C 46.265625 31.085938 46.359375 31.117188 46.421875 31.089844 C 46.558594 31.105469 46.699219 31.082031 46.832031 31.089844 C 46.964844 31.09375 47.125 31.113281 47.238281 31.027344 C 47.324219 30.964844 47.339844 30.867188 47.335938 30.765625 C 47.332031 30.675781 47.332031 30.585938 47.328125 30.496094 C 47.597656 30.507812 47.839844 30.523438 48.089844 30.675781 C 48.320312 30.8125 48.519531 31.019531 48.683594 31.230469 C 48.671875 31.238281 48.65625 31.246094 48.644531 31.253906 C 48.585938 31.304688 48.53125 31.398438 48.460938 31.425781 C 48.378906 31.460938 48.273438 31.503906 48.277344 31.613281 C 48.289062 31.800781 48.414062 31.878906 48.46875 32.046875 C 48.503906 32.160156 48.542969 32.308594 48.636719 32.394531 C 48.640625 32.425781 48.664062 32.453125 48.703125 32.460938 C 48.921875 32.503906 49.136719 32.363281 49.34375 32.273438 C 49.441406 32.839844 49.707031 33.355469 49.445312 33.925781 " fill-opacity="1" fill-rule="nonzero"/><path fill="#632d47" d="M 35.617188 44.519531 C 35.371094 44.5 35.15625 44.546875 34.9375 44.753906 C 34.65625 45.023438 34.570312 45.46875 34.59375 45.839844 C 34.648438 46.640625 35.453125 47.042969 36.160156 46.839844 C 36.851562 46.640625 37.292969 45.910156 37.128906 45.207031 C 36.953125 44.476562 36.234375 44.378906 35.617188 44.519531 Z M 36.269531 46.457031 C 35.773438 46.75 35.105469 46.558594 34.917969 45.992188 C 34.824219 45.722656 34.882812 45.410156 35 45.15625 C 35.058594 45.027344 35.136719 44.941406 35.226562 44.878906 C 35.25 44.890625 35.28125 44.898438 35.316406 44.890625 C 35.828125 44.804688 36.46875 44.574219 36.777344 45.152344 C 37.046875 45.648438 36.695312 46.203125 36.269531 46.457031 " fill-opacity="1" fill-rule="nonzero"/><path fill="#632d47" d="M 36.480469 45.507812 C 36.339844 45.507812 36.195312 45.507812 36.046875 45.511719 C 36.035156 45.351562 36.015625 45.191406 35.976562 45.039062 C 35.949219 44.929688 35.78125 44.925781 35.753906 45.039062 C 35.71875 45.195312 35.707031 45.359375 35.707031 45.527344 C 35.542969 45.539062 35.378906 45.550781 35.222656 45.585938 C 35.117188 45.605469 35.113281 45.78125 35.222656 45.800781 C 35.382812 45.832031 35.546875 45.839844 35.714844 45.839844 C 35.71875 45.957031 35.726562 46.074219 35.726562 46.191406 C 35.734375 46.410156 36.0625 46.410156 36.066406 46.191406 C 36.066406 46.074219 36.066406 45.953125 36.0625 45.828125 C 36.203125 45.824219 36.34375 45.816406 36.480469 45.816406 C 36.679688 45.816406 36.679688 45.503906 36.480469 45.507812 " fill-opacity="1" fill-rule="nonzero"/><path fill="#632d47" d="M 29.140625 48.40625 C 28.9375 48.28125 28.730469 48.234375 28.523438 48.234375 C 28.507812 48.214844 28.484375 48.203125 28.453125 48.199219 C 27.703125 48.101562 27.238281 48.738281 27.199219 49.433594 C 27.15625 50.191406 27.78125 50.640625 28.488281 50.601562 C 29.207031 50.5625 29.757812 49.789062 29.683594 49.09375 C 29.652344 48.769531 29.398438 48.5625 29.140625 48.40625 Z M 28.382812 50.289062 C 27.414062 50.347656 27.289062 49.164062 27.816406 48.644531 C 27.847656 48.667969 27.890625 48.675781 27.941406 48.664062 C 28.261719 48.585938 28.566406 48.488281 28.890625 48.636719 C 29.132812 48.75 29.347656 48.914062 29.378906 49.203125 C 29.4375 49.765625 28.894531 50.257812 28.382812 50.289062 " fill-opacity="1" fill-rule="nonzero"/><path fill="#632d47" d="M 22.632812 48.871094 C 22.558594 48.890625 22.527344 48.960938 22.53125 49.027344 C 22.078125 49.210938 21.746094 49.605469 21.703125 50.207031 C 21.636719 51.15625 22.605469 51.730469 23.433594 51.65625 C 24.410156 51.570312 24.707031 50.65625 24.601562 49.800781 C 24.472656 48.714844 23.503906 48.671875 22.632812 48.871094 Z M 23.644531 51.285156 C 23.007812 51.511719 22.296875 51.183594 22.066406 50.550781 C 21.726562 49.632812 22.734375 49.046875 23.503906 49.148438 C 23.550781 49.15625 23.585938 49.136719 23.609375 49.109375 C 23.910156 49.148438 24.15625 49.304688 24.269531 49.726562 C 24.421875 50.324219 24.277344 51.058594 23.644531 51.285156 " fill-opacity="1" fill-rule="nonzero"/><path fill="#632d47" d="M 43.675781 48.222656 C 43.664062 48.199219 43.644531 48.179688 43.613281 48.175781 C 43.550781 48.164062 43.492188 48.15625 43.433594 48.148438 C 43.289062 48.117188 43.140625 48.105469 43 48.125 C 42.980469 48.128906 42.960938 48.136719 42.945312 48.144531 C 42.832031 48.164062 42.71875 48.199219 42.597656 48.257812 C 42.292969 48.414062 42.082031 48.785156 42.050781 49.121094 C 41.988281 49.867188 42.394531 50.453125 43.152344 50.503906 C 43.914062 50.554688 44.421875 49.914062 44.429688 49.191406 C 44.433594 48.738281 44.085938 48.386719 43.675781 48.222656 Z M 43.414062 50.164062 C 42.828125 50.324219 42.402344 49.914062 42.347656 49.347656 C 42.316406 49.003906 42.476562 48.707031 42.746094 48.511719 C 42.8125 48.464844 42.886719 48.433594 42.96875 48.414062 C 43.367188 48.484375 43.773438 48.507812 44.027344 48.878906 C 44.367188 49.382812 43.898438 50.035156 43.414062 50.164062 " fill-opacity="1" fill-rule="nonzero"/><path fill="#632d47" d="M 48.167969 48.660156 C 48.09375 48.667969 48.050781 48.722656 48.039062 48.777344 C 47.613281 48.910156 47.296875 49.285156 47.15625 49.820312 C 46.921875 50.730469 47.699219 51.417969 48.523438 51.496094 C 49.339844 51.566406 50.214844 50.789062 50.054688 49.929688 C 49.882812 49.019531 49.035156 48.570312 48.167969 48.660156 Z M 48.90625 51.152344 C 48.1875 51.375 47.441406 50.839844 47.421875 50.097656 C 47.402344 49.433594 47.925781 48.972656 48.515625 48.964844 C 48.949219 49.015625 49.324219 49.140625 49.601562 49.5625 C 50.035156 50.21875 49.566406 50.945312 48.90625 51.152344 " fill-opacity="1" fill-rule="nonzero"/><path fill="#632d47" d="M 60.339844 49.535156 C 60.28125 49.550781 60.253906 49.597656 60.246094 49.648438 C 59.964844 49.796875 59.769531 50.09375 59.710938 50.445312 C 59.601562 51.128906 60.140625 51.664062 60.792969 51.730469 C 61.121094 51.761719 61.488281 51.699219 61.703125 51.417969 C 61.929688 51.113281 62.074219 50.679688 61.992188 50.296875 C 61.824219 49.503906 61.027344 49.351562 60.339844 49.535156 Z M 61.597656 51.027344 C 61.4375 51.394531 61.101562 51.484375 60.734375 51.421875 C 60.25 51.339844 59.917969 50.953125 59.996094 50.453125 C 60.054688 50.085938 60.320312 49.839844 60.660156 49.78125 C 61.039062 49.75 61.425781 49.765625 61.632812 50.148438 C 61.777344 50.417969 61.710938 50.761719 61.597656 51.027344 " fill-opacity="1" fill-rule="nonzero"/><path fill="#632d47" d="M 61.417969 50.292969 C 61.433594 50.183594 61.304688 50.070312 61.214844 50.171875 C 61.117188 50.285156 61.003906 50.375 60.902344 50.476562 C 60.898438 50.476562 60.898438 50.480469 60.898438 50.480469 C 60.789062 50.375 60.679688 50.265625 60.566406 50.160156 C 60.488281 50.082031 60.359375 50.179688 60.417969 50.277344 C 60.5 50.414062 60.613281 50.539062 60.714844 50.664062 C 60.632812 50.746094 60.550781 50.820312 60.441406 50.871094 C 60.320312 50.929688 60.40625 51.125 60.53125 51.085938 C 60.671875 51.042969 60.785156 50.957031 60.886719 50.855469 C 60.910156 50.878906 60.929688 50.902344 60.949219 50.921875 C 61.011719 50.984375 61.0625 51.078125 61.144531 51.117188 C 61.234375 51.160156 61.328125 51.109375 61.335938 51.003906 C 61.347656 50.867188 61.207031 50.75 61.09375 50.65625 C 61.210938 50.554688 61.394531 50.441406 61.417969 50.292969 " fill-opacity="1" fill-rule="nonzero"/><path fill="#632d47" d="M 60.675781 18.144531 C 60.132812 18.207031 59.660156 18.816406 59.671875 19.339844 C 59.691406 20.023438 60.542969 20.480469 61.152344 20.347656 C 61.863281 20.1875 62.160156 19.375 61.96875 18.714844 C 61.796875 18.121094 61.183594 17.949219 60.675781 18.144531 Z M 61.160156 20.042969 C 60.6875 20.203125 60.09375 19.855469 59.964844 19.394531 C 59.875 19.066406 60.132812 18.703125 60.449219 18.507812 C 60.480469 18.523438 60.523438 18.527344 60.566406 18.507812 C 61.007812 18.304688 61.476562 18.265625 61.683594 18.796875 C 61.867188 19.25 61.628906 19.882812 61.160156 20.042969 " fill-opacity="1" fill-rule="nonzero"/><path fill="#632d47" d="M 61.03125 19.195312 C 61.042969 19.183594 61.054688 19.175781 61.066406 19.167969 C 61.160156 19.082031 61.335938 18.972656 61.265625 18.828125 C 61.238281 18.765625 61.160156 18.757812 61.101562 18.785156 C 61.097656 18.785156 61.09375 18.789062 61.089844 18.789062 C 61.066406 18.800781 61.054688 18.824219 61.046875 18.847656 C 60.984375 18.914062 60.917969 18.976562 60.851562 19.035156 C 60.761719 18.976562 60.667969 18.910156 60.621094 18.824219 C 60.621094 18.800781 60.613281 18.777344 60.597656 18.757812 C 60.570312 18.660156 60.390625 18.667969 60.394531 18.792969 C 60.402344 18.96875 60.535156 19.097656 60.660156 19.203125 C 60.660156 19.203125 60.660156 19.203125 60.664062 19.203125 C 60.582031 19.277344 60.503906 19.355469 60.429688 19.4375 C 60.347656 19.535156 60.472656 19.652344 60.570312 19.574219 C 60.652344 19.507812 60.742188 19.4375 60.828125 19.367188 C 60.9375 19.492188 61.039062 19.628906 61.167969 19.730469 C 61.308594 19.839844 61.507812 19.65625 61.367188 19.527344 C 61.253906 19.421875 61.144531 19.304688 61.03125 19.195312 " fill-opacity="1" fill-rule="nonzero"/><path fill="#632d47" d="M 10.886719 20.457031 C 11.609375 20.492188 12.039062 19.867188 12.082031 19.1875 C 12.132812 18.484375 11.328125 17.890625 10.679688 18.148438 C 10.664062 18.15625 10.648438 18.164062 10.636719 18.175781 C 10.179688 18.285156 9.832031 18.679688 9.730469 19.203125 C 9.597656 19.871094 10.273438 20.425781 10.886719 20.457031 Z M 10.007812 19.171875 C 10.089844 18.738281 10.433594 18.457031 10.832031 18.382812 C 11.289062 18.386719 11.742188 18.539062 11.804688 19.085938 C 11.859375 19.585938 11.5 20.160156 10.988281 20.183594 C 10.4375 20.214844 9.902344 19.734375 10.007812 19.171875 " fill-opacity="1" fill-rule="nonzero"/><path fill="#632d47" d="M 10.367188 19.476562 C 10.5 19.4375 10.621094 19.378906 10.742188 19.316406 C 10.773438 19.472656 10.816406 19.714844 10.988281 19.742188 C 11.082031 19.757812 11.171875 19.667969 11.117188 19.570312 C 11.046875 19.457031 11.007812 19.347656 10.96875 19.222656 C 11.082031 19.1875 11.191406 19.15625 11.292969 19.085938 C 11.421875 18.996094 11.308594 18.789062 11.171875 18.871094 C 11.078125 18.925781 10.976562 18.964844 10.878906 19.003906 C 10.824219 18.894531 10.757812 18.789062 10.742188 18.671875 C 10.722656 18.5625 10.546875 18.589844 10.550781 18.699219 C 10.558594 18.839844 10.621094 18.96875 10.671875 19.097656 C 10.554688 19.164062 10.441406 19.242188 10.316406 19.289062 C 10.199219 19.328125 10.246094 19.511719 10.367188 19.476562 " fill-opacity="1" fill-rule="nonzero"/><path fill="#632d47" d="M 10.597656 49.464844 C 10.09375 49.464844 9.796875 50.003906 9.765625 50.53125 C 9.71875 51.253906 10.539062 51.746094 11.183594 51.636719 C 11.867188 51.523438 12.34375 50.800781 12.03125 50.132812 C 11.730469 49.492188 11.164062 49.273438 10.597656 49.464844 Z M 11.300781 51.3125 C 10.855469 51.488281 10.234375 51.21875 10.078125 50.765625 C 9.984375 50.492188 10.066406 50.148438 10.253906 49.921875 C 10.273438 49.921875 10.292969 49.917969 10.3125 49.90625 C 10.460938 49.828125 10.609375 49.75 10.765625 49.699219 C 10.78125 49.699219 10.792969 49.699219 10.808594 49.703125 C 10.851562 49.710938 10.882812 49.691406 10.90625 49.667969 C 10.925781 49.664062 10.945312 49.65625 10.964844 49.65625 C 11.277344 49.621094 11.527344 49.875 11.691406 50.105469 C 12.003906 50.550781 11.78125 51.125 11.300781 51.3125 " fill-opacity="1" fill-rule="nonzero"/><path fill="#632d47" d="M 11.015625 50.40625 C 11.003906 50.40625 10.992188 50.402344 10.976562 50.402344 C 10.988281 50.269531 10.992188 50.140625 10.960938 50.015625 C 10.941406 49.914062 10.789062 49.914062 10.765625 50.015625 C 10.734375 50.128906 10.726562 50.25 10.714844 50.371094 C 10.570312 50.355469 10.421875 50.351562 10.28125 50.371094 C 10.171875 50.382812 10.121094 50.558594 10.25 50.578125 C 10.398438 50.605469 10.542969 50.625 10.6875 50.652344 C 10.671875 50.800781 10.660156 50.949219 10.683594 51.101562 C 10.699219 51.21875 10.902344 51.21875 10.921875 51.101562 C 10.941406 50.96875 10.949219 50.835938 10.957031 50.703125 C 11.128906 50.742188 11.304688 50.796875 11.472656 50.820312 C 11.589844 50.839844 11.714844 50.695312 11.601562 50.601562 C 11.4375 50.460938 11.222656 50.433594 11.015625 50.40625 " fill-opacity="1" fill-rule="nonzero"/><path fill="#632d47" d="M 41.535156 30.277344 C 41.53125 30.226562 41.5 30.195312 41.464844 30.183594 C 41.445312 30.152344 41.410156 30.132812 41.363281 30.136719 C 39.554688 30.199219 37.761719 30.265625 35.953125 30.246094 C 34.078125 30.226562 32.214844 29.996094 30.339844 30.128906 C 30.335938 30.128906 30.335938 30.132812 30.332031 30.132812 C 30.277344 30.121094 30.210938 30.152344 30.210938 30.230469 C 30.167969 31.300781 30.164062 32.375 30.183594 33.445312 C 30.1875 33.460938 30.191406 33.476562 30.195312 33.488281 C 30.140625 33.546875 30.164062 33.660156 30.269531 33.667969 C 32.339844 33.835938 34.375 33.5625 36.4375 33.589844 C 37.449219 33.605469 38.460938 33.65625 39.472656 33.65625 C 40.074219 33.65625 40.878906 33.847656 41.445312 33.597656 C 41.515625 33.601562 41.585938 33.558594 41.585938 33.46875 C 41.585938 32.902344 41.582031 32.335938 41.542969 31.769531 C 41.507812 31.269531 41.585938 30.773438 41.535156 30.277344 Z M 36.171875 33.304688 C 35.199219 33.292969 34.183594 33.445312 33.207031 33.460938 C 32.941406 33.46875 32.671875 33.464844 32.398438 33.460938 C 32.472656 32.859375 32.445312 32.242188 32.394531 31.621094 C 32.359375 31.195312 32.285156 30.785156 32.183594 30.386719 C 32.367188 30.378906 32.550781 30.375 32.726562 30.371094 C 33.679688 30.355469 34.667969 30.492188 35.621094 30.523438 C 35.886719 30.53125 36.152344 30.539062 36.421875 30.542969 C 36.398438 30.804688 36.378906 31.066406 36.363281 31.324219 C 36.328125 32.035156 36.425781 32.699219 36.625 33.316406 C 36.472656 33.3125 36.324219 33.308594 36.171875 33.304688 " fill-opacity="1" fill-rule="nonzero"/></svg>