<svg xmlns="http://www.w3.org/2000/svg" xmlns:xlink="http://www.w3.org/1999/xlink" width="96" zoomAndPan="magnify" viewBox="0 0 72 72" height="96" preserveAspectRatio="xMidYMid meet" version="1.0"><path fill="#34616d" d="M 51.832031 28.085938 C 51.832031 28.085938 52.378906 39.578125 43.613281 46.675781 C 30.539062 57.289062 16.4375 48.675781 16.4375 48.675781 C 16.4375 48.675781 19.863281 48.738281 22.898438 47.917969 C 25.929688 47.101562 28.085938 45.160156 28.085938 45.160156 C 28.085938 45.160156 24.777344 44.460938 23.078125 43.21875 C 21.351562 41.976562 20.714844 39.578125 20.714844 39.578125 C 20.714844 39.578125 21.835938 39.667969 22.5625 39.667969 C 23.292969 39.640625 24.171875 39.304688 24.171875 39.304688 C 24.171875 39.304688 21.804688 39.03125 19.59375 36.546875 C 17.863281 34.605469 17.984375 31.359375 17.984375 31.359375 C 17.984375 31.359375 19.015625 31.964844 19.59375 32.117188 C 20.136719 32.269531 21.199219 32.269531 21.199219 32.269531 C 21.199219 32.269531 19.136719 31.027344 18.195312 27.871094 C 17.289062 24.6875 19.046875 21.472656 19.046875 21.472656 C 19.046875 21.472656 22.078125 25.171875 26.660156 27.570312 C 31.238281 29.964844 35.546875 29.875 35.546875 29.875 C 35.546875 29.875 34.90625 27.964844 36 25.171875 C 37.09375 22.351562 39.578125 20.351562 43.339844 20.046875 C 47.101562 19.742188 49.496094 22.59375 49.496094 22.59375 C 49.496094 22.59375 50.648438 22.382812 51.984375 21.898438 C 53.316406 21.410156 54.621094 20.804688 54.621094 20.804688 C 54.621094 20.804688 54.167969 22.230469 53.257812 23.351562 C 52.347656 24.476562 51.316406 25.140625 51.316406 25.140625 C 51.316406 25.140625 52.5 25.050781 53.679688 24.71875 C 54.863281 24.382812 55.53125 24.050781 55.53125 24.050781 C 54.226562 26.355469 51.832031 28.085938 51.832031 28.085938 Z M 51.832031 28.085938 " fill-opacity="1" fill-rule="nonzero"/><path fill="#34616d" d="M 36 72 C 16.164062 72 0 55.863281 0 36 C 0 16.136719 16.164062 0 36 0 C 55.835938 0 72 16.164062 72 36 C 72 55.835938 55.863281 72 36 72 Z M 36 1.972656 C 17.226562 1.972656 1.972656 17.226562 1.972656 36 C 1.972656 54.773438 17.226562 70.027344 36 70.027344 C 54.773438 70.027344 70.027344 54.773438 70.027344 36 C 70.027344 17.226562 54.773438 1.972656 36 1.972656 Z M 36 1.972656 " fill-opacity="1" fill-rule="nonzero"/></svg>