<svg xmlns="http://www.w3.org/2000/svg" xmlns:xlink="http://www.w3.org/1999/xlink" width="500" zoomAndPan="magnify" viewBox="0 0 375 374.999991" height="500" preserveAspectRatio="xMidYMid meet" version="1.0"><defs><g/></defs><g fill="#78979f" fill-opacity="1"><g transform="translate(102.401231, 202.732434)"><g><path d="M 3.738281 4.800781 C 4.253906 4.847656 4.703125 4.8125 5.09375 4.625 C 7.777344 3.75 11.203125 0.410156 14.648438 -3.96875 C 16.402344 -6.117188 18.105469 -8.496094 19.828125 -11.09375 C 23.1875 -16.152344 26.175781 -21.242188 28.417969 -25.503906 C 29.496094 -27.566406 30.320312 -29.277344 30.875 -30.496094 C 31.902344 -32.785156 32.839844 -34.933594 33.855469 -37.148438 C 34.03125 -37.429688 34.132812 -37.71875 34.164062 -38.089844 C 34.210938 -38.605469 33.875 -39.007812 33.359375 -39.054688 C 33.210938 -39.066406 33.054688 -39.007812 32.894531 -38.871094 C 32.492188 -38.535156 32.238281 -38.1875 31.96875 -37.691406 L 30.578125 -34.617188 C 28.609375 -30.101562 26.660156 -25.8125 24.121094 -21.574219 C 20.710938 -15.925781 14.390625 -6.074219 9.945312 -1.339844 C 8.710938 -0.0351562 7.417969 1.113281 5.839844 2.089844 C 5.125 2.621094 4.582031 2.867188 4.210938 2.835938 C 3.769531 2.796875 3.453125 2.171875 3.195312 0.882812 C 2.8125 -1.460938 2.722656 -3.773438 2.710938 -6.15625 C 2.640625 -9.511719 2.941406 -12.835938 3.769531 -16.257812 C 5.207031 -22.308594 6.703125 -28.203125 8.785156 -33.96875 C 9.078125 -34.761719 9.273438 -35.265625 9.125 -36.097656 C 9.160156 -36.464844 8.796875 -36.574219 8.5 -36.601562 C 8.351562 -36.613281 8.199219 -36.554688 8.117188 -36.484375 C 7.851562 -35.988281 7.503906 -35.425781 7.214844 -34.707031 C 5.535156 -30.09375 4.230469 -25.523438 2.914062 -20.800781 C 2.007812 -17.386719 1.195312 -14.109375 1.003906 -11.148438 C 0.683594 -6.785156 0.476562 -1.148438 1.800781 3.140625 C 2.230469 4.144531 2.851562 4.722656 3.738281 4.800781 Z M 3.738281 4.800781 "/></g></g></g><g fill="#78979f" fill-opacity="1"><g transform="translate(127.722009, 205.009111)"><g><path d="M 3.414062 -2.371094 C 5.40625 -2.191406 7.539062 -3.566406 9.054688 -4.695312 C 12.550781 -7.132812 15.425781 -10.148438 18.308594 -13.238281 C 18.550781 -13.441406 18.71875 -13.648438 18.824219 -14.011719 C 18.933594 -14.375 18.886719 -14.675781 18.609375 -14.925781 C 18.476562 -15.085938 18.335938 -15.171875 18.113281 -15.191406 C 17.964844 -15.207031 17.8125 -15.144531 17.730469 -15.078125 C 17.335938 -14.816406 16.9375 -14.554688 16.609375 -14.210938 C 15.960938 -13.601562 15.304688 -12.914062 14.726562 -12.296875 C 14.148438 -11.679688 13.492188 -10.992188 12.84375 -10.382812 C 10.964844 -8.542969 9.039062 -7.003906 6.894531 -5.484375 C 5.949219 -4.898438 5.089844 -4.453125 3.960938 -4.332031 C 3.148438 -4.40625 2.714844 -4.519531 2.566406 -5.351562 C 2.476562 -6.03125 2.464844 -6.699219 2.589844 -7.285156 C 3.34375 -10.714844 4.785156 -14.308594 6.332031 -17.441406 C 6.4375 -17.804688 6.390625 -18.109375 6.035156 -18.289062 C 5.820312 -18.382812 5.679688 -18.46875 5.53125 -18.484375 C 5.382812 -18.496094 5.15625 -18.441406 4.921875 -18.3125 C 2.828125 -16.566406 1.480469 -10.660156 0.671875 -7.457031 C 0.570312 -6.351562 0.503906 -5.613281 0.726562 -4.773438 C 1.117188 -3.324219 2.011719 -2.5 3.414062 -2.371094 Z M 7.027344 -21.027344 C 7.839844 -20.953125 8.644531 -21.625 8.714844 -22.4375 C 8.714844 -23.257812 8.230469 -23.671875 7.347656 -23.753906 C 6.460938 -23.832031 5.976562 -23.429688 5.898438 -22.542969 C 5.890625 -21.652344 6.355469 -21.015625 7.027344 -21.027344 Z M 7.027344 -21.027344 "/></g></g></g><g fill="#78979f" fill-opacity="1"><g transform="translate(141.452811, 206.243694)"><g><path d="M -1.046875 5.859375 C 2.199219 6.152344 4.960938 0.296875 5.460938 -2.785156 C 5.695312 -3.730469 6.285156 -4.496094 7.148438 -5.015625 L 13.667969 -8.820312 C 15.640625 -10.054688 17.601562 -11.144531 19.71875 -12.367188 C 20.269531 -12.691406 20.746094 -13.019531 21 -13.371094 C 21.402344 -13.707031 21.363281 -14.082031 20.953125 -14.492188 C 20.820312 -14.652344 20.675781 -14.738281 20.457031 -14.757812 C 20.234375 -14.777344 20.007812 -14.726562 19.769531 -14.597656 C 19.53125 -14.394531 19.296875 -14.269531 19.066406 -14.214844 L 7.683594 -7.644531 C 7.367188 -7.449219 6.980469 -7.261719 6.515625 -7.082031 C 6.328125 -7.46875 6.199219 -7.703125 6.207031 -7.777344 C 6.226562 -10.457031 6.015625 -13.082031 5.734375 -15.785156 C 5.695312 -16.160156 5.660156 -16.609375 5.695312 -16.980469 C 5.726562 -17.347656 5.769531 -17.792969 5.875 -18.152344 C 6.34375 -20.867188 8.910156 -22.941406 11.640625 -22.695312 C 11.863281 -22.675781 12.011719 -22.664062 12.09375 -22.730469 C 12.628906 -22.90625 12.828125 -23.484375 12.492188 -23.886719 C 11.957031 -24.53125 11.585938 -24.5625 10.773438 -24.636719 C 9.960938 -24.707031 9.203125 -24.554688 8.425781 -24.175781 C 5.675781 -22.5625 3.914062 -20.339844 3.835938 -16.996094 C 3.824219 -16.03125 3.8125 -15.066406 3.945312 -14.085938 C 4.257812 -11.75 4.367188 -9.65625 4.234375 -7.359375 C 4.109375 -5.957031 3.808594 -5.089844 2.621094 -4.304688 C 0.742188 -3.28125 -2.542969 0.144531 -3.09375 2.105469 C -3.425781 3.339844 -3.304688 4.464844 -2.195312 5.386719 C -1.847656 5.640625 -1.417969 5.828125 -1.046875 5.859375 Z M -0.714844 3.804688 C -0.9375 3.785156 -1.003906 3.707031 -1.0625 3.550781 C -1.199219 3.390625 -1.25 3.164062 -1.230469 2.941406 C -1.292969 2.785156 -1.28125 2.640625 -1.1875 2.425781 C -0.28125 0.644531 1.113281 -0.792969 2.925781 -1.894531 C 2.636719 0.460938 1.324219 2.648438 -0.175781 3.632812 C -0.339844 3.765625 -0.492188 3.824219 -0.714844 3.804688 Z M -0.714844 3.804688 "/></g></g></g><g fill="#78979f" fill-opacity="1"><g transform="translate(157.545901, 207.690679)"><g><path d="M 3.414062 -2.371094 C 5.40625 -2.191406 7.539062 -3.566406 9.054688 -4.695312 C 12.550781 -7.132812 15.425781 -10.148438 18.308594 -13.238281 C 18.550781 -13.441406 18.71875 -13.648438 18.824219 -14.011719 C 18.933594 -14.375 18.886719 -14.675781 18.609375 -14.925781 C 18.476562 -15.085938 18.335938 -15.171875 18.113281 -15.191406 C 17.964844 -15.207031 17.8125 -15.144531 17.730469 -15.078125 C 17.335938 -14.816406 16.9375 -14.554688 16.609375 -14.210938 C 15.960938 -13.601562 15.304688 -12.914062 14.726562 -12.296875 C 14.148438 -11.679688 13.492188 -10.992188 12.84375 -10.382812 C 10.964844 -8.542969 9.039062 -7.003906 6.894531 -5.484375 C 5.949219 -4.898438 5.089844 -4.453125 3.960938 -4.332031 C 3.148438 -4.40625 2.714844 -4.519531 2.566406 -5.351562 C 2.476562 -6.03125 2.464844 -6.699219 2.589844 -7.285156 C 3.34375 -10.714844 4.785156 -14.308594 6.332031 -17.441406 C 6.4375 -17.804688 6.390625 -18.109375 6.035156 -18.289062 C 5.820312 -18.382812 5.679688 -18.46875 5.53125 -18.484375 C 5.382812 -18.496094 5.15625 -18.441406 4.921875 -18.3125 C 2.828125 -16.566406 1.480469 -10.660156 0.671875 -7.457031 C 0.570312 -6.351562 0.503906 -5.613281 0.726562 -4.773438 C 1.117188 -3.324219 2.011719 -2.5 3.414062 -2.371094 Z M 7.027344 -21.027344 C 7.839844 -20.953125 8.644531 -21.625 8.714844 -22.4375 C 8.714844 -23.257812 8.230469 -23.671875 7.347656 -23.753906 C 6.460938 -23.832031 5.976562 -23.429688 5.898438 -22.542969 C 5.890625 -21.652344 6.355469 -21.015625 7.027344 -21.027344 Z M 7.027344 -21.027344 "/></g></g></g><g fill="#78979f" fill-opacity="1"><g transform="translate(171.276703, 208.925262)"><g><path d="M 3.433594 -3.414062 C 4.097656 -3.351562 4.855469 -3.507812 5.554688 -3.816406 C 6.574219 -4.394531 7.382812 -5.140625 8 -6.203125 C 8.792969 -7.546875 9.066406 -8.933594 8.894531 -10.363281 C 8.789062 -11.640625 8.714844 -11.648438 10.136719 -11.742188 C 11.699219 -11.75 13.136719 -11.992188 14.585938 -12.382812 C 15.960938 -12.78125 17.402344 -13.097656 18.851562 -13.488281 C 19.539062 -13.652344 19.726562 -14.082031 19.550781 -14.617188 C 19.363281 -15.007812 19.011719 -15.261719 18.644531 -15.292969 L 17.433594 -15.105469 C 16.75 -14.941406 16.058594 -14.707031 15.375 -14.546875 C 14.691406 -14.382812 13.925781 -14.15625 13.242188 -13.992188 C 11.800781 -13.675781 10.449219 -13.574219 9.046875 -13.699219 L 6.757812 -13.90625 C 6.234375 -13.878906 5.746094 -13.402344 5.921875 -12.867188 C 6.09375 -12.328125 6.277344 -11.867188 6.527344 -11.320312 C 7.480469 -9.523438 6.972656 -8.007812 5.871094 -6.542969 C 5.101562 -5.421875 4.351562 -5.339844 3.167969 -5.445312 C 2.230469 -5.753906 1.792969 -6.6875 1.917969 -8.089844 C 1.992188 -8.902344 2.132812 -9.632812 2.40625 -10.203125 C 2.8125 -11.433594 3.445312 -12.640625 4.222656 -13.835938 C 5.144531 -15.019531 5.921875 -16.214844 7.648438 -16.355469 C 8.171875 -16.382812 8.207031 -16.753906 8.179688 -17.277344 C 8.136719 -17.652344 7.941406 -17.96875 7.433594 -18.089844 C 7.0625 -18.121094 6.761719 -18.074219 6.453125 -17.953125 C 3.472656 -17.105469 0.539062 -11.785156 0.046875 -8.777344 C -0.0820312 -8.195312 -0.0664062 -7.523438 0.0195312 -6.847656 C 0.210938 -4.820312 1.660156 -3.570312 3.433594 -3.414062 Z M 3.433594 -3.414062 "/></g></g></g><g fill="#78979f" fill-opacity="1"><g transform="translate(185.745726, 210.226221)"><g><path d="M -0.304688 -0.773438 C -0.0078125 -0.746094 0.21875 -0.800781 0.457031 -0.925781 C 0.933594 -1.257812 1.335938 -1.59375 1.601562 -2.089844 C 1.863281 -2.511719 2.125 -2.933594 2.386719 -3.359375 C 5.09375 -7.804688 8.296875 -11.980469 12.449219 -15.105469 C 12.609375 -15.242188 12.765625 -15.300781 12.984375 -15.28125 C 13.207031 -15.261719 13.410156 -15.019531 13.449219 -14.644531 C 13.457031 -13.898438 13.539062 -13.148438 13.550781 -12.476562 C 13.558594 -11.730469 13.566406 -10.988281 13.574219 -10.242188 C 13.570312 -9.347656 13.710938 -8.441406 14.140625 -7.4375 C 14.636719 -6.351562 15.402344 -5.761719 16.363281 -5.675781 C 16.4375 -5.667969 16.585938 -5.652344 16.738281 -5.714844 C 16.8125 -5.707031 16.960938 -5.695312 17.035156 -5.6875 C 18.164062 -5.808594 19.167969 -6.242188 20.128906 -6.972656 C 21.007812 -7.636719 25.714844 -11.160156 26.601562 -11.898438 C 26.921875 -12.167969 27.175781 -12.515625 27.355469 -12.875 C 27.539062 -13.230469 27.496094 -13.605469 27.15625 -13.933594 C 27.019531 -14.09375 26.878906 -14.179688 26.65625 -14.203125 C 26.4375 -14.222656 26.28125 -14.160156 26.121094 -14.027344 C 25.96875 -13.964844 25.800781 -13.757812 25.558594 -13.554688 C 25.316406 -13.355469 24.753906 -12.882812 23.882812 -12.292969 C 23.164062 -11.761719 22.445312 -11.230469 21.800781 -10.691406 C 21.078125 -10.089844 20.433594 -9.550781 19.714844 -9.019531 C 18.84375 -8.429688 18.054688 -7.902344 17.140625 -7.6875 C 17.066406 -7.695312 16.992188 -7.703125 16.992188 -7.703125 C 16.914062 -7.632812 16.839844 -7.640625 16.765625 -7.648438 C 16.320312 -7.6875 16.046875 -7.9375 15.933594 -8.316406 C 15.621094 -9.015625 15.46875 -9.773438 15.472656 -10.667969 C 15.453125 -11.265625 15.433594 -11.859375 15.484375 -12.453125 C 15.464844 -13.050781 15.445312 -13.648438 15.429688 -14.316406 C 15.320312 -15.59375 15.257812 -17.386719 13.558594 -17.539062 C 10.679688 -17.796875 4.230469 -9.816406 2.75 -7.417969 C 2.574219 -7.957031 2.542969 -8.40625 2.804688 -8.828125 C 2.992188 -9.257812 3.179688 -9.6875 3.367188 -10.117188 C 4.269531 -11.898438 5.179688 -13.75 6.09375 -15.605469 C 6.921875 -17.390625 7.832031 -19.242188 8.738281 -21.023438 L 9.261719 -21.867188 C 9.527344 -22.367188 9.496094 -22.816406 9.003906 -23.15625 C 8.789062 -23.25 8.648438 -23.339844 8.574219 -23.34375 C 7.761719 -23.417969 6.917969 -21.484375 6.414062 -20.859375 C 5.585938 -19.074219 4.679688 -17.292969 3.851562 -15.507812 C 3.019531 -13.722656 2.117188 -11.941406 1.285156 -10.15625 C 0.253906 -7.792969 -0.703125 -5.421875 -1.230469 -2.863281 C -1.269531 -2.421875 -1.296875 -2.125 -1.242188 -1.898438 C -1.230469 -1.226562 -0.894531 -0.824219 -0.304688 -0.773438 Z M -0.304688 -0.773438 "/></g></g></g><g fill="#78979f" fill-opacity="1"><g transform="translate(208.113645, 212.237396)"><g><path d="M 0.941406 -6.316406 C 1.898438 -6.230469 3.25 -7.152344 3.964844 -7.683594 C 5.964844 -9.214844 7.746094 -10.839844 9.625 -12.679688 C 9.867188 -12.882812 10.1875 -13.152344 10.4375 -13.425781 C 10.683594 -13.703125 11.074219 -13.890625 11.609375 -14.066406 C 10.914062 -12.117188 10.300781 -10.238281 10.121094 -8.246094 C 9.992188 -6.84375 10.519531 -6.050781 11.773438 -5.9375 C 12.070312 -5.910156 12.289062 -5.890625 12.445312 -5.953125 C 15.589844 -6.191406 21.277344 -10.664062 23.613281 -12.613281 C 23.691406 -12.679688 23.855469 -12.816406 23.933594 -12.882812 C 24.015625 -12.949219 24.023438 -13.023438 24.101562 -13.089844 C 24.296875 -13.59375 24.253906 -13.972656 23.90625 -14.226562 C 23.773438 -14.386719 23.628906 -14.472656 23.410156 -14.492188 C 23.335938 -14.5 23.253906 -14.433594 23.027344 -14.378906 C 22.792969 -14.25 22.558594 -14.125 22.394531 -13.988281 C 22.15625 -13.789062 21.921875 -13.660156 21.679688 -13.457031 C 20.96875 -13 20.332031 -12.539062 19.765625 -12.066406 C 19.128906 -11.601562 18.488281 -11.066406 17.773438 -10.609375 C 16.816406 -9.875 15.804688 -9.371094 14.863281 -8.859375 C 14.167969 -8.550781 13.476562 -8.316406 12.785156 -8.078125 C 12.703125 -8.011719 12.628906 -8.019531 12.480469 -8.03125 C 12.1875 -8.058594 12.058594 -8.292969 12.097656 -8.738281 C 12.382812 -11.910156 15.15625 -17.097656 16.8125 -19.777344 C 16.992188 -20.132812 17.167969 -20.414062 17.421875 -20.761719 C 17.597656 -21.046875 17.769531 -21.328125 17.953125 -21.683594 C 18.234375 -22.328125 18.207031 -22.851562 17.714844 -23.191406 C 17.5 -23.285156 17.359375 -23.375 17.285156 -23.378906 C 17.066406 -23.398438 16.757812 -23.277344 16.355469 -22.941406 C 16.113281 -22.742188 15.9375 -22.460938 15.769531 -22.25 C 15.523438 -21.976562 15.347656 -21.695312 15.105469 -21.492188 C 14.609375 -20.941406 14.113281 -20.390625 13.691406 -19.832031 C 13.195312 -19.28125 12.699219 -18.730469 12.210938 -18.253906 C 11.882812 -17.910156 11.640625 -17.710938 11.492188 -17.722656 C 11.417969 -17.730469 11.210938 -17.898438 10.863281 -18.152344 C 10.175781 -18.808594 9.464844 -19.171875 8.726562 -19.238281 C 7.914062 -19.308594 7.074219 -19.089844 6.203125 -18.496094 C 5.652344 -18.175781 5.257812 -17.910156 5.007812 -17.636719 C 2.59375 -15.621094 -0.234375 -11.484375 -0.523438 -8.234375 C -0.558594 -7.046875 -0.0195312 -6.402344 0.941406 -6.316406 Z M 1.84375 -8.914062 C 1.851562 -8.988281 1.851562 -8.988281 1.777344 -8.996094 L 1.710938 -9.074219 C 2.585938 -12.199219 4.300781 -14.722656 6.769531 -16.511719 C 7.171875 -16.847656 8.105469 -17.285156 8.621094 -17.238281 C 8.988281 -17.203125 9.273438 -17.03125 9.621094 -16.773438 C 9.96875 -16.519531 10.011719 -16.144531 9.824219 -15.714844 C 9.730469 -15.5 9.574219 -15.441406 9.496094 -15.371094 C 7.28125 -13.113281 5.070312 -10.859375 2.527344 -9.078125 C 2.367188 -8.941406 2.140625 -8.886719 1.84375 -8.914062 Z M 1.84375 -8.914062 "/></g></g></g><g fill="#78979f" fill-opacity="1"><g transform="translate(227.233405, 213.956519)"><g><path d="M -0.335938 1.234375 C 0.109375 1.273438 0.496094 1.085938 0.753906 0.738281 C 1.34375 -0.0273438 1.84375 -0.652344 2.289062 -1.433594 C 3.066406 -2.628906 3.761719 -3.753906 4.457031 -4.882812 C 5.082031 -6.019531 5.777344 -7.148438 6.476562 -8.273438 C 7.515625 -9.894531 8.695312 -11.425781 10.222656 -12.703125 C 10.550781 -13.042969 10.878906 -13.386719 11.542969 -13.328125 C 11.738281 -13.011719 11.859375 -12.703125 11.980469 -12.394531 C 12.101562 -12.085938 12.296875 -11.769531 12.492188 -11.457031 C 13.203125 -10.273438 14.117188 -9.671875 15.375 -9.558594 C 17.441406 -9.375 20.761719 -11.53125 22.289062 -12.808594 C 22.53125 -13.007812 22.78125 -13.285156 23.039062 -13.707031 C 23.214844 -13.988281 23.167969 -14.292969 22.898438 -14.613281 C 22.691406 -14.78125 22.550781 -14.867188 22.328125 -14.886719 C 22.179688 -14.902344 22.105469 -14.910156 22.027344 -14.839844 C 21.636719 -14.652344 21.320312 -14.457031 21 -14.1875 C 19.652344 -13.269531 16.875 -11.359375 15.546875 -11.480469 C 14.882812 -11.539062 14.332031 -12.035156 13.894531 -12.96875 C 13.765625 -13.203125 13.644531 -13.511719 13.605469 -13.886719 C 13.484375 -14.195312 13.363281 -14.503906 13.234375 -14.738281 C 12.917969 -15.363281 12.5 -15.699219 11.910156 -15.75 C 11.617188 -15.777344 11.3125 -15.730469 11.003906 -15.609375 C 8.589844 -14.410156 6.59375 -12.0625 5.207031 -9.878906 L 1.800781 -4.304688 L 1.734375 -4.382812 L 1.808594 -4.378906 C 1.511719 -5.222656 1.800781 -5.941406 2.09375 -6.734375 C 2.882812 -8.894531 3.902344 -11.113281 5.066406 -13.3125 C 5.863281 -14.730469 6.664062 -16.148438 7.386719 -17.570312 C 7.660156 -18.140625 7.855469 -18.644531 7.902344 -19.164062 C 8.007812 -19.523438 7.878906 -19.761719 7.449219 -19.949219 L 7.230469 -19.96875 C 6.933594 -19.992188 6.707031 -19.941406 6.542969 -19.804688 C 6.296875 -19.53125 6.117188 -19.175781 5.859375 -18.824219 C 2.746094 -13.152344 0.238281 -8.464844 -1.3125 -1.980469 C -1.417969 -1.617188 -1.445312 -1.320312 -1.472656 -1.027344 C -1.429688 -0.648438 -1.457031 -0.355469 -1.484375 -0.0585938 C -1.460938 0.539062 -1.199219 0.933594 -0.695312 1.128906 C -0.625 1.136719 -0.550781 1.140625 -0.554688 1.214844 C -0.480469 1.222656 -0.40625 1.230469 -0.335938 1.234375 Z M -0.335938 1.234375 "/></g></g></g><g fill="#78979f" fill-opacity="1"><g transform="translate(245.24586, 215.57608)"><g><path d="M 8.652344 15.515625 C 11.679688 15.789062 14.375 6.503906 15.070312 3.738281 C 15.519531 2.066406 16.402344 0.507812 17.636719 -0.796875 C 20.867188 -4.449219 24.167969 -8.023438 27.667969 -11.355469 C 28.246094 -11.972656 28.8125 -12.519531 29.316406 -13.144531 C 29.570312 -13.492188 29.523438 -13.792969 29.1875 -14.195312 C 29.054688 -14.359375 28.914062 -14.445312 28.691406 -14.464844 C 28.542969 -14.476562 28.316406 -14.425781 28.082031 -14.296875 C 27.765625 -14.101562 27.445312 -13.832031 27.195312 -13.558594 C 25.492188 -12 23.929688 -10.351562 22.375 -8.78125 C 20.8125 -7.136719 19.25 -5.488281 17.6875 -3.84375 C 17.472656 -3.9375 17.332031 -4.023438 17.183594 -4.039062 L 18.011719 -8.28125 C 18.398438 -10.105469 18.867188 -12 19.261719 -13.898438 C 19.648438 -15.726562 20.042969 -17.625 20.429688 -19.449219 C 20.765625 -20.6875 20.605469 -21.371094 19.953125 -21.578125 C 19.878906 -21.585938 19.878906 -21.585938 19.8125 -21.664062 C 19.738281 -21.671875 19.738281 -21.671875 19.664062 -21.679688 C 19.292969 -21.710938 19.058594 -21.582031 18.820312 -21.382812 C 18.578125 -21.179688 18.328125 -20.90625 18.085938 -20.703125 C 17.351562 -19.949219 16.605469 -19.125 15.867188 -18.371094 C 15.125 -17.546875 14.304688 -16.726562 13.570312 -15.972656 C 11.839844 -14.121094 10.054688 -12.492188 8.082031 -11.257812 C 7.695312 -11.070312 7.296875 -10.804688 6.910156 -10.617188 C 6.519531 -10.429688 6.125 -10.167969 5.734375 -9.980469 C 5.425781 -9.859375 5.199219 -9.804688 4.976562 -9.824219 C 4.460938 -9.871094 4.273438 -10.257812 4.40625 -10.917969 C 4.476562 -11.730469 4.542969 -12.46875 4.839844 -13.261719 C 5.5625 -15.503906 6.199219 -17.605469 7.765625 -19.324219 C 8.183594 -19.808594 8.082031 -20.335938 7.730469 -20.59375 C 7.441406 -20.691406 7.300781 -20.78125 7.226562 -20.785156 C 6.933594 -20.8125 6.625 -20.691406 6.382812 -20.488281 C 4.007812 -18.097656 2.769531 -14.265625 2.480469 -11.015625 C 2.320312 -9.246094 2.722656 -7.941406 4.71875 -7.761719 C 5.316406 -7.785156 5.917969 -7.878906 6.542969 -8.195312 C 9.984375 -10.042969 12.800781 -12.394531 15.507812 -15.203125 L 17.226562 -16.910156 C 17.386719 -17.042969 17.535156 -17.03125 17.675781 -16.945312 C 17.824219 -16.929688 17.890625 -16.851562 17.871094 -16.628906 C 17.835938 -16.261719 17.816406 -16.039062 17.730469 -15.898438 L 16.59375 -10.714844 C 16.21875 -9.035156 15.851562 -7.433594 15.484375 -5.828125 C 15.117188 -4.222656 14.824219 -2.613281 14.457031 -1.007812 C 14.136719 0.078125 13.773438 0.792969 13.183594 1.558594 C 10.832031 4.546875 8.707031 7.480469 7.207031 10.917969 C 6.667969 11.914062 6.644531 13.027344 7.203125 14.269531 C 7.503906 15.039062 7.988281 15.457031 8.652344 15.515625 Z M 9.199219 12.734375 C 9.128906 12.730469 9.054688 12.722656 8.984375 12.640625 C 8.636719 12.386719 8.757812 11.878906 9.011719 11.527344 L 10.097656 9.394531 C 10.539062 8.613281 10.976562 7.910156 11.335938 7.195312 C 11.585938 7.742188 11.53125 8.332031 11.25 8.976562 L 9.859375 12.050781 C 9.769531 12.191406 9.683594 12.332031 9.589844 12.546875 C 9.503906 12.6875 9.421875 12.757812 9.199219 12.734375 Z M 9.199219 12.734375 "/></g></g></g><g fill="#e8c8cb" fill-opacity="1"><g transform="translate(97.079171, 175.938707)"><g><path d="M 5.125 -42.25 L 20.234375 -5.171875 L 35.296875 -42.25 L 39.640625 -42.25 L 22.015625 0 L 18.390625 0 L 0.78125 -42.25 Z M 5.125 -42.25 "/></g></g></g><g fill="#e8c8cb" fill-opacity="1"><g transform="translate(137.484826, 175.938707)"><g><path d="M 4.46875 0 L 4.46875 -31 L 8.515625 -31 L 8.515625 0 Z M 4.46875 -37.5 L 4.46875 -43.453125 L 8.515625 -43.453125 L 8.515625 -37.5 Z M 4.46875 -37.5 "/></g></g></g><g fill="#e8c8cb" fill-opacity="1"><g transform="translate(150.457491, 175.938707)"><g><path d="M 14.765625 0.59375 C 12.335938 0.59375 9.972656 0.195312 7.671875 -0.59375 C 5.367188 -1.382812 3.382812 -2.535156 1.71875 -4.046875 L 3.578125 -6.78125 C 5.316406 -5.351562 7.085938 -4.28125 8.890625 -3.5625 C 10.703125 -2.851562 12.640625 -2.5 14.703125 -2.5 C 17.203125 -2.5 19.191406 -3.003906 20.671875 -4.015625 C 22.160156 -5.023438 22.90625 -6.460938 22.90625 -8.328125 C 22.90625 -9.203125 22.707031 -9.925781 22.3125 -10.5 C 21.914062 -11.082031 21.332031 -11.585938 20.5625 -12.015625 C 19.789062 -12.453125 18.816406 -12.835938 17.640625 -13.171875 C 16.472656 -13.515625 15.113281 -13.863281 13.5625 -14.21875 C 11.78125 -14.65625 10.234375 -15.09375 8.921875 -15.53125 C 7.617188 -15.96875 6.539062 -16.460938 5.6875 -17.015625 C 4.832031 -17.578125 4.195312 -18.265625 3.78125 -19.078125 C 3.363281 -19.890625 3.15625 -20.910156 3.15625 -22.140625 C 3.15625 -23.691406 3.460938 -25.0625 4.078125 -26.25 C 4.691406 -27.4375 5.523438 -28.414062 6.578125 -29.1875 C 7.628906 -29.96875 8.859375 -30.554688 10.265625 -30.953125 C 11.671875 -31.347656 13.171875 -31.546875 14.765625 -31.546875 C 17.140625 -31.546875 19.296875 -31.15625 21.234375 -30.375 C 23.179688 -29.601562 24.753906 -28.582031 25.953125 -27.3125 L 23.984375 -24.9375 C 22.835938 -26.125 21.4375 -27.015625 19.78125 -27.609375 C 18.132812 -28.210938 16.421875 -28.515625 14.640625 -28.515625 C 13.566406 -28.515625 12.570312 -28.40625 11.65625 -28.1875 C 10.75 -27.96875 9.945312 -27.617188 9.25 -27.140625 C 8.5625 -26.660156 8.015625 -26.050781 7.609375 -25.3125 C 7.210938 -24.582031 7.015625 -23.722656 7.015625 -22.734375 C 7.015625 -21.898438 7.15625 -21.222656 7.4375 -20.703125 C 7.71875 -20.191406 8.175781 -19.75 8.8125 -19.375 C 9.445312 -19 10.25 -18.660156 11.21875 -18.359375 C 12.1875 -18.066406 13.367188 -17.757812 14.765625 -17.4375 C 16.742188 -16.957031 18.488281 -16.476562 20 -16 C 21.507812 -15.53125 22.769531 -14.976562 23.78125 -14.34375 C 24.789062 -13.707031 25.550781 -12.929688 26.0625 -12.015625 C 26.582031 -11.109375 26.84375 -10 26.84375 -8.6875 C 26.84375 -5.832031 25.75 -3.570312 23.5625 -1.90625 C 21.382812 -0.238281 18.453125 0.59375 14.765625 0.59375 Z M 14.765625 0.59375 "/></g></g></g><g fill="#e8c8cb" fill-opacity="1"><g transform="translate(179.437689, 175.938707)"><g><path d="M 14.171875 0.59375 C 10.796875 0.59375 8.285156 -0.523438 6.640625 -2.765625 C 4.992188 -5.003906 4.171875 -8.347656 4.171875 -12.796875 L 4.171875 -31 L 8.21875 -31 L 8.21875 -13.515625 C 8.21875 -6.484375 10.617188 -2.96875 15.421875 -2.96875 C 16.609375 -2.96875 17.773438 -3.164062 18.921875 -3.5625 C 20.078125 -3.96875 21.140625 -4.546875 22.109375 -5.296875 C 23.078125 -6.046875 23.945312 -6.9375 24.71875 -7.96875 C 25.5 -9 26.128906 -10.171875 26.609375 -11.484375 L 26.609375 -31 L 30.65625 -31 L 30.65625 -5.234375 C 30.65625 -4.128906 31.128906 -3.578125 32.078125 -3.578125 L 32.078125 0 C 31.597656 0.0820312 31.207031 0.125 30.90625 0.125 C 30.613281 0.125 30.410156 0.125 30.296875 0.125 C 29.335938 0.0820312 28.5625 -0.253906 27.96875 -0.890625 C 27.375 -1.523438 27.078125 -2.378906 27.078125 -3.453125 L 27.078125 -7.015625 C 25.734375 -4.597656 23.898438 -2.722656 21.578125 -1.390625 C 19.253906 -0.0664062 16.785156 0.59375 14.171875 0.59375 Z M 14.171875 0.59375 "/></g></g></g><g fill="#e8c8cb" fill-opacity="1"><g transform="translate(214.785203, 175.938707)"><g><path d="M 12.265625 0.59375 C 10.796875 0.59375 9.4375 0.347656 8.1875 -0.140625 C 6.9375 -0.640625 5.84375 -1.328125 4.90625 -2.203125 C 3.976562 -3.078125 3.253906 -4.097656 2.734375 -5.265625 C 2.222656 -6.429688 1.96875 -7.691406 1.96875 -9.046875 C 1.96875 -10.390625 2.285156 -11.632812 2.921875 -12.78125 C 3.554688 -13.9375 4.445312 -14.929688 5.59375 -15.765625 C 6.75 -16.597656 8.117188 -17.242188 9.703125 -17.703125 C 11.285156 -18.160156 13.03125 -18.390625 14.9375 -18.390625 C 16.519531 -18.390625 18.125 -18.25 19.75 -17.96875 C 21.382812 -17.695312 22.835938 -17.300781 24.109375 -16.78125 L 24.109375 -19.578125 C 24.109375 -22.316406 23.332031 -24.488281 21.78125 -26.09375 C 20.238281 -27.707031 18.097656 -28.515625 15.359375 -28.515625 C 13.765625 -28.515625 12.132812 -28.195312 10.46875 -27.5625 C 8.800781 -26.925781 7.117188 -26.007812 5.421875 -24.8125 L 3.984375 -27.5 C 7.992188 -30.195312 11.882812 -31.546875 15.65625 -31.546875 C 19.539062 -31.546875 22.59375 -30.453125 24.8125 -28.265625 C 27.039062 -26.085938 28.15625 -23.070312 28.15625 -19.21875 L 28.15625 -5.234375 C 28.15625 -4.128906 28.648438 -3.578125 29.640625 -3.578125 L 29.640625 0 C 28.960938 0.113281 28.445312 0.171875 28.09375 0.171875 C 27.0625 0.171875 26.253906 -0.0820312 25.671875 -0.59375 C 25.097656 -1.113281 24.796875 -1.828125 24.765625 -2.734375 L 24.640625 -5.171875 C 23.210938 -3.304688 21.414062 -1.878906 19.25 -0.890625 C 17.09375 0.0976562 14.765625 0.59375 12.265625 0.59375 Z M 13.21875 -2.5 C 15.3125 -2.5 17.238281 -2.894531 19 -3.6875 C 20.769531 -4.476562 22.113281 -5.53125 23.03125 -6.84375 C 23.382812 -7.195312 23.648438 -7.582031 23.828125 -8 C 24.015625 -8.414062 24.109375 -8.804688 24.109375 -9.171875 L 24.109375 -14.21875 C 22.753906 -14.738281 21.351562 -15.132812 19.90625 -15.40625 C 18.457031 -15.6875 16.976562 -15.828125 15.46875 -15.828125 C 12.613281 -15.828125 10.289062 -15.234375 8.5 -14.046875 C 6.71875 -12.859375 5.828125 -11.289062 5.828125 -9.34375 C 5.828125 -8.394531 6.015625 -7.503906 6.390625 -6.671875 C 6.773438 -5.835938 7.289062 -5.113281 7.9375 -4.5 C 8.59375 -3.882812 9.378906 -3.394531 10.296875 -3.03125 C 11.210938 -2.675781 12.1875 -2.5 13.21875 -2.5 Z M 13.21875 -2.5 "/></g></g></g><g fill="#e8c8cb" fill-opacity="1"><g transform="translate(247.216839, 175.938707)"><g><path d="M 4.640625 -43.453125 L 8.6875 -43.453125 L 8.6875 -7.015625 C 8.6875 -5.867188 9.003906 -4.96875 9.640625 -4.3125 C 10.273438 -3.65625 11.164062 -3.328125 12.3125 -3.328125 C 12.75 -3.328125 13.265625 -3.382812 13.859375 -3.5 C 14.460938 -3.625 15.019531 -3.785156 15.53125 -3.984375 L 16.25 -0.71875 C 15.488281 -0.394531 14.5625 -0.132812 13.46875 0.0625 C 12.382812 0.257812 11.445312 0.359375 10.65625 0.359375 C 8.789062 0.359375 7.320312 -0.164062 6.25 -1.21875 C 5.175781 -2.269531 4.640625 -3.75 4.640625 -5.65625 Z M 4.640625 -43.453125 "/></g></g></g></svg>