<svg xmlns="http://www.w3.org/2000/svg" xmlns:xlink="http://www.w3.org/1999/xlink" width="96" zoomAndPan="magnify" viewBox="0 0 72 72" height="96" preserveAspectRatio="xMidYMid meet" version="1.0"><defs><clipPath id="5701d152c1"><path d="M 52 1 L 71.398438 1 L 71.398438 71 L 52 71 Z M 52 1 " clip-rule="nonzero"/></clipPath></defs><g clip-path="url(#5701d152c1)"><path fill="#34616d" d="M 71.398438 13.492188 L 71.398438 58.507812 C 71.398438 60.726562 70.015625 62.699219 67.925781 63.433594 L 52.460938 70.660156 L 53.863281 51.714844 L 53.863281 20.285156 L 52.460938 1.339844 L 67.925781 8.566406 C 70.015625 9.300781 71.398438 11.273438 71.398438 13.492188 Z M 71.398438 13.492188 " fill-opacity="1" fill-rule="nonzero"/></g><path fill="#34616d" d="M 10.019531 53.28125 L 53.863281 20.285156 L 53.863281 3.441406 C 53.863281 1.347656 51.261719 0.371094 49.871094 1.9375 L 2.40625 45.148438 C 0.828125 46.597656 0.914062 49.105469 2.59375 50.441406 C 2.59375 50.441406 4.914062 52.59375 5.753906 53.191406 C 7.046875 54.109375 8.742188 54.210938 10.019531 53.28125 Z M 10.019531 53.28125 " fill-opacity="1" fill-rule="nonzero"/><path fill="#34616d" d="M 10.019531 18.71875 L 53.863281 51.714844 L 53.863281 68.558594 C 53.863281 70.652344 51.261719 71.628906 49.871094 70.0625 L 2.40625 26.851562 C 0.828125 25.402344 0.914062 22.894531 2.59375 21.558594 C 2.59375 21.558594 4.914062 19.40625 5.753906 18.808594 C 7.046875 17.890625 8.742188 17.789062 10.019531 18.71875 Z M 10.019531 18.71875 " fill-opacity="1" fill-rule="nonzero"/></svg>