<svg xmlns="http://www.w3.org/2000/svg" xmlns:xlink="http://www.w3.org/1999/xlink" width="96" zoomAndPan="magnify" viewBox="0 0 72 72" height="96" preserveAspectRatio="xMidYMid meet" version="1.0"><path fill="#34616d" d="M 48.925781 32.925781 C 47.703125 32.925781 46.816406 33.417969 46.253906 34.398438 C 45.6875 35.382812 45.40625 37.136719 45.40625 39.652344 L 45.40625 41.40625 C 45.40625 43.90625 45.671875 45.65625 46.203125 46.648438 C 46.734375 47.640625 47.632812 48.136719 48.898438 48.136719 C 50.210938 48.136719 51.203125 47.550781 51.875 46.378906 L 51.875 34.800781 C 51.222656 33.550781 50.238281 32.925781 48.925781 32.925781 Z M 64 0 L 8 0 C 3.585938 0 0 3.578125 0 8 L 0 64 C 0 68.421875 3.585938 72 8 72 L 64 72 C 68.414062 72 72 68.421875 72 64 L 72 8 C 72 3.578125 68.414062 0 64 0 Z M 29.097656 53.199219 L 24.40625 41.273438 L 19.746094 53.199219 L 11.753906 53.199219 L 19.957031 35.996094 L 11.914062 19.074219 L 19.816406 19.074219 L 24.40625 30.796875 L 29 19.074219 L 36.898438 19.074219 L 28.882812 35.996094 L 37.089844 53.199219 Z M 58.558594 53.199219 L 52.535156 53.199219 L 52.230469 50.621094 C 50.871094 52.652344 49.125 53.667969 46.980469 53.667969 C 44.324219 53.667969 42.296875 52.652344 40.894531 50.621094 C 39.496094 48.589844 38.785156 45.605469 38.753906 41.667969 L 38.753906 39.746094 C 38.753906 35.59375 39.457031 32.492188 40.859375 30.445312 C 42.265625 28.394531 44.3125 27.371094 47 27.371094 C 48.953125 27.371094 50.578125 28.214844 51.875 29.902344 L 51.875 17.199219 L 58.554688 17.199219 L 58.554688 53.199219 Z M 58.558594 53.199219 " fill-opacity="1" fill-rule="nonzero"/></svg>